<?xml version="1.0" encoding="utf-8" ?><svg xmlns="http://www.w3.org/2000/svg" xmlns:xlink="http://www.w3.org/1999/xlink" width="1024" height="1024" viewBox="0 0 1024 1024"><path transform="scale(2 2)" d="M330.456 71.3117C343.308 70.2214 348.255 79.2849 343.906 90.5444C338.693 104.042 325.514 119.423 318.528 133.357C338.583 130.843 347.688 151.293 333.567 163.848C324.679 171.752 308.182 171.192 296.842 170.505C291.416 176.402 286.852 183.303 281.127 189.394C300.848 191.215 322.48 194.143 342.062 196.984L357.932 199.371C363.065 200.145 367.593 200.716 372.615 202.089C378.007 189.84 396.466 173.034 408.136 164.476C411.959 157.159 416.815 132.255 429.819 135.776C452.276 141.857 424.81 193.335 419.672 210.109C428.792 212.199 458.079 213.061 461.574 222.372C466.5 235.491 438.406 241.909 429.485 245.745C429.699 258.908 427.511 288.786 424.483 302.067C422.105 312.496 412.042 322.616 402.14 312.549C394.098 304.906 393.656 293.167 388.299 284.036C383.528 276.935 377.823 270.884 373.739 263.257C330.641 272.928 286.273 274.54 242.441 280.546C251.95 301.158 254.857 309.755 258.307 332.699C258.555 334.345 258.991 335.918 259.473 337.506C273.914 328.586 284.933 316.958 300.424 326.338C309.8 337.47 316.541 350.785 303.633 362.493C294.719 370.578 284.392 380.085 272.072 381.96C255.908 384.42 261.153 375.923 259.327 397.36C258.288 409.554 256.55 455.361 235.899 449.238C213.529 442.606 199.922 394.879 188.824 374.252C186.134 374.831 182.574 376.288 179.976 377.306C169.186 381.532 147.077 384.188 139.241 373.252C126.503 355.471 154.73 332.898 168.31 322.64C165.321 311.236 158.126 297.133 154.236 285.123C152.787 285.192 149.878 284.81 148.396 284.611C122.149 281.09 92.6125 278.039 69.459 264.486C15.8894 233.13 90.2182 184.031 122.787 177.303C149.816 171.72 177.252 180.487 203.76 180.773C210.773 173.664 218.346 166.842 225.201 159.647C244.507 139.384 301.939 76.1526 330.456 71.3117ZM70.6101 214.511C22.9906 263.466 121.671 275.308 151.809 278.115C150.875 272.814 148.22 262.279 151.632 258.111C156.886 251.694 172.747 246.309 180.643 245.026C203.112 241.374 225.526 257.872 238.562 274.836C241.677 273.713 251.757 272.757 255.527 272.263C275.513 269.642 295.977 267.408 316.064 265.437C335.866 263.597 352.267 259.813 371.113 257.029C370.647 254.155 368.949 243.841 374.997 246.542C376.036 247.006 377.017 253.896 377.664 255.673C394.602 252.191 407.073 246.685 422.75 240.239C422.57 233.509 427.104 231.388 429.485 238.012C437.156 235.792 450.732 231.406 455.708 225.241C451.537 221.363 443.263 220.821 437.726 219.886L417.046 216.276C358.861 206.046 303.363 198.392 244.444 192.283L221.047 190.015C196.298 187.368 164.582 181.911 140.018 182.485L140.173 182.816C141.217 184.987 143.026 187.046 143.937 189.455C154.369 217.03 126.351 242.014 99.6169 232.677C88.0342 228.691 80.7761 220.77 70.6101 214.511ZM422.75 248.258C410.913 252.248 400.826 256.991 388.492 260.334C386.136 260.973 382.79 261.503 380.664 262.175C388.481 274.321 394.614 278.739 399.252 292.942C401.462 299.921 410.871 320.688 416.92 304.12C420.675 293.837 422.376 261.242 422.997 248.739L422.75 248.258ZM416.625 159.19C420.27 157.493 426.386 155.584 425.22 160.997C424.841 162.758 408.168 173.039 405.836 175.118C400.576 179.81 382.774 196.186 380.664 202.089C390.03 205.364 403.577 205.153 412.777 209.335C415.672 200.573 440.826 146.322 428.346 142.239C422.592 144.873 419.102 153.625 416.625 159.19ZM186.669 367.459C184.754 363.146 171.7 330.151 170.742 329.221C162.455 336.02 151.124 344.97 145.643 354.234C138.041 367.083 145.386 374.402 159.062 374.252C171.698 374.333 176.029 370.824 186.669 367.459ZM314.25 141.34C310.026 147.589 304.48 157.655 300.424 164.476C304.76 164.513 309.947 164.245 314.25 163.76C338.812 162.211 338.894 138.362 320.713 139.836C318.539 140.223 316.348 140.632 314.25 141.34ZM75.9301 209.335C78.2148 211.629 88.4589 218.806 91.5751 220.991C126.651 243.275 152.433 205.098 131.999 183.364C131.914 183.32 131.83 183.276 131.745 183.232L131.164 183.433C117.453 183.317 86.8912 199.093 75.9301 209.335ZM260.273 375.049C265.496 376.234 268.396 375.955 273.723 375.049C282.742 371.304 288.126 367.339 295.499 361.093C315.226 344.382 293.8 327.586 289.434 329.221C281.446 330.987 267.386 340.655 259.473 344.972C260.571 352.6 260.282 367.202 260.273 375.049ZM331.936 78.0877C303.99 82.0978 246.151 149.352 221.315 173.223C218.504 175.925 214.239 179.607 211.868 182.485C216.235 182.702 220.334 183.032 224.689 183.433C240.514 185.046 258.009 187.627 273.723 188.307C275.411 185.066 279.167 182.018 281.583 179.143C296.191 161.759 306.164 141.026 317.611 121.551C322.365 113.463 347.045 84.3291 335.41 78.0877C334.192 78.0377 333.151 77.9528 331.936 78.0877ZM197.712 377.721C203.379 391.762 209.966 406.047 217.073 419.398C223.944 431.464 240.596 458.665 247.676 431.306C257.785 392.244 256.779 318.609 237.362 285.659C227.31 268.599 206.16 249.464 184.803 251.414C180.01 251.991 159.545 257.749 157.07 262.236C151.849 271.702 189.332 356.744 194.361 369.084C196.196 373.942 202.689 369.046 200.032 359.491C199.075 357.094 194.941 352.771 199.648 351.312C207.667 348.826 212.12 374.754 198.028 377.659L197.712 377.721Z"/><path transform="scale(2 2)" d="M187.54 188.307C202.228 187.38 201.905 209.052 188.824 213.744C176.793 213.983 172.595 189.258 187.54 188.307ZM188.824 206.377C192.966 202.343 194.594 194.21 186.669 194.502C182.16 197.745 185.094 206.61 187.969 206.96L188.824 206.377Z"/><path transform="scale(2 2)" d="M219.862 200.092C230.501 198.49 233.848 214.042 219.862 215.661C208.277 216.916 205.793 201.447 219.862 200.092ZM219.862 209.335C224.058 207.527 221.723 206.185 218.242 206.377C215.381 208.314 216.578 210.033 219.862 209.335Z"/><path transform="scale(2 2)" d="M253.754 205.545C263.277 204.201 263.15 215.178 252.337 219.684C241.586 220.729 242.119 208.467 253.754 205.545ZM251.089 213.744C252.3 213.013 252.938 212.716 253.912 211.673L254.01 211.25L253.754 210.977C252.504 211.548 251.717 211.814 250.685 212.734L250.507 213.216C250.818 213.599 250.687 213.54 251.089 213.744Z"/></svg>