<?xml version="1.0" encoding="utf-8" ?><svg xmlns="http://www.w3.org/2000/svg" xmlns:xlink="http://www.w3.org/1999/xlink" width="1024" height="1024" viewBox="0 0 1024 1024"><path transform="scale(2 2)" d="M277.201 80.3258C294.492 79.0291 278.781 96.1785 275.099 100.807C260.565 119.078 246.262 138.469 234.492 158.622C226.747 171.884 219.911 200.036 245.106 196.737C251.73 196.195 257.384 195.446 263.747 194.474L339.65 183.706C361.281 180.758 383.451 177.886 405.288 177.744C424.048 177.622 436.367 185.245 441.067 203.859C448.403 232.921 448.909 264.902 456.115 295.24C465.132 333.209 439.773 330.325 411.726 327.725C401.685 326.854 391.275 326.125 381.201 325.786L237.582 322.349C235.897 322.297 232.436 322.344 233.207 319.756C238.905 314.838 283.077 316.649 292.625 317.007L332.615 318.509C353.672 319.309 374.686 319.385 395.744 320.374C410.124 320.925 424.544 323.727 438.928 323.167C460.85 322.315 449.111 293.658 446.833 281.233C443.116 260.964 440.742 240.638 438.179 220.209C436.808 209.286 433.864 195.379 424.618 188.38C411.423 178.39 355.582 187.607 339.478 189.848L264.201 200.435C246.562 202.992 217.352 208.09 221.467 179.148C225.002 151.959 261.765 108.348 279.385 85.6836C244.418 97.685 217.135 116.742 186.116 135.893C177.6 141.613 168.673 146.565 160.07 152.098C129.853 171.529 68.7444 212.177 60.0882 243.041C53.3835 266.946 82.8719 288.075 98.1712 301.643C119.802 320.825 139.965 338.708 163.412 356.058C186.859 373.407 211.794 388.653 236.597 403.942C245.272 409.289 264.876 422.132 274.52 424.768C273.246 418.829 266.042 409.45 262.763 403.061C255.886 389.665 228.254 330.016 228.82 316.458C230.797 312.609 233.528 324.675 233.956 325.706C245.374 353.198 256.876 381.1 271.537 407.051C274.89 412.988 283.039 421.174 279.417 428.381C275.001 437.169 243.245 415.084 238.06 411.96C202.327 390.424 166.848 368.203 134.834 341.316C114.58 324.305 95.3404 307.525 76.0771 289.23C37.3155 253.925 53.1552 228.29 89.4606 196.764C123.203 168.752 160.886 145.605 197.829 122.131C217.924 109.362 253.936 85.0959 277.201 80.3258Z"/><path transform="scale(2 2)" d="M122.972 198.373C129.382 198.95 116.897 210.471 115.857 211.572C110.282 217.471 89.1885 237.521 90.3833 244.82C91.5012 251.65 109.509 274.96 114.85 280.761C117.433 283.567 124.072 287.277 121.305 290.438C113.27 288.011 92.1641 257.224 88.693 249.723C83.9333 239.436 92.5845 231.929 98.985 224.977C107.115 216.148 114.953 207.115 122.972 198.373Z"/><path transform="scale(2 2)" d="M132.584 211.864C136.879 213.913 128.545 222.211 127.055 224.196C121.997 230.742 104.961 246.966 111.764 256.139C115.35 260.973 142.474 291.237 142.614 295.095C142.163 296.09 142.312 295.777 141.316 296.496C137.682 293.812 129.827 282.442 126.436 278.424C102.666 250.261 98.3926 252.948 126.336 220.134C128.528 217.559 130.257 214.331 132.584 211.864Z"/><path transform="scale(2 2)" d="M415.608 286.203C419.649 286.218 425.767 287.678 429.729 288.774C441.644 292.07 427.112 298.975 423.369 301.613C418.319 305.172 413.651 309.306 409.04 313.437C408.045 314.3 406.882 315.361 405.687 314.032C405.363 309.299 426.018 295.56 430.087 293.023C424.968 290.939 414.222 291.526 415.608 286.203Z"/><path transform="scale(2 2)" d="M415.608 254.648C417.928 254.805 418.549 257.619 419.278 259.545C421.363 265.051 424.566 269.014 428.233 273.535C430.144 275.892 434.07 278.523 432.593 281.382C426.383 282.641 414.169 259.341 415.608 254.648Z"/><path transform="scale(2 2)" d="M182.078 154.478C185.734 154.524 186.736 158.136 183.472 160.145C178.939 161.031 179.075 156.211 182.078 154.478Z"/><path transform="scale(2 2)" d="M167.017 161.2C171.284 161.485 171.327 165.716 167.916 167.053C163.947 166.975 163.946 163.338 167.017 161.2Z"/><path transform="scale(2 2)" d="M169.703 330.67C173.022 330.854 175.469 333.901 171.567 335.834C168.156 336.474 166.782 332.836 169.703 330.67Z"/><path transform="scale(2 2)" d="M194.203 351.767C197.661 351.427 198.247 353.997 195.737 356.107C191.876 356.96 191.091 353.81 194.203 351.767Z"/><path transform="scale(2 2)" d="M186.116 343.178C189.967 343.714 189.073 346.771 186.116 348.313C182.542 348.203 183.98 344.742 186.116 343.178Z"/><path transform="scale(2 2)" d="M194.203 148.162C197.483 148.405 198.327 151.18 195.737 153.428C192.628 153.838 192.275 150.188 194.203 148.162Z"/></svg>