<?xml version="1.0" encoding="utf-8" ?><svg xmlns="http://www.w3.org/2000/svg" xmlns:xlink="http://www.w3.org/1999/xlink" width="1024" height="1024" viewBox="0 0 1024 1024"><path transform="scale(2 2)" d="M278.239 76.9535C282.005 76.9629 280.794 83.2298 280.658 85.8262C282.301 86.3651 284.229 86.7034 285.93 87.1182C337.721 99.7541 378.455 148.916 385.279 201.175C386.064 207.19 388.086 216.981 379.254 217.411C371.549 217.786 368.569 211.213 363.842 206.615C359.173 202.151 348.146 218.578 339.801 212.048C330.896 205.079 321.059 197.835 312.227 190.897C297.525 194.746 283.685 202.803 268.776 196.2C266.947 195.39 264.697 194.072 262.88 193.458L262.519 193.339C251.373 228.778 247.332 274.218 247.627 311.137C252.506 311.296 258.282 311.153 263.216 311.141C328.473 310.976 395.604 339.047 434.961 392.348C439.173 398.053 440.172 402.895 448.44 403.43C455.295 403.898 460.654 400.201 465.29 395.536C468.116 392.692 472.762 396.628 461.484 404.199C450.83 411.352 446.42 406.352 437.859 403.927C419.704 399.347 412.083 413.258 396.831 417.206C366.728 424.997 360.955 387.108 316.068 404.889C288.916 415.646 288.052 417.523 260.374 401.491C237.144 386.38 226.012 389.442 202.831 402.412C167.762 422.032 152.578 385.033 120.851 387.869C99.1141 389.813 82.0446 408.505 66.9552 407.12C59.5414 406.259 52.9869 404.254 48.012 398.267C46.5968 396.564 42.3911 390.438 45.1484 388.01C47.2581 386.152 49.8787 393.931 50.7727 395.14C53.2961 398.205 57.0554 400.166 60.7381 401.491L61.8907 399.76C84.5315 366.384 112.332 347.999 149.447 332.506C171.29 323.388 191.967 316.818 215.337 313.377C220.84 312.567 226.858 312.167 232.255 311.137C232.17 268.424 238.07 225.401 250.842 184.582C249.171 183.248 248.235 182.584 246.419 181.456C242.139 182.049 238.152 184.018 234.003 185.323C214.523 191.452 202.092 187.407 187.949 173.935C184.849 170.982 180.954 172.837 177.225 173.735L162.944 177.298C151.682 180.153 141.394 184.231 136.898 169.793C133.611 170.812 120.452 179.491 124.898 170.84C151.981 118.156 199.769 83.2854 259.883 84.2235C264.797 84.2794 270.552 84.1178 275.065 85.8262C275.111 81.9478 274.773 79.3882 278.239 76.9535ZM248.5 315.286C248.205 319.708 248.711 327.389 249.29 331.867C253.474 329.723 258.578 326.837 263.48 327.955L263.74 328.256C261.769 339.101 245.694 345.581 258.815 331.867C250.944 334.42 245.955 338.863 239.781 344.024C237.244 346.144 236.793 343.324 239.666 340.472L240.993 339.152C239.224 339.7 237.526 340.276 235.868 341.12L235.57 341.364C233.322 343.227 232.171 345.847 230.046 346.654C227.237 346.252 229.763 343.054 230.524 341.921C222.152 345.455 222.582 348.123 216.805 351.872C210.319 347.717 204.454 355.734 203.914 350.986C204.847 347.7 215.169 346.651 218.286 346.795C220.664 342.106 221.911 338.655 226.432 335.744C225.708 337.517 224.976 339.392 224.173 341.12C227.688 339.369 229.762 338.198 233.555 337.159C233.079 331.021 232.238 322.193 232.255 316.164C181.636 320.442 111.838 344.959 79.6717 384.926C74.9634 390.777 69.2034 396.712 65.1273 402.989C67.1495 403.16 67.8806 403.199 69.9182 402.989C71.0886 400.265 74.6659 392.474 76.9514 391.133L77.2761 391.313C77.7404 394.1 75.1016 399.088 73.6817 401.491C76.3187 400.974 78.99 400.139 81.5123 399.2C81.5547 396.515 84.2182 385.774 87.3499 385.553C88.5331 386.831 85.3618 394.694 84.8146 396.683L87.6917 395.206C89.5383 389.482 91.159 384.601 94.8156 379.693C94.7679 384.678 93.3261 387.961 91.7101 392.661L97.5029 389.709C97.4323 385.38 100.487 370.261 104.107 368.576C106.456 370.431 100.034 386.03 99.0543 388.782C100.518 388.455 101.639 388.189 103.081 387.75C112.47 382.872 127.236 381.965 137.232 385.222C159.492 392.476 174.977 412.143 199.002 399.158C213.484 391.331 226.815 383.323 243.787 388.48C258.99 393.1 270.069 404.968 285.127 408.372C301.204 412.006 324.952 388.308 351.346 397.366C367.492 402.908 382.28 420.499 400.599 410.822C413.503 403.92 418.094 397.634 434.026 399.2C430.916 393.749 425.498 387.599 421.24 382.919C377.313 334.637 317.766 314.675 253.568 315.286C251.706 315.357 250.352 315.389 248.5 315.286ZM230.524 112.388C228.937 113.194 227.777 113.919 226.432 115.124C229.645 118.052 227.885 119.644 224.173 117.39C222.95 118.02 221.653 118.648 220.499 119.385C221.872 120.571 222.184 120.897 223.083 122.468C221.482 122.473 217.58 122.176 216.512 123.066C216.758 124.25 219.636 124.683 218.054 126.344C216.611 126.631 215.383 125.751 214.119 125.039C212.952 125.854 212.376 126.578 211.44 127.623C216.177 134.137 205.621 127.541 204.559 134.819C205.172 136.054 207.103 135.941 207.733 137.065C206.899 139.315 203.998 137.822 202.421 137.229L198.75 141.465C205.013 143.314 202.2 145.523 197.218 143.736C196.253 144.966 195.666 145.878 194.83 147.192C196.667 147.312 197.971 147.085 198.496 149.219L198.338 149.677C197.202 150.069 194.143 149.729 192.773 149.646L190.729 153.027C197.933 151.751 198.243 156.927 189.305 155.215C188.324 156.756 187.915 157.496 187.151 159.154L190.729 159.154C191.643 159.336 192.637 159.389 193.202 160.063L193.13 160.484C191.362 161.621 188.063 161.415 186.041 161.247C185.376 162.473 182.314 166.779 184.939 167.206C205.665 164.339 224.523 167.981 244.618 173.476C249.519 174.816 257.302 178.53 261.476 179.066C266.833 179.755 275.452 179.359 281.205 179.474C292.411 179.698 302.317 181.291 313.254 183.744C311.995 148.216 306.419 119.265 279.127 93.0953C278.503 92.497 277.125 91.0226 276.23 91.1023C273.833 91.4317 264.205 94.4117 262.155 95.4088C261.666 98.6566 259.11 97.3399 255.581 97.969C258.913 101.723 252.959 99.3806 250.959 99.6112L250.739 99.8547C254.18 106.88 249.352 100.126 246 102.235C245.57 103.624 247.132 105.323 246.071 105.738C243.888 106.59 241.871 103.865 239.732 106.145C240.22 107.459 241.966 107.597 242.348 109.101C241.243 110.416 237.71 108.536 236.274 108.051C235.14 108.875 234.547 109.459 233.555 110.415C237.718 113.667 234.3 114.433 230.938 112.616L230.524 112.388ZM284.874 93.7176C309.539 116.937 317.342 151.877 317.25 184.582C324.477 186.353 334.999 188.443 342.412 189.706C355.432 193.921 369.809 200.804 381.167 208.507C379.757 162.312 343.918 112.359 300.425 96.2375C298.723 95.6067 294.477 93.8398 292.888 93.7176C296.914 95.9292 323.073 110.211 321.422 114.889C318.389 118.052 309.888 109.168 306.923 107.209C299.775 102.486 292.601 97.476 284.874 93.7176ZM130.769 167.206C135.249 165.568 137.74 164.539 142.473 163.759C154.682 159.08 167.444 161.198 179.347 164.523C179.893 164.675 182.984 158.388 183.336 157.754C199.218 128.084 234.199 96.7183 266.159 88.7505C262.62 88.7405 257.009 88.5372 253.568 88.7505C249.256 89.2211 244.824 89.4956 240.489 89.8677C192.526 93.9843 153.175 125.814 130.769 167.206ZM245.311 334.3C240.208 286.721 244.598 236.593 258.815 190.897C257.143 189.372 256.352 188.774 254.466 187.507C251.09 198.554 248.44 209.853 246.324 221.203C239.113 259.887 232.362 295.945 237.772 335.744C239.113 335.762 240.997 335.835 242.28 335.744C243.487 335.25 244.168 334.979 245.311 334.3ZM336.963 193.339C333.998 195.845 333.125 196.421 329.64 198.097C330.974 199.22 332.291 200.319 333.582 201.493C336.165 197.354 337.66 197.595 340.575 194.489C339.603 194.194 337.805 193.525 336.963 193.339ZM165.813 166.003C163.249 165.815 160.819 165.646 158.258 166.003C155.088 166.453 150.005 173.07 146.739 172.979L146.522 172.622C147.12 170.688 150.35 168.191 152.078 166.003C150.663 166.401 148.405 167.125 147.02 167.206C145.325 170.222 145.005 170.751 142.473 173.056C147.346 177.638 154.466 175.483 160.313 173.839C165.113 172.52 172.487 170.554 176.947 168.78C174.071 167.852 172.856 167.474 170.232 166.003C165.256 169.202 162.94 171.976 157.166 173.839C160.646 169.406 161.426 169.465 165.813 166.003ZM352.369 198.936C347.986 202.63 345.042 204.411 339.655 206.474C342.34 208.238 343.108 208.763 346.412 208.507C351.618 207.612 353.615 204.122 358.752 201.493C356.981 200.573 354.362 199.165 352.369 198.936ZM327.052 195.426C328.987 194.672 330.606 193.598 332.292 192.391L328.894 192.391C327.253 192.623 325.25 192.833 323.712 193.339C324.592 193.986 326.064 195.169 327.052 195.426ZM349.158 197.269C347.621 196.424 346.103 195.888 344.413 195.426C342.045 198.215 338.9 200.867 335.513 202.308C336.331 203.22 338.172 205.471 339.346 205.625L339.655 205.434C342.306 202.448 345.954 200.546 349.158 197.269ZM379.453 212.957C377.732 211.628 372.719 208.475 370.661 207.705C373.191 211.055 374.979 213.132 379.453 212.957ZM292.091 184.582C290.426 184.313 288.171 183.884 286.541 183.744C283.058 188.804 280.787 191.125 275.065 193.339C277.283 189.354 279.91 187.453 282.197 183.744C281.24 183.74 279.111 183.675 278.239 183.744C275.668 186.91 272.884 190.775 268.417 190.897C279.602 196.234 284.511 195.343 296.608 191.36C306.636 188.059 308.946 184.351 296.569 185.51C292.897 188.646 290.98 191.464 286.541 193.339C287.867 190.687 290.38 187.138 292.091 184.582ZM263.289 185.51C264.069 185.111 264.558 184.964 265.037 184.235L264.794 183.862C264.213 183.791 263.871 183.749 263.289 183.744C262.357 184.491 261.988 184.671 261.45 185.693L261.657 186.009C262.481 185.893 262.546 185.829 263.289 185.51ZM232.255 181.456C235.757 180.716 238.076 179.977 240.993 177.819C238.503 176.656 237.358 176.378 234.718 175.662C232.148 178.003 229.092 180.914 226.432 183.107C228.708 182.81 230.112 182.3 232.255 181.456ZM212.274 172.293C210.237 171.939 208.927 171.615 206.974 170.862C204.654 173.147 201.758 175.508 198.75 176.815C206.101 182.503 214.921 185.286 224.173 183.107C226.21 179.985 228.066 177.414 231.435 175.662C228.394 174.554 227.501 174.087 224.173 173.839C223.55 174.353 222.545 175.128 221.993 175.662C219.33 178.345 217.168 180.441 213.353 181.456C216.303 178.162 218.528 175.883 221.993 173.056C219.777 172.794 217.479 172.49 215.264 172.293C213.542 174.458 208.465 179.587 205.581 179.35L205.224 178.97C205.417 176.574 210.359 173.458 212.274 172.293ZM197.218 175.662C199.323 173.323 200.515 172.215 203.424 170.862L200.123 170.862C197.678 171.295 196.689 172.23 194.83 173.839C195.43 174.536 195.992 175.169 196.623 175.837L197.054 175.847L197.218 175.662ZM271.033 183.744C270.226 184.54 264.12 189.265 267.392 189.535L268.417 188.934C270.445 187.101 271.866 185.741 273.758 183.744L271.033 183.744Z"/><path transform="scale(2 2)" d="M134.772 350.161L135.212 350.493C135.443 352.793 126.756 371.432 124.682 375.248L124.406 375.323L124.222 375.015C124.146 367.121 129.712 355.998 134.772 350.161Z"/><path transform="scale(2 2)" d="M280.658 327.526C280.851 327.476 280.698 327.495 281.262 327.552C280.782 329.948 270.732 337.466 268.417 339.152C263.138 335.088 277.819 327.926 280.658 327.526Z"/><path transform="scale(2 2)" d="M121.767 359.378C123.738 360.265 115.194 377.883 113.914 379.693L113.616 379.693L113.329 379.32C113.91 372.611 116.689 364.028 121.767 359.378Z"/><path transform="scale(2 2)" d="M111.466 364.337L111.887 364.648C112.46 369.543 108.32 380.868 105.962 385.142C105.641 385.168 105.843 385.182 105.388 384.943C104.533 379.301 108.929 369.365 111.466 364.337Z"/><path transform="scale(2 2)" d="M158.258 337.912C160.641 338.939 150.52 354.937 149.254 356.867C146.1 355.432 156.385 339.678 158.258 337.912Z"/><path transform="scale(2 2)" d="M186.041 327.526L186.513 327.803C186.544 328.89 175.978 341.771 174.416 344.094L174.233 344.122C172.814 340.151 181.384 329.321 186.041 327.526Z"/><path transform="scale(2 2)" d="M168.223 334.3L168.601 334.569C169.507 337.522 162.014 347.855 160.313 351.872L160.094 351.907L159.808 351.668C159.819 345.813 163.86 338.027 168.223 334.3Z"/><path transform="scale(2 2)" d="M144.579 346.795L144.879 347.029C144.93 350.355 138.805 361.849 136.898 365.381L136.72 365.307C134.437 361.352 141.978 349.523 144.579 346.795Z"/><path transform="scale(2 2)" d="M152.078 375.248C155.667 375.134 156.767 376.642 154.537 379.693C151.064 380.741 150.592 377.65 152.078 375.248Z"/><path transform="scale(2 2)" d="M196.336 331.867C199.598 333.063 200.134 334.966 197.218 337.159C193.902 337.077 193.611 333.687 196.336 331.867Z"/><path transform="scale(2 2)" d="M282.804 379.395C284.039 379.256 285.156 380.136 285.311 381.368C285.467 382.601 284.603 383.73 283.372 383.902C282.561 384.015 281.751 383.683 281.254 383.033C280.756 382.383 280.647 381.515 280.968 380.761C281.289 380.008 281.991 379.486 282.804 379.395Z"/><path transform="scale(2 2)" d="M198.75 370.5C202.313 370.381 202.427 373.091 200.123 375.248C197.17 375.556 196.628 372.346 198.75 370.5Z"/><path transform="scale(2 2)" d="M296.569 330.222C300.269 330.547 297.513 333.527 295.359 334.3C292.612 334.591 293.001 331.399 296.569 330.222Z"/><path transform="scale(2 2)" d="M271.033 349.314C274.428 348.91 275.582 349.953 273.758 353.154C270.493 354.266 269.12 351.748 271.033 349.314Z"/><path transform="scale(2 2)" d="M347.488 368.638C350.244 369.729 349.146 371.918 347.488 373.378C344.125 372.624 345.535 370.122 347.488 368.638Z"/><path transform="scale(2 2)" d="M378.378 380.536C379.455 380.353 380.48 381.066 380.682 382.139C380.884 383.212 380.189 384.25 379.12 384.471C378.411 384.617 377.678 384.37 377.204 383.824C376.729 383.278 376.585 382.518 376.829 381.836C377.073 381.155 377.665 380.658 378.378 380.536Z"/><path transform="scale(2 2)" d="M360.845 353.154C364.096 353.627 362.623 356.328 360.845 357.693C357.982 356.429 358.31 354.593 360.845 353.154Z"/><path transform="scale(2 2)" d="M316.228 377.434C318.274 378.291 317.993 380.692 316.228 381.783C313.097 380.713 313.287 378.743 316.228 377.434Z"/><path transform="scale(2 2)" d="M306.109 354.402C306.976 353.927 308.064 354.238 308.549 355.099C309.035 355.96 308.737 357.052 307.882 357.548C307.319 357.874 306.625 357.872 306.064 357.544C305.502 357.215 305.161 356.61 305.171 355.959C305.18 355.309 305.539 354.714 306.109 354.402Z"/><path transform="scale(2 2)" d="M268.417 103.657C274.005 104.058 263.335 118.046 261.699 119.385C256.191 116.648 265.273 105.626 268.417 103.657Z"/><path transform="scale(2 2)" d="M253.568 141.465C255.846 142.074 254.885 157.879 251.922 159.775C248.101 157.769 249.833 144.336 253.568 141.465Z"/><path transform="scale(2 2)" d="M302.164 157.589C304.681 158.432 304.439 161.021 302.787 162.649C300.251 161.223 300.369 159.547 302.164 157.589Z"/><path transform="scale(2 2)" d="M257.355 127.623C259.927 128.18 258.527 130.516 257.355 131.842C254.542 130.633 255.12 129.025 257.355 127.623Z"/><path transform="scale(2 2)" d="M342.412 135.514C345.537 136.097 362.911 159.353 358.752 163.759C353.962 163.881 344.847 144.335 341.554 139.087C340.766 137.83 341.309 136.405 342.412 135.514Z"/><path transform="scale(2 2)" d="M328.894 122.468C332.015 122.58 336.318 126.991 333.582 129.845C331.118 129.67 325.287 124.325 328.894 122.468Z"/><path transform="scale(2 2)" d="M339.655 150.42C341.709 151.829 341.43 154.195 339.655 155.771C336.434 154.49 336.992 151.876 339.655 150.42Z"/><path transform="scale(2 2)" d="M355.171 167.206L356.177 167.51C357.37 168.726 356.88 169.629 356.036 170.862C354.043 170.336 354.273 168.595 355.171 167.206Z"/><path transform="scale(2 2)" d="M171.897 128.452C176.488 128.358 169.827 134.308 169.159 134.899C160.09 142.913 158.816 148.175 152.078 155.215C145.126 150.89 166.597 130.733 171.897 128.452Z"/><path transform="scale(2 2)" d="M163.949 146.417C168.286 146.846 166.068 150.337 163.949 152.111C159.625 153.186 161.701 148.068 163.949 146.417Z"/><path transform="scale(2 2)" d="M208.896 101.721C211.807 101.672 214.158 103.932 212.274 106.671C209.347 107.005 207.542 104.449 208.896 101.721Z"/><path transform="scale(2 2)" d="M198.75 109.625C201.973 110.549 201.15 113.607 198.75 115.124C195.705 114.014 196.364 111.273 198.75 109.625Z"/><path transform="scale(2 2)" d="M189.305 115.124C192.354 115.563 193.83 117.956 191.685 120.541C188.62 121.096 188.195 117.223 189.305 115.124Z"/><path transform="scale(2 2)" d="M234.718 93.7176C237.585 93.4416 238.225 96.1589 236.274 97.969C233.605 97.6336 232.592 95.6152 234.718 93.7176Z"/><path transform="scale(2 2)" d="M170.232 271.835C174.305 272.007 184.108 275.992 181.361 280.529C179.984 280.652 167.265 264.466 158.219 287.178C157.232 289.659 155.585 289.8 153.926 287.682C146.589 278.317 135.458 282.794 130.768 291.882C130.35 292.692 127.741 298.947 126.5 298.224C120.004 294.438 115.185 297.7 111.466 303.235C108.874 307.705 108.511 311.51 108.096 316.482C107.943 318.309 105.06 318.711 105.196 313.763C105.534 301.479 112.983 290.854 125.953 292.967C132.358 278.513 142.761 274.941 155.468 283.901C159.281 277.571 162.606 273.122 170.232 271.835Z"/><path transform="scale(2 2)" d="M300.089 237.291C309.495 236.667 311.694 240.127 314.4 248.277C324.432 240.991 335.148 246.581 335.513 258.5C351.162 257.789 352.268 273.179 347.514 273.521C346.443 272.209 347.113 269.427 346.611 267.976C342.329 255.599 331.149 267.343 329.533 266.398C328.845 264.633 329.63 263.183 330.661 261.824C336.314 254.936 323.733 242.696 314.923 252.906C313.738 254.279 311.858 258.112 310.239 258.359C306.056 257.144 309.991 252.974 310.181 250.494C311.321 235.591 295.695 239.319 288.991 246.543C287.806 247.821 285.27 250.516 284.119 251.38L283.764 251.276C282.958 246.299 295.472 238.421 300.089 237.291Z"/><path transform="scale(2 2)" d="M224.694 417.246C235.573 416.254 249.286 419.991 258.815 425.271C238.699 423.043 236.354 415.713 211.44 422.908C200.311 426.47 188.393 432.133 180.652 420.242C194.52 430.845 208.627 419.883 224.694 417.246Z"/><path transform="scale(2 2)" d="M118.466 405.845C123.785 404.931 133.83 406.216 138.628 408.771C139.329 409.143 144.141 411.169 143.018 412.111C127.009 406.387 116.506 407.396 100.307 413.809C90.7242 417.667 85.3356 420.227 75.3112 417.246C90.1135 417.56 103.041 408.101 118.466 405.845Z"/><path transform="scale(2 2)" d="M426.566 420.242C430.02 419.909 432.641 420.148 436.08 420.242C431.855 422.317 423.804 423.391 418.784 425.451C412.297 428.114 408.45 431.482 402.504 434.445C400.645 435.339 396.529 436.626 395.134 434.471C395.405 431.84 399.488 431.309 401.551 430.061C410.082 424.898 416.184 420.692 426.566 420.242Z"/><path transform="scale(2 2)" d="M332.292 420.63C337.319 420.458 350.367 420.713 355.171 421.9C330.892 421.472 315.587 422.665 292.091 429.188C289.582 430.051 273.422 435.585 273.839 429.806C274.379 429.484 279.79 430.135 281.505 429.643C298.733 424.698 314.307 421.047 332.292 420.63Z"/><path transform="scale(2 2)" d="M188.477 290.83C194.641 289.922 205.081 295.633 201.537 300.474C197.31 301.237 198.578 288.399 179.809 297.017C174.698 299.759 172.97 300.844 170.449 305.884C169.883 307.015 168.667 306.148 168.588 305.152C167.946 297.027 182.758 291.842 188.477 290.83Z"/><path transform="scale(2 2)" d="M302.164 276.337C308.756 276.391 314.652 283.934 311.667 285.868C310.098 285.394 302.595 271.555 290.862 283.901C286.451 285.719 284.76 288.008 282.213 291.634L281.865 291.385C279.454 284.306 295.282 277.154 302.164 276.337Z"/></svg>