<?xml version="1.0" encoding="utf-8" ?><svg xmlns="http://www.w3.org/2000/svg" xmlns:xlink="http://www.w3.org/1999/xlink" width="1024" height="1024" viewBox="0 0 1024 1024"><path fill="#2D2B2C" transform="scale(2 2)" d="M274.454 87.0897C296.922 84.4779 300.078 107.664 299.989 123.813C350.596 140.349 363.315 205.031 366.444 251.127L368.12 276.563C369.76 302.066 372.689 326.295 387.715 347.756C396.083 359.707 406.758 365.474 406.808 381.757C406.864 399.726 391.045 401.672 377.092 404.469C348.776 410.146 319.997 411.904 291.199 411.87C291.049 416.25 290.117 417.788 288.171 421.548C276.042 444.98 243.626 449.326 221.997 436.459C211.707 430.245 203.771 419.049 205.874 406.612C195.467 405.98 184.002 403.664 173.651 401.924C151.524 398.205 109.687 391.902 92.4559 380.614C69.172 365.361 96.1586 344.026 107.959 331.596C141.638 296.123 138.157 281.191 146.794 234.556C157.878 174.707 169.077 134.002 235.013 119.19C240.266 118.01 246.144 117.503 251.533 116.78C249.326 102.842 260.46 88.7657 274.454 87.0897ZM238.348 405.936C248.081 405.427 259.901 407.235 269.891 407.33C304.549 407.659 338.954 407.83 373.091 400.8C385.814 398.186 404.11 397.767 402.685 380.012C401.594 366.425 390.394 359.051 383.225 348.401C349.409 298.729 376.224 221.196 338.531 160.191C320.982 131.79 286.62 119.074 254.24 120.857C227.139 122.664 197.427 133.699 179.207 154.545C161.862 174.392 153.858 216.155 149.771 241.878C143.941 278.57 141.531 301.668 115.643 329.501C107.574 338.175 86.7107 354.916 87.299 367.501C87.9998 382.489 128.335 389.278 139.379 391.556C164.602 396.757 189.759 400.347 215.28 403.509C222.923 404.456 230.8 404.492 238.348 405.936ZM287.651 411.87C273.227 413.052 253.995 410.879 239.484 409.918C238.465 411.039 237.782 411.385 236.345 411.87C233.876 413.855 223.025 420.449 221.316 419.201L221.331 418.589C222.851 415.91 232.091 411.571 235.319 409.918C232.708 409.795 229.738 409.725 227.19 409.275C225.835 409.909 223.065 411.438 221.997 411.87C220.631 412.738 217.316 415.201 215.807 414.433L215.84 413.921C217.101 411.928 218.491 411.229 220.459 409.918L221.997 409.275C217.199 408.238 213.288 407.893 208.414 407.34C212.947 432.555 234.329 442.755 258.473 438.174C273.905 435.246 282.273 425.883 287.651 411.87ZM295.568 119.686C294.608 120.486 294.384 120.397 294.069 121.383L294.486 122.02C295.646 121.744 297.04 120.811 295.568 119.686ZM277.441 90.8361C262.061 92.1468 255.621 101.518 254.24 116.78C268.851 116.676 276.878 117.889 291.199 120.857C292.57 119.264 296.486 116.965 296.409 115.227L296.134 114.866C294.525 115.858 292.955 117.512 291.244 117.612L290.864 117.296C290.701 115.35 292.259 114.474 293.648 113.436C295.173 112.22 295.566 111.905 296.76 110.295C295.297 111.132 291.107 113.735 289.663 113.918C287.043 111.845 295.457 109.915 295.169 106.9L294.874 106.555C292.808 107.4 290.897 110.025 288.723 110.222C287.073 109.318 288.712 108.051 289.586 107.403C290.005 106.324 289.38 105.772 289.711 105.223C290.536 103.858 295.168 102.637 292.468 100.304C290.104 100.619 288.746 105.178 286.05 104.219C284.389 102.002 289.869 98.8394 291.199 96.7136L290.895 96.8735C289.011 97.8791 287.554 99.4058 285.733 99.4806L285.295 99.2055C285.201 97.5398 287.309 96.8 287.884 95.3073C286.753 94.2301 278.037 96.6218 283.622 93.2102L283.666 92.866C280.308 93.0051 280.842 93.8231 278.146 91.0156L277.441 90.8361Z"/><path fill="#010101" transform="scale(2 2)" d="M148.154 327.745C149.134 327.796 148.794 327.589 149.371 328.116L149.301 328.625C149 329.023 102.176 354.045 96.6134 357.952C95.5465 357.991 95.0001 357.339 95.4887 356.273C97.4248 352.047 137.514 331.464 148.154 327.745Z"/><path fill="#010101" transform="scale(2 2)" d="M301.193 217.895C301.553 218.111 301.946 218.339 301.923 218.819C301.666 224.102 256.855 266.216 249.649 272.541L249.305 272.457L249.066 272.016C249.176 271.523 289.913 230.394 293.168 226.652C295.577 223.882 298.324 220.093 301.193 217.895Z"/><path fill="#010101" transform="scale(2 2)" d="M157.135 312.908C157.843 312.591 158.005 312.627 158.594 312.909L158.584 313.395C156.095 315.928 128.866 325.287 119.498 333.306L118.624 333.428C117.767 332.999 118.02 333.319 117.722 332.537C119.918 326.302 150.127 313.66 157.135 312.908Z"/><path fill="#010101" transform="scale(2 2)" d="M138.182 343.283C138.67 343.313 138.479 343.284 138.939 343.575L138.928 344.081C138.415 344.782 107.669 361.227 103.89 363.8C101.782 365.236 99.8471 366.902 97.7 368.301L97.445 368.465C97.2443 368.356 97.0353 368.111 96.8571 367.934C96.3075 361.851 132.274 345.444 138.182 343.283Z"/><path fill="#010101" transform="scale(2 2)" d="M143.126 352.245C143.998 352.206 144.521 352.137 144.759 353.05C143.998 354.132 121.213 364.536 118.073 366.471C114.515 368.663 111.311 371.087 107.882 373.45L107.362 373.697L106.854 373.499C104.605 368.007 138.763 353.765 143.126 352.245Z"/><path fill="#010101" transform="scale(2 2)" d="M165.977 367.891C166.677 367.657 166.644 367.61 167.344 367.792L167.432 368.195C167.427 368.201 136.367 382.155 130.864 383.892C130.117 384.298 130.1 384.357 129.231 384.48L129.001 384.097L129.164 383.465C132.891 378.946 160.91 368.441 165.977 367.891Z"/><path fill="#010101" transform="scale(2 2)" d="M152.199 362.065C154.315 361.85 152.217 363.618 151.363 364.034C141.443 368.871 129.594 372.994 120.913 379.867C120.113 379.729 120.392 379.937 119.955 379.382C120.515 374.444 146.863 363.18 152.199 362.065Z"/><defs><linearGradient id="gradient_0" gradientUnits="userSpaceOnUse" x1="156.3311" y1="297.52728" x2="150.65202" y2="290.64951"><stop offset="0" stop-color="#11120F"/><stop offset="1" stop-color="#2F2A30"/></linearGradient></defs><path fill="url(#gradient_0)" transform="scale(2 2)" d="M165.977 288.571L166.687 288.576C168.319 290.554 163.411 291.35 162.219 291.774C155.537 294.15 148.684 298.174 142.141 300.544C135.547 296.55 163.75 289.01 165.977 288.571Z"/><path fill="#010101" transform="scale(2 2)" d="M190.673 379.867C191.851 379.602 191.624 379.46 192.536 379.84L192.503 380.318C191.983 380.793 172.681 388.413 167.475 391.478C166.767 391.825 166.772 391.827 165.999 391.977L165.591 391.7C164.549 386.895 186.585 380.473 190.673 379.867Z"/><path fill="#010101" transform="scale(2 2)" d="M160.142 300.544C161.064 300.568 160.742 300.378 161.259 300.909L161.095 301.633C159.746 302.887 140.585 311.028 137.07 312.908C128.743 311.683 157.978 300.98 160.142 300.544Z"/><path fill="#010101" transform="scale(2 2)" d="M172.372 374.3C174.543 374.106 175.736 375.188 173.172 376.163C166.039 378.876 157.517 380.354 152.199 386.359C151.169 386.858 150.522 387.292 149.532 386.494C149.524 381.147 168.591 375.106 172.372 374.3Z"/><path fill="#010101" transform="scale(2 2)" d="M286.883 254.183C287.605 254.416 287.31 254.211 287.77 254.858C287.596 257.753 267.61 276.965 264.188 280.551C263.963 280.46 263.79 280.295 263.584 280.138L263.589 279.555C264.944 276.884 285.667 254.982 286.883 254.183Z"/><path fill="#010101" transform="scale(2 2)" d="M359.242 380.391L359.715 380.746L359.735 381.245C358.568 383.511 345.956 399.56 344.054 401.378L343.467 401.158C341.798 398.144 356.384 382.453 359.242 380.391Z"/><path fill="#010101" transform="scale(2 2)" d="M343.24 383.892C348.112 384.53 331.887 400.927 329.639 404.135C328.836 404.302 328.563 403.665 328.52 402.965C328.36 400.356 340.701 386.719 343.24 383.892Z"/><path fill="#010101" transform="scale(2 2)" d="M394.523 376.631C400.477 377.205 386.839 393.16 384.934 394.752L384.622 394.802C381.283 393.345 387.932 387.918 389.509 385.475C391.455 382.46 392.707 379.438 394.523 376.631Z"/><path fill="#010101" transform="scale(2 2)" d="M370.677 381.453C371.511 382.112 371.463 381.862 371.669 382.687C370.269 385.971 362.165 395.239 359.242 399.681C354.687 397.991 368.704 383.258 370.677 381.453Z"/><path fill="#010101" transform="scale(2 2)" d="M325.629 385.602C326.539 385.911 326.994 385.946 326.913 387.009C322.689 392.021 317.246 399.206 313.447 404.135C309.029 402.917 324.013 387.34 325.629 385.602Z"/><path fill="#010101" transform="scale(2 2)" d="M221.212 386.359C221.907 386.341 221.925 386.279 222.525 386.594L222.63 387.068C220.23 389.657 208.846 395.105 204.211 398.994C195.474 399.182 220.601 386.635 221.212 386.359Z"/><path fill="#010101" transform="scale(2 2)" d="M204.211 383.892L204.754 383.906L205.149 384.376L205.071 385.056C204.44 386.031 189.541 392.302 186.892 393.805C186.191 393.61 185.564 392.719 186.203 392.092C189.207 389.145 200.61 384.909 204.211 383.892Z"/><path fill="#010101" transform="scale(2 2)" d="M252.985 386.359C255.737 388.766 240.808 397.854 238.348 399.681C238.139 399.667 237.927 399.544 237.712 399.453C237.02 396.243 250.117 387.8 252.985 386.359Z"/><path fill="#2D2B2C" transform="scale(2 2)" d="M368.488 336.349C370.963 338.017 366.373 353.129 365.385 354.869L364.828 354.753C362.866 352.97 366.763 338.628 368.488 336.349Z"/><path fill="#010101" transform="scale(2 2)" d="M237.424 387.19C238.036 387.134 238.007 387.1 238.542 387.384L238.624 387.941C237.792 389.578 226.439 397.507 224.184 398.994C217.031 400.175 237.258 387.289 237.424 387.19Z"/><defs><linearGradient id="gradient_1" gradientUnits="userSpaceOnUse" x1="325.31131" y1="175.02057" x2="325.93869" y2="182.47943"><stop offset="0" stop-color="#191318"/><stop offset="1" stop-color="#272826"/></linearGradient></defs><path fill="url(#gradient_1)" transform="scale(2 2)" d="M332.754 174.04L333.293 174.03L333.459 174.382C331.839 177.43 323.023 182.383 319.845 183.751C312.993 184.095 331.757 174.395 332.754 174.04Z"/><path fill="#2D2B2C" transform="scale(2 2)" d="M351.813 228.275C356.14 229.842 340.795 235.391 339.552 235.784C332.461 235.124 350.862 228.5 351.813 228.275Z"/><path fill="#010101" transform="scale(2 2)" d="M364.672 327.745C368.263 328.309 361.452 339.892 360.781 344.069L359.976 344.126C356.369 342.445 363.266 330.169 364.672 327.745Z"/><path fill="#010101" transform="scale(2 2)" d="M277.441 388.862C280.315 390.869 269.352 401.212 267.733 402.372L267.244 402.11C265.762 399.527 275.339 390.633 277.441 388.862Z"/><path fill="#2D2B2C" transform="scale(2 2)" d="M159.281 280.551C160.354 280.484 160.836 280.872 160.529 281.927C159.334 283.15 151.038 285.916 148.154 287.331C147.266 287.421 147.208 287.157 146.604 286.573C145.933 283.831 156.988 281.083 159.281 280.551Z"/><path fill="#2D2B2C" transform="scale(2 2)" d="M346.799 212.207C347.485 212.243 347.252 212.153 347.804 212.526L347.845 213.179C346.709 215.549 338.415 220.716 335.843 221.765C329.77 222.19 346.276 212.484 346.799 212.207Z"/><path fill="#010101" transform="scale(2 2)" d="M306.366 390.207C307.05 390.19 306.806 390.149 307.432 390.417L307.644 391C307.226 392.85 299.58 401.366 298 402.889C293.906 401.533 305.16 391.253 306.366 390.207Z"/><path fill="#010101" transform="scale(2 2)" d="M263.427 390.207C263.905 390.566 264.627 391.332 264.042 391.924C261.073 394.932 256.233 399.528 252.985 402.372C249.762 398.723 260.803 391.498 263.427 390.207Z"/><path fill="#2D2B2C" transform="scale(2 2)" d="M378.54 353.824C381.684 354.819 377.894 366.071 377.013 368.465L376.138 368.206C374.515 366.238 377.082 356.031 378.54 353.824Z"/><path fill="#010101" transform="scale(2 2)" d="M292.398 388.862C292.502 388.853 292.927 388.936 293.05 388.956L293.202 389.334C292.38 390.852 285.605 398.571 283.558 401.378C278.876 399.303 290.168 389.802 292.398 388.862Z"/><path fill="#2D2B2C" transform="scale(2 2)" d="M355.754 256.753L356.047 256.821L356.289 257.235C355.758 259.69 346.407 264.65 344.054 265.52C341.14 262.747 353.85 257.364 355.754 256.753Z"/><path fill="#2D2B2C" transform="scale(2 2)" d="M352.97 268.226C353.506 268.11 353.3 268.113 353.838 268.265L353.94 268.77C352.842 270.954 346.362 276.216 344.054 277.597L343.393 277.354C341.429 274.527 350.823 269.183 352.97 268.226Z"/><path fill="#2D2B2C" transform="scale(2 2)" d="M342.406 201.731C346.929 202.464 333.903 209.834 332.754 210.237L332.101 209.82C330.968 207.032 340.235 202.809 342.406 201.731Z"/><path fill="#010101" transform="scale(2 2)" d="M379.939 385.602L380.387 385.988C380.375 387.367 373.684 396.56 372.256 397.563C369.684 394.859 377.137 386.708 379.939 385.602Z"/><path fill="#010101" transform="scale(2 2)" d="M334.94 185.641C335.706 185.817 335.438 185.733 336.129 186.183L336.235 186.806C335.271 189.134 329.192 193.471 326.893 194.801C321.835 194.56 334.257 186.16 334.94 185.641Z"/><path fill="#2D2B2C" transform="scale(2 2)" d="M324.531 167.001C328.669 167.014 316.226 173.723 315.54 174.04C309.242 174.296 321.754 167.564 324.531 167.001Z"/><path fill="#2D2B2C" transform="scale(2 2)" d="M355.754 293.663C356.187 293.697 356.155 293.737 356.577 293.911L356.728 294.476C356.104 296.813 350.366 301.804 348.282 303.392C344.373 301.732 354.285 294.62 355.754 293.663Z"/><path fill="#2D2B2C" transform="scale(2 2)" d="M349.618 241.182C355.299 241.281 344.222 247.96 343.24 248.5C337.188 248.773 348.859 241.691 349.618 241.182Z"/><path fill="#2D2B2C" transform="scale(2 2)" d="M360.781 318.365C363.424 319.373 358.528 328.792 357.605 331.258C353.846 329.719 359.032 320.332 360.781 318.365Z"/><path fill="#010101" transform="scale(2 2)" d="M313.447 152.464C313.912 152.566 313.694 152.501 314.11 152.901L314.066 153.588C313.085 155.344 308.129 159.46 306.366 160.478C302.327 157.636 311.422 153.324 313.447 152.464Z"/><path fill="#010101" transform="scale(2 2)" d="M373.521 346.814C375.827 347.973 374.106 357.591 373.521 360.606L372.782 360.591C370.605 359.05 372.516 349.035 373.521 346.814Z"/><path fill="#010101" transform="scale(2 2)" d="M357.605 305.618L358.266 305.88C359.867 308.107 354.469 314.222 352.97 315.932L352.297 315.662C350.554 313.354 356.032 307.366 357.605 305.618Z"/><path fill="#2D2B2C" transform="scale(2 2)" d="M293.648 137.26C298.949 136.938 290.38 142.171 289.386 142.791C288.223 143.074 287.901 142.304 287.837 141.27C288.771 139.312 291.692 138.166 293.648 137.26Z"/><path fill="#010101" transform="scale(2 2)" d="M351.813 284.141C352.526 284.163 352.486 284.142 353.132 284.433L353.335 284.98C352.897 286.838 349.78 289.69 348.282 290.855C343.361 290.091 350.46 285.347 351.813 284.141Z"/><path fill="#010101" transform="scale(2 2)" d="M304.996 141.358C305.362 141.469 305.345 141.533 305.671 141.806L305.712 142.408C305.047 144.063 301.502 147.152 299.989 148.231C296.682 145.584 302.691 142.31 304.996 141.358Z"/><path fill="#010101" transform="scale(2 2)" d="M386.587 363.128C389.638 363.695 386.608 368.84 385.993 371.699C381.745 372.336 385.618 364.51 386.587 363.128Z"/><path fill="#010101" transform="scale(2 2)" d="M257.036 413.672C257.79 413.717 258.355 414.167 258.165 415.006C257.595 417.512 241.61 427.411 238.348 429.222C230.567 430.358 256.815 413.806 257.036 413.672Z"/><path fill="#010101" transform="scale(2 2)" d="M278.842 413.672C286.305 416.93 265.242 430.583 263.72 432.058L263.427 432.346C263.039 432.404 262.836 432.376 262.443 432.366L261.928 431.821C261.532 428.481 270.911 423.809 273.24 421.409C275.689 418.885 277.076 416.535 278.842 413.672Z"/><path fill="#010101" transform="scale(2 2)" d="M269.16 414.712C276.939 413.989 254.521 428.212 251.533 432.346C250.858 432.779 250.706 432.547 250.143 432.185C248.738 428.511 265.632 416.888 269.16 414.712Z"/><path fill="#010101" transform="scale(2 2)" d="M246.142 411.87C255.396 411.264 229.784 424.526 229.507 424.693C228.483 425.108 228.702 425.214 227.883 424.958C226.984 421.907 243.23 413.11 246.142 411.87Z"/><path fill="#010101" transform="scale(2 2)" d="M235.319 409.918L235.556 410.245C234.378 411.379 232.711 411.356 231.914 412.377L232.224 413.087C233.741 413.645 234.665 411.84 236.237 411.512L236.345 411.87C233.876 413.855 223.025 420.449 221.316 419.201L221.331 418.589C222.851 415.91 232.091 411.571 235.319 409.918Z"/><path fill="#010101" transform="scale(2 2)" d="M220.459 409.918L220.568 410.319C219.375 411.392 218.236 411.822 217.715 412.928L217.939 413.339C219.652 413.383 220.861 411.023 221.997 411.87C220.631 412.738 217.316 415.201 215.807 414.433L215.84 413.921C217.101 411.928 218.491 411.229 220.459 409.918Z"/><path fill="#2D2B2C" transform="scale(2 2)" d="M402.59 67.8787C430.768 65.7384 457.115 93.7309 456.239 121.335C455.027 159.51 430.566 172.046 395.188 171.257C385.189 171.145 376.786 167.906 369.385 161.349C365.032 161.941 343.663 169.261 352.524 156.651C354.972 153.168 356.31 150.298 357.605 146.274C355.278 139.929 352.348 132.649 351.722 125.877C349.123 97.7814 374.646 70.1431 402.59 67.8787ZM362.455 146.274C359.8 152.01 359.343 153.87 355.754 159.522C361.263 158.658 368.428 154.987 372.343 158.322C378.633 163.68 386.087 166.603 394.523 167.001C407.484 167.834 427.568 164.994 437.565 156.057C468.599 128.874 447.202 73.2844 403.975 72.1171C377.904 73.0331 355.429 98.092 355.749 123.725C355.861 132.696 360.133 138.417 362.455 146.274Z"/><path fill="#2D2B2C" transform="scale(2 2)" d="M406.871 141.358C416.649 140.82 418.502 154.385 408.117 157.348C395.923 157.23 397.68 143.388 406.871 141.358ZM408.117 154.219C415.671 151.509 413.433 143.148 406.871 144.025C401.229 146.914 400.392 154.6 408.117 154.219Z"/><defs><linearGradient id="gradient_2" gradientUnits="userSpaceOnUse" x1="397.4895" y1="116.62242" x2="408.75455" y2="90.218628"><stop offset="0" stop-color="#1F1B1C"/><stop offset="1" stop-color="#363536"/></linearGradient></defs><path fill="url(#gradient_2)" transform="scale(2 2)" d="M408.117 94.402C405.811 96.3645 391.023 108.794 389.068 107.044C389.007 105.072 409.294 90.3135 410.24 90.2875C411.961 91.7045 409.54 116.793 409.334 120.857C409.302 123.586 409.797 134.96 407.676 136.158L407.124 136.056C406.995 135.771 406.905 135.66 406.871 135.368C405.711 125.77 406.958 103.532 408.117 94.402Z"/><path fill="#010101" transform="scale(2 2)" d="M406.871 135.368C407.715 130.163 404.726 121.146 409.051 120.196L409.334 120.857C409.302 123.586 409.797 134.96 407.676 136.158L407.124 136.056C406.995 135.771 406.905 135.66 406.871 135.368Z"/><path fill="#2D2B2C" transform="scale(2 2)" d="M444.531 135.368C451.174 139.069 426.027 157.489 421.536 159.522L420.759 159.425C418.624 157.432 426.428 154.191 428.795 152.445C435.358 147.605 439.16 140.993 444.531 135.368Z"/><path fill="#2D2B2C" transform="scale(2 2)" d="M444.531 119.686C451.839 122.225 434.61 139.161 431.916 141.358C428.464 142.197 432.556 137.585 433.452 136.832C439.083 132.1 440.797 125.472 444.531 119.686Z"/><path fill="#2D2B2C" transform="scale(2 2)" d="M441.84 105.107L442.777 105.192C446.204 107.665 437.369 124.187 435.64 127.671C433.073 129.885 436.545 120.476 436.813 119.882C439.004 115.024 440.295 110.159 441.84 105.107Z"/><path fill="#2D2B2C" transform="scale(2 2)" d="M110.755 264.957C111.476 259.769 111.598 254.417 112.49 249.238C119.834 206.596 127.177 172.286 153.964 136.63C162.001 125.932 190.774 94.4774 206.315 106.477C207.625 109.767 200.96 107.218 199.942 107.023C195.847 106.24 190.883 107.237 187.263 109.263C141.893 134.656 121.577 201.348 114.729 249.965C114.369 252.516 113.198 263.679 112.749 264.957C112.221 265.515 111.663 266.308 111.684 267.116L111.887 266.663L111.741 267.245L111.513 267.016L111.773 266.985C111.5 265.892 111.532 265.778 110.755 264.957Z"/><defs><linearGradient id="gradient_3" gradientUnits="userSpaceOnUse" x1="318.89172" y1="446.61441" x2="447.93405" y2="384.70261"><stop offset="0" stop-color="#181617"/><stop offset="1" stop-color="#323031"/></linearGradient></defs><path fill="url(#gradient_3)" transform="scale(2 2)" d="M439.05 367.891C444.566 368.393 443.08 382.451 442.291 386.22C439.088 401.508 427.13 413.3 414.265 421.284C383.994 440.07 347.892 441.388 314.087 433.625C313.74 433.528 309.971 432.193 311.745 431.582C312.65 431.271 324.031 433.807 326.208 434.148C353.429 438.422 383.715 435.054 408.013 421.728C424.327 412.78 440.033 398.504 440.483 378.612C440.549 375.662 438.135 370.276 439.05 367.891Z"/><path fill="#2D2B2C" transform="scale(2 2)" d="M69.9346 382.307C51.1056 365.631 38.535 335.835 48.3106 311.208C48.7964 309.984 50.0302 308.022 51.1969 309.637C51.3051 310.816 50.2198 313.151 49.7873 314.544C43.2214 335.691 50.5702 353.696 62.9044 370.745C64.8798 373.476 70.5592 379.575 71.5735 381.453C72.1446 384.564 72.1671 381.85 69.9346 382.307Z"/><path fill="#2D2B2C" transform="scale(2 2)" d="M410.94 234.652C412.174 234.684 412.669 234.521 413.357 235.61C414.294 242.903 403.759 286.377 401.766 294.289C400.848 297.93 400.398 302.036 399.371 305.618C396.262 307.274 398.147 301.256 398.398 300.066C401.633 284.851 404.459 269.537 407.459 254.275C408.717 247.872 409.311 240.89 410.94 234.652Z"/><path fill="#2D2B2C" transform="scale(2 2)" d="M381.758 279.271C381.144 258.385 388.504 243.547 384.957 219.507C384.693 217.717 382.621 212.446 382.756 211.486C383.598 210.805 384.597 211.107 385.121 212.07C394.062 229.487 386.531 253.865 384.129 272.324C383.901 274.076 383.847 275.865 383.52 277.597C383.471 279.438 383.641 281.183 382.498 282.641L382.206 282.579C381.6 281.348 381.725 280.665 381.758 279.271Z"/><path fill="#010101" transform="scale(2 2)" d="M381.758 279.271C381.996 277.898 382.242 277.963 383.52 277.597C383.471 279.438 383.641 281.183 382.498 282.641L382.206 282.579C381.6 281.348 381.725 280.665 381.758 279.271Z"/><path fill="#010101" transform="scale(2 2)" d="M387.957 45.7503C390.694 45.5417 403.779 45.6561 404.823 48.2752C403.839 49.7466 401.849 49.0117 400.413 48.7064C382.888 44.9787 367.295 52.7974 353.78 64.0931C350.169 66.7233 346.668 71.3612 343.24 74.0146C349.556 59.9343 373.194 47.9137 387.957 45.7503Z"/><path fill="#2D2B2C" transform="scale(2 2)" d="M440.252 60.8659C449.316 61.1776 470.971 90.124 467.219 95.7671C465.583 95.4761 463.662 90.2097 462.837 88.4164C455.795 73.1197 451.491 71.8247 439.81 62.8486C439.658 61.9256 439.861 61.895 440.252 60.8659Z"/><path fill="#2D2B2C" transform="scale(2 2)" d="M69.0068 256.753C70.903 257.065 70.3914 258.12 70.033 259.682C67.571 270.416 69.3317 280.993 74.086 290.834C75.2002 293.141 78.1925 295.927 76.6851 298.336C69.5353 295.531 62.6319 265.386 69.0068 256.753Z"/><defs><linearGradient id="gradient_4" gradientUnits="userSpaceOnUse" x1="97.028938" y1="251.32381" x2="92.04924" y2="249.49609"><stop offset="0" stop-color="#1C1A1A"/><stop offset="1" stop-color="#363436"/></linearGradient></defs><path fill="url(#gradient_4)" transform="scale(2 2)" d="M89.9855 266.703C89.6143 256.689 92.9557 242.398 98.4392 233.937C99.0717 232.961 100.205 233.056 100.92 233.955C98.6037 244.864 90.4552 252.242 92.2458 268.226C91.317 267.454 91.3851 268.671 89.9855 266.703Z"/><path fill="#2D2B2C" transform="scale(2 2)" d="M416.909 285.516C417.704 283.227 423.006 266.274 425.393 266.846C426.587 268.657 419.785 284.037 418.593 286.299C416.88 286.494 417.912 287.497 416.909 285.516Z"/><path fill="#2D2B2C" transform="scale(2 2)" d="M426.145 308.971C426.763 307.091 433.646 290.617 436.198 292.22C436.817 293.857 429.346 307.224 427.893 308.971L427.375 308.873L426.831 309.674C426.229 309.436 426.487 309.624 426.145 308.971Z"/><path fill="#010101" transform="scale(2 2)" d="M112.749 264.957L112.741 275.74C112.738 277.117 113.155 279.664 112.282 280.663L111.755 280.764C110.354 279.671 110.676 267.369 110.755 264.957C111.532 265.778 111.5 265.892 111.773 266.985L111.513 267.016L111.741 267.245L111.887 266.663L111.684 267.116C111.663 266.308 112.221 265.515 112.749 264.957Z"/><path fill="#010101" transform="scale(2 2)" d="M416.909 285.516C417.912 287.497 416.88 286.494 418.593 286.299C417.654 288.49 414.319 298.557 412.778 299.251C411.441 296.942 415.95 287.946 416.909 285.516Z"/><path fill="#010101" transform="scale(2 2)" d="M71.5735 381.453C81.2122 388.909 81.7215 394.37 69.9346 382.307C72.1671 381.85 72.1446 384.564 71.5735 381.453Z"/><path fill="#010101" transform="scale(2 2)" d="M89.9855 266.703C91.3851 268.671 91.317 267.454 92.2458 268.226C92.3089 269.856 93.2299 276.394 93.0597 277.019L92.5683 277.263L91.9797 277.038C90.283 275.017 90.0518 269.295 89.9855 266.703Z"/><path fill="#010101" transform="scale(2 2)" d="M426.145 308.971C426.487 309.624 426.229 309.436 426.831 309.674L427.375 308.873L427.893 308.971C427.121 310.703 425.809 313.02 424.128 313.956L423.739 313.791C423.609 311.979 425.064 310.308 426.145 308.971Z"/></svg>