<?xml version="1.0" encoding="utf-8" ?><svg xmlns="http://www.w3.org/2000/svg" xmlns:xlink="http://www.w3.org/1999/xlink" width="1024" height="1024" viewBox="0 0 1024 1024"><path transform="scale(2 2)" d="M309.512 66.8725C316.215 65.5635 346.173 67.0582 352.545 68.337C372.395 72.3206 403.12 79.2207 405.411 103.827C406.582 116.41 409.32 136.945 402.344 148.034C398.005 154.933 381.584 151.17 374.628 152.187L374.22 152.249C373.447 157.405 374.103 162.622 374.197 167.813C374.581 189.08 373.756 210.352 374.312 231.624C375.25 267.47 379.807 302.921 385.063 338.347C388.606 362.226 397.003 393.472 377.865 412.576C364.924 425.494 344.84 429.084 329.476 418.43C318.98 411.151 309.576 397.276 302.098 386.912C285.408 363.782 271.02 342.541 241.96 334.446C226.16 330.044 224.351 336.529 212.502 348.341C186.304 374.673 159.622 407.823 153.474 445.298C152.497 451.248 148.748 445.641 147.562 443.862C139.878 429.839 130.856 416.448 125.533 401.258C108.105 351.43 106.755 267.984 106.684 215.791C106.636 179.842 100.101 143.073 111.279 108.062C119.436 82.5166 147.613 81.0026 170.009 77.877C186.805 75.5022 203.697 73.9464 220.621 72.7174L285.251 68.0109C293.166 67.4282 301.595 66.6779 309.512 66.8725ZM111.877 171.215C114.201 168.198 124.137 152.407 128.626 155.836C129.462 157.885 127.52 158.921 125.992 160.019C119.912 164.387 117.762 170.053 113.249 175.08C112.272 184.056 113.884 194.976 113.249 204.576L113.464 204.324C116.322 200.933 124.003 189.331 128.07 188.152L128.704 188.274C130.014 190.476 115.211 208.199 113.917 209.281C113.694 213.367 113.661 216.852 113.917 220.965C114.777 219.78 129.622 199.347 130.773 206.775C130.141 208.189 127.972 209.712 126.732 210.758C121.625 215.068 118.089 221.008 113.917 226.156C113.881 230.393 113.756 235.196 113.917 239.406C116.563 235.874 125.946 222.36 129.629 221.239C133.013 221.745 129.332 225.884 128.12 226.978C122.375 232.17 118.861 239.376 113.917 245.058L113.917 258.276C118.571 252.978 122.572 247.384 127.294 242.222C128.757 240.623 133.201 241.954 131.132 243.416C121.559 250.181 114.646 259.598 114.748 271.339C116.656 268.492 124.197 257.374 127.254 256.696C132.073 258.002 123.492 264.404 122.273 265.91C119.451 269.399 117.48 273.313 114.748 276.72C115.574 279.755 115.606 287.853 115.537 291.173C117.717 288.19 125.138 277.195 127.87 276.44C132.222 277.481 124.809 283.027 123.93 284.445C114.461 299.717 117.438 291.961 116.528 308.366L116.75 308.08C119.921 303.964 126.957 291.793 132.237 290.582C136.816 291.741 128.353 298.034 127.217 299.402C123.857 303.448 120.265 308.866 117.753 313.45C117.729 317.002 118.214 323.767 118.694 327.42C120.359 324.68 129.293 311.389 132.969 312.513C135.129 314.671 128.523 319.18 127.186 320.762C123.912 324.633 121.707 329.115 118.694 333.111C119.76 335.546 120.122 339.916 121.083 343.136C122.73 339.895 133.915 325.867 137.072 326.562C139.226 329.546 123.552 343.349 121.083 349.128C121.846 353.378 121.943 355.037 123.488 359.064C124.937 354.716 134.464 343.48 137.919 343.116C141.033 344.64 134.543 349.548 133.408 350.88C130.283 354.548 125.415 359.753 123.488 364.163C124.364 368.758 125.318 373.118 126.89 377.527C128.609 373.264 138.031 358.03 142.732 358.036C144.593 359.249 143.257 360.749 142.075 361.823C135.929 367.405 132.075 374.708 127.615 381.525C128.66 385.84 130.068 392.287 131.455 396.339C133.842 389.126 136.461 382.472 141.513 376.641C142.522 375.476 146.884 370.324 147.422 374.564C147.004 375.539 143.616 379.34 142.64 380.474C137.201 386.794 136.588 395.161 133.237 402.191C134.497 404.612 135.887 408.659 136.856 411.327C140.021 396.975 151.814 382.695 143.316 401.207C140.956 406.346 140.225 411.092 138.909 416.457C139.78 418.284 140.604 420.026 141.577 421.805C141.92 420.577 142.48 418.307 142.901 417.192C143.778 414.611 146.002 406.188 149.199 406.263C151.199 407.613 148.48 410.249 147.951 411.851C144.407 422.569 142.683 425.973 148.629 435.711C152.269 410.901 166.382 389.862 181.705 370.769C198.231 350.178 215.818 328.017 240.415 316.828C259.797 308.01 287.31 309.414 305.867 297.876C324.846 285.998 325.211 279.091 334.404 262.69C334.718 262.13 336.77 262.201 336.867 263.11C337.273 266.918 334.399 271.417 332.818 274.798C323.63 291.024 308.59 303.182 290.503 308.069C278.068 311.429 256.842 313.714 246.638 318.792C242.679 329.615 239.046 326.829 243.209 319.925C239.705 321.654 236.502 323.446 233.163 325.489C270.519 332.199 276.998 342.596 299.535 370.398C297.912 358.906 314.063 345.808 306.728 357.861C303.511 363.149 303.911 369.767 300.193 371.015C301.351 374.75 327.396 405.755 330.352 408.493C337.836 415.425 343.297 417.435 353.574 416.457C353.707 413.139 354.882 401.263 359.274 401.182C362.085 402.257 357.161 412.639 356.361 416.457C357.757 415.894 359.904 414.954 361.287 414.601C361.695 410.287 363.454 407.057 365.229 403.206C369.823 393.241 371.583 394.198 377.353 402.191C385.097 382.689 381.535 368.524 378.463 348.032C371.017 298.368 366.197 249.178 366.63 198.874L366.759 167.982C366.834 142.198 367.946 99.6429 337.608 88.7973C321.319 82.9742 271.633 79.2659 252.191 80.4053C217.748 80.5879 175.229 83.3147 142.451 91.2124C130.529 94.0848 121.536 99.246 117.685 111.676C111.094 132.946 113.069 150.498 111.877 171.215ZM302.7 77.3646C304.075 72.9861 307.874 72.7019 305.982 77.3646C308.78 77.5118 312.148 77.7673 314.897 77.7794C317.108 72.7955 321.033 73.3147 317.984 77.7794C320.635 78.3034 323.209 78.7419 325.871 79.1841C327.908 73.3624 332.24 75.3832 328.423 79.1841C330.878 79.7144 333.385 80.2873 335.849 80.7403C337.653 78.9955 339.491 76.8402 342.111 76.6635L342.645 76.8769C342.892 78.649 340.296 80.0059 338.984 80.7403C341.625 82.6069 343.218 83.3394 346.174 84.6611C350.568 77.6121 356.805 78.4896 348.724 86.1813C350.803 87.4917 352.87 88.7274 354.775 90.2844C356.376 88.0091 358.665 84.3892 361.18 83.2955L361.642 83.375C362.234 85.7872 358.506 90.7793 357.152 92.7857L361.287 96.9822C362.57 94.6921 364.446 90.4752 366.932 89.7259L367.413 89.9634C368.401 93.0156 364.718 98.2845 362.884 100.625C363.891 101.928 364.34 102.645 365.177 104.064C366.136 101.935 370.156 92.4732 373.243 94.6196C373.76 96.5108 368.067 106.038 366.755 108.233C367.227 109.575 367.711 111.068 368.266 112.366C369.52 110.082 374.348 99.6315 377.192 100.781C378.995 103.189 371.324 114.786 369.994 117.372C370.031 119.096 370.866 121.082 371.487 122.702C372.847 120.378 376.383 112.899 377.852 111.861C379.799 111.618 379.874 113.169 379.285 114.74C376.324 122.647 372.36 125.313 372.813 133.799C374.114 132.043 378.887 123.005 381.445 125.382C382.524 129.058 372.797 138.867 373.797 143.604C375.331 150.869 379.552 132.424 385.828 132.603C387.328 133.805 381.073 142.674 379.787 145.731C383.091 145.616 395.059 146.708 396.518 144.466C402.28 135.386 399.858 98.3075 390.932 91.747C369.536 76.0215 333.984 72.2085 308.368 72.6361C299.653 72.8216 293.572 73.8707 285.01 74.7712C290.992 75.6563 296.895 75.8114 302.7 77.3646ZM371.487 400.609C368.263 404.428 367.133 408.003 365.177 412.594L368.266 411.327C370.772 409.042 373.006 406.989 375.372 404.564C374.133 403.273 372.787 401.81 371.487 400.609Z"/><path transform="scale(2 2)" d="M181.786 99.3309C186.393 99.5643 186.289 102.693 180.535 103.289C167.928 104.595 154.91 107.88 143.689 113.879C133.203 119.485 131.871 127.594 129.224 137.408L129.142 137.706C121.549 139.892 131.756 120.014 133.567 117.909C143.663 106.173 167.199 101.247 181.786 99.3309Z"/><path transform="scale(2 2)" d="M325.871 244.14C328.665 244.411 328.066 246.783 327.585 248.923C324.351 263.305 309.718 283.28 294.299 285.441C286.884 284.825 299.784 279.815 300.08 279.665C310.723 274.267 318.804 264.451 322.857 253.298C323.889 250.46 324.463 246.669 325.871 244.14Z"/><path transform="scale(2 2)" d="M126.89 169.71C132.345 170.15 123.469 177.565 122.414 178.837C120.159 181.558 117.941 185.783 115.537 188.08C108.385 188.249 124.391 170.997 126.89 169.71Z"/><path transform="scale(2 2)" d="M313.578 361.585C318.062 362.443 311.097 373.799 309.512 378.313C303.318 378.122 311.626 363.649 313.578 361.585Z"/><path transform="scale(2 2)" d="M328.423 381.525C332.66 382.684 325.658 395.033 324.675 396.339C318.813 395.845 326.245 383.448 328.423 381.525Z"/><path transform="scale(2 2)" d="M124.801 145.731C125.654 145.736 125.281 145.614 125.967 146.084L126.029 146.649C125.204 148.327 117.687 154.635 115.537 156.643C109.062 153.782 121.897 146.656 124.801 145.731Z"/><path transform="scale(2 2)" d="M346.174 399.203C348.822 399.252 349.175 400.509 347.389 402.322C344.56 405.194 344.502 408.79 343.267 412.594C336.87 412.611 342.229 401.612 346.174 399.203Z"/><path transform="scale(2 2)" d="M320.794 371.637C325.647 372.298 318.132 382.583 316.323 385.695C310.503 385.814 318.941 373.177 320.794 371.637Z"/><path transform="scale(2 2)" d="M335.849 393.211C339.842 393.225 336.869 397.18 335.833 399.287C334.517 401.964 334.122 404.975 332.867 407.598C326.967 407.982 334.416 394.928 335.849 393.211Z"/><path transform="scale(2 2)" d="M292.045 339.147C297.194 339.913 289.892 348.079 287.87 352.134C282.284 352.729 290.449 340.461 292.045 339.147Z"/><path transform="scale(2 2)" d="M283.308 333.111C288.449 333.709 282.221 341.541 280.726 344.286C276.505 346.598 280.73 335.894 283.308 333.111Z"/><path transform="scale(2 2)" d="M299.535 349.128C303.182 350.18 297.258 357.014 295.593 359.956C289.447 361.123 297.48 350.617 299.535 349.128Z"/><path transform="scale(2 2)" d="M276.265 328.114C280.789 328.872 275.284 336.681 274.375 339.147C269.626 337.593 273.957 330.134 276.265 328.114Z"/><path transform="scale(2 2)" d="M269.583 324.408C273.412 325.267 268.472 331.605 267.14 333.111C263.112 331.79 267.733 325.858 269.583 324.408Z"/><path transform="scale(2 2)" d="M252.191 319.925C255.884 319.857 251.171 326.004 250.39 327.42L249.738 327.821C247.302 327.136 248.898 321.452 252.191 319.925Z"/><path transform="scale(2 2)" d="M261.94 321.938L262.512 322.145C263.549 323.812 260.956 329.25 259.403 330.376C256.966 327.519 258.598 323.282 261.94 321.938Z"/><path transform="scale(2 2)" d="M194.782 98.5093C197.45 98.4208 199.71 98.868 197.235 101.429C194.763 102.164 192.793 100.578 194.782 98.5093Z"/><path transform="scale(2 2)" d="M389.873 137.706C394.548 138.611 389.848 142.951 388.859 145.293L388.676 145.731C384.263 144.944 387.271 139.202 389.873 137.706Z"/></svg>