<?xml version="1.0" encoding="utf-8" ?><svg xmlns="http://www.w3.org/2000/svg" xmlns:xlink="http://www.w3.org/1999/xlink" width="1024" height="1024" viewBox="0 0 1024 1024"><path transform="scale(2 2)" d="M260.504 86.7469C271.919 85.6394 287.074 88.5253 298.301 90.5216C324.266 95.1386 342.35 95.6795 348.184 125.319C372.917 126.228 411.778 123.799 429.306 143.338C439.872 155.117 437.538 170.816 439.496 185.143C444.286 216.795 447.191 244.077 448.793 276.248C450.303 306.83 454.317 375.314 428.557 396.359C412.517 409.462 388.779 412.539 369.024 416.197C350.392 419.647 331.423 423.495 312.45 424.005C299.557 424.288 286.192 422.012 273.362 421.002C264.944 420.254 256.587 420.166 248.285 419.462C242.727 419.566 237.345 419.118 231.82 418.854L173.231 416.548C125.485 414.61 85.9191 411.797 72.8368 356.419C67.2445 332.747 66.8565 309.685 64.8977 285.602C62.0991 251.192 60.2733 216.339 65.5207 182.032C66.1227 178.095 67.2406 174.252 67.7225 170.292L67.7761 169.835C66.6188 170.827 63.8339 172.441 63.7788 169.783C64.8393 167.511 68.3849 166.499 69.5055 163.761C86.1193 123.17 93.6171 123.41 137.267 122.519C146.317 122.338 156.459 123.265 165.917 123.25C170.117 111.347 182.77 97.5846 194.89 93.6773C201.116 91.2195 206.867 94.4946 213.1 93.7245C228.941 91.767 244.69 89.0386 260.504 86.7469ZM74.1856 167.154C71.9648 172.031 71.563 177.042 70.2384 182.001C77.0328 178.377 84.599 170.879 91.1288 166.215C103.831 157.142 139.779 136.065 155.638 131.323C149.213 135.381 141.504 138.183 134.875 142.09C118.557 151.708 101.907 161.306 87.0904 173.157C81.736 177.44 76.8114 182.999 70.2384 185.262C69.1638 189.563 68.3601 196.439 67.7761 201.132C74.1514 198.306 82.0021 192.228 87.6903 187.909C102.389 176.75 125.173 158.508 141.744 150.451L141.874 150.62C128.304 160.851 114.75 171.061 101.333 181.51C93.797 187.378 76.963 202.803 67.7761 203.593C68.184 208.762 67.6898 215.121 67.7761 220.554C71.6586 217.915 75.4673 213.909 79.2364 210.789C90.9518 201.09 112.668 182.833 126.5 177.834L126.285 177.968C111.742 186.911 104.389 194.501 91.4187 204.493C85.4387 209.1 74.5276 221.101 68.3195 223.208L67.7761 223.395C67.9364 227.77 68.225 235.176 68.7492 239.418C74.6388 231.533 108.056 206.235 116.333 200.708L116.492 200.907C109.972 207.215 101.875 213.453 95.0107 219.758L82.1578 231.784C78.0548 235.662 74.2942 241.555 68.7492 239.418C68.6645 243.482 69.3976 254.576 70.2384 258.43C79.9466 249.172 100.979 230.232 113.096 225.462C98.4541 236.322 83.4795 253.452 70.2384 261.53C70.2832 263.842 70.5603 270.333 71.0347 272.353L71.3631 272.526C73.051 271.371 77.4665 266.444 79.3921 264.724C87.1193 257.819 95.8027 250.408 105.528 246.737C97.5539 251.679 74.8459 274.668 71.2873 275.642C71.6301 281.302 71.8186 286.331 71.875 292.022C74.5549 290.739 82.6827 282.812 85.5015 280.5C91.3382 275.711 98.69 270.337 105.528 267.122C100.07 271.573 94.6679 275.656 89.4633 280.507C85.1699 284.509 77.0699 293.612 71.875 295.38C72.8238 299.592 73.1034 304.118 73.7359 308.421C76.8748 303.507 87.1538 294.104 92.3504 292.022C95.1742 290.043 96.8559 289.209 100.009 287.79C91.5223 294.105 80.7344 304.725 73.7359 312.814C73.7759 317.906 75.4053 328.328 75.9393 333.702C82.7088 325.519 96.2039 313.507 105.528 308.421C99.9574 313.905 80.3406 334.611 75.9393 337.49C77.0576 341.376 77.1791 344.58 78.8663 348.164C86.4804 337.879 91.9494 331.413 103.897 325.352C94.7432 332.526 84.2755 348.217 78.8663 351.627C83.2841 370.083 87.5751 381.296 101.435 394.081C108.703 384.831 128.566 374.706 138.996 370.364C138.515 370.935 105.625 394.247 103.897 395.4C107.945 398.274 111.13 399.469 115.552 401.584C119.898 394.59 142.244 383.069 150.654 379.388C151.66 379.359 146.371 382.562 145.906 382.902C139.243 387.77 123.523 397.534 118.768 402.678C137.854 408.67 156.916 409.009 176.792 410.006L234.198 412.57C274.965 414.713 304.628 418.109 345.119 412.122C375.016 407.703 426.291 407.512 436.241 372.108C447.215 333.059 442.561 266.622 438.274 224.737C436.909 211.397 434.631 198.247 432.766 184.986C431.242 174.145 432.97 162.561 427.825 152.602C418.141 133.855 381.002 132.38 362.873 131.817C358.104 131.67 352.666 132.116 348.184 131.764C346.026 141.48 343.116 145.557 343.253 132.625C326.231 132.38 306.131 135.484 288.852 136.377C267.13 137.637 245.426 137.003 223.684 137.558C209.306 137.925 178.697 142.746 168.146 129.978C163.518 130.127 149.556 129.233 146.5 129.978C136.361 131.079 87.2833 157.637 74.1856 167.154ZM106.775 139.536C98.5022 144.66 84.7605 154.704 76.7089 157.353C76.4115 158.564 76.15 159.624 75.9393 160.861C94.971 148.876 120.356 136.498 141.181 128.453C132.231 127.497 126.327 127.074 117.184 127.247C105.874 127.984 95.7639 128.964 88.308 138.749C90.6619 136.822 97.0473 132.558 100.056 132.343L100.534 132.6C100.883 136.863 85.6206 145.009 82.312 145.795C80.8755 147.66 80.0285 149.995 78.8663 152.15C83.5347 149.015 111.639 130.451 115.213 131.219C120.211 132.292 107.416 139.125 106.775 139.536ZM175.943 118.081C180.772 113.267 198.796 103.712 204.44 107.822L204.701 108.476C201.237 114.746 186.349 120.534 182.66 130.28C187.189 131.795 191.53 132.383 196.256 131.764C201.625 122.543 207.046 116.997 217.441 113.738C208.508 119.201 206.13 125.403 198.962 131.764C203.66 132.343 212.509 131.814 217.441 131.323C217.876 128.465 218.212 127.745 219.8 125.319C225.023 118.803 237.913 114.427 245.755 111.958C236.597 119.582 225.962 121.92 219.8 131.323C239.038 129.298 258.967 130.76 278.276 130.257C291.964 129.9 306.441 128.104 320.124 126.932C326.497 126.386 335.644 126.459 341.5 125.319C339.817 118.186 336.958 110.261 330.166 106.477C313.536 97.21 285.551 94.9418 266.126 95.2748C248.071 96.6383 230.434 98.762 212.527 100.204C207.255 100.628 202.611 98.5073 197.412 99.9545C187.149 102.811 181.57 109.646 175.943 118.081ZM172.398 124.629C174.844 128.029 177.532 128.96 181.442 129.978C181.751 122.073 191.616 115.051 197.689 110.807C203.22 106.895 200.08 108.056 197.689 110.807C186.919 112.175 180.217 117.677 172.398 124.629Z"/><path transform="scale(2 2)" d="M238.025 162.748L238.281 162.735C263.499 161.626 290.208 178.572 308.534 194.812C346.913 229.242 356.454 291.268 320.881 331.228C303.508 351.194 275.592 359.592 249.829 361.312C186.888 365.514 142.116 330.712 140.013 265.912C116.634 304.579 124.751 352.714 165.917 374.298C189.111 389.086 234.322 391.493 260.185 387.925C288.299 384.047 308.01 380.972 336.971 384.073C326.131 387.5 305.43 385.415 292.997 386.668C247.424 392.049 212.022 401.214 166.453 378.854C124.958 358.493 107.584 299.911 140.013 265.042C140.064 264.006 140.058 262.744 140.049 261.708C139.677 217.877 167.918 187.17 205.996 170.307C216.989 165.439 225.794 162.799 238.025 162.748ZM249.871 354.747L250.198 354.668C266.065 350.935 277.347 351.185 293.836 343.7C328.642 327.268 342.165 286.116 334.106 250.032C325.556 210.769 285.53 174.452 245.2 169.71C242.514 169.394 237.03 168.842 234.415 169.835C220.673 169.221 200.121 178.855 188.592 186.266C163.355 202.616 147.446 227.085 146.574 257.552C144.669 324.167 186.254 356.823 249.871 354.747Z"/><path transform="scale(2 2)" d="M238.888 197.76C247.57 197.511 249.449 199.807 252.504 205.868C252.583 206.024 259.03 207.542 260.274 207.879C288.608 215.554 309.457 244.849 310.728 273.465C311.374 288.032 309.368 302.623 299.001 313.502C283.615 329.65 264.441 330.99 244.062 331.488C189.111 328.397 147.065 281.306 186.467 228.837C198.166 213.258 210.892 207.705 230.221 205.251C231.523 200.617 234.61 198.984 238.888 197.76ZM231.558 211.249C225.354 212.013 218.266 213.013 212.57 215.734C190.333 226.355 174.947 253.377 177.945 277.893C181.891 310.16 222.009 323.538 249.871 324.457C280.374 323.662 304.976 312.033 304.003 278.406C303.443 259.073 293.899 238.766 279.745 225.59C266.559 213.315 248.98 210.559 231.558 211.249ZM234.415 205.251L241.675 205.251C243.816 205.512 246.117 205.34 248.285 205.251C246.385 204.19 242.705 201.65 240.72 202.101C237.489 202.54 236.825 203.022 234.415 205.251Z"/><path transform="scale(2 2)" d="M273.96 246.737L274.14 246.967C257.541 261.033 229.001 279.892 206.812 283.256L206.64 283.129C206.976 282.787 215.557 279.992 217.127 279.29C236.51 270.621 256.234 258.502 273.96 246.737Z"/><path transform="scale(2 2)" d="M277.464 273.226L277.64 273.583C267.391 286.883 245.987 298.596 230.221 302.768L229.969 302.474C230.764 301.815 236.188 299.455 237.498 298.832C252.128 292.471 264.399 282.135 277.464 273.226Z"/><path transform="scale(2 2)" d="M249.871 237.294L250.127 237.388C246.758 242.078 216.221 249.299 209.278 250.277L208.903 250.128C209.042 250.013 246.836 238.275 249.871 237.294Z"/><path transform="scale(2 2)" d="M386.824 285.26C398.902 284.73 408.466 286.486 418.499 293.797C434.803 305.673 439.053 330.593 426.626 346.762C417.921 358.088 406.276 361.425 392.809 363.254C356.299 367.861 331.394 337.393 354.16 305.345C362.39 293.761 373.048 287.631 386.824 285.26ZM393.628 359.246C405.608 357.422 416.434 354.589 424.02 344.406C435.091 329.546 430.444 306.821 415.49 296.423C406.824 290.397 397.159 288.579 386.824 289.242C364.2 292.486 347.248 312.268 350.495 335.548C353.552 357.464 375.623 359.361 393.628 359.246Z"/><path transform="scale(2 2)" d="M391.099 298.602C393.517 298.475 399.276 299.029 400.643 301.144L400.642 301.145C390.671 298.694 373.759 306.283 369.11 315.912C366.204 318.6 365.479 319.893 363.541 323.391C367.031 310.561 377.482 299.824 391.099 298.602Z"/><path transform="scale(2 2)" d="M407.756 315.912L407.845 316.069C393.626 326.602 389.187 333.773 369.11 337.49L368.9 337.331C368.418 337.878 381.44 331.264 382.3 330.877C390.874 327.013 399.505 319.66 407.756 315.912Z"/><path transform="scale(2 2)" d="M375.961 150.251C415.266 146.475 430.659 203.627 380.756 214.242C348.024 215.801 332.967 183.654 357.17 161.607C357.887 153.841 369.061 151.462 375.961 150.251ZM379.842 210.191C418.188 205.489 415.394 152.99 376.936 154.75C370.756 155.797 359.271 161.727 357.888 161.788C338.673 180.046 349.451 211.258 379.842 210.191Z"/><path transform="scale(2 2)" d="M387.696 173.599L387.985 173.465L388.219 173.644C380.417 178.941 370.73 183.422 361.554 185.262C361.039 185.32 361.199 185.303 360.669 185.182L360.789 184.832C367.94 178.784 378.49 174.895 387.696 173.599Z"/><path transform="scale(2 2)" d="M370.856 162.748L371.077 163C369.418 169.151 361.134 175.998 355.071 177.834C354.481 177.137 356.783 175.082 357.314 174.476C361.186 170.063 366.268 167.049 370.495 163.089L370.856 162.748Z"/><path transform="scale(2 2)" d="M190.202 161.887C204.812 161.031 202.227 168.274 199.93 167.444C182.913 161.296 160.163 177.058 148.724 188.302C138.986 197.875 132.448 211.719 132.741 225.462C132.669 229.308 133.358 232.231 134.007 236.015C132.502 232.254 130.474 227.377 130.164 223.388C127.938 194.725 163.976 164.427 190.202 161.887Z"/><path transform="scale(2 2)" d="M352.687 388.236C344.327 392.175 329.556 401.454 322.487 406.726C320.371 408.304 320.131 411.489 317.51 410.747C310.855 403.859 347.765 388.999 352.687 388.236Z"/><path transform="scale(2 2)" d="M376.936 386.756L377.049 386.931C368.703 394.033 356.121 398.804 348.325 407.205C346.949 408.687 345.553 410.468 343.508 410.747C338.998 402.735 371.915 388.789 376.936 386.756Z"/><path transform="scale(2 2)" d="M322.579 388.236L322.805 388.337C322.495 390.334 298.736 401.531 295.828 404.193C293.222 406.579 293.423 410.23 290.389 410.747C282.753 401.756 317.661 390.265 322.579 388.236Z"/><path transform="scale(2 2)" d="M165.917 384.073L165.984 384.092L165.967 384.334C158.214 388.997 150.199 393.148 142.901 398.516C138.978 401.401 138.395 406.081 135.369 405.657C134.44 404.942 134.133 404.495 134.676 403.352C139.692 392.794 155.48 387.513 165.917 384.073Z"/><path transform="scale(2 2)" d="M292.679 389.746L292.843 389.858L292.68 390.138C285.742 393.665 272.304 402.026 267.253 406.751C265.419 408.467 265.388 412.144 262.616 412.227C257.68 402.047 286.027 392.181 292.679 389.746Z"/><path transform="scale(2 2)" d="M126.5 357.491L126.65 357.681C117.639 363.156 109.127 370.304 101.026 376.996C99.391 378.347 96.0768 382.905 94.3336 382.749C87.001 378.311 122.457 359.134 126.5 357.491Z"/><path transform="scale(2 2)" d="M111.751 345.799L111.802 345.833L111.715 346.104C105.544 350.297 88.4319 369.079 85.0558 369.898C82.1702 364.217 107.583 347.878 111.751 345.799Z"/><path transform="scale(2 2)" d="M266.126 393.248L266.161 393.463C260.542 396.37 248.161 403.393 243.669 406.828C242.144 407.994 242.04 411.075 239.931 410.747C232.821 403.792 262.115 394.431 266.126 393.248Z"/><path transform="scale(2 2)" d="M239.931 395.4C240.074 395.405 239.96 395.389 240.388 395.538C234.652 400.166 228.577 403.796 222.351 407.675C220.795 408.644 219.41 411.265 217.963 411.737C211.867 405.722 235.77 396.745 239.931 395.4Z"/><path transform="scale(2 2)" d="M180.64 389.746C180.634 390.204 166.226 400.691 162.726 404.367C160.537 406.667 162.592 408.542 158.451 408.12C155.385 400.62 175.015 391.808 180.64 389.746Z"/><path transform="scale(2 2)" d="M197.689 392.237L197.947 392.315C197.653 393.76 182.698 402.806 180.638 405.08C179.235 406.631 179.331 409.35 177.514 409.471C170.22 402.636 192.815 394.652 197.689 392.237Z"/><path transform="scale(2 2)" d="M391.854 389.746L391.979 389.71C390.696 392.054 379.599 397.598 376.13 402.527C375.193 403.859 374.994 404.533 373.359 404.865C368.332 397.963 386.864 390.402 391.854 389.746Z"/><path transform="scale(2 2)" d="M222.066 394.081L222.544 394.007L222.503 394.255C217.46 396.657 212.346 400.068 208.063 403.706C206.42 405.101 204.989 408.805 203.259 409.471C196.146 402.553 217.546 394.834 222.066 394.081Z"/><path transform="scale(2 2)" d="M400.403 391.253C400.425 391.386 389.787 405.688 386.824 404.865C382.522 399.361 396.703 393.188 400.403 391.253Z"/><path transform="scale(2 2)" d="M258.106 113.738C258.196 113.808 258.287 113.877 258.377 113.947C253.078 118.5 244.61 126.235 238.888 129.978C234.615 124.88 255.114 115.191 258.106 113.738Z"/><path transform="scale(2 2)" d="M270.635 116.243L270.885 116.298C269.916 118.05 262.778 121.759 260.504 122.504C258.383 122.183 269.766 116.655 270.635 116.243Z"/></svg>