<?xml version="1.0" encoding="utf-8" ?><svg xmlns="http://www.w3.org/2000/svg" xmlns:xlink="http://www.w3.org/1999/xlink" width="1024" height="1024" viewBox="0 0 1024 1024"><path transform="scale(2 2)" d="M413.141 66.8251C425.334 64.9282 432.06 76.1014 438.273 84.2986C438.843 85.0506 453.09 101.439 445.345 100.949C442.237 100.752 430.146 82.3972 426.91 79.0949C418.663 70.6783 410.655 73.8406 401.582 79.0158C378.589 92.13 362.531 110.965 344.894 129.827C323.335 152.884 309.141 170.676 291.517 197.608L269.42 231.46C264.772 238.651 238.439 280.017 230.322 278.814C221.438 277.496 217.81 267.547 214.494 260.452C201.798 232.562 200.476 215.827 177.605 191.166C165.529 178.146 152.541 173.389 138.475 187.143C101.479 223.321 135.537 238.994 158.417 265.518C172.637 282.003 182.495 301.34 191.976 320.784C198.784 334.238 206.984 354.936 217.373 365.332C218.199 364.077 222.364 356.292 224.077 359.264C224.021 361.439 218.17 367.335 221.529 368.319C238.125 373.181 289.374 292.652 297.543 280.422C310.84 260.518 324.876 242.078 338.831 222.756C357.622 196.737 375.863 170.313 397.032 146.091C409.001 132.397 423.051 121.117 435.851 108.327C436.358 107.813 438.685 109.086 435.721 112.308L409.42 141.067C394.763 157.439 383.138 172.166 370.437 189.89L349.01 219.937C337.574 236.171 326.116 252.29 315.025 268.76L286.827 310.909C275.215 328.425 252.424 359.076 235.67 372.636C230.692 376.666 220.15 379.259 214.604 375.172C203.854 367.249 190.805 339.333 184.175 325.361C171.512 298.673 161.879 282.2 141.887 260.87C131.991 250.41 115.965 238.503 113.494 223.432C110.278 203.819 131.076 173.607 151.14 170.573C174.792 166.996 196.299 196.498 205.317 215.001C210.75 225.721 222.055 263.95 230.217 269.877C240.386 259.866 251.829 241.984 259.494 230.105L281.97 195.618C288.278 185.922 293.978 176.763 300.954 167.524C312.924 151.376 325.414 138.377 338.326 123.52C320.536 110.161 304.097 90.7674 279.325 88.9256C244.989 86.3728 156.912 94.0924 127.97 114.649C104.43 131.369 93.3105 149.865 85.8633 176.964C67.6392 243.28 61.1494 357.93 116.394 408.464C149.083 438.366 188.962 440.104 229.739 433.712L257.02 429.568C290.48 424.572 325.678 425.972 349.924 399.203C380.92 364.981 382.954 313.058 385.449 269.282C386.73 246.808 383.442 224.478 388.341 202.144C389.385 197.382 390.7 190.682 390.498 185.951C386.722 179.939 395.701 181.186 393.25 192.627C388.865 213.091 391.041 234.168 391.319 254.874C392.013 306.643 390.335 379.453 345.145 414.557C322.92 431.821 292.337 433.06 265.65 436.663C213.184 443.904 165.677 457.604 118.078 420.697C74.2088 386.682 65.7132 323.569 65.6093 271.544C66.0795 231.768 69.226 191.234 84.6128 154.134C107.411 99.1638 153.916 91.3983 207.889 83.7523C224.497 81.3996 263.714 77.8962 280.824 80.6912C300.551 83.9137 317.659 93.7506 332.361 106.974C336.207 110.433 340.112 114.618 344.114 117.685L344.366 117.874C362.904 100.657 388.317 70.9601 413.141 66.8251Z"/></svg>