<?xml version="1.0" encoding="utf-8" ?><svg xmlns="http://www.w3.org/2000/svg" xmlns:xlink="http://www.w3.org/1999/xlink" width="1024" height="1024" viewBox="0 0 1024 1024"><path fill="#020202" transform="scale(2 2)" d="M228.252 133.498C228.193 129.527 226.781 94.7578 227.464 94.1858C231.511 90.7964 230.711 100.65 230.753 102.356L231.057 116.622C231.191 122.001 231.854 128.236 231.251 133.498C232 133.549 235.356 133.675 235.421 134.335C236.727 147.725 237.431 164.301 239.805 177.375C257.594 175.407 269.919 171.554 271.282 193.79C273.237 225.531 273.758 257.343 274.349 289.132C274.861 316.715 276.509 344.246 277.196 371.823C277.294 375.754 276.706 380.181 276.995 384C280.438 384.735 283.456 385.008 286.892 385.541C287.126 384.904 283.849 350.086 283.495 346.303C280.282 311.986 281.964 278.631 280.928 244.591C280.483 229.976 279.341 185.304 275.504 172.135C277.837 169.334 296.522 153.222 299.378 151.469C301.055 151.445 304.255 152.103 306.028 152.41C305.559 147.727 299.818 118.886 305.148 119.545C306.611 121.47 307.232 147.901 307.538 152.41C314.572 153.121 322.704 153.439 328.758 157.18C330.894 181.428 334.081 212.401 331.774 236.042C331.504 238.802 332.128 241.786 331.749 244.583C329.407 228.334 328.485 209.506 327.307 192.966L325.907 173.161C325.62 168.705 325.236 163.905 325.421 159.461C317.635 157.34 308.979 155.983 300.923 154.071C294.2 161.931 286.261 167.556 280.264 174.421C280.416 178.865 281.003 183.474 281.424 187.92C284.358 218.896 284.061 250.854 284.256 282.058C289.106 281.029 291.759 280.856 296.652 282.058C291.316 283.602 289.453 283.22 284.256 283.436C284.555 286.955 284.59 287.959 284.256 291.389C293.253 288.765 300.338 292.321 284.256 292.325C284.763 294.823 285.284 297.007 285.287 299.581C296.223 296.981 298 302.325 285.287 301.337C285.404 303.662 285.471 306.618 285.773 308.879C290.185 308.357 290.906 308.199 295.023 309.757C292.033 310.31 288.624 310.652 285.773 311.371C285.851 313.82 286.036 315.848 286.667 318.241C289.207 318.214 292.547 318.085 295.023 318.241C292.809 319.123 289.082 320.518 286.667 320.073C286.484 323.049 286.527 325.066 286.667 328.044C290.235 327.676 291.819 328.172 295.023 328.044C293.142 328.533 288.589 329.289 286.667 329.335C286.648 331.913 286.549 334.976 286.667 337.517C289.348 337.231 292.421 337.713 295.023 338.39C292.184 338.879 289.541 339.343 286.667 339.64C286.773 342.519 286.923 345.376 287.075 348.252C294.584 344.914 299.622 350.23 287.075 349.294C287.279 351.767 287.562 354.136 287.859 356.595C290.23 356.51 293.74 356.229 295.914 356.938L295.858 357.254C293.387 358.35 290.574 358.175 287.859 358.482C287.956 360.508 288.015 362.752 288.257 364.749C290.695 364.233 294.199 363.303 296.569 364.117L296.828 364.513C295.679 366.063 290.173 365.958 288.257 365.975C288.341 368.532 288.492 370.976 288.257 373.523C290.583 373.192 294.102 372.514 296.307 373.013L296.313 373.329C294.267 374.474 290.613 374.967 288.257 375.619C288.793 377.84 289.274 379.432 289.249 381.751C291.579 381.955 296.353 381.842 298.091 382.641L298.159 382.818C296.052 384.151 291.09 383.609 289.649 385.23C290.469 387.171 300.53 388.756 303.018 389.281C324.221 393.758 345.032 389.149 365.883 385.215C370.952 384.262 378.536 383.634 383.216 382.563C375.69 350.751 374.031 308.944 375.452 276.495C375.918 265.851 378.943 252.448 370.721 243.92C371.385 247.676 371.275 251.425 371.38 255.243L371.856 268.446C372.657 288.659 372.839 309.426 372.226 329.641C371.732 345.908 370.233 360.682 370.721 377.138C369.255 372.257 369.41 356.146 369.398 350.376L369.234 322.706C368.881 297.349 366.417 269.122 368.76 243.92C362.28 243.932 318.989 249.514 315.112 251.513C311.843 253.199 312.497 291.402 312.777 295.265C313.753 307.502 318.821 343.665 315.432 354.613C316.39 331.923 303.637 255.51 311.144 247.825C315.33 243.54 332.699 244.556 338.351 244.149C344.798 243.685 351.087 242.679 357.582 242.502C361.348 242.4 365.665 242.978 369.257 242.528C382.486 249.295 380.44 259.851 379.964 273.12C378.711 308.015 380.214 343.617 386.815 377.962C387.037 379.118 387.261 380.584 387.369 381.751L387.595 381.786C390.968 382.277 394.716 381.631 398.133 381.685C418.107 382.002 437.823 389.463 454.252 400.586C456.622 402.191 466.002 407.715 467.354 409.47C467.629 415.033 456.284 405.979 454.258 404.82C433.65 391.808 412.272 383.246 387.395 386.342C385.585 388.25 386.403 386.454 385.757 386.509C363.538 388.406 342.606 395.172 320.115 394.693C304.19 394.754 289.033 389.005 273.251 388.287C260.832 387.923 245.732 389.88 233.386 391.801C205.511 396.137 184.176 393.758 157.172 391.422C118.375 387.953 93.0522 388.237 60.8884 412.311C59.4858 413.361 56.2599 416.738 54.7036 415.206C54.5681 410.945 70.0036 400.883 74.9203 398.257C64.3415 401.291 54.9914 407.552 45.5425 410.443C57.6101 401.59 81.4364 391.972 96.1644 388.522C101.717 387.221 107.529 386.737 112.74 385.501C110.571 374.864 110.939 362.178 109.223 351.267C107.6 340.952 105.566 330.489 104.911 320.073C104.182 318.75 100.661 288.825 100.259 285.722C99.513 279.966 99.5121 273.239 96.2325 268.443C91.4212 262.919 57.4179 276.723 49.249 278.881C49.0655 310.861 56.014 337.381 59.6094 368.63C60.5223 376.564 62.4859 385.427 62.7355 393.353C54.6988 372.531 50.9738 335.558 49.1008 313.331C48.3159 304.017 46.1288 294.464 45.5621 285.085C44.9198 274.454 45.8962 275.044 55.5244 273.391C65.0674 271.764 94.3049 258.285 98.5104 267.348C96.7193 242.95 95.3816 213.656 91.7495 189.615C98.7742 189.076 106.164 189.917 113.44 189.219C122.477 188.353 131.726 187.513 140.785 187.335C161.695 186.922 155.925 220.601 159.486 233.498C160.129 234.034 160.379 233.847 161.437 233.898C165.543 231.661 180.757 231.738 185.758 233.898C185.769 222.548 180.398 186.09 184.28 181.84C186.05 180.875 192.534 181.868 194.971 181.647C204.968 180.74 215.618 180.433 225.551 179.329C224.03 171.09 220.826 140.505 224.93 133.876C225.843 133.241 227.149 133.417 228.252 133.498ZM113.024 385.501C116.165 385.771 119.771 385.623 122.936 385.53C138.287 385.081 151.73 387.981 166.128 388.248C166.524 379.039 164.965 368.172 164.724 358.842C164.413 346.836 159.981 331.494 178.648 333.916C177.048 319.032 186.019 311.263 200.006 318.241C200.218 302.304 193.147 286.812 189.846 271.556C187.387 260.197 187.504 248.416 185.758 237.119C180.038 233.906 169.544 234.063 163.5 236.089C162.212 236.074 160.965 236.072 159.676 236.089C160.227 238.727 160.534 240.01 161.437 242.528L163.5 241.833C168.147 241.36 171.038 241.361 175.605 242.528C171.749 243.359 167.935 243.492 164 243.92C163.02 244.223 162.44 244.412 161.437 244.583C161.492 246.397 161.796 247.373 162.179 249.13C164.233 248.673 165.748 248.539 167.854 248.807L168.137 249.351L168.265 249.274C166.723 250.439 164.115 250.528 162.179 250.845C162.543 252.424 163.224 254.769 163.5 256.236C164.996 256.218 167.933 256.08 169.247 256.41L169.356 256.722C168.211 257.775 165.164 258.11 163.5 258.415C163.442 260.251 163.512 261.799 164 263.595C166.028 262.919 167.138 262.574 169.356 262.743L169.773 263.068C169.249 264.381 165.392 265.317 164 265.747C164.189 267.172 164.306 268.683 164.5 270.06C166.104 269.061 166.896 268.386 168.8 268.345L169.36 268.61C169.329 270.411 165.894 271.009 164.5 271.385C164.503 272.796 164.54 274.351 164.5 275.748C165.641 275.251 166.845 274.7 167.997 274.246C170.102 274.053 171.377 274.106 173.512 274.246C172.234 274.798 171.058 275.34 169.724 275.748C168.317 275.843 165.979 276.837 164.5 277.323C164.495 278.29 164.473 279.302 164.5 280.264C167.816 280.275 172.533 279.995 175.605 280.264C171.578 281.645 168.686 282.194 164.5 282.777C165.008 285.053 165.338 286.412 165.485 288.712C168.303 288.673 172.018 288.539 174.741 288.712C172.506 289.632 168.021 290.289 165.485 290.768L165.485 294.347C166.862 294.331 168.359 294.279 169.724 294.347C179.96 291.753 178.875 294.428 169.724 295.767C168.45 296.031 166.699 296.345 165.485 296.681C165.463 297.934 165.384 299.508 165.485 300.732C166.755 300.704 167.848 300.548 168.98 301.054L169.084 301.431C168.082 302.186 166.745 302.216 165.485 302.368L165.485 306.216C166.701 306.202 167.82 306.07 168.92 306.52L169.153 306.896C168.407 307.83 166.687 307.965 165.485 308.186C165.895 314.85 165.316 327.305 164.5 333.916C163.011 324.864 163.636 313.711 162.179 304.136C160.812 279.945 158.777 255.521 155.834 231.457C154.717 222.325 154.959 192.938 143.505 191.62C128.53 189.897 108.176 196.62 93.4446 191.375C97.1805 202.408 98.7057 221.148 99.9299 232.712L105.115 281.259C106.158 290.607 109.947 310.562 109 319.25C110.142 324.383 110.478 336.106 110.793 341.747L113.024 385.501ZM190.436 318.241C180.13 320.358 181.965 327.175 182.164 335.49C182.233 338.388 181.682 341.667 181.804 344.591C182.42 359.346 186.252 376.163 185.758 390.021C189.722 390.367 195.85 390.072 200.006 390.021C202.333 390.059 206.185 390.226 208.384 390.021C208.185 383.333 207.179 376.107 206.251 369.497L202.462 343.96C201.054 334.577 202.699 318.103 190.436 318.241ZM259.131 348.252C260.876 348.745 269.281 350.738 269.58 352.123C271.807 362.462 268.364 373.505 270.249 384L275.504 384C273.463 335.613 269.924 288.592 269.608 239.737C269.507 224.161 269.935 208.568 268.508 193.019C267.852 185.784 265.861 178.063 256.758 179.329C245.011 180.345 232.768 180.818 221.293 181.946C209.251 183.13 196.885 187.663 184.824 183.804C182.478 190.703 188.228 214.974 189.047 223.836C190.373 238.191 190.199 253.047 191.78 267.362C192.808 276.674 196.648 285.81 198.708 294.915C199.965 300.311 199.636 306.265 201.103 311.371C204.275 306.996 205.637 302.34 211.774 301.349C221.06 299.848 221.955 313.977 222.597 320.073C233.861 308.163 238.412 322.917 240.804 331.796L244.177 330.817C255.87 327.649 259.609 339.122 259.131 348.252ZM225.551 388.248C224.429 363.908 222.2 341.732 219.338 317.448C218.74 312.38 218.94 304.038 212.208 304.136C192.856 310.398 208.137 374.128 210.613 390.021C212.473 389.725 215.255 389.188 217.062 389.221C219.851 389.142 222.801 388.705 225.551 388.248ZM228.252 388.248C230.59 387.877 232.909 387.605 235.257 387.319C237.631 387.163 240.704 386.693 243.089 386.287C242.078 376.09 239.488 321.626 230.973 318.241C227.057 319.255 222.867 322.775 223.025 326.988C223.811 347.922 227.308 367.971 228.252 388.248ZM258.467 351.254C257.679 358.56 260.815 376.128 262.226 384C264.351 383.927 266.114 383.851 268.247 384C268.256 374.984 268.177 366.044 267.576 357.047C267.3 352.901 261.755 352.131 258.467 351.254ZM245.539 385.501C248.181 385.607 249.569 385.322 252.054 385.226C254.733 384.927 257.066 384.73 259.681 384C259.16 372.692 257.605 361.378 256.138 350.16C255.418 344.658 256.016 332.124 247.188 333.191C245.125 333.442 242.877 333.661 241.488 335.423C236.513 341.73 244.551 375.154 245.539 385.501ZM184.824 390.021C183.765 374.638 181.019 356.007 178.928 340.575C178.467 337.173 176.598 336.693 173.512 336.76C169.607 337.992 167.733 339.61 167.86 343.956C168.248 357.157 168.659 375.337 166.128 388.248C171.153 388.876 173.935 388.87 178.648 389.221C180.608 389.523 182.869 389.933 184.824 390.021ZM230.973 177.375C232.722 177.411 234.827 177.51 236.534 177.375C235.957 172.427 233.994 137.393 232.845 136.179L232.401 136.172L232.108 136.223C226.612 137.121 227.913 135.518 227.3 143.499C226.475 154.251 226.283 167.496 228.252 178.063C228.924 177.888 230.349 177.47 230.973 177.375Z"/><path fill="#020202" transform="scale(2 2)" d="M141.952 207.37L142.295 207.547C139.004 212.475 108.372 215.269 101.57 214.594C99.1886 212.728 101.984 211.798 103.803 211.685C116.798 210.878 129.09 209.467 141.952 207.37Z"/><path fill="#020202" transform="scale(2 2)" d="M141.952 220.065C142.664 219.829 143.082 219.599 143.803 219.775L143.786 220.09C139.378 223.186 117.508 226.332 111.762 226.243C110.837 226.066 109.649 225.969 109.036 225.375L109.278 224.956C113.461 223.093 137.001 219.874 141.952 220.065Z"/><path fill="#020202" transform="scale(2 2)" d="M133.248 242.528C135.114 242.089 140.312 241.91 142.097 242.718L142.099 243.102C140.179 243.981 134.799 244.825 132.562 245.237L117.449 247.981C115.135 248.517 110.823 249.128 108.752 247.907L108.674 247.528C110.607 245.266 129.393 242.822 133.248 242.528Z"/><path fill="#020202" transform="scale(2 2)" d="M134.481 263.595C138.288 263.151 141.553 263.377 145.102 264.911C137.576 266.061 129.444 267.412 121.985 268.443C120.292 268.783 112.229 270.224 112.087 267.512C113.267 266.322 132.106 263.819 134.481 263.595Z"/><path fill="#020202" transform="scale(2 2)" d="M136.445 287.186C138.366 286.94 144.423 287.095 145.78 288.23L145.717 288.554C141.504 289.805 126.262 291.929 121.985 292.325C120.55 292.651 113.446 293.763 112.43 293.174L112.803 293.421L112.503 292.955C114.459 289.706 132.415 287.83 136.445 287.186Z"/><path fill="#020202" transform="scale(2 2)" d="M141.19 305.081C142.654 304.953 146.781 304.766 147.909 305.615C146.772 306.44 124.13 311.27 121.985 311.371C120.909 311.504 113.438 312.8 114.703 310.502C116.309 309.728 138.796 305.3 141.19 305.081Z"/><path fill="#020202" transform="scale(2 2)" d="M141.952 327.319C144.418 327.078 146.477 327.483 148.854 328.044C140.41 329.442 133.8 332.139 124.559 333.191C122.436 333.385 120.181 333.858 118.347 332.868L118.247 332.469C119.778 330.801 138.859 327.697 141.952 327.319Z"/><path fill="#020202" transform="scale(2 2)" d="M141.19 348.252C144.344 347.891 147.438 348.485 150.456 349.294C142.811 349.907 140.644 351.13 133.248 352.757C131.122 353.233 126.9 354.195 125.135 352.76L125.16 352.328C126.637 350.976 138.678 348.66 141.19 348.252Z"/><path fill="#020202" transform="scale(2 2)" d="M254.744 189.615C256.218 189.56 260.737 189.643 261.943 190.134L261.944 190.48C259.526 192.037 227.835 196.048 223.016 196.303C220.995 196.605 219.115 196.983 217.079 196.745L217.094 196.496C227.019 192.912 244.193 191.299 254.744 189.615Z"/><path fill="#020202" transform="scale(2 2)" d="M259.131 201.006L259.39 200.984C261.078 200.825 261.357 200.834 262.997 201.006C252.304 203.713 239.025 203.413 227.558 205.196C226.864 205.336 226.304 205.416 225.609 205.507L225.514 205.285C230.333 202.723 252.932 201.074 259.131 201.006Z"/><path fill="#020202" transform="scale(2 2)" d="M205.233 232.393L205.618 232.741C207.529 238.029 206.782 241.409 205.233 246.684L204.885 246.689C202.064 244.76 203.7 235.108 205.233 232.393Z"/><path fill="#020202" transform="scale(2 2)" d="M259.131 224.658C260.306 224.515 262.227 224.255 263.319 224.616L263.264 224.956C262.483 225.555 246.571 228.337 244.177 228.809C242.476 229.294 241.563 229.566 239.805 229.791C245.06 227.112 253.218 225.679 259.131 224.658Z"/><path fill="#020202" transform="scale(2 2)" d="M213.606 252.596C215.638 253.65 214.965 262.293 213.606 264.221C210.928 261.485 212.065 255.729 213.606 252.596Z"/><path fill="#020202" transform="scale(2 2)" d="M230.973 280.264C235.027 280.186 241.596 280.678 245.539 281.5L245.751 281.482L234.273 281.5C228.9 281.724 225.258 282.093 219.905 282.777C223.516 281.041 227.059 280.682 230.973 280.264Z"/><path fill="#020202" transform="scale(2 2)" d="M256.758 213.846C259.524 213.652 260.364 213.86 262.997 214.594C257.787 215.242 250.893 215.618 245.539 216.055C243.934 216.187 242.539 216.384 240.953 216.651L240.888 216.338C243.122 214.968 253.831 214.085 256.758 213.846Z"/><path fill="#020202" transform="scale(2 2)" d="M262.997 237.936L263.686 237.959L263.888 238.274C262.632 239.752 248.87 240.528 245.539 241.042L244.926 241.2L244.707 241.045C246.712 239.423 259.659 238.206 262.997 237.936Z"/><path fill="#020202" transform="scale(2 2)" d="M259.131 250.845C260.175 250.675 262.747 250.626 263.702 250.992C262.359 251.689 246.688 253.012 243.089 253.611C241.136 253.662 239.46 253.68 237.51 253.611C244.804 252.67 251.785 251.679 259.131 250.845Z"/><path fill="#020202" transform="scale(2 2)" d="M258.467 265.747C259.916 265.611 263.692 265.69 265.108 265.959L264.988 266.123C261.909 266.661 255.412 267.06 252.054 267.348C249.716 267.512 247.391 267.731 245.051 267.622C245.469 267.176 256.764 265.976 258.467 265.747Z"/><path fill="#020202" transform="scale(2 2)" d="M259.131 294.347C260.326 294.17 262.839 294.243 264.056 294.347C260.954 295.124 254.023 296.051 250.558 296.681C248.911 296.867 247.179 297.224 245.539 297.528C247.697 296.071 256.303 294.682 259.131 294.347Z"/><path fill="#020202" transform="scale(2 2)" d="M262.997 280.264L263.23 280.451L263.228 280.928C261.579 282.103 256.817 282.547 254.744 282.777L254.405 282.643L254.4 282.382C257.946 281.939 259.605 281.322 262.997 280.264Z"/><path fill="#020202" transform="scale(2 2)" d="M342.745 183.804C354.492 179.95 379.782 179.154 391.854 181.629C380.771 181.879 355.376 184.055 345.503 187.377C346.732 191.176 346.671 195.997 347.056 200.091C363.384 197.871 376.022 196.677 392.749 196.75C392.231 194.338 390.528 185.318 392.028 183.62L392.53 183.674C394.211 185.732 394.232 193.827 394.256 196.75C396.655 196.715 401.672 196.312 403.497 197.498C405.18 200.164 406.288 252.225 406.163 258.948C406.081 263.348 405.621 266.958 406.248 271.385C408.405 270.709 410.849 270.383 413.081 270.06C412.804 270.303 387.153 277.727 383.216 277.323C387.267 275.288 400.641 272.111 405.257 271.385C402.284 254.65 402.291 240.102 401.232 223.224C400.869 217.434 400.808 204.327 399.295 199.243C377.923 199.999 358.966 202.596 338.155 206.352C338.98 214.401 339.727 233.811 338.617 242.139C337.104 237.834 333.717 208.121 333.625 204.081C336.613 201.931 339.105 201.234 342.745 201.006C342.807 195.262 342.551 189.532 342.745 183.804Z"/><defs><linearGradient id="gradient_0" gradientUnits="userSpaceOnUse" x1="402.12555" y1="262.37592" x2="482.86423" y2="372.00607"><stop offset="0" stop-color="black"/><stop offset="1" stop-color="#232122"/></linearGradient></defs><path fill="url(#gradient_0)" transform="scale(2 2)" d="M413.081 270.06C419.528 268.421 448.365 264.563 453.199 267.508C458.087 270.486 456.445 281.266 456.598 286.081C457.587 317.158 453.794 347.948 453.769 378.979C453.764 384.956 454.111 391.227 453.256 397.148C449.844 383.129 451.134 341.397 451.956 327.006C452.903 310.447 454.347 293.936 453.808 277.329C453.392 264.485 437.23 271.801 427.666 273.169C421.292 274.12 414.691 274.111 408.376 274.926C398.944 276.145 388.996 278.048 379.499 278.881C380.529 278.438 382.211 277.661 383.216 277.323C387.153 277.727 412.804 270.303 413.081 270.06Z"/><path fill="#020202" transform="scale(2 2)" d="M406.248 102.25C415.172 101.511 417.931 103.613 422.39 110.802C439.186 100.796 451.287 118.462 440.301 128.68C445.186 115.982 436.136 105.865 426.361 111.497C421.413 114.347 421.511 117.831 417.946 110.67C412.951 100.635 400.819 103.806 394.727 110.64C393.347 112.188 392.314 114.164 390.865 115.814C389.221 113.504 388.097 110.808 385.898 108.856C379.902 103.531 361.956 111.501 373.912 120.616C365.536 120.834 344.618 126.692 365.749 128.68C384.162 129.128 399.318 130.391 418.284 129.19C419.807 129.094 430.776 127.606 431.001 127.737C425.595 133.481 364.596 134.181 354.955 129.164C344.918 123.942 368.818 120.018 370.057 119.792C368.186 118.25 368.179 118.157 367.668 115.814C369.773 105.939 384.154 99.7132 390.865 111.58C396.195 105.408 398.277 103.715 406.248 102.25Z"/><path fill="#020202" transform="scale(2 2)" d="M151.448 115.814C159.814 114.864 160.337 123.83 159.676 129.877C158.73 128.087 158.303 125.917 157.83 123.977C154.815 111.603 133.446 119.06 139.592 136.172C137.019 135.469 124.652 130.911 126.761 139.601C128.891 148.375 156.196 145.549 162.179 144.4C166.654 143.846 170.665 142.508 174.942 141.807C167.67 146.868 143.346 148.734 134.828 147.742C120.208 146.038 119.502 129.321 136.445 133.498C134.982 123.605 142.813 117.924 151.448 115.814Z"/><path fill="#020202" transform="scale(2 2)" d="M296.652 161.425C300.917 162.829 288.405 177.864 287.075 179.329C288.338 191.372 291.255 231.878 288.734 243.791L288.516 243.708L288.257 242.528C288.666 229.502 287.884 183.094 283.873 177.375C285.128 171.173 291.648 164.855 296.652 161.425Z"/><path fill="#020202" transform="scale(2 2)" d="M63.7039 284.565C66.507 285.234 65.2969 296.021 65.2536 298.826L65.1891 298.821L64.5955 299.401L64.9393 299.179C62.5749 301.469 61.455 301.602 58.3137 302.368C55.9513 302.101 56.9804 289.524 56.7783 286.841L56.7497 286.496C59.104 285.558 61.2157 285.018 63.7039 284.565ZM59.6778 299.581C62.7371 297.274 60.892 293.13 61.3377 289.781L61.5524 288.118L61.2655 287.884L60.6318 288.06C56.2319 288.621 58.2515 295.179 58.8581 299.358L59.1613 299.714L59.6778 299.581Z"/><path fill="#020202" transform="scale(2 2)" d="M364.75 264.221L365.075 264.39C364.713 267.149 364.762 270.564 364.75 273.392C364.214 274.075 363.874 274.436 363.524 275.243L363.764 275.463C364.445 275.119 364.555 275.048 365.283 274.851L365.619 275.183C365.94 276.994 365.771 281.416 365.749 283.436C364.721 283.962 362.175 285.152 361.481 285.864C364.265 287.258 365.793 282.963 365.749 288.06C365.44 289.965 362.315 290.8 360.752 291.389C360.809 287.674 360.061 268.035 361.287 265.901C361.829 264.956 363.771 264.544 364.75 264.221Z"/><path fill="#020202" transform="scale(2 2)" d="M88.253 281.5C92.2314 281.237 90.8178 291.798 90.7676 294.347C89.1676 295.881 88.1866 296.072 86.1126 296.681C81.8816 296.703 82.6274 286.253 82.4898 283.436C84.438 282.416 86.0788 281.81 88.253 281.5ZM86.1126 294.347C87.5474 292.947 87.7872 286.453 86.9161 284.658L86.1126 284.565C82.5924 285.803 85.2451 294.023 86.1126 294.347Z"/><path fill="#020202" transform="scale(2 2)" d="M67.1818 313.793C69.6329 313.425 68.7537 325.3 68.7495 327.319C66.7264 327.728 64.7385 328.33 62.7355 328.044C59.9465 327.643 60.6628 316.59 60.6318 314.246C63.3698 314.366 64.5534 314.507 67.1818 313.793ZM65.2536 324.97C65.8478 321.866 65.6336 319.333 65.2536 316.241L62.7355 316.241C62.8066 318.559 62.9774 322.906 63.3752 325.141L63.6508 325.336C64.2053 325.221 64.7078 325.128 65.2536 324.97Z"/><path fill="#020202" transform="scale(2 2)" d="M169.724 119.792L170.051 119.762C176.325 119.234 176.828 123.645 176.582 128.256C176.496 129.861 192.235 129.965 182.999 139.503C184.606 134.615 183.527 132.529 178.648 130.686C176.363 130.007 173.236 129.949 170.858 129.877C172.076 127.3 173.495 122.762 168.77 122.071C165.172 121.545 162.187 126.327 159.676 128.68C162.03 123.453 163.377 120.02 169.724 119.792Z"/><path fill="#020202" transform="scale(2 2)" d="M92.5686 339.64C94.0936 339.791 94.3507 348.459 93.9207 349.686C93.5363 350.782 89.4495 351.123 88.253 351.254C85.8364 349.419 86.6729 343.536 87.1305 340.92C89.0179 340.199 90.5775 339.851 92.5686 339.64ZM90.7676 348.252C90.8579 346.125 90.7151 344.04 90.7676 341.912L88.253 341.912C88.3318 344.634 86.8465 348.915 90.7676 348.252Z"/><path fill="#020202" transform="scale(2 2)" d="M90.2202 311.371C91.0857 311.243 96.335 322.028 86.1126 323.034C83.6558 321.573 84.7863 316.766 84.6403 314.097L84.621 313.793C87.0264 312.103 87.3497 311.923 90.2202 311.371ZM87.1305 320.659C88.1628 319.856 89.7993 314.449 88.253 314.246C84.9815 314.773 86.5974 318.233 87.1305 320.659Z"/><path fill="#020202" transform="scale(2 2)" d="M71.4739 345.573C73.1719 345.6 77.0977 356.093 68.7495 356.595C65.4826 355.078 66.2143 350.287 66.3432 347.182C67.7963 346.441 69.8745 345.888 71.4739 345.573ZM69.7048 354.613C70.2634 353.564 70.4118 350.128 70.5984 348.602L70.3285 348.27L69.7048 348.252L68.5774 348.54C67.8689 349.775 68.2957 353.898 69.7048 354.613Z"/><path fill="#020202" transform="scale(2 2)" d="M77.3274 369.283C82.3901 368.972 80.8353 373.149 81.3239 377.138C79.8645 378.483 79.1552 379.007 77.3274 379.765C72.9661 379.834 73.8427 373.777 73.7563 370.611L77.3274 369.283ZM76.2468 377.138C78.0074 376.902 77.7771 372.079 77.3274 371.259C74.4396 372.671 75.9124 374.41 76.2468 377.138Z"/><path fill="#020202" transform="scale(2 2)" d="M94.4472 363.802C100.26 363.27 99.7515 373.631 93.4446 373.523C89.5087 372.697 90.371 370.793 90.2202 365.975C91.7919 364.967 92.6464 364.333 94.4472 363.802ZM93.4446 370.611C94.7587 369.31 95.7366 366.647 93.4446 365.975C91.5077 366.78 91.9898 369.401 93.4446 370.611Z"/><path fill="#020202" transform="scale(2 2)" d="M340.847 316.241C342.492 317.46 342.43 329.518 340.847 331.796C338.29 328.855 338.687 319.487 340.847 316.241Z"/><path fill="#020202" transform="scale(2 2)" d="M399.295 358.482L400.044 358.5C400.572 359.3 402.606 368.316 398.791 369.283C397.916 369.11 394.541 360.169 399.295 358.482Z"/><path fill="#020202" transform="scale(2 2)" d="M396.547 308.879C397.559 308.816 397.833 308.787 398.822 308.924C399.564 309.948 400.124 318.898 398.791 320.073C394.675 319.672 396.472 309 396.547 308.879Z"/><path fill="#020202" transform="scale(2 2)" d="M399.295 333.191C403.813 333.312 401.946 344.344 401.724 344.667C398.53 344.396 397.373 334.94 399.295 333.191Z"/><path fill="#020202" transform="scale(2 2)" d="M391.854 360.722L392.386 360.844C392.842 361.629 394.573 369.823 390.865 370.611C389.942 370.607 386.8 362.516 391.854 360.722Z"/><path fill="#020202" transform="scale(2 2)" d="M435.406 355.291L435.893 355.356C436.649 356.475 438.451 363.697 434.069 364.749L433.646 364.596C432.64 362.165 431.635 356.198 435.406 355.291Z"/><path fill="#020202" transform="scale(2 2)" d="M418.134 286.496C419.835 286.45 421.513 294.561 418.134 295.767L417.579 295.728C416.51 294.853 416.324 287.863 416.873 286.794L418.134 286.496Z"/><path fill="#020202" transform="scale(2 2)" d="M396.547 290.768C398.38 290.608 399.888 297.942 396.547 299.581L395.758 299.498C395.116 298.656 393.059 291.793 396.547 290.768Z"/><path fill="#020202" transform="scale(2 2)" d="M442.026 285.484C445.184 285.571 443.665 293.287 442.026 294.347L441.179 294.131C440.413 292.788 440.282 287.288 440.952 285.825L442.026 285.484Z"/><path fill="#020202" transform="scale(2 2)" d="M385.681 213.846C389.277 214.891 386.517 218.827 383.216 220.065C380.407 216.809 382.573 214.981 385.681 213.846Z"/><path fill="#020202" transform="scale(2 2)" d="M434.069 309.757C438.336 309.571 436.194 317.653 435.406 318.241C431.487 318.313 433.389 310.376 434.069 309.757Z"/><path fill="#020202" transform="scale(2 2)" d="M434.069 286.496C438.285 286.975 436.053 295.134 435.406 295.767L434.352 295.614C433.021 294.416 432.761 287.946 434.069 286.496Z"/><path fill="#020202" transform="scale(2 2)" d="M419.623 308.879C420.92 308.87 422.648 315.977 418.857 317.688C418.828 317.657 415.907 309.556 419.623 308.879Z"/><path fill="#020202" transform="scale(2 2)" d="M414.033 358.482L415.002 358.484C415.694 359.222 417.471 364.943 414.033 365.975L413.557 366.094L413.276 365.893C412.965 364.074 412.198 360.387 413.079 358.736L414.033 358.482Z"/><path fill="#020202" transform="scale(2 2)" d="M364.75 298.826L365.099 298.83C366.455 300.131 366.598 304.301 362.312 304.136C360.612 303.622 361.214 300.982 361.273 299.581C362.259 299.268 363.702 299.031 364.75 298.826Z"/><path fill="#020202" transform="scale(2 2)" d="M434.069 332.291C438.148 332.101 436.918 335.791 436.25 339.64C435.442 339.839 435.163 339.869 434.357 339.956L434.038 339.629C433.702 337.609 433.781 334.329 434.069 332.291Z"/><path fill="#020202" transform="scale(2 2)" d="M364.75 292.325C366.123 292.288 365.738 294.817 365.749 295.767C364.22 296.84 363.029 297.111 361.273 297.528C360.298 296.524 361.002 294.375 361.273 293.134C362.358 292.793 363.625 292.563 364.75 292.325Z"/><path fill="#020202" transform="scale(2 2)" d="M289.249 272.099C290.748 271.929 294.23 271.995 295.361 273.012L295.282 273.431C294.332 274.091 293.246 274.09 292.06 274.246C287.844 274.666 281.566 272.933 289.249 272.099Z"/><path fill="#020202" transform="scale(2 2)" d="M391.854 311.783C391.939 311.895 393.86 321.349 390.865 323.034C389.058 320.498 390.071 314.207 391.854 311.783Z"/><path fill="#020202" transform="scale(2 2)" d="M420.75 333.191C421.388 333.339 421.892 338.342 421.956 339.181C421.408 339.605 420.372 339.58 419.623 339.64L419.147 339.197C418.598 336.581 417.305 333.577 420.75 333.191Z"/><path fill="#020202" transform="scale(2 2)" d="M391.854 291.389L392.123 291.772C392.139 294.377 392.748 299.252 390.271 300.732C388.361 298.418 389.544 293.074 391.854 291.389Z"/><path fill="#020202" transform="scale(2 2)" d="M413.081 308.879C414.588 310.027 415.132 316.589 414.033 318.241L413.139 318.095C411.413 316.319 412.016 310.919 413.081 308.879Z"/><path fill="#020202" transform="scale(2 2)" d="M445.265 311.783C448.941 311.945 447.586 319.422 447.251 320.073C443.603 320.35 445.198 315.064 445.265 311.783Z"/><path fill="#020202" transform="scale(2 2)" d="M410.094 287.186L410.651 287.426C411.3 288.52 411.444 296.104 411.122 297.528C408.286 295.599 408.877 289.876 410.094 287.186Z"/><path fill="#020202" transform="scale(2 2)" d="M385.681 223.758C389.702 223.563 387.461 227.088 385.681 228.809C382.646 228.218 382.461 225.101 385.681 223.758Z"/><path fill="#020202" transform="scale(2 2)" d="M355.658 210.875C358.072 210.463 357.391 213.635 353.415 214.594L352.086 214.055C350.44 211.992 354.197 211.262 355.658 210.875Z"/><path fill="#020202" transform="scale(2 2)" d="M428.26 356.595C429.68 357.318 431.036 364.681 430.356 365.975L429.264 365.906C427.849 364.795 427.908 358.363 428.26 356.595Z"/><path fill="#020202" transform="scale(2 2)" d="M355.658 218.266C359.47 217.437 355.636 221.684 354.444 222.507C350.052 221.614 353.276 219.207 355.658 218.266Z"/><path fill="#020202" transform="scale(2 2)" d="M391.854 338.39C393.415 339.282 393.963 345.564 393.262 347.182C390.501 346.665 391.321 340.232 391.854 338.39Z"/><path fill="#020202" transform="scale(2 2)" d="M354.444 226.243C357.566 226.217 358.087 228.099 355.658 229.791C352.682 229.97 351.551 228.07 354.444 226.243Z"/><path fill="#020202" transform="scale(2 2)" d="M386.446 233.898C389.7 233.558 387.315 237.063 385.681 237.936C382.757 236.726 383.62 234.597 386.446 233.898Z"/><path fill="#020202" transform="scale(2 2)" d="M415.146 333.916C417.123 334.798 417.393 340.285 416.757 341.912C414.645 340.782 414.508 335.961 415.146 333.916Z"/><path fill="#020202" transform="scale(2 2)" d="M214.748 405.567C217.127 405.929 217.121 408.616 216.292 410.443C213.372 410.732 214.352 407.36 214.748 405.567Z"/><path fill="#020202" transform="scale(2 2)" d="M345.503 352.757C346.566 353.323 345.916 359.599 345.503 360.722C343.955 359.083 344.426 354.62 345.503 352.757Z"/></svg>