<?xml version="1.0" encoding="utf-8" ?><svg xmlns="http://www.w3.org/2000/svg" xmlns:xlink="http://www.w3.org/1999/xlink" width="1024" height="1024" viewBox="0 0 1024 1024"><path transform="scale(2 2)" d="M398.03 67.8658C405.995 67.1034 415.381 69.6424 421.956 74.2743C442.597 88.8177 448.852 110.932 446.987 135.243C440.958 213.825 333.7 236.902 326.821 258.505C324.676 265.244 334.102 271.101 338.422 274.673L352.373 286.219C383.274 311.764 447.776 360.764 432.812 406.784C424.163 433.382 382.298 449.847 356.414 441.349C321.72 429.059 301.423 389.247 285.656 358.666L266.215 321.008C256.754 331.143 247.038 345.841 239.518 357.364C222.116 384.029 202.055 412.674 173.556 428.241C157.873 436.808 133.004 448.119 114.453 442.656C88.0557 438.183 74.8247 417.811 75.9872 391.671C78.9809 324.352 145.602 300.56 188.359 261.327C156.073 245.056 129.883 219.869 103.7 195.506C77.4482 171.08 60.9376 159.602 65.8847 119.486C67.6441 106.025 76.0696 94.4316 86.7735 86.6599C124.605 59.1919 152.655 75.5179 181.995 102.68C204.605 123.612 235.286 155.504 249.829 182.609C251.582 185.875 253.188 189.534 255.381 192.506L255.661 192.883C256.748 190.324 262.391 181.488 264.247 178.535C281.161 151.611 295.501 127.681 320.249 106.829C341.421 88.9914 369.778 70.0658 398.03 67.8658ZM252.429 197.509C250.48 194.198 248.377 190.838 246.635 187.433C245.377 189.649 240.051 198.613 238.449 199.592C234.922 197.855 241.189 190.595 242.495 188.881L245.277 185.225C223.922 151.765 193.143 116.222 161.553 91.6564C137.929 74.2926 119.022 72.6047 93.3682 88.2848C88.7985 91.0779 65.6426 113.305 73.7708 115.972C78.4758 112.104 87.6868 99.7272 93.0737 99.0294L93.5613 99.2498C94.5767 102.134 78.4566 115.03 75.409 118.616C76.6961 121.02 78.5479 124.744 79.936 126.961C81.7214 124.422 85.2302 118.937 87.7664 117.51L88.1441 117.648C87.932 120.073 81.8496 126.296 79.936 128.255C81.9405 130.853 83.3983 133.19 84.9665 136.075C86.2631 134.212 88.6084 130.931 90.6792 129.918L91.0863 130.028C91.3201 132.026 87.4446 136.446 86.0945 137.998C87.8411 140.629 89.9196 143.652 91.4017 146.417C93.7586 144.555 96.9031 141.45 99.0329 139.982C97.0961 143.525 94.8406 145.086 93.0184 148.63C95.3773 151.692 96.2361 153.378 99.0329 156.129C100.531 154.092 102.266 151.978 104.667 150.958L105.145 151.012C105.619 152.899 101.335 157.092 100.096 158.657C102.831 161.653 104.563 164.594 107.482 167.303C109.101 164.999 110.694 162.998 113.414 161.938L113.788 162.087C113.604 163.681 109.919 167.293 108.587 169.349C111.051 172.828 114.342 176.758 117.404 179.758C119.199 178.078 121.087 176.047 123.409 175.276L123.861 175.43C124.156 177.26 120.48 180.891 119.398 182.385L127.166 190.658C128.656 189.156 132.055 185.39 133.279 184.383L133.942 184.43C135.288 186.034 129.902 191.479 128.711 192.883C131.092 194.814 133.101 197.051 135.248 199.238C136.72 197.902 139.468 195.262 141.112 194.474L141.403 194.647C141.07 196.559 139.013 199.144 138.032 201.023C139.908 203.774 141.069 204.743 143.614 206.956C145.133 205.727 147.797 202.968 149.483 202.713L149.71 203.04C149.176 205.265 147.444 206.88 146.244 208.942C148.811 211.833 150.928 213.711 153.906 216.191C156.001 213.952 158.385 211.175 160.901 209.499C159.626 213.476 158.119 215.315 156.194 218.924C159.103 220.592 161.472 222.778 163.595 225.368C165.279 223.604 166.598 221.943 168.829 220.933L169.402 220.965C169.891 222.677 166.783 225.394 165.731 226.627L175.567 233.813C176.847 232.618 182.773 225.931 184.356 228.414C184.104 230.093 179.595 233.828 177.983 235.775C181.407 237.38 185.248 240.122 188.359 242.385C193.33 233.863 200.816 233.115 190.414 243.257C192.428 244.445 194.731 245.628 196.889 246.524C198.075 245.178 204.673 236.707 206.159 240.089C205.931 241.638 201.343 245.793 199.867 247.604C201.549 248.821 202.022 249.154 203.956 250.022C206.665 247.549 221.667 233.496 223.959 233.354C230.681 235.978 207.246 252.63 204.751 254.631L150.549 297.599C145.693 301.379 139.982 304.935 134.909 308.254C113.777 322.06 95.6263 342.032 86.6942 365.867C80.6103 382.102 76.8848 402.302 86.0945 418.157C88.1088 414.043 91.3349 410.056 95.4685 407.944C92.577 412.39 90.0991 415.833 87.0685 420.058C88.3498 422.127 89.6428 423.366 91.4017 425.044C94.3435 420.862 97.6636 415.61 101.569 412.485L101.76 412.33C100.687 415.853 99.3646 417.858 97.5174 421.011C98.9552 422.771 100.204 424.168 101.76 425.828C103.081 424.486 107.332 420.541 107.954 418.848C108.189 418.209 106.742 417.736 108.152 416.251C112.681 416.373 111.946 414.296 116.656 410.93C115.308 413.757 113.534 416.063 112.099 418.817C113.893 421.054 114.635 421.555 116.656 423.471C121.212 416.619 126.381 412.513 131.188 406.502C129.401 414.597 122.821 417.52 119.398 425.044C121.436 426.167 123.248 427.349 125.392 428.247C127.576 426.421 132.139 422.111 129.844 419.474L129.881 418.945C135.331 417.88 141.505 409.354 140.65 405.232L140.939 405.208C143.439 404.974 142.873 404.116 144.371 402.332C143.784 404.085 143.773 404.671 143.614 406.502C146.986 409.275 153.098 413.748 157.006 415.395C159.882 412.499 162.777 409.231 165.731 406.502C162.564 403.492 155.487 399.69 154.335 396.887L154.506 396.456C157.848 395.532 179.053 410.08 181.191 412.33C175.533 412.733 171.415 409.651 166.631 406.949C163.996 410.202 161.274 413.493 158.69 416.779C161.561 418.357 166.017 420.609 168.346 422.627L168.67 422.362C171.54 420.041 174.871 418.439 177.795 416.235C201.219 398.572 220.072 374.966 234.735 349.684C236.824 346.083 239.536 342.88 241.387 339.146C238.606 336.545 223.641 323.337 223.194 320.868L223.465 320.5C229.49 320.058 239.875 333.169 242.532 337.942C244.527 334.999 246.726 331.872 248.549 328.848C245.702 324.89 230.763 309.384 230.567 308.91L230.77 308.382C235.898 306.305 247.769 321.767 249.613 327.593C251.723 324.838 253.654 322.141 255.661 319.308C250.266 313.105 245.655 306.993 239.182 301.856C237.632 300.626 238.708 298.046 240.519 299.204C250.432 305.54 252.023 308.81 256.324 318.438C258.312 315.836 260.234 313.278 262.16 310.629C258.121 304.268 253.18 299.188 249.613 293.658C241.449 284.831 254.509 291.923 259.146 299.859C260.783 302.661 262.423 305.494 264.023 308.32C267.119 297.641 260.338 291.251 252.996 283.897C244.845 275.732 249.821 275.356 256.512 280.612C264.647 287.002 266.417 292.304 269.697 301.488C271.325 299.623 276.185 293.656 278.561 293.824C279.24 295.118 272.315 302.772 271.096 304.609L273.339 307.577C275.685 305.13 279.053 301.127 282.16 299.969L282.561 300.094C282.508 301.96 276.562 308.007 274.976 310.629C278.027 314.208 279.464 318.095 282.574 321.766C283.965 319.979 289.223 313.417 290.894 312.538L291.75 312.543L291.36 312.271L291.74 312.683C291.273 316.32 286.655 321.099 284.831 324.864C286.006 327.852 288.412 330.903 290.226 333.68C291.814 330.535 294.814 325.142 298.023 323.354L298.64 323.305C300.069 324.967 293.051 333.98 291.963 336.4C293.853 339.122 295.661 342.236 297.788 344.679C298.963 342.755 304.25 333.515 306.386 333.395C307.848 335.138 300.073 345.104 298.795 347.529C301.176 351.552 303.681 354.353 307.093 357.558C308.272 354.979 312.246 349.065 314.646 347.83L315.265 347.84C316.72 349.447 309.936 357.948 308.702 359.636C309.491 361.104 310.339 362.631 308.045 361.361C306.757 362.214 304.022 367.382 303.088 368.989C304.769 372.444 305.834 374.03 308.702 376.606C310.077 374.755 317.837 365.485 319.512 364.079L319.815 364.309C319.381 367.415 312.264 376.433 309.964 379.028C310.877 380.193 311.647 381.085 312.285 382.438C306.796 379.331 305.296 383.294 307.093 378.141C305.986 375.939 303.949 373.198 302.451 371.181C301.689 371.692 300.766 372.275 300.051 372.829C310.251 393.948 325.866 416.486 345.626 429.128C365.178 441.638 378.373 439.091 398.499 429.948C425.559 417.655 436.936 395.176 423.188 367.556C409.386 339.827 372.677 310.698 347.612 289.883C346.24 291.502 343.08 296.509 341.436 296.697C340.532 293.728 344.377 290.974 346.715 289.883C337.955 279.806 321.588 273.577 318.316 259.855L317.999 259.696C309.769 255.649 304.886 257.608 298.14 263.079C286.034 272.897 300.349 245.051 318.976 255.441C321.25 250.739 322.864 248.698 326.897 245.189C327.322 244.819 328.88 243.683 328.847 243.348C325.026 243.17 315.705 236.332 308.678 235.386C307.033 235.027 300.35 234.856 300.506 232.766C304.935 228.313 328.488 236.764 329.226 242.798L329.528 242.997C330.434 242.653 339.081 237.497 340.384 236.616C336.627 234.172 332.758 230.938 328.996 228.451C325.857 226.376 311.179 221.767 310.075 218.931L310.118 218.337C314.541 214.859 337.536 227.927 341.668 235.775C345.281 233.77 350.598 230.939 353.987 228.694C352.5 227.883 349.962 225.714 348.696 224.51C342.085 218.221 334.062 214.919 325.727 211.613C306.714 204.072 345.088 206.02 354.829 228.694C357.94 226.036 362.402 224.018 365.939 221.878C363.485 219.905 336.312 200.827 336.256 200.72L336.389 200.219C341.2 197.523 363.812 213.902 366.858 221.878C369.266 219.857 373.519 217.753 376.362 216.191C371.211 213.123 366.498 207.149 361.522 203.378C358.688 201.231 346.984 194.467 346.431 192.179C349.878 187.303 373.836 207.31 376.362 216.191C403.741 196.945 433.407 175.624 439.328 140.188C443.051 117.909 442.299 102.753 426.692 86.2412C424.513 88.3288 421.717 91.1975 419.548 93.1166C421.839 94.4607 424.651 97.18 426.692 99.0501C427.844 98.0092 428.681 97.0126 430.216 96.7535L430.752 96.9981C431.188 98.5976 429.727 99.9831 428.755 101.171C430.645 102.694 436.383 107.395 436.651 109.592L436.328 109.95C433.818 110.041 428.451 105.115 426.692 103.312C424.143 105.586 419.946 109.719 417.396 111.451C420.171 113.681 423.154 116.19 425.764 118.616L426.117 118.428C428.81 116.977 431.519 114.45 434.167 113.87L434.506 114.122C434.198 116.297 430.347 119.445 428.755 121.247C430.497 125.31 435.507 128.379 436.98 132.279L436.796 132.633C434.062 132.565 428.304 125.602 425.764 123.195C422.553 125.519 419.255 127.845 416.437 130.638C419.137 132.465 424.368 136.516 426.692 138.818C430.102 136.637 432.383 136.926 428.755 140.535C430.067 141.84 431.121 142.629 431.571 144.422L431.411 144.919C429.799 145.447 428.044 143.889 426.692 143.004C424.12 145.498 419.516 149.774 417.396 152.399C419.643 154.065 425.562 158.724 426.434 161.341L426.302 161.868C423.755 163.192 415.901 156.619 413.784 155.006C412.022 156.404 409.44 158.983 407.776 160.619C410.135 162.087 417.33 167.189 418.361 169.513L418.283 170.039C415.733 171 407.298 164.489 405.318 162.724C397.943 168.038 395.358 166.204 403.19 160.619C402.587 159.852 402.069 159.379 401.935 158.431L402.197 157.935C403.317 157.607 404.259 158.168 405.318 158.657C407.444 156.672 409.814 154.569 411.723 152.399C406.467 149.795 404.649 146.357 400.375 143.004C396.385 143.905 397.44 142.582 398.11 139.416C403.116 137.508 406.369 133.69 410.704 130.638C395.996 117.373 400.037 126.372 411.723 112.519C411.091 111.955 392.078 100.315 403.967 104.077C407.375 101.003 412.903 95.761 416.437 93.1166C415.847 92.0994 415.045 90.8037 414.548 89.7695C415.492 90.3514 416.471 90.9365 417.396 91.5425C420.266 89.3773 422.998 87.0278 425.764 84.7282C423.02 82.4014 420.314 80.025 417.396 77.9233C415.022 80.4045 398.238 95.9792 395.909 96.9588L395.722 96.8485C397.641 92.442 410.945 80.5047 415.258 76.8554C407.977 73.8199 401.604 72.8432 393.668 73.5298C352.661 78.0165 304.389 124.26 283.415 156.588C270.557 176.409 259.291 198.23 244.416 216.816C243.796 217.586 242.934 217.287 242.211 216.914C239.468 213.358 250.39 201.53 252.429 197.509ZM126.516 435.22C130.61 435.226 135.329 434.655 139.101 435.22C140.577 432.131 141.141 431.856 143.614 429.496C140.253 427.479 136.182 425.284 133.373 422.627C131.304 424.765 130.143 425.94 128.68 428.494L128.106 429.496C129.909 430.228 132.45 431.008 133.387 432.781L133.239 433.246C131.183 434.114 128.426 432.26 126.516 431.546C125.281 432.8 124.797 433.718 123.886 435.22C124.294 435.222 126.234 435.261 126.516 435.22ZM70.6513 139.982C71.2677 144.161 71.4826 146.917 72.9301 150.887L74.0605 148.63C75.6178 146.271 73.8313 143.91 76.0016 146.417C79.0447 144.082 80.7919 141.836 83.127 138.818C82.4145 137.517 79.578 132.167 78.8265 131.246C76.462 134.468 73.9546 137.65 70.6513 139.982ZM413.784 132.973C410.008 135.338 404.907 139.45 401.637 141.337C405.658 144.243 409.566 146.65 413.784 149.255C415.674 150.787 422.808 142.965 424.167 141.337C420.753 138.72 417.387 135.255 413.784 132.973ZM173.389 236.616C169.942 234.439 166.695 231.887 163.595 229.237C162.009 230.467 159.187 232.799 157.598 233.813C160.341 236.394 165.123 240.804 168.346 242.385C169.089 242.184 172.72 237.446 173.389 236.616ZM128.106 207.94C128.975 207.722 132.515 203.021 133.373 201.95C131.292 199.457 129.427 197.511 127.166 195.175C125.273 197.147 122.677 199.762 121.135 201.95C122.97 203.861 125.904 206.431 128.106 207.94ZM143.614 211.485C141.935 213.144 139.789 215.384 138.032 216.874C140.893 219.799 144.025 222.598 147.049 225.368C148.109 225.071 151.397 220.023 152.042 218.924C148.951 216.424 146.477 213.888 143.614 211.485ZM183.087 251.095C186.203 253.029 190.057 255.131 193.338 256.821C194.13 256.405 195.993 255.598 196.889 255.441C197.574 254.62 199.216 252.544 199.867 251.952C199.128 251.288 198.417 250.621 197.624 250.022C196.467 251.014 195.75 251.754 194.283 252.239L193.819 252.159C193.909 251.222 194.441 250.777 195.105 250.022C193.305 248.656 190.746 246.643 188.359 246.524C186.202 247.931 184.885 249.246 183.087 251.095ZM169.899 243.257C173.506 245.839 177.171 248.129 181.191 250.022C182.641 249.15 184.702 246.21 185.794 244.754C182.807 242.904 178.22 240.23 175.567 238.196C173.361 239.978 171.918 241.31 169.899 243.257ZM135.248 203.751C133.624 205.555 131.711 207.791 130.044 209.499C132.288 211.615 134.913 213.926 136.931 216.191C138.279 214.085 140.19 211.499 141.38 209.499C139.446 207.763 137.102 205.287 135.248 203.751ZM148.728 427.471C150.632 428.496 151.319 428.837 153.356 429.496C154.567 429.134 155.885 428.801 157.006 428.247C160.193 426.646 163.412 424.995 166.631 423.471C162.867 422.433 159.064 420.134 156.194 419.377C153.637 421.99 151.077 424.667 148.728 427.471ZM77.8517 147.893C79.539 150.308 81.5563 152.657 83.127 155.006C84.8926 153.536 87.8834 150.98 89.4367 149.255C88.1271 147.058 85.2451 141.72 83.127 140.535C81.3627 143.406 79.4149 145.407 77.8517 147.893ZM77.8517 160.619C79.1904 159.127 80.5032 157.646 81.8143 156.129C80.8761 154.495 78.1589 149.648 76.9353 148.63C75.4543 150.282 74.6717 150.985 72.9301 152.399C73.624 153.684 76.9746 160.088 77.8517 160.619ZM90.6372 150.887C87.7409 153.836 87.2593 154.864 84.9665 157.554C87.1122 159.532 89.251 161.657 91.4017 163.588L91.7326 163.704C93.291 162.27 94.8087 160.245 96.3605 158.657C94.4767 156.06 92.6002 153.422 90.6372 150.887ZM272.054 309.459C271.565 308.818 271.031 307.968 270.391 307.577C269.504 309.006 268.279 310.795 268.38 312.517L268.689 312.873C269.347 312.733 269.126 312.829 269.697 312.447C270.334 311.606 271.355 310.174 272.054 309.459ZM153.906 220.907C152.171 222.894 150.563 224.725 148.728 226.627L157.006 233.813C158.73 230.499 159.245 230.064 162.044 227.499C159.797 226.095 154.645 221.164 153.906 220.907ZM270.391 315.371C271.036 316.713 277.35 328.684 277.726 328.848L280.463 324.864C279.455 323.184 274.219 313.412 273.339 312.447C272.504 313.237 271.067 314.519 270.391 315.371ZM100.096 178.414C99.0066 179.198 98.395 179.577 97.5174 180.625C101.183 184.102 105.174 186.928 108.587 190.658C109.548 189.584 109.957 188.689 110.638 187.433C106.88 184.742 103.697 181.212 100.096 178.414ZM121.979 196.105C123.139 195.038 124.278 194 125.392 192.883C122.719 190.722 118.279 185.485 116.656 184.395C115.904 185.409 115.176 186.396 114.453 187.433C117 190.837 117.987 194.056 121.979 196.105ZM72.2804 135.201C74.3529 132.878 76.2831 130.951 77.8517 128.255C76.9361 126.594 74.6215 120.572 74.0605 120.125L73.8037 120.462C68.4718 127.381 68.6522 128.146 70.6513 137.998C71.169 137.092 71.721 136.069 72.2804 135.201ZM72.9301 117.102C72.6272 116.571 71.9673 115.278 71.5665 114.922C71.4858 115.486 70.1573 121.117 71.5665 120.125L72.9301 117.102ZM423.093 121.247C421.395 119.74 416.254 115.229 414.548 114.431C409.404 116.635 407.576 119.353 403.967 121.247C407.096 123.769 410.338 126.181 413.784 128.255C415.583 126.433 420.906 122.422 423.093 121.247ZM112.669 189.586L109.881 191.495C112.65 194.442 116.239 197.281 118.639 200.132L119.398 201.023C120.235 199.414 120.822 198.135 121.979 196.731C117.845 194.189 116.219 192.226 112.669 189.586ZM93.0184 165.88C95.2301 168.542 98.1578 171.516 100.096 174.148C101.357 173.208 103.314 170.687 104.394 169.349C102.307 167.155 99.2348 162.171 97.5174 160.619C95.8087 162.976 95.1276 163.874 93.0184 165.88ZM89.4367 165.88C88.4997 164.798 83.7858 159.052 83.127 158.657C81.7255 160.209 81.0477 160.957 79.936 162.724C81.9462 165.223 83.7018 167.206 86.0945 169.349L89.4367 165.88ZM298.795 370.271L300.051 367.639C298.971 366.195 295.67 362.552 295.507 361.205C296.8 360.932 299.1 363.281 300.051 364.206L300.971 366.03C302.386 363.816 304.068 361.022 305.607 358.948C303.971 356.283 299.987 351.77 297.788 349.344C296.353 351.362 294.939 354.278 293.084 355.475L292.635 355.446C292.131 353.325 294.579 349.258 295.784 347.529C294.772 345.756 291.605 340.233 290.226 339.146C288.665 341.266 287.419 343.208 286.249 345.581C288.188 350.626 295.843 365.02 298.795 370.271ZM278.97 332.083C279.947 333.935 283.567 341.095 284.831 342.098C285.948 339.911 287.035 337.774 288.233 335.627C286.512 333.424 284.133 329.192 282.574 327.593C280.979 329.142 280.076 330.078 278.97 332.083ZM107.482 434.378L108.305 434.35C106.407 432.559 103.782 431.318 101.76 429.496L99.5646 431.546C102.312 433.214 104.221 434.041 107.482 434.378ZM134.032 421.011C137.649 422.813 141.906 424.997 145.57 426.627C147.629 425.046 152.365 420.238 153.906 418.157C151.221 416.054 144.564 408.892 142.517 407.944C140.361 410.471 135.545 417.981 134.032 421.011ZM95.4685 178.414C96.5518 178.071 97.4258 176.925 98.1157 176.031C96.0964 173.765 92.9703 170.794 91.4017 168.469C90.0624 169.717 89.1644 170.546 87.9963 171.942C90.2733 173.894 93.1901 176.682 95.4685 178.414ZM114.936 182.385C113.925 181.203 106.465 172.212 106.004 171.942C104.328 173.448 103.751 174.224 102.385 176.031C105.924 178.621 109.252 181.894 112.099 185.225L112.585 185.258C113.584 184.22 114.092 183.269 114.936 182.385ZM109.881 421.011C107.883 423.145 105.966 424.998 104.394 427.471C106.512 429.677 107.179 430.082 109.881 431.546L110.336 431.663C111.591 430.454 114 426.589 114.936 425.044C112.818 423.9 111.619 422.663 109.881 421.011ZM97.5174 430.295L97.9921 430.492C98.8666 429.995 99.4639 429.059 100.096 428.247C98.2536 426.084 97.7169 425.121 96.3605 422.627C95.2703 423.933 94.1298 425.354 93.0184 426.627C94.5237 427.896 95.9525 429.102 97.5174 430.295ZM117.404 426.627C115.559 429.016 113.736 431.219 112.099 433.761C114.717 434.064 116.887 434.864 119.398 435.22C119.65 435.221 121.896 435.238 121.979 435.22C122.628 433.491 122.956 432.541 123.886 430.944C121.833 429.665 119.247 428.116 117.404 426.627ZM405.318 104.967C408.747 106.106 410.64 107.204 413.784 109.017L414.615 109.502C415.34 109.203 422.865 102.231 424.167 101.171C423.237 100.282 417.907 94.9048 417.396 94.6771C413.263 98.2539 408.818 100.834 405.318 104.967ZM146.244 430.295C144.54 431.661 143.993 432.186 142.517 433.761C143.717 433.383 145.066 432.989 146.244 432.581L150.444 430.944C148.988 430.686 147.715 430.47 146.244 430.295Z"/><path transform="scale(2 2)" d="M373.197 357.558L373.325 357.801C373.257 360.298 361.068 371.963 358.293 375.75C365.6 379.605 369.058 383.792 378.229 385.615C378.893 385.747 379.424 385.952 379.726 386.503C375.981 390.208 359.862 380.012 356.438 377.356C350.602 382.155 337.642 399.411 335.106 406.502C336.728 408.893 341.045 412.976 343.299 415.395C345.034 413.035 346.324 411.775 348.377 409.723C347.328 408.223 346.146 405.99 345.341 404.346C346.762 405.4 348.426 406.819 349.822 407.944C351.525 406.233 356.835 399.932 358.938 399.96L359.271 400.491C359.109 402.98 353.872 408.024 352.112 409.723C354.83 412.24 357.524 414.599 360.522 416.779C362.291 415.354 365.87 411.521 367.684 409.723C365.654 407.268 364.847 406.13 363.336 403.319C364.399 403.991 367.464 406.815 368.929 407.944C371.282 404.641 374.878 399.185 377.402 396.265L377.532 396.468C380.205 400.593 384.412 404.964 388.343 407.944C390.786 405.324 393.448 401.241 395.505 398.229C394.442 397.346 391.723 395.241 393.754 393.974C394.953 394.5 395.138 396.616 396.445 396.709C399.37 393.316 404.284 384.722 407.489 382.346L407.699 382.562C407.216 384.949 400.779 395.822 399.134 398.91C401.624 400.749 405.413 404.354 407.776 406.502C409.206 403.559 410.862 400.998 412.587 398.229L411.254 396.155C407.699 390.695 411.129 393.012 413.784 396.265C415.072 393.918 419.307 386.397 421.688 385.974C422.35 387.843 417.595 395.59 416.437 398.229C418.006 399.244 421.332 401.803 421.057 403.864L420.653 404.108C418.669 403.946 416.159 401.513 414.548 400.201L410.704 408.499C412.136 409.972 414.607 412.143 413.833 414.346L413.347 414.502C411.341 414 410.593 412.597 409.226 410.93C407.132 413.914 406.516 415.75 403.967 418.817C404.988 419.495 406.847 420.396 406.903 421.652C404.441 422.838 405.799 418.858 401.729 421.969L401.252 421.875C400.62 421.135 400.569 420.343 400.375 419.377C397.414 417.059 393.618 414.626 390.46 412.33C388.48 414.338 386.212 416.596 384.517 418.817C386.639 420.144 393.619 424.441 393.445 427.253L393.1 427.47C389.918 427.807 384.354 422.956 381.785 421.011C379.48 423.306 376.918 425.443 374.379 427.471C382.473 433.038 378.043 433.088 371.883 429.496C370.144 431.116 367.997 431.133 368.912 428.076L369.018 427.733C365.782 425.525 362.661 423.313 359.495 421.011C357.097 422.631 356.702 422.975 354.829 425.044C355.707 426.255 356.709 427.396 356.916 428.863L356.596 429.081C354.149 428.295 346.133 420.804 343.299 418.817C342.076 419.521 340.883 420.269 339.683 421.011C340.426 419.651 340.656 419.336 341.668 418.157C339.142 414.865 335.577 412.768 332.382 408.499C329.784 409.797 329.536 408.739 330.613 406.502L324.685 400.201C324.13 400.816 323.992 401.034 323.253 401.449L322.75 401.031C322.457 400.265 322.64 399.824 322.793 398.998L322.86 398.653C321.705 396.835 318.502 393.442 316.884 391.301C316.221 392.318 315.295 393.804 313.974 393.874C312.275 392.914 315.056 390.432 314.275 386.621L314.52 386.302C316.966 387.908 322.968 377.603 329.461 374.215C325.913 379.334 320.806 383.938 318.316 389.502C320.191 392.305 322.145 394.065 324.685 396.265C326.505 392.847 329.227 388.534 332.382 386.246C331.456 388.668 327.356 395.337 325.805 398.229C327.494 399.965 330.518 402.594 332.382 404.346C339.728 393.503 345.518 385.548 353.987 375.75C351.152 373.573 340.829 364.563 341.44 360.362C342.526 360.576 343.927 362.629 344.688 363.589C348.026 367.798 352.298 370.856 356.438 374.215C358.945 371.311 370.399 359.132 373.197 357.558ZM370.141 408.499C373.177 411.426 377.289 414.255 380.728 416.779C382.871 414.71 384.698 412.066 387.146 409.723C381.556 406.147 380.418 402.814 376.362 398.91C374.291 402.463 372.941 405.418 370.141 408.499ZM349.822 411.659C348.393 413.307 346.823 415.207 345.341 416.779C348.351 419.481 350.448 421.394 353.987 423.471C355.398 422.437 356.922 420.619 358.293 419.377C356.302 417.813 350.974 412.055 349.822 411.659ZM378.595 418.817C376.425 417.283 369.847 411.415 368.929 410.93C367.23 413.213 364.336 416.047 362.261 418.157C365.284 420.689 368.16 422.909 371.416 425.151L371.883 425.044C373.998 423.111 376.628 420.817 378.595 418.817ZM398.03 400.201C396.072 404.389 394.676 406.411 392.008 410.177C394.357 412.223 398.468 414.121 401.637 416.779L401.968 416.851C403.486 414.406 404.914 411.152 406.45 408.499C403.519 405.808 400.508 403.292 398.03 400.201Z"/><path transform="scale(2 2)" d="M139.101 339.146C141.213 340.926 144.859 345.242 147.049 347.529C150.625 345.157 157.928 340.509 162.255 340.491L162.506 340.749C161.555 342.302 150.9 348.247 148.728 349.344C150.023 350.831 151.832 352.269 153.356 353.562C152.864 354.234 152.754 354.464 152.042 354.926C149.618 353.743 148.867 353.396 147.049 351.37C140.124 355.196 133.061 362.905 128.106 368.989C129.811 360.438 136.875 353.383 144.371 349.344C141.835 346.216 140.107 343.015 139.101 339.146Z"/><path transform="scale(2 2)" d="M368.929 134.272C369.147 134.264 369.681 134.32 369.918 134.338L370.127 134.701C369.703 135.547 352.398 147.034 349.822 149.255C352.527 154.293 354.374 156.19 357.254 160.619C351.922 158.499 350.771 155.638 347.612 150.887C345.027 152.704 342.105 155.416 339.683 157.554C338.696 158.369 335.654 161.127 334.36 160.54C334.944 157.695 344.222 149.822 346.715 147.893C342.514 141.415 342.14 136.693 348.377 146.417C354.405 142.496 362.161 136.779 368.929 134.272Z"/><path transform="scale(2 2)" d="M371.883 174.148C374.796 173.503 403.33 188.369 401.637 196.105C397.094 195.417 370.935 177.017 371.883 174.148Z"/><path transform="scale(2 2)" d="M363.336 183.605C366.458 183.824 388.758 199.824 387.146 203.751C381.621 202.36 360.849 187.62 363.336 183.605Z"/><path transform="scale(2 2)" d="M135.248 150.887C137.223 151.932 141.575 162.863 144.371 165.88C150.021 159.609 154.427 156.582 162.044 153.472C156.087 158.593 151.88 161.571 146.244 167.303C149.012 168.745 159.715 176.365 162.044 178.414C157.083 176.407 145.681 168.562 143.489 167.966L142.595 168.647C139.964 164.823 135.309 155.81 135.248 150.887Z"/><path transform="scale(2 2)" d="M302.451 240.583C315.135 238.399 329.564 256.301 313.567 247.604C302.724 241.801 296.002 247.18 293.399 245.446L293.316 244.999C294.723 241.931 299.423 240.969 302.451 240.583Z"/><path transform="scale(2 2)" d="M384.517 165.88C390.106 165.434 409.715 180.702 411.723 184.395C406.873 185.568 384.916 167.297 384.517 165.88Z"/><path transform="scale(2 2)" d="M165.731 386.246C169.645 385.732 192.05 396.362 193.338 400.201C187.668 400.858 166.888 389.433 165.731 386.246Z"/><path transform="scale(2 2)" d="M177.983 377.356C182.448 377.935 201.92 385.579 202.745 390.201C198.7 391.388 179.073 380.139 177.983 377.356Z"/><path transform="scale(2 2)" d="M215.341 333.68C219.151 333.776 233.931 343.965 234.661 349.344C231.188 348.257 215.366 338.197 215.341 333.68Z"/><path transform="scale(2 2)" d="M189.44 367.639C193.287 368.476 211.433 377.312 211.121 381.429C206.222 381.021 188.801 370.549 189.44 367.639Z"/><path transform="scale(2 2)" d="M199.867 355.686C203.565 356.63 221.302 364.633 219.625 368.989C216.987 368.262 197.963 359.434 199.867 355.686Z"/><path transform="scale(2 2)" d="M207.604 347.529C210.748 347.468 225.9 357.57 225.596 361.239C222.35 360.782 206.459 351.256 207.604 347.529Z"/><path transform="scale(2 2)" d="M419.548 374.215L419.924 374.468C420.062 375.639 412.654 388.653 411.723 389.502C408.001 385.258 416.124 376.86 419.548 374.215Z"/><path transform="scale(2 2)" d="M318.316 267.559C326.382 266.795 309.51 274.275 308.702 274.638C308.476 274.747 307.888 274.933 307.622 275.027L307.216 274.831C306.751 271.187 315.424 268.129 318.316 267.559Z"/><path transform="scale(2 2)" d="M193.338 126.961C196.456 127.116 188.243 138.265 187.322 139.982C182.314 138.754 191.473 128.221 193.338 126.961Z"/><path transform="scale(2 2)" d="M236.612 174.148C240.052 176.474 232.609 184.484 230.673 185.946C227.518 183.177 234.655 176.609 236.612 174.148Z"/><path transform="scale(2 2)" d="M415.258 358.948L415.446 359.164C415.486 360.402 407.867 375.021 405.318 375.75C403.352 372.74 413.216 361.571 415.258 358.948Z"/><path transform="scale(2 2)" d="M205.689 138.818C208.206 140.462 201.125 149.208 199.867 150.887C196.58 147.098 203.036 141.277 205.689 138.818Z"/><path transform="scale(2 2)" d="M217.601 151.428L218.2 151.594C219.339 153.554 213.485 161.31 211.971 162.724C208.543 159.657 215.44 153.637 217.601 151.428Z"/><path transform="scale(2 2)" d="M226.785 162.724C229.657 163.398 222.187 172.729 221.362 174.148C217.528 171.958 224.824 164.226 226.785 162.724Z"/><path transform="scale(2 2)" d="M181.191 117.102L181.515 117.322C182.483 119.715 177.622 125.83 175.567 126.961C173.485 124.181 178.823 118.54 181.191 117.102Z"/><path transform="scale(2 2)" d="M327.58 274.638L327.906 274.881C327.271 277.046 320.381 282.278 318.316 283.679L317.753 283.154C317.117 279.839 325.003 275.704 327.58 274.638Z"/><path transform="scale(2 2)" d="M169.899 104.967C170.522 106.276 165.818 113.3 164.405 114.431C162.008 110.708 166.91 106.609 169.899 104.967Z"/><path transform="scale(2 2)" d="M157.006 94.6771L157.299 94.914C157.3 96.5803 154.878 100.401 153.356 101.171C150.602 98.6313 154.797 95.6262 157.006 94.6771Z"/><path transform="scale(2 2)" d="M335.106 283.679C337.911 284.363 332.312 289.826 331.44 290.555C329.004 288.523 333.408 284.831 335.106 283.679Z"/><path transform="scale(2 2)" d="M401.637 351.37L401.862 351.554C401.852 352.668 399.151 356.795 398.03 357.558C396.192 355.315 399.912 352.416 401.637 351.37Z"/><path transform="scale(2 2)" d="M152.042 354.926C152.754 354.464 152.864 354.234 153.356 353.562C154.199 354.162 155.161 354.705 155.649 355.586L155.451 355.896C154.238 355.919 153.197 355.38 152.042 354.926Z"/></svg>