<?xml version="1.0" encoding="utf-8" ?><svg xmlns="http://www.w3.org/2000/svg" xmlns:xlink="http://www.w3.org/1999/xlink" width="1024" height="1024" viewBox="0 0 1024 1024"><path transform="scale(2 2)" d="M258.329 94.7444C260.714 94.5482 266.016 94.7184 268.572 94.7235C327.76 94.841 392.655 107.232 431.584 155.884C476.466 211.975 475.461 280.155 417.827 326.73C377.612 358.766 294.944 373.147 246.273 358.633C228.129 353.222 204.995 344.009 187.728 358.248C175.384 361.798 146.44 398.18 133.904 408.581C128.778 412.835 124.328 416.551 117.624 417.412C97.4483 410.538 122.41 362.9 126.47 350.188C136.614 318.429 118.382 320.411 95.1027 312.756C64.2022 302.595 51.5718 268.763 48.7704 238.85C45.7862 206.986 55.5753 161.949 75.7245 137.684C93.586 116.174 116.216 105.669 144.123 107.576C160.255 108.678 165.22 108.117 180.84 105.419L206.286 101.138C224.266 98.1993 240.239 96.4192 258.329 94.7444ZM184.76 352.227C217.387 334.761 235.36 352.457 265.996 356.868C293.778 360.868 335.129 355.594 361.884 347.806C404.856 335.297 439.635 308.691 453.159 264.104C473.373 197.456 417.996 132.186 356.37 113.56C327.403 104.804 292.648 98.7484 262.198 100.247C243.988 101.865 225.885 103.542 207.851 106.638C194.146 108.992 180.4 112.67 166.601 114.271C158.589 115.201 150.762 113.954 142.789 113.382C118.485 111.638 96.0928 122.251 80.5854 140.8C64.15 160.46 58.3576 185.618 55.7111 210.456C51.9981 245.302 59.2539 294.173 96.9758 306.914C101.653 308.494 106.464 309.157 111.217 310.384C133.051 316.021 139.21 329.956 132.891 350.189C129.753 360.239 109.275 402.861 117.906 410.862C121.473 412.017 133.428 400.355 136.254 397.747C152.022 383.195 165.792 362.909 184.76 352.227Z"/><path transform="scale(2 2)" d="M363.962 240.263C378.531 239.7 380.476 254.194 377.915 265.113C374.635 279.1 361.23 291.585 349.146 298.993C321.179 316.138 279.939 326.614 247.105 318.786C236.253 316.199 227.044 310.347 216.479 307.333C207.718 304.833 203.428 316.194 200.948 309.891C201.022 306.518 204.456 304.452 207.263 303.448C218.7 299.358 232.542 309.29 243.192 312.964C277.056 324.646 333.521 309.285 358.561 286.393C367.267 278.434 383.842 253.405 368.142 245.459C363.548 243.134 363.551 247.537 361.113 247.181C356.088 246.446 360.035 241.57 363.962 240.263Z"/><path transform="scale(2 2)" d="M290.968 186.843C296.862 186.099 298.244 190.939 292.376 191.595C255.644 195.7 218.816 198.754 182.213 203.969C169.598 205.766 139.712 210.334 127.44 207.092C125.233 206.373 122.077 205.033 123.313 202.037C125.045 200.211 127.878 202.41 129.886 202.884C144.998 206.451 201.229 196.825 223.194 194.235L290.968 186.843Z"/><path transform="scale(2 2)" d="M305.992 214.53C311.406 214.283 307.434 219.218 304.246 220.237C272.935 230.245 225.81 225.401 190.46 230.021C173.138 232.167 149.316 236.799 132.957 229.002C128.392 225.561 130.585 223.161 137.658 225.975C156.829 233.601 191.095 224.977 211.612 223.494C242.362 221.186 277.447 224.908 305.992 214.53Z"/><path transform="scale(2 2)" d="M347.632 128.018C354.911 126.825 380.97 140.439 387.606 145.477C409.697 162.247 430.039 187.805 434.574 215.825C435.516 221.643 436.767 239.667 433.628 243.94C428.574 244.845 430.923 235.103 430.872 231.595C430.793 226.197 430.879 220.397 429.884 215.051C423.05 178.466 388.943 144.201 353.223 133.788C350.821 133.088 343.091 132.252 347.632 128.018Z"/><path transform="scale(2 2)" d="M263.738 246.237C268.801 245.875 297.452 246.603 300.233 248.124C302.003 249.094 301.986 252.19 299.803 252.455C297.61 252.721 294.768 252.041 292.52 251.813C259.002 248.404 225.764 252.582 192.928 259.364C188.149 260.782 162.766 266.347 159.402 265.298C157.432 263.623 158.88 261.471 161.13 261.026C195.498 254.233 228.422 246.105 263.738 246.237Z"/><path transform="scale(2 2)" d="M258.329 160.241C261.564 160.104 274.075 158.534 271.582 163.973C270.236 165.25 264.116 164.674 261.987 164.808C223.437 167.247 185.748 174.277 146.942 173.389C143.16 173.252 139.05 173.493 135.316 172.953C132.915 172.606 133.027 168.624 135.998 168.504C138.055 168.421 140.003 168.714 142.06 168.815C178.863 169.65 210.218 164.599 246.33 161.295C250.327 160.929 254.342 160.699 258.329 160.241Z"/><path transform="scale(2 2)" d="M151.041 124.69C155.14 125.277 152.178 129.423 149.876 130.634C140.351 135.642 130.587 129.819 120.257 132.118C110.605 133.239 110.186 142.532 105.043 147.486C98.1574 154.118 87.8257 153.585 87.1697 166.13C87.0328 168.748 87.6471 170.744 84.8828 171.785C78.9221 169.042 84.8158 151.132 94.799 148.651C108.639 145.211 103.388 122.373 133.574 127.683C141.408 129.061 144.118 128.736 151.041 124.69Z"/><path transform="scale(2 2)" d="M76.9549 178.024C83.0351 177.329 77.4611 191.648 76.9549 192.249C70.3125 192.564 75.1205 179.566 76.9549 178.024Z"/></svg>