<?xml version="1.0" encoding="utf-8" ?><svg xmlns="http://www.w3.org/2000/svg" xmlns:xlink="http://www.w3.org/1999/xlink" width="1024" height="1024" viewBox="0 0 1024 1024"><path transform="scale(2 2)" d="M244.689 59.3638C249.486 59.0117 258.343 62.215 262.657 64.3587C271.115 68.562 271.905 75.7175 274.422 83.5764C276.888 81.2954 300.447 64.0118 303.126 70.756C304.775 74.9063 297.121 74.6715 295.045 76.0018C287.889 79.8143 281.562 84.6971 274.422 88.6268C274.886 95.5582 273.772 104.221 272.086 110.929C289.385 116.127 310.753 116.355 326.383 126.469C328.763 128.01 330.875 131.154 333.798 131.755C374.686 140.166 401.686 162.685 412.049 203.52C419.068 230.657 410.192 278.211 401.947 305.123C389.997 344.127 377.556 368.588 350.39 398.722C349.063 400.217 347.069 402.41 346.052 404.096C356.243 407.499 339.682 410.67 338.3 411.727C335.782 413.654 331.907 418.805 329.613 421.362C314.013 438.751 298.79 451.049 274.422 452.358C254.787 453.665 230.495 446.633 211.357 442.677C207.131 442.306 202.941 442.334 198.682 442.066C132.091 437.883 92.0663 373.504 99.7943 310.806C100.634 303.991 104.217 295.761 104.26 289.129C104.4 267.388 101.395 234.986 110.942 215.181C133.603 171.581 155.923 155.868 199.898 133.805C207.632 129.924 216.544 127.698 224.481 124.653C214.027 112.673 215.606 105.838 215.007 91.7524C209.59 89.8078 187.056 88.5559 185.646 87.5454C179.87 79.3032 213.139 86.1523 216.261 86.642C221.575 72.4006 227.967 61.2368 244.689 59.3638ZM116.121 254.519L116.244 254.333C118.012 251.62 132.422 229.031 132.765 238.532C132.057 239.983 127.126 246.013 125.799 247.695C118.917 256.411 114.572 266.531 112.453 277.441C114.373 276.195 127.718 266.4 127.898 266.383C136.006 268.871 113.502 281.317 111 282.219C112.154 302.456 110.644 319.116 116.64 339.829C125.156 369.244 147.314 400.339 172.058 418.285C182.395 425.602 202.823 437.056 215.992 437.915C256.801 435.715 296.563 421.627 334.688 407.903C339.142 406.3 358.463 365.264 361.421 358.833C370.637 338.798 380.715 318.954 386.393 297.559C392.224 275.687 379.933 253.57 374.234 232.672C370.795 220.062 369.697 206.751 367.131 193.959C362.7 171.678 343.792 152.516 329.579 135.698C309.887 129.656 276.423 127.263 256.584 128.404C237.618 129.053 235.617 129.414 218.104 136.771C208.766 140.694 198.458 145.552 189.661 150.625C192.026 150.105 213.39 149.693 214.574 152.116C213.398 156.002 194.309 154.171 190.177 154.312C188.86 154.356 189.018 152.422 189.088 151.645C183.099 154.229 159.475 172.202 155.589 176.855C152.031 181.115 149.702 186.528 146.764 191.239C137.686 206.801 120.093 236.925 116.121 254.519ZM351.232 390.506C354.041 387.074 356.972 383.878 359.797 380.487C389.101 341.913 401.121 301.094 407.899 254.331C412.981 219.271 408.984 179.193 378.125 156.508C367.942 148.657 350.187 139.474 337.405 137.747C351.309 150.714 368.209 175.99 371.883 193.924C374.619 207.284 375.566 221.156 379.383 234.274C383.51 248.459 392.235 267.717 392.767 282.199C393.509 302.379 379.643 330.352 371.223 348.503L357.66 377.705C355.848 381.508 352.638 387.062 351.232 390.506ZM193.896 437.373L194.689 437.243C194.493 436.96 182.352 430.437 180.639 429.441C140.117 405.884 108.072 355.028 105.476 307.655C104.51 310.193 103.896 315.858 103.744 318.61C101.518 358.829 118.919 402.775 154.705 423.81C169.131 432.29 179.35 433.121 193.896 437.373ZM243.647 98.0976C241.183 96.676 239.992 96.2739 237.406 95.1855C227.33 106.49 240.382 118.74 254.243 110.929C259.579 99.198 256.787 103.064 249.055 102.58C245.813 108.628 242.747 102.886 243.647 98.0976ZM259.995 122.764C274.667 122.342 296.037 124.611 310.244 126.819C313.367 127.291 316.774 127.789 319.863 128.404C303.541 120.491 280.796 120.405 270.666 115.15C267.013 119.292 265.145 120.987 259.995 122.764ZM268.274 109.272C268.443 104.808 270.273 95.2982 269.678 91.7524C266.913 93.7424 261.793 96.2304 259.995 98.0976C263.207 100.884 262.764 103.138 261.827 106.936C263.875 108.045 266.045 108.628 268.274 109.272ZM232.519 93.8173C229.412 93.4282 222.726 92.4588 219.747 91.7524C219.386 111 221.218 125.608 244.112 122.663C248.043 122.157 265.117 118.551 265.628 113.48L259.995 110.929C239.812 130.761 221.444 105.437 232.519 93.8173ZM255.368 93.8173C261.51 91.921 264.425 88.8621 269.678 86.642C268.582 80.6442 267.743 73.0963 262.134 69.5403C259.187 67.6724 247.77 63.3551 244.689 64.101C232.331 65.6731 224.463 75.7817 221.226 87.1542L221.568 87.2337C231.886 89.5786 235.322 88.0368 246.027 93.8173C246.288 93.1121 246.521 93.013 247.092 92.5115C250.478 92.1257 252.237 92.6914 255.368 93.8173ZM216.261 132.446C198.529 136.243 156.899 162.606 143.821 175.588C117.202 202.012 106.445 229.482 108.249 266.729C114.323 239.471 125.445 218.621 139.437 194.59C144.315 186.357 148.76 177.738 155.336 170.7C164.83 160.538 195.537 141.682 207.675 136.428C210.298 135.293 213.837 133.843 216.261 132.446L216.261 132.446ZM328.424 415.003C300.993 424.212 255.065 442.1 227.978 441.305C230.49 442.186 232.362 442.642 234.929 443.262C261.096 447.992 283.472 452.912 306.76 436.221C313.317 431.522 323.869 421.887 328.865 415.155L328.673 414.945L328.424 415.003Z"/><path transform="scale(2 2)" d="M298.763 150.625C303.253 152.496 301.282 155.45 300.031 159.031C307.954 162.425 306.397 171.288 298.763 161.843C297.367 163.848 294.615 170.565 293.251 173.365C306.217 178.136 318.477 189.71 328.621 199.014C346.133 215.076 355.507 238.283 355.973 262.053C358.29 261.686 364.848 259.491 366.222 260.527C371.057 264.173 357.451 266.24 356.319 266.613L355.973 266.729C353.805 297.535 339.036 340.911 317.133 361.964C302.65 375.884 272.449 388.596 252.392 384.454C241.932 382.293 227.835 379.021 217.854 375.556C214.844 381.547 212.298 387.351 209.939 393.613C209.26 395.702 207.896 404.912 204.79 404.294C199.966 400.615 211.136 379.054 213.391 374.088C172.64 361.308 166.293 330.769 163.883 292.514C159.361 294.655 153.674 296.655 148.703 297.645C144.881 298.406 144.678 294.146 148.283 293.153C153.113 291.821 159.145 289.213 163.883 288.189C164.628 270.264 166.152 256.923 172.444 239.365C180.749 216.187 199.699 180.406 222.124 168.685C238.441 160.157 271.709 165.249 288.978 171.264C290.485 167.878 296.578 152.39 298.763 150.625ZM267.069 280.492C265.595 285.042 264.093 289.302 261.768 293.533C260.247 296.3 257.801 297.147 256.345 299.159C245.257 314.477 238.821 326.697 231.369 343.699C227.488 352.554 223.442 362.955 219.262 371.324C222.28 372.17 224.433 372.645 227.263 374.088C235.669 374.995 244.284 378.562 252.83 379.955C271.46 382.994 296.244 373.148 310.967 361.231C328.753 346.835 347.767 302.747 350.487 277.868C350.604 276.799 352.471 267.409 350.665 268.114C346.315 268.59 341.37 270.156 336.866 270.87C325.019 272.746 312.895 272.474 301.133 274.461C289.605 276.408 278.96 280.684 267.069 280.492ZM209.939 274.79C217.897 273.276 225.715 272.909 233.696 272.041C233.912 264.388 235.958 261.509 242.556 257.862C246.404 243.543 261.761 222.749 269.748 210.176C272.306 206.15 274.739 200.162 276.978 195.766C269.379 202.234 269.763 191.344 278.77 191.351C280.988 184.539 282.777 181.364 286.575 175.334C275.268 171.376 254.62 167.779 242.556 168.653C196.456 170.771 170.067 248.211 168.759 286.041L196.199 278.266C201.027 276.944 204.975 275.682 209.939 274.79ZM255.368 256.802C261.095 256.298 263.952 259.412 267.069 263.709C268.28 251.539 285.871 205.039 280.878 197.437C278.284 202.806 275.747 208.545 272.691 213.643C263.849 228.394 255.356 241.565 247.092 256.802C249.72 256.449 252.744 256.006 255.368 256.802ZM227.263 343.071C228.333 330.964 243.962 311.326 250.532 299.751C243.036 299.6 238.768 297.289 234.929 290.718C227.709 308.472 221.343 335.825 221.226 355.204C222.83 350.791 224.583 346.919 227.263 343.071ZM241.057 272.041L240.975 272.415C240.172 275.97 238.369 277.43 238.092 281.521C237.559 289.396 242.412 295.558 250.532 295.219L254.243 294.25C261.461 285.51 273.286 258.748 252.054 260.651C250.212 260.747 248.822 261.423 247.092 262.053C246.345 268.105 245.822 268.234 241.057 272.041ZM283.611 191.351C292.258 201.936 278.477 236.44 275.161 247.976C272.487 257.285 270.485 266.963 268.274 276.428C279.171 275.15 288.778 272.043 299.446 269.931C306.148 268.604 313.094 268.874 319.863 268.627C323.466 267.712 347.081 263.939 350.585 263.742L350.989 263.718C351.07 263.715 351.151 263.712 351.232 263.709C351.547 223.535 324.843 194.72 291.147 177.196C288.524 181.793 285.404 186.418 283.611 191.351ZM233.696 276.428C232.496 276.413 230.037 276.317 228.944 276.428C222.161 277.403 215.421 278.391 208.658 279.546C197.83 281.396 179.075 287.158 168.759 290.718C168.489 311.245 172.916 342.463 189.661 355.204C195.273 361.942 206.583 367.863 215.007 369.948C216.13 367.637 216.903 365.921 217.854 363.525C212.892 358.834 220.342 322.848 221.924 315.751C224.927 302.284 231.459 290.043 233.696 276.428Z"/><path transform="scale(2 2)" d="M126.407 288.189C132.386 290.205 117.684 305.781 117.398 310.871C117.125 315.715 124.664 317.585 119.15 319.501C105.557 317.603 119.11 298.425 121.76 293.78C122.991 291.622 124.169 289.307 126.407 288.189Z"/><path transform="scale(2 2)" d="M154.394 202.262C155.196 202.605 157.119 204.116 155.981 205.113C151.492 209.05 143.752 218.475 138.311 220.102C132.072 219 140.851 213.702 141.107 213.466C145.52 209.375 148.773 204.792 154.394 202.262Z"/><path transform="scale(2 2)" d="M178.947 177.196C182.098 176.557 181.846 180.96 180.059 181.345C173.717 182.711 168.03 184.724 161.927 186.918C159.299 187.057 158.523 184.603 159.796 183.547C163.77 180.249 174.275 177.594 178.947 177.196Z"/><path transform="scale(2 2)" d="M191.022 157.587C192.147 157.662 194.813 158.102 194.248 159.969C194.07 160.558 182.896 164.502 180.355 165.926C175.023 167.555 177.332 158.857 191.022 157.587Z"/><path transform="scale(2 2)" d="M219.262 141.068C222.379 140.906 237.015 144.647 231.467 149.348C228.868 147.684 227.479 146.882 224.55 145.841C224.323 145.76 212.145 143.853 219.262 141.068Z"/><path transform="scale(2 2)" d="M137.544 346.387C143.238 346.357 137.867 358.412 136.137 360.3C129.542 359.925 136.452 347.31 137.544 346.387Z"/><path transform="scale(2 2)" d="M246.027 137.747C250.238 137.11 260.873 141.993 258.231 147.449C255.769 147.052 254.291 144.677 252.241 143.283C249.416 141.361 244.557 142.299 246.027 137.747Z"/><path transform="scale(2 2)" d="M341.08 340.457C345.71 340.799 342.491 348.789 339.943 349.87C335.202 349.131 338.68 342.046 341.08 340.457Z"/><path transform="scale(2 2)" d="M122.359 331.196C126.732 331.7 124.235 337.822 122.359 339.667C116.965 340.578 120.646 333.122 122.359 331.196Z"/><path fill="#87898C" transform="scale(2 2)" d="M221.226 130.492C220.057 131.227 217.604 132.15 216.261 132.446L216.261 132.446C218.053 131.62 219.354 131.143 221.226 130.492Z"/></svg>