<?xml version="1.0" encoding="utf-8" ?><svg xmlns="http://www.w3.org/2000/svg" xmlns:xlink="http://www.w3.org/1999/xlink" width="1024" height="1024" viewBox="0 0 1024 1024"><path transform="scale(2 2)" d="M391.1 265.382C407.423 264.694 422.33 272.334 431.897 285.528C466.165 332.787 441.193 395.282 410.779 437.452C399.858 452.594 378.324 457.985 360.676 453.869C328.653 444.924 304.025 408.988 302.341 376.512C300.88 348.333 310.759 321.704 329.867 301.01C346.852 282.614 365.279 266.694 391.1 265.382ZM363.315 448.791C396.099 456.215 411.593 429.882 424.021 404.993C441.598 369.794 453.677 327.555 430.332 291.321C420.474 275.935 405.569 267.582 387.144 269.248C362.621 272.098 342.331 291.105 327.58 309.651C296.317 348.959 299.615 403.87 339.113 436.133C345.71 441.522 354.965 446.979 363.315 448.791Z"/><path transform="scale(2 2)" d="M382.189 298.303C387.354 297.937 396.264 302.181 392.471 306.789C389.684 307.062 388.941 298.875 380.011 301.743C354.906 309.804 329.236 340.446 337.325 367.905C340.02 377.053 341.973 387.381 350.74 392.776C352.271 393.512 353.308 393.894 354.968 394.18C363.01 395.563 359.882 398.843 353.86 397.2C340.339 393.569 336.369 376.977 333.643 365.064C327.36 337.611 355.878 303.191 382.189 298.303Z"/><path transform="scale(2 2)" d="M406.178 327.534C418.939 328.899 421.414 340.068 416.95 350.85C412.343 361.976 400.068 377.117 389.627 383.899C384.835 383.501 390.32 379.668 391.649 378.511C400.988 370.385 408.258 362.767 413.399 351.62C423.746 329.186 401.667 332.228 406.178 327.534Z"/><path transform="scale(2 2)" d="M265.625 55.3846C360.344 52.4546 398.308 180.582 370.319 256.796C367.074 265.632 362.728 259.938 363.608 257.597C380.437 212.845 376.796 163.193 354.256 120.881C322.242 60.7818 283.135 55.9035 220.222 67.4863C180.506 74.8773 130.697 82.8172 101.49 113.312C61.1264 155.455 65.4478 229.604 78.9871 281.917C80.6388 286.951 81.8571 292.032 83.5937 297.162C109.242 372.986 223.86 378.75 287.373 351.096C290.513 349.729 293.417 354.286 290.96 355.653C272.309 366.029 236.197 371.112 216.671 371.648C175.753 372.772 133.069 365.965 102.301 337.767C80.3216 316.934 72.6716 287.254 67.7687 258.525C58.978 207.603 59.3155 147.608 97.6414 107.902C126.911 77.5779 174.765 69.2253 214.65 61.6923C231.059 58.5931 249.054 55.8922 265.625 55.3846Z"/><path transform="scale(2 2)" d="M206.624 128.8C214.183 127.457 208.969 137.546 208.958 142.267C208.93 154.406 210.91 187.55 214.547 199.468C228.585 195.162 261.761 195.582 276.865 196.637C280.169 196.868 294.455 195.963 290.112 202.379C288.841 204.258 279.518 202.743 277.237 202.843C255.941 200.22 235.638 203.202 214.547 204.793C215.971 227.883 218.627 247.292 215.625 271.08C214.049 274.816 209.554 274.074 209.774 270.182C211.049 247.66 211.873 228.358 208.138 205.548C190.74 208.056 156.223 213.322 141.591 206.588C139.715 205.725 138.083 203.941 139.509 201.89C141.645 198.82 147.261 202.894 150.071 203.034C161.092 204.876 172.237 203.289 183.254 202.152L208.138 199.468C206.236 186.302 197.838 134.246 206.624 128.8Z"/></svg>