<?xml version="1.0" encoding="utf-8" ?><svg xmlns="http://www.w3.org/2000/svg" xmlns:xlink="http://www.w3.org/1999/xlink" width="1024" height="1024" viewBox="0 0 1024 1024"><path fill="#040404" transform="scale(2 2)" d="M365.123 60.1166C381.806 60.2633 410.826 85.2575 416.385 98.2665C423.003 113.753 413.151 127.454 403.967 139.298C395.048 150.802 385.236 161.588 375.855 172.705L276.079 293.113C256.948 316.943 241.564 340.229 211.082 350.388C206.075 352.056 199.326 353.686 194.753 355.638L194.298 355.835C190.196 356.403 185.105 358.097 181.028 359.292L165.59 363.698C158.251 365.812 148.674 369.746 152.396 356.82C158.895 334.249 161.537 311.308 165.921 288.385C170.018 270.133 182.405 254.034 193.732 239.608C239.294 181.579 287.863 125.261 340.192 73.2214C347.069 66.3822 355.197 60.5083 365.123 60.1166ZM182.252 271.745C191.606 275.735 198.206 272.051 206.059 276.522C211.293 279.501 213.726 287.105 217.931 289.346C224.561 292.88 229.399 291.951 232.708 300.643C234.67 305.797 236.105 312.208 240.349 316.237C244.443 316.34 286.147 263.791 291.752 257.009L385.547 144.788C377.184 123.911 358.393 100.009 334.283 97.7404C332.533 97.5757 330.014 97.5634 328.403 97.1938C323.374 102.171 318.48 107.523 313.693 112.737C273.999 155.969 235.298 200.476 199.294 246.833C193.829 253.87 186.075 263.898 182.252 271.745ZM168.675 336.535L165.177 352.344C168.625 351.457 171.24 350.085 174.929 349.236C177.653 347.087 179.014 346.761 182.252 345.661C177.648 339.743 177.07 336.602 168.675 336.535ZM365.123 68.0957C353.749 69.3734 340.587 82.9075 333.807 91.2476C356.973 90.18 377.894 113.215 387.288 132.381L390.567 139.562C397.412 132.355 410.405 117.676 409.716 107.89C408.744 94.0736 373.62 65.3997 365.123 68.0957ZM179.321 277.561C173.377 294.781 172.543 310.792 169.523 328.758C181.463 328.456 183.026 334.557 188.796 342.922C198.154 339.762 208.029 336.742 217.184 333.045C224.21 330.049 230.352 326.504 236.01 321.295C228.935 315.496 227.283 301.221 223.879 299.407C220.359 297.53 216.326 297.601 212.983 295.207C207.882 291.555 205.196 284.07 199.736 281.475C193.969 278.735 189.485 283.089 179.321 277.561Z"/><path fill="#040404" transform="scale(2 2)" d="M361.543 134.714C373.975 133.162 356.343 153.692 354.634 155.731C327.344 188.281 297.049 217.966 270.186 250.921C265.004 257.278 244.783 283.799 238.91 285.798C229.261 285.117 238.359 278.187 240.158 276.2C244.792 271.08 248.564 264.983 252.902 259.567C280.793 224.744 311.59 192.571 341.42 159.45C345.257 155.189 358.479 136.81 361.543 134.714Z"/><path fill="#040404" transform="scale(2 2)" d="M334.688 120.504C345.553 121.096 331.488 131.576 330.019 133.022C291.135 171.322 261.689 217.833 221.306 254.808C218.342 257.522 213.492 263.189 210.062 264.751C199.66 260.879 210.58 255.024 214.064 251.888C235.897 232.235 254.546 209.322 272.984 186.993C283.269 174.537 321.269 125.65 334.688 120.504Z"/><path fill="#040404" transform="scale(2 2)" d="M456.914 261.331C459.035 260.872 461.824 261.275 462.707 263.58C465.312 270.37 448.223 270.473 444.919 270.869C401.115 276.127 323.95 274.44 299.764 321.238C282.266 355.097 349.554 343.086 363.63 341.849C377.686 340.614 413.976 334.883 419.833 352.563C425.811 370.61 381.178 391.157 369.319 397.366L328.76 418.493C322.192 421.917 309.462 429.732 302.932 431.78C305.444 431.561 308.054 431.695 310.623 431.462C345.056 428.341 380.355 418.131 414.205 410.03C393.427 426.455 322.675 442.163 299.979 433.891C225.731 467.428 186.516 450.255 135.046 388.885C123.452 374.666 104.452 349.421 86.7026 343.564C76.7526 340.28 64.237 341.872 57.398 350.4C56.3012 351.768 55.6362 354.543 54.1139 355.229C49.9051 357.126 48.7644 352.329 50.2324 349.101C56.1044 336.192 74.7689 332.041 87.3144 335.687C111.699 342.772 136.232 378.173 153.345 396.532C205.41 452.39 246.405 451.013 308.313 418.029C328.833 407.097 349.726 396.87 370.257 385.945C382.609 379.373 405.145 369.332 411.33 355.835C404.776 347.232 386.219 348.966 376.435 349.668L347.863 351.893C332.304 353.076 295.651 357.863 291.113 336.115C287.515 318.869 303.895 301.835 317.032 292.667C360.395 262.405 409.04 269.985 456.914 261.331Z"/></svg>