<?xml version="1.0" encoding="utf-8" ?><svg xmlns="http://www.w3.org/2000/svg" xmlns:xlink="http://www.w3.org/1999/xlink" width="1024" height="1024" viewBox="0 0 1024 1024"><path transform="scale(2 2)" d="M271.065 51.855C297.272 53.5743 302.493 74.1206 295.057 96.244C352.854 104.374 402.821 134.693 424.794 191.365C455.749 272.282 420.939 372.412 356.086 426.716C324.515 453.15 282.755 461.509 242.692 457.685C238.399 457.605 228.154 455.961 223.795 455.104C161.484 442.851 117.823 416.896 90.8787 357.454C67.5802 310.209 72.2896 263.086 91.6389 214.814C109.824 169.446 151.825 131.05 196.499 113.012C207.812 108.436 219.69 103.733 231.934 101.266C224.264 73.0339 243.498 52.7518 271.065 51.855ZM241.25 449.974C298.723 456.714 347.083 436.06 381.393 389.374C431.303 323.506 450.197 225.449 395.069 156.609C366.038 120.358 316.461 100.951 270.5 103.248C213.058 109.521 160.482 128.604 123.439 176.191C92.4369 216.018 74.042 273.274 86.792 323.29C104.669 393.022 151.33 433.989 222.385 447.115C227.079 447.982 236.587 450.034 241.25 449.974ZM239.384 100.328C243.112 99.5292 247.005 98.7526 250.704 97.8765C240.802 88.3103 246.971 77.6075 258.959 73.429C270.897 70.051 295.588 72.2838 285.263 89.6334C283.82 92.058 281.461 94.0172 279.717 96.244C281.833 96.2245 284.123 96.1584 286.222 96.244C292.077 79.5609 293.092 60.3349 270.5 59.086C259.222 59.993 250.171 64.702 242.609 73.0991C235.62 80.8611 237.548 91.0137 239.384 100.328ZM266.509 96.244C271.859 93.1442 278.89 93.4868 281.98 85.5701C285.168 77.4021 272.536 75.858 267.299 76.5031C244.844 80.3605 244.745 97.6089 266.509 96.244Z"/><path transform="scale(2 2)" d="M258.959 128.665C262.084 128.839 263.391 132.812 264.764 135.315C289.824 135.208 308.553 140.579 328.482 156.222C338.752 164.284 349.619 172.467 358.318 182.195C372.376 197.918 380.989 224.764 383.657 245.03C386.592 246.006 386.998 247.328 384.75 249.605C384.215 256.314 385.142 264.456 384.718 271.381C383.114 297.588 380.482 307.683 371.568 330.818C377.663 337.411 371.66 340.113 369.134 335.596C368.644 335.641 367.524 338.31 367.293 338.885C356.2 366.533 339.244 379.846 314.618 395.451C313.858 399.031 312.045 400.751 308.896 397.816C287.503 411.048 266.594 413.479 242.692 408.651C204.745 402.339 174.695 392.823 145.933 365.097C102.586 322.614 99.9863 251.18 133.314 201.975C138.732 193.974 144.668 187.286 149.788 179.924L149.943 179.697L149.622 179.069C146.984 173.855 149.047 171.07 153.563 175.999C155.213 174.566 156.939 172.848 158.568 171.341C186.232 145.741 222.173 137.096 258.959 135.315C258.032 132.862 256.485 130.501 258.959 128.665ZM156.102 179.697C159.785 182.26 163.209 189.174 166.744 192.628C169.199 195.027 171.765 195.104 172.931 197.314C173.045 199.577 170.066 199.795 168.507 199.408C161.387 197.64 157.802 188.17 152.738 183.265C135.867 198.77 121.178 230.689 117.479 252.542C116.408 258.868 116.261 265.141 115.74 271.502C125.342 276.101 120.135 276.839 133.952 277.795C143.202 278.435 133.431 289.795 115.74 277.746C115.16 299.367 122.359 325.024 134.901 343.059C136.626 341.963 140.59 339.076 142.555 339.646L142.727 340.062C141.723 342.483 138.773 344.161 136.621 345.586C138.072 348.574 142.564 353.45 144.954 356.122C147.152 354.067 152.812 348.963 155.685 348.775L156.204 349.042C156.554 351.639 148.761 356.944 146.615 358.358L146.53 358.415C148.967 360.62 150.902 362.332 153.563 364.31C155.584 362.82 160.181 359.008 162.321 358.742L162.859 359.002C163.798 361.728 158.017 364.669 156.102 366.486C158.983 369.8 170.402 378.06 174.542 380.135C176.994 378.51 181.582 375.282 184.574 375.674L184.984 375.962C185.111 378.432 178.741 381.231 176.833 382.167C178.872 383.363 182.454 385.338 184.643 386.3C187.212 384.186 202.932 372.458 204.535 375.129C204.18 377.656 190.874 386.459 187.979 387.987C194.203 390.888 197.333 392.063 203.63 394.345C205.665 392.844 218.746 380.477 220.291 384.63C219.842 386.826 210.835 393.739 208.649 395.451C212.82 396.894 221.228 398.569 225.831 399.67C228.038 398.322 234.136 394.263 236.237 393.86C240.752 395.471 231.536 400.024 230.163 400.669C245.224 403.757 258.976 406.706 274.418 404.128C279.54 403.273 284.627 401.331 289.455 400.669C295.392 397.244 303.562 393.944 309.921 390.823C308.622 387.916 306.498 384.21 303.34 383.119C295.392 380.374 299.847 375.973 305.351 378.357C309.804 380.286 311.843 384.333 314.618 387.987C330.94 376.535 344.615 367.832 355.172 349.412C358.425 343.736 361.502 336.694 364.566 330.818C348.429 310.549 340.963 323.356 335.459 319.726C332.977 315.519 348.368 307.438 366.932 325.8C378.844 299.752 378.018 279.623 378.753 252.365C377.092 253.023 375.248 253.922 373.786 254.603C369.859 256.432 366.967 252.405 378.753 247.486C377.566 243.823 376.806 240.099 376.069 236.323C374.895 237.465 361.324 252.197 362.689 243.362C362.77 242.837 373.727 232.511 375.139 231.339C374.542 228.493 373.939 225.865 373.229 223.044C370.712 224.809 365.243 229.296 362.677 229.09C358.687 226.679 369.211 221.099 371.568 219.146C370.354 215.34 368.594 211.582 366.932 207.944C355.644 216.674 354.958 211.218 365.427 204.421C364.034 201.38 361.877 197.963 360.124 195.059L359.745 195.296C356.986 197.044 351.765 202.256 349.39 201.818C345.244 199.05 356.317 193.383 358.136 192.018C355.93 188.24 354.55 186.303 351.364 183.265C342.393 189.331 339.047 187.029 349.052 180.889C344.897 176.73 339.521 172.396 334.975 168.533C333.278 169.88 324.292 178.097 322.453 174.805C322.522 172.195 329.531 168.231 331.745 166.328C327.787 162.857 325.004 160.955 320.583 158.144C306.932 168.911 302.194 168.216 317.714 155.641C313.822 153.445 310.406 151.619 306.468 149.584C296.506 157.146 294.442 153.729 302.628 147.917C298.437 146.294 293.705 144.351 289.455 143.081C287.763 144.374 282.896 148.466 281.271 148.68C277.853 146.873 283.25 143.27 284.825 142.251C278.909 141.087 272.541 140.395 266.509 140.59C269.34 149.009 267.256 155.177 263.938 163.283C262.394 167.053 256.815 168.694 260.185 159.77C262.836 153.216 263.462 147.392 261.466 140.59L257.725 140.59C225.934 140.335 176.438 153.7 156.102 179.697Z"/><path transform="scale(2 2)" d="M329.486 186.574C347.456 184.999 321.937 224.232 319.398 228.99C302.513 260.633 288.027 293.644 253.898 310.198C236.226 335.154 218.66 349.93 191.476 364.304C187.506 366.403 181.222 370.015 176.833 370.339C171.328 369.692 168.82 366.964 170.388 361.221C178.583 331.213 190.632 307.531 208.649 282.711C203.422 263.513 226.539 238.93 245.987 239.267C262.93 222.133 291.2 204.429 312.604 193.861C317.957 191.218 323.457 187.406 329.486 186.574ZM244.418 243.375C227.951 244.551 212.996 261.689 212.129 277.746C219.992 280.603 211.061 285.727 210.179 287.19C197.737 303.767 177.715 341.599 174.542 362.947C174.401 369.985 195.065 356.426 197.871 354.792C218.695 342.672 237.114 326.826 249.932 306.273C250.422 305.487 255.378 303.754 256.862 302.823C291.294 281.212 304.399 241.189 324.323 207.976C325.525 205.972 333.847 192.342 329.486 192.018C311.764 195.786 264.494 226.039 250.528 241.526C248.907 243.323 250.977 247.659 244.418 243.375Z"/><path transform="scale(2 2)" d="M246.926 253.302C257.924 252.803 266.685 261.982 269.225 272.215C272.623 285.91 261.101 297.501 248.105 300.078C242.779 300.584 236.924 298.952 232.465 296.047C216.679 285.76 228.436 256.543 246.926 253.302ZM245.987 294.661C275.29 292.546 264.257 255.348 249.002 258.111C230.605 260.071 218.771 294.516 245.987 294.661Z"/></svg>