<?xml version="1.0" encoding="utf-8" ?><svg xmlns="http://www.w3.org/2000/svg" xmlns:xlink="http://www.w3.org/1999/xlink" width="1024" height="1024" viewBox="0 0 1024 1024"><path transform="scale(2 2)" d="M241.741 82.7515C260.027 79.9991 277.37 94.0526 284.214 110.278C285.992 114.491 288.09 120.361 290.349 124.109L290.517 124.383C303.888 128.495 306.976 133.457 311.275 147.492C318.142 142.375 330.586 128.702 339.771 141.399C348.172 119.702 378.374 98.9278 398.836 119.191C410.446 130.687 412.864 146.179 412.748 161.743C429.463 159.834 430.938 180.524 421.014 192.227C439.278 196.377 435.704 212.775 430.294 225.297C433.814 225.981 435.493 227.13 438.335 229.198C460.88 245.595 451.627 277.323 436.699 295.525C434.141 298.645 431 300.848 428.366 303.806L428.07 304.141C437.414 326.95 445.974 340.476 421.892 356.395C419.202 373.95 402.914 392.187 386.46 375.483C384.696 373.692 382.778 371.244 380.762 369.715C375.545 373.307 372.573 375.831 365.906 373.363C362.172 382.767 360.29 413.478 363.151 419.164C365.061 419.996 368.318 417.343 370.246 417.467C373.313 417.664 375.267 419.654 378.435 420.668C387.662 417.612 385.488 429.215 371.111 422.247C365.461 424.125 364.668 425.138 359.192 422.247C357.728 423.287 356.132 423.472 354.377 423.793L354.141 423.709C351.943 422.892 350.555 421.994 348.578 420.808C341.724 416.694 346.3 427.74 335.101 420.916C329.94 417.967 326.405 426.263 323.6 426.974C316.738 425.613 326.957 417.685 330.289 416.271C332.816 404.715 337.261 385.171 337.277 373.363C333.593 371.569 331.65 370.457 327.629 369.715C318.805 369.978 312.843 374.094 303.455 368.561C296.821 364.65 295.69 353.559 299.822 347.424C291.049 340.999 285.556 337.436 285.761 325.539C279.139 327.404 275.614 327.075 268.82 327.003C266.564 346.852 265.357 355.945 268.722 377.091C269.927 384.665 277.5 424.703 275.024 428.459C270.783 434.894 269.848 420.629 269.791 419.378C268.697 394.483 259.987 370.3 261.62 345.28C262.202 334.606 264.843 322.852 266.025 312.407C267.921 295.647 274.477 290.915 288.069 282.083C307.871 269.216 329.211 289.545 305.678 285.501C295.883 283.818 281.428 291.264 275.854 298.961C272.91 303.027 270.948 316.039 269.699 321.534C287.063 322.477 291.186 317.142 301.15 306.365C313.454 303.817 329.633 312.314 339.586 295.559C343.973 288.176 348.177 270.714 338.798 265.344C327.027 263.828 333.578 260.716 335.814 254.375C336.704 251.849 336.863 250.399 337.277 247.867C330.128 251.797 325.57 250.414 333.028 244.397C345.426 234.393 340.91 216.978 331.358 206.726C324.732 199.614 313.208 202.77 311.266 195.918C311.451 194.048 313.602 192.365 314.92 190.388C320.003 182.765 324.606 167.799 315.08 161.743C307.922 163.865 308.967 159.587 307.888 154.058C306.218 145.497 302.388 134.824 294.235 130.408C293.726 130.132 289.393 129.382 288.239 129.049C284.312 125.215 281.437 116.239 279.133 111.287C263.051 75.7481 216.964 81.9218 214.117 118.482C213.686 124.019 214.023 130.585 210.43 134.17C213.613 135.185 218.267 137.467 218.175 141.713C218.081 146.05 210.587 139.174 209.772 138.745L209.456 138.583C196.516 142.478 187.885 158.094 188.485 171.148C188.631 174.325 194.236 188.857 185.567 182.788C166.313 186.397 150.571 209.315 155.315 228.619C158.533 241.715 167.194 246.969 178.233 253.161C189.247 259.47 181.166 268.017 179.444 276.192C176.692 289.261 187.587 306.588 197.825 313.773C205.657 319.27 215.044 315.772 223.452 313.841C220.743 307.817 204.726 289.022 214.894 289.473C224.35 289.893 227.859 298.032 233.504 304.141C237.106 299.688 236.417 295.31 236.948 290.154C230.602 287.295 232.864 280.062 228.945 275.168C223.833 268.787 213.168 270.684 209.247 261.818C206.648 255.913 209.688 246.809 215.41 249.647C220.367 250.408 223.09 264 224.832 265.162C232.045 269.97 232.644 269.601 236.138 278.691C236.145 267.911 235.862 257.069 236.134 246.299C236.586 240.713 237.567 235.256 237.757 229.661C238.13 218.71 227.045 217.293 223.182 208.606C222.146 206.278 221.338 202.594 224.587 201.551C229.13 200.091 238.917 219.368 246.392 201.442C247.618 194.882 248.468 187.634 251.938 181.822C254.711 177.179 261.266 176.598 264.937 172.774C266.935 171.053 266.821 168.155 268.503 166.257C270.851 163.508 273.959 164.948 273.699 168.553C273.129 176.453 264.059 179.621 261.258 186.6C257.94 194.864 258.779 203.06 257.224 211.654C255.59 221.321 251.354 231.738 251.229 241.515L251.755 241.235C260.565 236.475 264.708 235.732 267.6 226.09C269.864 218.542 277.148 221.602 279.298 227.595C285.321 244.395 241.678 240.07 253.059 296.552C254.083 301.632 254.916 306.721 256.825 311.607C265.808 292.245 264.179 294.215 280.652 278.691C278.95 274.33 271.602 262.581 276.571 258.481C286.247 250.499 286.394 270.289 286.55 273.123C299.786 263.229 291.606 245.87 303.332 238.294C316.783 229.603 311.719 265.066 304.834 262.554C302.808 259.576 310.592 252.886 308.452 243.854C306.71 236.502 301.653 244.262 300.463 247.861C298.119 255.212 299.271 262.003 295.364 269.048C289.058 280.421 277.539 286.433 269.737 296.341C265.872 301.249 260.549 326.19 252.683 314.853C250.395 310.674 249.92 305.253 248.95 300.654C236.519 241.373 271.583 244.331 275.678 230.715C275.946 229.825 274.826 226.319 273.15 226.299C271.907 227.492 271.376 233.988 269.133 236.058C265.427 239.48 261.458 241.044 257.248 243.643C254.866 245.115 248.731 251.995 247.262 245.838C244.605 234.696 250.138 223.051 251.977 212.248C254.457 197.68 252.748 194.726 258.965 180.673C246.43 190.417 257.781 221.77 230.434 211.255C249.807 226.676 240.632 228.204 240.611 248.931C240.595 263.663 241.978 278.42 241.689 293.134C241.622 296.54 238.469 311.811 233.603 309.635C227.52 305.127 224.797 297.821 217.39 294.868C244.513 322.527 238.223 388.309 234.125 422.661C233.994 423.763 233.225 426.698 231.703 427.062C225.82 427.276 229.602 418.813 229.782 415.624C234.146 389.713 235.591 344.948 226.021 319.877C221.907 320.529 217.205 320.988 213.007 321.534C203.286 349.127 194.395 347.224 169.038 338.822C155.9 358.737 161.946 383.91 166.17 405.75C166.813 409.074 169.652 418.895 169.673 421.265C168.499 424.127 166.272 421.726 165.818 419.884C159.07 392.482 150.96 362.325 165.904 336.479C166.788 334.95 168.145 333.762 169.038 332.229C166.409 335.286 154.461 348.192 150.648 341.043C148.379 336.789 147.421 314.814 149.454 310.398C152.501 303.78 157.826 303.274 161.127 291.69L160.508 292.727C157.761 297.395 148.958 304.833 146.944 295.367C146.48 293.186 146.482 290.96 146.113 288.744L146.061 288.443C146.116 288.651 146.17 288.86 146.224 289.068L145.926 289.197C145.67 297.848 145.45 305.708 146.203 314.353C146.896 322.312 145.52 343.231 132.69 338.822C143.797 355.246 146.651 402.273 145.008 424.459C144.877 426.233 144.679 429.919 142.036 429.106C140.475 427.406 141.801 417.808 141.769 414.878C141.518 392.39 140.834 365.031 131.754 344.49L131.609 344.166C125.402 351.244 119.196 354.561 110.068 350.942C72.9389 365.727 44.5484 316.56 68.1143 288.214C70.1951 285.711 72.6822 283.546 74.9544 281.215C70.1723 275.239 67.5691 273.28 64.2135 265.931C54.3915 244.418 62.6933 207.389 85.6853 197.02C83.4131 189.245 82.8988 183.242 84.9952 175.45C88.7308 161.565 102.321 147.395 117.78 151.665C122.115 139.135 129.223 132.839 141.851 128.92C159.316 123.501 167.206 139.848 170.748 153.9C177.626 152.604 179.921 153.471 185.567 157.526L187.687 152.85C191.335 144.938 198.021 137.249 206.33 134.17C206.888 131.824 206.806 126.542 207.345 125.534C209.179 122.266 209.102 118.73 209.61 115.065C212.143 96.8062 223.994 85.833 241.741 82.7515ZM338.798 259.775C345.165 262.253 349.176 268.391 349.761 275.21C349.39 277.739 349.531 279.233 349.761 281.783C348.579 287.543 347.05 291.903 345.354 297.427C352.869 312.803 344.563 342.981 348.335 351.009L348.724 351.031C352.89 345.236 348.864 326.754 358.902 313.81C362.229 309.963 367.887 309.139 372.32 307.361C385.568 302.049 390.159 287.673 401.396 278.691C395.881 278.365 395.366 276.241 395.111 271.168C394.107 277.172 389.821 287.072 385.907 291.95C382.576 295.946 359.68 315.216 355.037 306.804C351.05 299.581 350.835 289.807 349.761 281.783C349.87 279.924 349.769 277.137 349.761 275.21C349.776 265.567 352.555 255.199 359.165 247.982C368.219 238.097 378.218 245.837 385.041 239.382C386.186 238.299 386.839 236.32 385.49 235.131C379.421 229.784 363.06 243.397 358.438 239.306C353.292 234.751 359.668 205.908 361.541 199.552C363.391 193.274 366.256 187.74 369.793 182.273C370.066 181.85 382.75 163.099 373.909 168.018C351.473 180.5 362.429 210.991 355.569 213.392C346.736 216.484 338.149 179.369 351.203 186.341C353.74 187.641 354.78 189.713 355.693 192.227C357.599 181.722 362.74 170.91 372.465 165.406C374.533 164.235 379.454 163.504 380.136 166.579C381.847 174.304 367.219 190.139 364.685 201.082C362.835 209.069 358.049 229.133 360.734 236.477C363.688 238.173 382.4 223.991 389.141 234.205C396.334 245.102 368.424 245.713 365.962 247.003C349.055 255.867 351.144 292.886 358.422 306.365C362.061 305.257 367.796 301.866 371.263 299.861C393.501 287.292 389.751 263.892 395.337 260.553C399.412 260.243 399.156 272.756 399.255 275.21C405.094 274.206 411.682 271.609 417.494 273.503C427.937 276.103 426.634 285.913 420.101 280.316C417.55 278.13 413.103 277.888 410.061 278.758C394.288 283.574 391.592 303.336 371.957 311.117C358.701 316.37 357.142 319.343 355.266 334.589C354.359 340.051 355.65 361.671 344.236 354.121C343.158 352.142 343.077 351.091 342.748 348.9C328.935 342.215 333.963 335.538 330.802 331.975C328.936 337.526 338.058 349.275 340.904 353.612C346.499 362.138 337.737 406.526 335.298 416.271C337.125 416.944 338.211 417.754 339.771 418.855C344.884 413.39 348.947 416.15 354.377 418.855C358.135 417.829 357.663 417.333 357.38 413.403C356.366 399.343 356.244 383.329 361.703 370.273C359.832 364.078 358.109 359.637 363.197 354.187C369.213 347.744 376.007 343.399 383.423 338.822C380.922 339.1 377.648 340.781 375.772 338.314C374.447 331.858 388.058 335.056 390.878 334.274C397.954 332.315 407.655 319.059 410.232 324.278C411.081 332.903 394.739 339.798 388.819 342.472C393.946 344.079 398.497 345.792 402.954 348.895C405.053 350.356 402.711 353.626 400.94 352.882C394.624 350.228 389.335 347.013 382.443 345.981C377.525 348.104 367.027 356.202 365.906 361.648C367.075 371.533 371.91 369.587 378.177 365.178C385.665 360.68 403.737 398.319 416.621 358.336C408.868 360.398 408.681 355.144 411.736 354.512C419.524 352.9 427.475 347.751 430.941 340.274C436.073 329.201 428.72 315.866 424.837 305.243C421.911 306.481 409.998 311.952 407.795 308.632C407.871 306.783 409.916 306.251 411.594 305.91C439.368 300.279 463.674 247.925 433.453 230.577C431.093 229.223 426.661 227.017 424.837 225.297C424.853 225.231 424.87 225.164 424.887 225.098L424.979 224.77C426.852 217.843 432.236 212.035 428.989 202.996C425.835 193.526 407.468 197.252 416.575 188.569C427.454 178.195 421.419 162.306 411.931 166.129C411.188 167.443 410.768 168.072 409.169 167.625C406.83 165.389 415.424 135.387 392.272 118.186C377.177 106.971 353.245 123.263 345.892 136.94C344.536 139.464 340.174 154.397 337.176 146.016C332.33 132.471 314.508 146.221 313.331 154.874C313.235 155.578 339.463 164.795 317.351 195.496C332.209 197.148 342.903 207.639 346.159 222.298C346.962 226.025 347.604 234.776 345.364 238.086C340.303 245.566 343.623 252.189 338.798 259.775ZM184.362 177.497C183.439 171.259 183.34 169.761 184.362 163.648C182.001 161.861 179.506 159.851 176.59 158.944C169.353 156.692 170.064 164.707 165.18 152.065C161.598 142.793 157.347 130.484 144.953 132.355C132.834 134.633 125.394 141.442 121.548 152.964C122.027 153.835 122.581 154.789 123.022 155.668C122.293 157.524 121.707 159.582 118.845 158.696C116.17 157.513 117.523 152.005 107.466 155.213C88.4715 161.271 85.5537 180.222 89.6083 197.02C92.5105 197.176 96.9215 198.358 96.974 202.515C97.0258 206.619 89.6328 200.704 88.6345 200.285C67.9456 205.728 61.0899 240.637 66.4871 258.575C69.9036 269.931 72.7543 271.471 78.5407 280.055C79.7291 281.817 75.7282 284.724 74.7754 285.898C50.5212 306.496 66.8661 353.902 100.22 349.645C102.635 349.338 105.323 348.897 107.705 348.9C106.489 347.334 100.673 339.719 106.34 339.792C110.756 342.833 109.386 345.332 115.784 347.424C121.931 345.84 125.066 343.344 129.585 338.822C127.562 336.256 120.331 330.667 122.807 328.084C127.824 326.116 138.99 347.867 141.754 327.003C139.71 325.189 123.571 315.185 122.058 314.512C121.759 314.379 94.4698 312.883 106.913 306.365L109.545 307.413C112.973 308.79 116.587 307.825 120.487 308.181C119.128 299.253 118.38 292.197 112.118 285.018C108.756 281.165 113.482 274.004 121.547 290.07C124.462 295.877 125.036 303.073 127.453 309.003C132.614 311.844 137.417 314.932 142.696 317.773C142.066 304.789 142.534 290.892 141.754 278.691C143.339 251.462 127.156 253.735 119.597 234.612C114.2 220.959 129.094 233.733 131.609 234.72C131.19 230.532 126.023 217.189 127.068 216.313C131.561 212.53 134.848 227.138 135.311 230.871C136.236 238.318 138.509 247.155 127.453 237.448C129.271 242.612 132.538 244.997 136.265 248.976C149.515 263.118 150.546 277.109 150.943 294.868L151.292 294.735C155.338 293.166 157.155 289.401 158.603 285.538C163.276 273.073 173.653 293.664 154.277 309.812C149.625 313.715 152.529 335.309 154.137 339.987C160.271 337.318 168.482 326.522 173.02 321.534C170.656 318.748 170.904 311.05 173.02 308.181C182.348 300.708 177.301 310.699 180.102 317.773C183.716 316.676 186.461 315.296 189.403 312.872C175.824 297.648 169.375 282.335 178.684 264.013C180.755 258.094 173.393 256.265 168.397 253.412C134.198 233.882 151.448 186.13 184.362 177.497ZM305.045 311.607C299.773 316.651 297.819 318.609 291.72 322.858C288.153 330.461 292.696 338.562 299.939 341.72C308.05 345.97 305.172 343.73 302.964 351.381C298.702 366.154 311.516 367.466 321.813 365.428C328.886 363.998 331.324 363.417 337.277 368.373C338.47 362.605 339.325 356.589 335.287 351.094C318.811 328.825 332.29 324.17 334.123 328.399C338.63 338.796 330.602 336.217 344.236 345.981C343.607 339.471 346.732 304.048 343.15 300.424C329.69 315.393 321.244 310.348 305.045 311.607ZM175.353 325.539C173.85 328.546 171.606 332.66 170.748 335.829C174.515 337.606 182.76 340.938 186.691 341.189C200.323 342.378 206.638 334.024 209.456 321.534C200.294 322.067 200.111 319.27 193.12 316.421C187.855 321.042 182.356 324.296 175.353 325.539ZM347.747 187.912C343.346 192.672 350.885 206.39 353.249 211.255C355.891 205.842 356.356 188.773 347.747 187.912ZM213.007 253.683C210.409 258.91 214.483 263.049 219.048 265.067L219.686 265.344L219.932 264.976C219.013 261.511 217.446 253.673 213.007 253.683ZM281.92 271.168C282.064 268.973 282.734 262.322 280.652 260.871C278.832 263.694 280.524 268.387 281.92 271.168Z"/><path transform="scale(2 2)" d="M311.275 333.445C313.843 333.559 315.961 334.87 315.08 337.701C312.814 337.217 309.984 336.381 311.275 333.445Z"/><path fill="#F4F2F6" transform="scale(2 2)" d="M294.817 283.125C299.292 280.834 300.214 281.157 305.157 281.244L305.045 281.215C302.016 281.635 297.658 282.169 294.817 283.125L294.817 283.125Z"/><path fill="#F4F2F6" transform="scale(2 2)" d="M136.399 319.877C138.953 320.215 140.875 321.049 142.696 322.858C141.735 322.704 137.554 320.444 136.399 319.877Z"/><path fill="#A2A4A6" transform="scale(2 2)" d="M294.817 283.125C289.128 285.055 290.685 283.539 294.817 283.125L294.817 283.125Z"/></svg>