<?xml version="1.0" encoding="utf-8" ?><svg xmlns="http://www.w3.org/2000/svg" xmlns:xlink="http://www.w3.org/1999/xlink" width="1024" height="1024" viewBox="0 0 1024 1024"><path transform="scale(2 2)" d="M123.068 78.5007C186.918 79.7408 251.308 81.3192 315.081 81.3275L383.902 81.3151C412.735 81.1538 446.341 76.6076 449.924 115.879C457.643 200.505 453.443 285.22 453.706 370.051C453.845 414.777 452.908 432.794 400.324 427.384C395.137 426.857 389.359 427.057 383.978 426.243L383.187 426.299C378.481 426.586 373.222 426.245 368.463 426.196C336.825 425.871 305.356 426.524 273.74 427.839L172.538 432.356C158.924 432.977 145.339 433.67 131.695 433.871C73.7192 434.725 64.4995 424.013 61.6702 370.525L60.6815 353.762C58.0805 306.789 57.5018 262.312 58.1058 215.347C58.3679 194.965 59.1097 174.65 58.7304 154.252C58.3625 134.464 54.7814 110.943 68.3615 94.5054C79.9187 81.4201 106.508 79.2989 123.068 78.5007ZM136.121 82.9933C133.187 82.9038 131.076 82.9651 128.197 82.9933C124.009 85.8644 115.733 99.0768 112.463 98.9396L112.175 98.7285C112.272 96.7427 124.234 84.9312 126.494 82.9933C122.604 83.3123 118.639 83.1106 114.876 83.4919C111.869 87.1575 103.35 97.1373 99.8331 99.4926L99.2198 99.4362C99.4072 96.595 110.399 87.4218 113.048 83.4919C110.844 83.6722 108.946 83.9283 106.753 84.2474C104.611 86.2301 89.9674 100.193 88.2649 101.023L87.9724 100.889C88.8313 97.2957 100.721 88.0127 104.293 84.2474C100.273 85.2556 98.3306 85.039 94.4711 86.8722C89.9104 89.7192 84.0394 97.7465 81.3474 102.447C84.9664 106.711 85.1567 109.439 80.2685 104.43C78.1309 107.047 75.2996 111.846 73.966 115.043C74.8951 115.499 75.8806 115.828 76.4104 116.678L76.2543 117.128C75.0842 117.406 74.2256 116.904 73.1994 116.34C71.816 118.698 67.6644 127.223 65.7696 127.942L65.257 127.866C64.8328 126.371 70.4546 116.984 71.5876 115.043C70.3126 114.127 69.1668 113.442 68.2266 112.196L68.2875 111.882C69.6084 111.892 71.3508 112.832 72.6246 113.403C74.3317 109.96 76.7509 106.416 78.2133 103.252C75.3772 101.2 74.6253 100.801 72.6246 97.9673C75.1468 98.9215 77.1416 100.166 79.4095 101.617C83.3187 96.1151 87.1353 91.9708 91.4003 86.8722C56.7841 97.4373 61.9752 122.978 62.8935 154.414C63.3113 168.717 62.5927 182.9 62.519 197.169C61.4384 250.083 61.8955 302.536 65.015 355.43L66.4932 378.322C67.73 395.302 68.7059 415.12 85.9872 423.802C102.876 432.286 129.246 429.546 147.917 428.837L191.957 426.912C223.479 425.285 254.885 424.104 286.43 423.126L307.503 422.416C339.814 421.135 372.495 421.264 404.734 423.623C410.955 424.078 419.18 424.779 425.308 423.579C441.886 421.403 446.876 415.046 448.793 398.24C451.345 374.144 448.729 344.833 449.475 320.086C451.242 261.507 450.238 203.001 447.868 144.468C446.635 120.903 447.946 88.5769 417.078 85.2877C400.649 83.5638 376.623 85.6103 359.406 85.6053L278.765 85.5813C274.089 85.5363 270.92 85.2664 266.201 85.5999C263.888 87.5018 261.298 90.1994 258.699 91.2952C260.477 88.5098 261.351 87.6941 263.947 85.5999C261.933 85.4491 256.11 85.2675 254.623 85.0003C252.977 86.5309 246.128 93.3542 244.402 93.3002C244.307 91.4266 250.814 86.5963 252.451 85.0003C248.602 85.4478 242.316 84.7216 237.785 85.0003L237.521 85.2686C235.56 87.2853 233.084 91.6861 231.221 92.6325L230.91 92.5362C230.609 91.1048 234.568 86.2779 235.564 85.0003C232.024 84.7761 228.563 85.0311 225.023 85.0003C222.588 88.3599 220.166 92.2121 216.716 94.5229C217.861 90.7831 220.873 87.5936 223.724 85.0003C219.509 84.7077 217.258 84.4004 213.078 85.0003C211.415 86.2133 203.534 93.7939 202.753 93.9531C202.288 91.7224 209.227 85.9183 211.04 84.2474L201.501 84.2474C200.251 86.4192 194.983 92.8688 192.892 94.0234L192.397 94.034C192.164 91.7659 198.409 85.976 200.132 84.2474C197.761 84.0208 195.045 83.6333 192.736 83.4919C191.203 85.6809 184.433 94.7484 182.474 95.8053L182.093 95.7901C181.173 93.4723 189.636 85.8611 191.15 83.4919C188.074 83.6539 186.392 83.6514 183.36 83.4919C181.665 85.7602 173.727 97.2518 171.528 97.2681C170.423 95.5843 180.408 85.5395 181.937 83.4919C178.953 83.5026 175.105 83.6248 172.2 83.4919C169.786 86.3917 162.213 96.0952 159.015 96.8251L158.729 96.581C159.247 94.4962 167.963 86.4581 170.415 83.4919C166.839 83.3215 164.918 83.2456 161.305 83.4919C158.948 86.0025 151.991 94.1127 149.404 95.4438L148.96 95.377C148.838 93.3794 157.981 85.4055 159.843 82.9933C156.513 83.2144 152.788 82.9559 149.389 82.9933C145.99 86.8628 142.493 90.6565 138.964 94.4094C135.499 98.0936 134.728 96.2265 138.198 92.8094C141.438 89.6187 144.545 86.3619 147.6 82.9933C143.924 82.7803 141.612 82.703 137.891 82.9933C135.593 85.238 127.883 95.4409 125.723 95.6901L125.367 95.4214C125.574 93.2387 134.211 84.8323 136.121 82.9933Z"/><path transform="scale(2 2)" d="M108.873 131.1C111.463 130.533 122.207 132.189 125.69 132.482C138.743 133.581 151.426 133.431 164.504 132.828C193.203 131.503 201.066 132.259 203.766 165.222C204.376 172.67 204.317 178.546 204.126 186.113C203.86 196.627 198.168 211.181 204.354 220.28C214.599 235.347 258.606 231.584 274.047 230.638C305.086 228.736 311.797 223.861 316.748 191.94C306.347 184.067 306.715 165.094 296.17 159.521C282.19 152.132 239.396 195.775 226.393 207.107C224.598 208.671 210.597 219.152 208.362 219.879L208.472 219.474C213.707 214.95 219.445 211.033 224.571 206.371C240.155 192.199 273.245 157.381 291.895 156.525C306.704 155.844 307.999 180.501 316.748 188.663C316.828 159.119 319.14 136.11 281.767 137.717C260.324 138.639 235.16 132.004 213.996 140.366C208.059 142.712 207.32 143.043 214.104 139.39C232.187 129.669 268.691 134.316 289.658 134.152C297.472 134.185 304.642 134.488 310.513 140.231C320.546 150.045 320.79 170.404 320.75 183.875C320.984 194.723 319.465 207.32 314.317 216.923C324.094 228.197 345.952 226.929 360.04 228.045C374.188 229.165 404.645 233.734 416.309 225.356C426.594 217.969 423.06 198.321 423.402 186.748C423.676 177.498 425.331 167.899 424.179 158.683C421.305 135.675 399.991 143.086 384.018 142.408C366.017 141.643 343.337 135.001 326.012 141.636C323.843 142.467 318.09 145.935 316.145 145.67L316.271 145.29C338.882 130.876 357.989 136.536 383.557 138.49C395.912 139.434 412.243 134.225 421.647 143.52C433.488 155.685 426.621 184.145 427.686 201.999C428.636 228.977 414.913 235.134 390.237 234.428C380.019 233.828 369.187 233.326 359.042 232.016C343.367 229.991 324.259 232.536 312.615 220.263C306.434 227.1 300.556 232.207 290.769 233.281C268.846 235.563 202.243 245.145 197.556 213.264C187.345 226.687 171.501 224.008 156.094 224.577C104.077 226.501 90.4368 231.404 93.5573 168.985C94.1851 156.426 91.4863 133.225 108.873 131.1ZM101.462 212.013C119.498 201.434 112.804 201.749 133.441 201.965C155.693 202.198 181.339 166.31 190.682 166.916C192.079 168.852 182.396 174.174 180.562 175.391C164.415 186.116 153.232 205.281 131.646 204.106C116.195 201.36 114.513 207.504 102.711 213.264C109.066 225.823 151.222 220.438 163.17 219.955C178.369 219.254 191.763 221.703 196.85 203.776C200.583 190.963 200.52 177.151 199.541 163.967C197 129.769 184.713 136.61 158.001 136.618C146.881 136.62 135.823 136.525 124.779 135.02C118.701 134.158 113.699 133.095 107.519 133.249C93.1386 137.721 96.2047 158.311 96.3584 170.044C96.5438 184.2 94.4241 199.102 101.462 212.013Z"/><path transform="scale(2 2)" d="M309.079 333.426C324.588 308.058 376.079 313.154 400.495 316.659C410.19 318.051 423.806 319.198 426.582 330.65C428.233 337.462 428.307 367.669 427.301 375.005C422.974 406.563 375.3 396.116 353.497 394.545C338.852 393.49 313.479 394.435 301.749 384.439C291.806 395.073 281.74 392.421 268.956 393.388C248.165 394.96 217.106 398.277 198.527 386.126C194.885 389.683 191.622 393.237 186.284 393.888C171.384 395.707 156.432 392.933 141.648 391.394C132.253 390.416 122.795 391.058 113.593 388.801C86.2403 382.13 98.1497 352.793 97.9982 332.383C97.9011 319.303 111.132 320.945 120.205 321.169C137.02 321.558 190.841 310.71 198.084 330.89C203.404 345.713 205.03 369.1 199.299 384.439C227.253 393.604 240.614 391.363 269.969 389.349C281.62 388.55 297.264 389.737 301.657 375.848C303.817 369.019 303.511 350.157 302.322 342.742C301.135 335.346 297.863 330.415 290.347 328.142C274.228 323.269 232.841 323.229 216.19 330.544C214.032 331.492 211.644 332.892 209.36 333.426C207.421 335.351 206.584 336.037 204.25 337.421C205.492 336.077 207.186 334.659 208.583 333.426C227.165 319.716 264.373 320.697 285.895 323.203C296.309 324.416 304.827 330.114 306.174 340.998C307.467 351.447 308.273 367.829 305.567 377.894C315.302 371.201 325.987 343.11 342.183 344.921C354.138 346.258 364.865 377.33 380.777 364.758C383.817 362.544 414.622 331.094 416.432 340.552C415.617 341.665 411.557 342.259 410.166 343.061C396.422 350.945 383.974 374.331 367.847 368.85C358.647 365.724 348.344 345.742 339.618 347.138C324.63 349.536 317.352 373.047 305.567 379.229C304.652 380.193 303.723 381.696 303.129 382.881C319.736 390.705 341.574 389.392 359.759 390.512C374.968 391.449 413.13 398.876 421.254 381.387C424.99 373.181 424.366 338.794 422.065 330.121C420.059 322.561 405.166 321.347 399.039 320.555C376.017 317.576 347.77 314.486 325.383 321.695C319.392 323.624 313.422 329.377 309.079 333.426ZM100.248 329.071C100.268 341.041 98.6164 352.92 98.7567 364.85C103.01 355.702 113.244 347.166 122.357 342.921C140.806 334.327 149.541 373.134 165.362 368.004C173.603 365.332 182.404 348.823 192.736 345.537C182.87 352.437 169.007 376.391 157.792 369.19C144.249 364.664 137.84 337.345 121.534 345.633C114.164 349.379 105.147 357.19 101.462 364.85C116.672 355.586 131.331 371.54 144.743 376.975C154.307 380.851 173.102 385.053 179.858 390.071C198.448 390.144 198.956 376.005 198.519 360.566C197.662 330.345 194.946 322.118 163.728 322.39C149.231 322.704 134.938 324.209 120.442 323.627C112.836 323.322 104.86 321.327 100.248 329.071ZM110.185 364.85C104.926 364.889 103.022 366.439 98.7567 369.19C103.538 387.448 126.228 388.497 142.038 386.75C142.859 385.129 143.523 383.81 144.874 382.566L145.107 382.731C144.778 384.275 143.905 385.39 143.086 386.75C151.386 389.857 150.566 389.386 154.554 384.439L154.491 384.746C154.189 386.159 152.581 388.4 154.554 388.874C162.188 389.237 167.962 390.003 175.803 390.071C166.302 386.138 155.216 384.582 145.749 380.161C137.198 376.169 117.083 362.819 110.185 364.85Z"/><path transform="scale(2 2)" d="M114.876 369.19L115.129 369.622C114.213 372.753 111.293 377.922 108.873 380.309L108.608 379.972C108.621 378.298 113.668 370.509 114.876 369.19Z"/><path transform="scale(2 2)" d="M121.191 373.447L121.392 373.663C121.534 374.808 117.542 383.039 116.764 384.439C115.161 381.874 119.673 375.518 121.191 373.447Z"/><path transform="scale(2 2)" d="M131.646 376.202L131.939 376.624C131.93 376.787 127.097 384.851 126.494 386.126L126.019 385.878C125.253 383.332 129.892 377.894 131.646 376.202Z"/><path transform="scale(2 2)" d="M106.753 367.13L107.056 367.262L107.231 367.738C106.73 369.956 104.195 373.388 102.711 375.112C102.431 375.134 102.584 375.162 102.286 374.915C102.599 372.928 105.518 368.784 106.753 367.13Z"/><path transform="scale(2 2)" d="M255.931 262.613C288.188 260.442 281.362 309.545 248.824 302.36C227.691 297.693 234.56 269.313 243.345 271.823L243.454 272.314L243.045 272.952C222.653 292.01 265.407 313.478 272.446 285.066C276.324 269.411 257.913 261.359 246.119 268.143C242.779 270.064 245.404 263.773 255.931 262.613Z"/><path transform="scale(2 2)" d="M140.202 252.583C148.696 251.291 159.64 259.229 161.235 267.595C166.264 293.964 129.648 299.916 122.905 275.631C121.246 269.656 125.63 259.018 131.646 263.43C133.452 266.182 130.954 265.382 129.204 264.75C127.081 266.878 125.839 270.028 126.337 273.012C129.626 292.703 160.974 291.043 157.32 268.855C155.963 260.805 145.108 252.39 137.112 256.395C126.536 261.692 131.56 253.885 140.202 252.583Z"/><path transform="scale(2 2)" d="M388.913 259.844C406.528 256.867 420.988 289.319 395.721 298.025C377.986 304.136 361.218 288.027 370.595 270.568C371.603 268.692 375.324 262.762 377.806 264.75C376.081 266.955 374.535 268.133 372.994 270.879C365.189 284.718 377.461 300.016 392.989 295.227C408.573 290.42 409.505 272.116 395.767 264.374C389.93 261.085 385.748 263.433 379.983 264.416L379.658 264.025L379.79 263.467C381.927 261.117 385.898 260.268 388.913 259.844Z"/><path transform="scale(2 2)" d="M420.008 172.536L420.264 172.525L420.192 172.769C412.674 176.673 402.871 181.53 395.886 186.498C379.686 198.019 351.819 229.577 330.253 218.462L329.576 218.092C329.266 217.288 329.867 216.223 330.824 216.558C353.061 224.359 372.245 201.756 388.974 189.151C398.631 181.875 408.641 176.703 420.008 172.536Z"/><path transform="scale(2 2)" d="M281.589 345.537C282.528 345.388 283.218 345.149 283.826 346.009L283.584 346.592C282.773 347.332 278.58 349.379 277.323 349.869C268.524 353.297 261.114 364.084 252.169 365.713C240.6 367.82 235.524 346.648 223.48 356.493C217.117 362.106 212.132 369.45 206.99 376.202C206.474 376.768 205.5 377.267 206.166 376.147C236.317 325.412 236.968 369.335 254.295 362.815C262.409 359.762 270.016 349.783 281.589 345.537Z"/><path transform="scale(2 2)" d="M79.4095 117.384L79.852 117.596L79.8953 118.268C78.3943 121.682 68.0167 137.865 66.6506 138.905C66.0886 138.682 66.3372 138.864 66.0234 138.168C66.5551 135.235 76.9302 120.037 79.4095 117.384Z"/><path transform="scale(2 2)" d="M75.3542 137.739L76.1841 137.844L76.3666 138.195C75.8301 139.344 67.7223 150.283 66.6506 151.356L66.1446 151.346L65.9967 150.868C66.8575 148.008 72.6817 139.501 75.3542 137.739Z"/><path transform="scale(2 2)" d="M76.806 153.647L77.2933 153.827L77.3072 154.249C76.3863 155.584 68.1767 163.021 66.6506 164.231C66.1798 164.167 66.4247 164.256 65.9609 163.864L65.9385 163.322C67.5623 159.755 73.3907 155.514 76.806 153.647Z"/><path transform="scale(2 2)" d="M377.806 268.267C379.756 268.127 382.687 268.613 380.696 270.853C378.639 271.139 375.465 270.607 377.806 268.267Z"/><path transform="scale(2 2)" d="M246.088 271.984C248.091 271.963 250.268 272.886 248.311 274.753C246.122 274.873 243.761 273.971 246.088 271.984Z"/></svg>