<?xml version="1.0" encoding="utf-8" ?><svg xmlns="http://www.w3.org/2000/svg" xmlns:xlink="http://www.w3.org/1999/xlink" width="1024" height="1024" viewBox="0 0 1024 1024"><path fill="currentColor" transform="scale(2 2)" d="M266.725 53.2496C287.475 52.3048 305.246 54.9408 323.871 64.3678C354.124 79.6805 390.328 103.278 408.761 132.23C416.366 144.175 430.076 174.487 434.653 188.526C446.656 225.337 438.614 264.346 421.443 298.113C410.399 319.831 387.588 339.243 368.761 355.192C347.719 373.017 322.427 380.989 296.614 389.392C297.458 394.059 298.146 398.871 298.857 403.569C323.603 405.131 344.443 402.481 366.63 420.011C381.164 431.494 367.028 444.661 353.512 444.325C352.669 444.304 352.132 442.856 350.803 442.914C349.82 443.504 349.805 445.123 348.926 445.809C343.062 450.385 335.486 452.927 329.827 446.661C324.764 450.698 303.118 460.804 303.171 448.259C295.242 450.938 271.05 465.78 270.69 448.259C266.189 449.26 258.06 452.189 253.56 453.779C243.722 456.379 215.15 464.527 211.16 448.057C210.377 444.823 213.039 439.461 215.313 436.803C228.748 421.09 259.042 409.591 279.894 407.09C279.558 402.419 278.211 395.684 277.521 390.805C276.146 390.49 272.334 389.226 271.327 389.696L271.215 391.269C268.374 395.397 244.788 400.348 239.933 400.687C223.811 401.476 170.903 389.747 156.698 384.005C146.147 379.741 124.316 365.339 115.626 357.613C95.6388 338.001 78.0764 304.58 73.7499 276.4C69.9709 252.455 74.1184 209.234 81.3381 185.701C96.0902 137.616 127.216 91.759 179.388 81.4271C193.666 78.3558 192.684 78.2996 205.621 70.7245C211.14 67.4931 215.487 65.4284 221.376 62.9962C222.303 60.1681 223.97 57.5028 225.75 61.165C228.043 60.4422 232.937 59.423 234.22 57.4124C236.166 54.3635 235.487 50.4133 239.97 56.8716C248.888 54.9136 257.661 54.0028 266.725 53.2496ZM152.785 334.681C158.526 335.269 164.303 337.074 170.119 337.933C190.938 341.006 208.191 341.86 229.103 338.572C228.94 338.301 228.119 336.881 227.962 336.75C224.613 329.248 220.596 317.375 215.489 311.595C205.773 300.597 179.104 298.312 188.191 275.001C189.645 271.271 191.06 268.376 192.016 264.476C184.842 263.737 180.148 258.854 176.458 252.999C161.46 255.589 161.146 250.648 152.785 242.806C132.94 240.697 123.572 238.322 104.744 229.823C104.7 236.216 106.892 247.023 108.36 253.236C116.036 285.709 130.735 310.428 152.785 334.681ZM341.906 241.559C354.738 245.493 359.973 230.006 370.554 243.833C369.602 237.212 363.62 200.007 360.065 195.036C352.646 199.473 326.046 211.099 325.184 213.959C321.865 224.964 331.883 237.439 341.906 241.559ZM100.705 277.06C99.8777 272.099 99.1947 266.979 98.3072 262.056L97.9928 262.3C93.8113 265.585 83.764 282.409 81.1115 281.753C74.5624 280.131 95.8493 259.021 98.3072 257.249C98.2125 255.968 97.8827 248.983 97.2974 248.448L84.9478 260.565C82.3638 263.141 80.8446 266.184 77.4818 266.517C76.3703 271.158 81.2899 290.395 83.4796 295.345L83.4217 295.251C87.4098 289.29 101.858 281.656 100.705 277.06ZM76.7499 262.636C83.67 257.525 90.0554 247.841 97.2974 243.833C96.5881 237.833 97.2776 232.593 96.8348 227.302L96.7501 227.239C87.0057 232.028 86.3006 242.807 77.2048 247.208C76.2562 250.411 77.0489 258.085 76.563 262.381L76.7499 262.636ZM124.859 320.303C127.341 317.837 128.421 316.898 131.159 314.835C122.85 304.086 115.27 289.586 110.047 276.995C108.6 273.506 107.954 269.544 106.431 266.172C106.683 276.97 113.742 301.865 119.121 311.319C124.893 307.516 127.295 311.027 120.695 314.345C121.397 315.579 123.669 319.934 124.715 320.354L124.859 320.303ZM384.113 286.693C386.268 285.419 388.447 284.152 390.574 282.835C383.361 281.816 381.325 280.524 382.472 273.393C383.415 267.522 381.584 258.342 375.932 255.042C375.901 269.804 375.929 276.969 373.849 291.681C377.018 290.752 381.135 288.329 384.113 286.693ZM80.7939 206.194C80.434 211.602 79.0096 217.729 79.1982 223.077L79.3924 223.247C86.1337 215.655 90.2721 208.706 98.3072 201.443C98.3532 199.624 99.7126 189.32 99.4388 188.741C94.1999 193.542 86.427 202.852 80.7939 206.194ZM83.4217 199.106C87.8948 193.646 95.305 187.36 100.705 182.58C102.89 177.68 104.526 170.427 106.584 164.917L106.431 164.777C100.889 169.613 96.4913 174.976 91.6979 180.534C90.3076 182.147 87.4857 183.043 86.6071 184.887C85.2194 187.801 82.4624 196.113 83.1369 198.957L83.4217 199.106ZM76.7499 242.806C83.5447 237.079 86.807 226.622 96.7501 222.309C95.9071 218.825 97.6986 211.651 97.2974 208.197C91.3945 213.773 87.292 220.35 82.3698 226.746C81.5728 227.781 78.6844 229.144 78.5786 229.501C78.0397 231.322 76.6481 241.084 76.7499 242.806ZM165.014 144.112C168.5 131.744 176.199 135.863 182.808 142.92C192.403 139.451 202.852 141.353 203.616 153.556C206.338 153.377 209.814 153.507 212.597 153.556C209.131 152.098 202.582 150.606 206.751 145.499C206.855 138.711 205.94 135.788 199.502 132.527C196.645 131.171 196.09 131.037 192.881 131.535C192.842 146.674 169.462 130.556 178.247 124.079C182.195 121.169 188.008 125.151 190.725 127.963C203.785 126.578 214.969 134.312 210.574 148.64C213.814 149.048 215.309 151.165 217.376 153.556C221.903 153.116 228.689 152.413 233.143 151.547C229.627 148.895 223.837 145.389 221.467 142.013C218.809 138.228 221.528 131.885 216.529 128.506C212.942 126.082 209.015 124.948 205.511 122.408C203.491 120.905 203.048 118.828 201.982 118.008C197.019 120.009 192.047 122.372 186.668 122.843C173.544 123.991 177.771 116.256 168.683 128.978C165.881 132.9 162.116 134.816 157.854 136.806C146.734 142.033 158.782 144.754 164.977 144.221L165.014 144.112ZM217.376 110.385C213.229 110.975 201.814 115.188 209.799 120.233C214.494 123.2 222.341 124.668 223.561 131.877C224.3 139.174 224.657 140.424 231.098 144.545C232.55 145.473 234.192 147.878 236.239 148.64C240.904 144.811 235.028 136.519 242.331 130.083C245.486 127.303 247.814 126.126 244.431 122.011C241.619 118.591 221.57 109.741 217.376 110.385ZM248.389 388.089C244.395 386.466 242.438 386.252 238.252 385.613C235.673 389.178 229.562 392.564 225.75 395.257C238.419 397.353 249.958 396.053 261.758 390.805L265.93 389.392C261.54 388.513 257.999 388.312 253.56 388.089C243.812 399.881 235.613 393.543 248.389 388.089ZM154.355 102.143C154.857 102.096 158.51 98.8269 159.294 98.1765C164.779 93.6293 170.727 90.4001 176.707 86.7058L176.458 86.5474C169.279 88.3703 158.855 91.44 152.785 95.8046C153.686 98.058 154.009 99.7279 154.355 102.143ZM284.838 405.646C287.395 405.28 290.129 404.837 292.692 404.653L293.071 404.332C292.567 399.834 291.71 395.305 291.181 390.805L282.82 390.805C283.626 395.732 284.469 400.665 284.838 405.646ZM149.442 97.9978C128.742 107.157 109.975 133.505 99.4388 152.365C102.392 151.11 104.463 149.568 107.054 147.719C113.559 142.901 115.68 140.958 123.096 136.979C124.458 134.58 125.779 132.722 127.599 130.635C125.119 128.393 122.081 124.477 125.072 121.055C128.45 117.191 125.629 126.954 130.154 126.723C131.009 126.679 147.732 108.831 150.425 106.434C150.378 104.643 150.452 99.2242 149.442 97.9978ZM298.857 411.834C298.622 418.18 298.164 427.599 291.181 429.901C284.032 428.038 283.676 419.529 281.56 413.687C260.908 418.712 229.985 424.438 218.289 443.847C216.337 447.086 216.189 449.932 219.763 451.874C235.963 460.678 271.675 438.417 275.856 444.067C275.48 446.54 273.397 453.22 278.32 452.536C287.723 451.23 296.952 446.942 304.902 441.876C307.962 439.932 306.192 449.263 308.451 449.738C318.564 451.862 328.162 441.185 331.74 440.866C334.478 441.78 333.651 449.03 341.906 445.343C347.355 442.908 349.25 434.557 354.418 440.402C364.001 439.377 374.254 431.886 362.748 424.01C348.34 414.147 324.53 409.21 307.362 410.499C303.355 410.814 302.649 410.919 298.857 411.834ZM236.239 341.541C241.598 349.926 243.932 351.113 250.689 357.281C253.981 358.765 254.724 358.923 258.319 358.729C256.493 354.304 252.479 350.074 249.997 345.821C248.644 343.503 248.34 341.356 247.275 339.423L246.699 339.457C243.594 340.043 239.124 341.196 236.239 341.541ZM268.564 59.3915C260.406 59.952 251.323 61.0277 243.379 62.9962C244.416 64.4448 245.799 66.9589 243.961 68.3851C241.782 68.3988 239.833 65.2985 238.252 63.9426C233.329 65.5589 217.134 70.2255 215.027 74.3486C214.248 75.873 222.04 74.5909 223.002 74.5452C245.833 73.46 278.073 84.2594 295.39 99.5016C300.648 102.524 312.93 113.185 316.572 118.008C321.321 111.712 328.027 105.125 329.496 97.0135C329.832 95.1573 323.969 93.9192 331.09 91.545C331.128 89.0859 331.24 85.9211 331.09 83.5087C324.891 83.0064 322.664 80.1414 329.827 79.4162C329.537 73.6464 328.093 75.063 323.409 72.3618C308.512 63.7709 286.075 57.9763 268.564 59.3915ZM192.881 171.052C194.574 172.737 196.19 174.417 197.605 176.352C197.882 170.857 198.097 163.531 198.717 158.193C198.37 158.028 198.535 158.053 198.235 158.061C194.893 158.748 186.351 162.024 186.14 166.37C186.068 167.856 191.525 170.199 192.881 171.052ZM116.786 145.499C113.042 148.396 102.621 157.716 97.9092 155.74C96.1387 157.104 90.1482 173.148 89.2766 176.352C89.9493 176.153 100.348 165.185 101.46 164.102C103.49 162.122 109.501 159.005 110.09 156.531C110.724 153.864 116.39 146.812 116.786 145.499ZM348.576 146.437C352.346 147.185 356.121 149.705 360.065 149.447C372.552 147.325 359.387 139.161 351.869 140.655C349.911 140.685 348.063 140.618 346.188 141.222C346.883 142.631 348.158 145.034 348.576 146.437ZM300.412 374.141C298.311 376.915 296.506 379.23 294.778 382.253C298.34 381.036 301.74 379.987 305.348 378.907C308.418 377.815 310.995 376.802 313.996 375.53C308.501 374.415 305.421 374.728 300.412 374.141ZM337.79 156.583L341.906 154.977C339.539 151.751 337.395 148.914 335.316 145.499C331.05 150.247 328.072 158.822 337.79 156.583ZM233.143 385.613C230.402 384.5 226.128 383.13 223.15 382.943C218.567 386.015 214.855 389.449 210.574 392.45C214.05 392.786 217.854 393.947 221.376 394.505C222.662 390.943 229.586 388.027 233.143 385.613ZM277.521 382.253C281.089 382.214 284.627 382.23 288.195 382.253C288.768 381.817 295.265 374.964 293.357 375.53C289.819 376.214 278.533 379.129 276.621 381.622L276.642 381.941L277.521 382.253ZM362.759 188.741C363.576 187.799 364.775 186.305 365.704 185.556C366.786 184.599 368.001 183.566 369.037 182.58C365.047 180.976 362.924 179.88 358.695 179.206C360.225 182.373 361.371 185.951 362.759 188.741ZM178.944 145.499C176.94 143.469 175.213 141.467 172.394 140.655C166.552 144.145 170.981 146.595 175.756 146.461L176.458 146.437L178.944 145.499ZM292.692 411.834C290.512 412.163 288.453 412.495 286.288 412.905C286.93 416.087 288.053 421.703 289.96 424.303L290.841 425.167L291.257 425.134C291.995 423.765 296.316 411.475 292.692 411.834ZM126.824 323.077C128.232 324.271 129.447 325.199 131.159 325.964C132.509 325.865 135.047 323.076 135.94 321.97C135.054 320.636 133.738 318.674 132.462 317.7C130.355 319.457 128.745 321.127 126.824 323.077ZM140.615 340.737C141.538 339.833 142.577 338.771 143.521 337.915C144.58 336.738 145.057 336.246 146.284 335.204C142.711 334.142 135.455 331.012 132.462 330.493C133.376 333.921 137.992 338.083 140.615 340.737ZM335.316 80.5129C336.431 97.843 331.434 108.414 319.438 120.609C324.447 126.273 331.028 133.084 335.316 139.133C336.994 138.242 342.492 137.902 345.506 137.043C361.185 132.578 379.777 145.478 364.128 153.112C360.295 154.982 354.117 153.276 350.262 151.547C349.006 153.298 347.974 153.85 346.188 154.977C349.431 159.752 354.898 171.68 357.342 174.233C360.608 174.801 361.949 175.039 364.937 176.352C367.825 177.487 370.035 178.236 372.989 179.206C384.403 171.988 400.913 155.564 407.058 144.112C400.972 126.054 356.339 85.5446 335.316 80.5129ZM137.783 325.964C137.027 326.565 136.081 327.273 135.394 327.928C136.679 328.147 138.471 328.418 139.695 328.784L140.557 329.015L140.74 328.756C140.275 327.635 139.317 326.504 138.254 325.925L137.783 325.964ZM187.449 133.336L188.087 133.318C188.573 131.499 184.408 127.681 182.808 127.188C178.071 129.252 185.174 132.581 187.449 133.336ZM158.449 346.478C156.312 344.805 150.223 338.782 148.642 337.915L143.521 343.135C146.876 346.12 150.52 348.957 154.355 351.305L154.773 351.304C156.014 349.136 156.535 348.204 158.449 346.478ZM339.306 142.92C339.56 145.271 343.269 149.648 345.181 150.97C345.247 146.965 343.971 142.955 339.306 142.92ZM200.952 390.805C203.451 391.292 205.897 391.725 208.341 392.45C207.304 388.137 214.275 384.844 217.376 381.433C215.96 381.101 211.678 380.172 210.574 379.706C207.99 385.022 204.458 386.136 200.952 390.805ZM160.827 348.988C159.501 350.896 159.047 351.413 158.449 353.698C163.735 357.917 172.75 360.892 178.944 363.399L180.329 363.53L180.507 363.356C175.521 359.129 165.987 351.926 160.827 348.988ZM225.75 78.6434C221.826 78.8521 216.342 79.4569 212.597 80.5129C237.32 94.8096 256.866 118.046 270.69 142.92C277.015 139.933 285.45 137.285 291.181 134.143C300.467 129.751 305.02 126.556 313.177 120.609C295.233 99.4858 252.797 76.4795 225.75 78.6434ZM205.134 82.2895C200.226 83.2501 195.35 85.6772 190.827 87.5826C166.529 97.8174 146.941 117.613 131.159 138.379L131.533 138.366C137.695 138.104 143.523 134.825 149.442 138.379C153.696 132.374 157.416 133.221 162.395 129.116C166.797 125.487 166.572 119.045 174.032 117.736C184.075 115.973 189.953 120.902 202.914 112.985C207.599 110.123 208.304 108.187 214.446 106.434C219.747 105.376 222.233 105.691 226.976 108.349C232.132 111.238 238.275 111.573 243.272 114.854C247.588 117.697 252.999 124.668 248.99 129.788C247.639 131.514 244.781 133.023 243.61 134.912C241.859 137.735 243.315 145.158 240.883 150.97C251.202 149.456 257.366 146.715 266.725 144.112C250.033 120.066 234.001 94.2875 205.863 82.2925C205.685 82.2166 205.253 82.2812 205.134 82.2895ZM125.909 168.476C121.482 171.807 119.08 180.731 113.457 174.233C109.842 181.963 112.399 181.39 111.497 184.994C108.552 196.755 104.718 213.147 104.744 225.281C114.568 228.605 123.61 233.447 133.812 235.952C139.269 236.934 144.898 237.731 150.425 238.187C148.834 235.972 147.095 233.942 145.149 232.056C116.457 204.21 144.966 188.585 132.951 173.752C131.178 171.564 129.079 168.217 125.909 168.476ZM101.574 284.224C98.07 286.716 87.3807 297.601 83.9598 296.138C83.8784 302.957 98.0838 327.088 101.715 333.032C112.128 350.079 138.003 371.483 156.794 379.133C163.553 382.064 189.552 389.566 197.471 390.163C200.182 383.659 202.502 383.853 207.54 378.907L200.952 377.025C198.954 378.919 189.48 389.249 187.41 387.093C186.676 382.756 193.709 378.495 196.25 375.53C193.391 374.811 192.131 374.29 189.439 373.085C185.955 375.9 179.832 386.662 176.516 384.225C175.51 381.663 182.637 374.748 184.548 373.085C180.504 371.304 176.522 370.736 172.394 369.25C170.019 371.751 164.899 378.623 162.55 379.556L161.838 379.486C160.227 377.459 162.038 375.595 163.399 374.141C165.145 371.589 166.31 370.25 168.459 368.023C164.841 366.618 161.699 364.666 158.449 363.399C157.178 365.525 150.7 374.851 148.137 373.594C146.392 370.339 153.889 364.111 155.755 361.625C153.75 360.264 151.352 358.722 149.442 357.281C148.003 359.12 141.089 369.67 138.251 366.955C137.196 363.966 144.395 357.559 146.284 355.234C143.669 353.522 141.114 350.985 138.554 348.988C137.101 350.974 132.669 356.463 129.952 357.279C128.591 357.688 128.128 355.474 128.741 354.615C130.835 351.68 133.193 349.491 135.394 346.478C132.437 343.201 129.039 339.896 125.909 336.75C115.067 353.725 114.405 346.255 123.096 333.909C121.882 332.125 120.164 329.751 119.121 327.928L118.827 328.322C116.655 331.255 113.812 337.698 111.081 338.8C105.649 338.465 115.611 326.229 116.786 324.657C115.69 322.328 114.605 320.004 113.457 317.7L113.116 317.99C111.191 319.645 105.863 326.391 103.739 326.266C97.318 325.887 111.003 315.085 111.876 314.345L106.431 300.659C104.084 302.296 95.0642 311.378 92.6206 310.268C90.4573 306.604 102.138 299.351 104.744 297.478C104.651 295.253 102.864 285.721 101.817 284.266L101.574 284.224ZM397.138 184.225C394.231 186.755 398.205 194.284 398.41 199.106C392.38 212.08 373.389 197.544 364.937 192.98C365.382 201.819 370.921 219.419 372.751 229.671C373.804 235.567 374.215 244.254 375.932 249.565C382.31 255.25 382.086 255.731 386.493 262.056C386.672 265.908 387.198 273.583 386.493 277.06C398.911 282.128 406.979 267.25 408.138 256.76C409.418 245.165 401.219 248.696 409.015 230.696C415.04 218.95 413.497 209.197 408.516 197.238C406.672 192.812 402.808 184.194 397.138 184.225ZM207.54 252.999C203.115 255.219 201.133 256.255 196.25 257.249C196.274 259.782 196.521 265.114 195.947 267.176C193.062 277.544 186.346 283.007 195.959 293.126C200.042 297.424 206.596 299.578 211.784 302.765C223.332 309.861 227.714 325.838 234.039 337.915C237.641 336.655 242.937 335.533 246.699 334.681L246.729 334.24C247.349 326.141 249.964 317.695 256.017 311.985C264.601 303.89 260.476 305.121 261.912 295.362C263.222 287.469 267.946 280.683 261.744 273.266C253.56 263.481 242.06 267.295 236.948 263.602C234.669 261.955 233.639 259.312 231.807 257.249C218.214 258.542 216.794 254.14 207.54 252.999ZM347.667 197C352.088 195.06 354.797 193.436 358.695 190.544C357.841 187.897 354.993 180.808 353.643 178.274C338.529 181.585 341.142 196.831 329.083 200.347C326.587 201.075 325.872 197.316 327.884 196.122C338.575 187.224 338.983 176.839 351.869 174.233C349.397 168.931 345.832 162.966 343.627 158.061C335.996 164.649 325.49 161.256 326.82 151.74C327.392 147.649 330.212 144.743 332.088 141.222C328.018 137.341 319.135 125.338 316.572 123.451C302.938 133.946 289.295 141.327 272.784 146.437C282.591 163.856 286.396 177.89 292.201 197C294.148 203.407 297.843 214.213 298.857 220.556C310.562 216.743 321.272 209.992 331.982 204.1C337.031 201.398 342.373 199.188 347.667 197ZM308.23 323.077C290.487 328.501 270.002 334.602 251.656 337.915C253.819 344.425 258.186 349.143 261.858 354.8C270.953 368.813 242.364 365.761 232.363 343.696L231.807 342.495C207.023 346.812 181.437 345.475 157.042 339.457L160.008 342.495C161.31 343.234 162.602 344.284 163.775 345.217C182.623 360.223 194.106 368.878 218.346 373.77C236.181 377.368 251.464 379.588 269.189 382.253C276.032 373.868 288.855 372.918 298.071 369.25C305.05 359.534 308.895 334.884 308.792 323.17L308.23 323.077ZM320.758 215.552C313.87 218.631 307.113 221.812 300.412 225.281C307.658 250.437 314.464 284.898 314.037 310.506C314.005 312.466 313.968 314.497 313.996 316.462C324.339 312.903 335.041 308.577 345.181 304.388C352.386 301.692 361.953 296.816 369.037 295.251C369.486 290.34 370.191 285.2 370.872 280.298C372.25 270.379 371.328 260.518 371.754 250.65C367.272 247.465 365.648 242.738 360.065 242.806L359.694 242.888C349.654 245.169 348.275 251.137 334.776 242.786C317.987 232.4 321.384 216.23 320.758 215.552ZM295.39 227.239C275.789 235.962 256.577 238.902 235.269 240.358C220.665 241.356 204.702 241.458 190.725 246.078L190.879 246.387C197.653 260.201 198.032 247.642 208.291 248.694C212.596 249.136 216.538 251.377 220.961 252.378C225.752 253.462 230.255 252.17 234.427 253.911C240.896 256.823 232.354 258.541 249.057 261.618C260.996 263.817 270.429 271.525 269.189 284.224C268.626 287.388 266.219 294.165 266.287 296.411C266.979 319.429 251.725 312.608 251.656 333.909C262.05 330.484 273.879 328.546 284.668 325.704C292.633 323.607 302.098 320.011 309.642 318.211C309.538 310.942 309.903 303.838 309.299 296.515C308.751 289.864 299.246 230.888 295.996 227.277L295.39 227.239ZM142.175 141.222C137.708 141.703 132.761 142.843 128.45 142.92C123.911 150.042 116.459 162.902 114.403 171.052C115.199 171.395 115.965 171.74 116.786 172.022C119.281 169.216 122.575 164.719 126.592 164.515C134.056 164.086 141.248 176.263 141.173 182.758C140.917 189.838 136.977 195.521 136.283 202.699C135.02 215.746 145.381 225.271 152.93 234.078C157.846 239.814 160.036 249.326 169.834 248.695C172.492 248.655 177.872 247.296 179.647 247.571C181.896 249.968 186.351 261.912 191.298 258.912C192.772 256.074 186.043 252.13 184.548 248.448C184.748 245.965 184.997 245.193 185.698 242.806C154.047 249.143 164.787 221.707 172.394 218.661C174.991 218.383 179.194 219.731 180.92 218.864C187.463 215.578 188.116 206.375 195.544 217.66C197.159 211.324 199.892 204.797 205.252 200.756C215.087 193.341 208.454 189.313 216.275 183.685C221.626 179.835 233.126 185.817 224.822 169.541C218.374 169.176 207.992 166.69 210.574 158.061C207.852 157.843 206.34 157.767 203.616 158.061C203.108 161.339 203.182 186.091 197.08 184.367C193.722 183.127 194.25 178.441 191.94 176.007C189.286 173.123 184.492 172.59 182.315 169.214C177.07 161.076 193.847 154.364 199.502 153.556C194.154 135.497 181.838 154.56 169.205 149.854C163.82 147.745 157.197 149.492 152.097 146.444C148.652 144.386 146.767 140.099 142.175 141.222ZM268.564 148.64L268.093 148.735C264.909 149.394 262.08 150.592 258.994 151.48C245.903 155.247 232.471 157.008 218.925 158.061C217.061 162.617 215.414 159.939 214.447 161.097C219.01 168.577 228.285 159.604 231.351 174.853C233.951 187.778 226.553 183.547 218.903 187.221C214.058 189.609 218.226 196.573 209.505 203.029C198.249 210.588 200.431 227.355 195.673 230.022C191.101 232.586 194.423 222.323 189.439 216.826C183.038 224.594 181.738 223.32 172.394 223.247C169.959 227.543 167.965 233.891 171.335 238.187C179.01 244.209 186.409 230.227 190.725 240.921C227.167 233.535 260.071 238.754 295.39 222.309C290.865 210.253 276.379 154.453 268.879 148.592L268.564 148.64ZM409.66 148.64C402.286 162.758 380.621 179.172 367.771 189.406C371.254 191.581 389.964 204.093 393.315 198.294C395.181 195.064 386.958 183.542 394.898 180.29C404.249 176.461 411.107 191.6 413.61 197.469C425.827 226.114 405.62 231.392 411.553 248.959C414.541 257.808 410.823 266.668 405.88 274.249C412.439 268.932 419.725 263.913 423.737 256.257C427.86 248.391 430.91 255.768 420.947 266.199C407.591 280.183 389.778 288.483 372.989 297.478L372.794 297.947C370.144 304.376 369.087 311.801 366.395 318.419C360.758 332.277 342.828 361.035 328.068 367.185C324.888 364.24 326.976 363.448 330.602 360.641C336.518 356.061 341.276 350.592 346.188 344.992C353.28 335.818 359.373 324.419 363.457 313.536C365.08 309.212 365.849 304.997 367.771 300.659C363.017 301.68 313.341 321.748 313.177 321.97L313.133 322.277C310.591 340.917 312.432 349.855 303.171 369.25C308.447 369.208 312.345 370.233 317.381 371.684C323.086 369.856 326.758 368.308 332.865 367.516C345.916 365.823 366.246 348.799 375.237 340.298C390.953 326.986 405.854 313.124 415.328 294.522C431.107 263.536 439.366 225.164 428.267 191.33C426.763 186.746 411.525 150.428 409.66 148.64Z"/><path fill="currentColor" transform="scale(2 2)" d="M328.068 167.566C338.576 166.462 339.305 178.021 329.827 182.58C317.716 183.022 318.992 169.196 328.068 167.566ZM328.95 178.274C332.727 175.709 333.619 171.361 328.068 172.022C324.435 174.31 323.951 178.11 328.95 178.274Z"/></svg>
