<?xml version="1.0" encoding="utf-8" ?><svg xmlns="http://www.w3.org/2000/svg" xmlns:xlink="http://www.w3.org/1999/xlink" width="1024" height="1024" viewBox="0 0 1024 1024"><path fill="#010101" transform="scale(2 2)" d="M177.45 112.246C206.522 110.011 231.421 123.871 245.458 149.247C256.446 135.164 270.783 125.993 287.428 119.705C313.675 109.791 349.946 120.994 359.424 149.328C369.492 179.423 355.931 204.199 343.746 230.01L343.614 230.295C348.099 237.205 347.286 243.22 345.217 250.931C355.306 237.926 370.994 216.02 390.173 216.074C398.676 216.098 399.383 229.434 398.624 235.413C407.231 225.928 419.782 218.979 425.378 236.089C430.967 253.175 420.954 271.971 413.712 287.05C422.831 283.941 433.777 281.422 438.379 292.283C448.009 315.014 399.123 354.563 384.665 366.504C320.384 416.42 302.99 418.343 225.299 409.683C187.843 405.508 162.968 403.824 135.242 434.112C133.761 435.748 129.56 442.905 128.404 443.373C127.434 443.315 125.942 442.638 126.38 441.381C132.866 422.724 159.6 406.328 177.743 402.993C216.905 395.796 261.865 413.075 300.272 404.693C335.162 397.078 377.103 364.402 403.47 340.915C408.884 335.651 450.184 297.446 429.607 289.804C419.145 285.919 394.212 302.57 383.561 308.981C367.661 318.552 348.98 329.248 332.407 336.829C331.74 338.512 331.59 340.628 330.756 342.539C325.63 354.293 312.064 362.388 300.949 367.381C265.416 383.536 243.564 376.068 211.194 361.715C209.723 361.063 208.954 359.779 209.874 358.395C213.147 356.56 231.644 364.287 235.941 365.659C245.301 368.649 254.894 370.377 264.748 369.538C281.789 368.089 308.686 358.576 319.747 345.348C339.863 321.292 296.807 327.088 285.934 328.386C261.736 331.273 242.67 330.758 219.282 323.429C198.879 317.036 179.835 309.393 159.179 320.15C148.847 325.53 138.378 338.785 129.087 346.901C119.314 355.438 107.939 362.036 98.0457 370.448C97.7877 370.668 80.11 389.887 82.1975 378.747C83.3089 372.815 106.98 356.641 112.557 352.365C120.714 346.112 128.236 338.947 135.124 331.326C155.242 309.069 173.257 301.34 204.514 310.252C219.149 314.426 228.612 318.492 244.065 321.083C243.021 317.658 242.681 316.559 242.443 313.015C225.591 319.625 215.344 307.134 204.361 296.024L189.753 281.358C162.302 253.859 135.808 231.248 130.304 190.33C125.657 155.783 138.888 117.885 177.45 112.246ZM187.399 142.091C185.681 143.458 182.117 148.393 180.145 148.318C178.568 146.441 182.943 142.201 184.197 140.75C167.071 140.312 150.802 143.013 139.396 157.483C137.924 159.35 136.984 168.332 136.547 171.234C142.038 162.845 156.843 147.228 166.855 142.935C167.867 142.5 168.171 143.546 168.364 144.241C168.107 145.271 165.892 146.633 164.971 147.288C155.823 153.794 148.097 161.693 140.399 169.776C136.409 173.967 136.42 169.841 136.512 177.778L136.547 184.875C141.692 178.591 164.855 153.898 172.242 153.691C175.383 153.603 168.176 159.256 167.577 159.697C155.407 168.667 147.173 178.401 136.547 188.067C138.6 194.022 138.283 198.289 141.263 204.749C143.304 198.542 163.84 172.999 169.424 172.322L170.032 172.682C170.357 175.252 164.385 179.664 162.704 181.375C154.358 189.869 148.731 198.969 141.263 207.086C145.872 216.168 147.311 223.287 153.918 232.679C156.05 227.859 165.278 209.228 169.668 210.475C170.494 212.551 163.663 220.082 162.347 222.307C159.804 226.609 157.895 230.97 155.684 235.413C156.941 237.084 158.17 238.705 159.354 240.432C159.889 239.129 167.616 219.605 169.658 226.086C169.625 226.266 161.545 241.808 161.142 242.436C163.843 245.718 167.705 249.423 170.037 252.387C172.21 247.207 173.743 241.95 178.527 238.672C182.064 239.795 173.697 250.47 172.05 254.134C174.873 258.11 178.55 260.452 181.763 263.671C182.756 260.211 186.711 244.966 191.512 245.83C191.863 246.442 185.065 263.127 184.197 265.665C185.643 267.49 188.085 269.55 189.86 271.154L189.922 270.811C190.174 269.38 189.648 260.371 192.724 262.218C194.193 264.76 192.927 270.707 193.213 274.041C195.271 276.738 196.798 277.672 199.506 279.734C199.567 276.973 199.292 272.37 200.917 270.251L201.282 270.065C203.681 271.803 201.867 279.555 201.214 282.1C203.054 283.942 204.525 285.324 206.476 287.05C206.584 284.672 206.586 280.358 207.938 278.504L208.375 278.525C209.872 280.406 209.623 287.225 209.408 289.666C210.827 292.1 212.433 293.394 214.519 295.291C214.692 293.019 215.708 282.38 218.857 282.385C220.57 283.614 217.848 296.039 217.247 298.481C219.326 300.352 220.845 301.5 223.177 303.058C224.188 288.764 226.884 290.073 225.555 304.649L228.024 306.038C230.98 295.341 233.477 296.756 230.12 306.878C244.371 306.713 259.211 291.151 270.021 282.931C275.977 278.403 282.733 274.523 288.805 270.215C322.248 246.488 355.236 216.87 355.483 172.201C356.123 142.026 336.731 124.943 307.298 124.504C289.503 124.239 268.085 137.157 255.766 148.802C251.133 153.182 248.866 160.806 244.065 162.419C237.72 160.418 239.362 155.419 236.098 149.496C224.866 129.116 201.073 119.163 178.527 120.241C162.94 121.995 143.979 134.134 141.317 150.432C142.622 149.253 143.04 147.184 145.182 145.885C155.307 139.745 167.042 136.394 178.955 137.168C187.901 137.749 201.321 143.826 187.399 142.091ZM305.176 268.811C285.239 282.541 266.345 297.011 246.681 310.92C247.546 313.26 248.664 319.563 249.146 322.257C253.072 321.733 255.641 322.311 259.437 322.257C269.288 322.292 278.991 321.346 288.794 320.402C299.687 319.353 318.743 315.799 327.277 324.574C328.692 326.028 329.901 327.635 331.209 329.173C344.935 321.227 359.077 314.335 372.997 306.766C382.882 301.341 396.895 292.408 407.493 288.855C414.289 275.197 425.784 254.66 421.29 238.4C416.373 223.59 407.253 232.829 400.37 240.514C389.494 252.659 380.223 265.86 368.826 277.644C364.993 281.607 340.378 307.596 335.441 307.316C334.003 306.642 334.048 304.75 334.916 303.891C355.59 283.431 376.783 264.683 393.747 240.432C392.34 235.315 398.307 219.865 387.443 220.822C364.641 225.58 350.925 253.075 338.098 269.67C330.897 278.988 321.127 287.945 311.356 294.403C300.511 301.57 300.127 295.52 301.972 294.452C319.855 284.099 333.162 273.325 339.947 252.415C342.288 245.257 343.492 241.145 342.01 233.711C332.7 247.236 324.68 252.506 313.853 263.052C312.04 264.818 309.363 270.717 307.585 273.339C303.231 279.79 285.739 301.706 277.943 303.457C275.814 303.935 273.993 301.638 275.997 299.889C289.493 288.116 294.406 285.898 305.176 268.811Z"/><path fill="#010101" transform="scale(2 2)" d="M313.565 140.75C337.235 140.226 343.866 158.714 336.936 178.614C332.69 190.808 318.655 206.074 331.209 183.194C343.724 157.861 330.089 139.331 302.888 146.57C301.411 146.963 297.081 148.89 296.143 147.872C295.917 144.429 310.603 141.355 313.565 140.75Z"/><path fill="#010101" transform="scale(2 2)" d="M162.609 195.623C167.045 196.32 156.473 206.644 154.945 210.596C154.442 211.895 150.743 218.656 149.989 219.573C144.721 218.521 160.19 197.687 162.609 195.623Z"/><path fill="#010101" transform="scale(2 2)" d="M81.4699 362.744C82.9507 362.627 84.2716 363.029 84.6925 364.582C83.4785 368.101 79.0051 365.346 77.3795 376.435C73.7724 401.042 101.922 450.805 127.259 454.5C136.299 455.841 137.663 446.029 141.443 446.727C142.815 448.025 142.124 449.052 141.263 450.413C132.706 464.552 119.152 457.444 108.799 449.416C95.7375 439.288 86.1432 425.731 79.653 410.599C74.7089 399.071 65.3969 369.584 81.4699 362.744Z"/><path fill="#010101" transform="scale(2 2)" d="M332.407 51.229C334.15 51.2692 335.448 51.3128 335.854 53.2914C334.425 58.2196 310.569 67.9183 309.491 86.234C309.329 88.9868 312.065 91.3261 309.47 93.8896C304.491 94.5692 304.737 86.0681 305.367 82.8503C308.072 69.0432 321.826 59.0345 332.407 51.229Z"/><path fill="#010101" transform="scale(2 2)" d="M359.001 87.6068C364.172 87.426 366 91.9849 356.661 92.9572C345.495 94.1196 341.341 98.2248 332.407 101.153C331.247 101.486 330.042 101.93 329.36 100.693C329.396 93.7515 353.429 88.1134 359.001 87.6068Z"/><path fill="#010101" transform="scale(2 2)" d="M281.949 51.229C289.196 51.2478 277.156 62.4587 281.77 74.8837C282.966 78.1047 286.566 80.3108 283.391 83.2372C276.041 84.9216 272.946 59.248 281.949 51.229Z"/></svg>