<?xml version="1.0" encoding="utf-8" ?><svg xmlns="http://www.w3.org/2000/svg" xmlns:xlink="http://www.w3.org/1999/xlink" width="1024" height="1024" viewBox="0 0 1024 1024"><path transform="scale(2 2)" d="M137.736 228.096C131.637 234.383 123.429 242.935 114.355 243.847C104.333 244.854 93.453 240.269 92.8037 228.942C92.3166 220.445 96.7208 216.534 101.946 210.847L161.669 144.258C183.103 120.383 205.397 96.9547 229.275 75.4964C238.453 67.3273 262.925 42.4252 275.867 54.3647C281.704 59.7496 284.474 67.8557 290.547 73.4318C304.115 85.8899 318.502 97.3826 332.189 109.698C326.569 87.4936 338.729 90.3502 353.693 90.8959C361.254 91.1715 369.692 95.9932 370.156 104.233C370.833 116.253 370.617 128.326 371.864 140.342C372.554 146.983 377.636 152.154 372.055 155.188L390.814 186.297C397.291 196.861 413.077 216.632 404.701 228.971C401.014 234.402 392.591 236.465 386.896 233.023C385.803 232.345 384.484 229.057 383.159 228.014C375.522 221.998 367.71 213.964 360.097 208.473L359.782 208.249C359.657 217.318 360.731 226.18 360.741 235.145C360.765 256.83 360.643 278.287 362.912 299.899C364.376 313.834 366.493 327.934 357.659 339.983C348.44 352.558 336.865 352.347 322.772 353.845C316.783 354.502 308.279 356.378 301.561 357.303C302.723 357.559 303.224 357.309 304.323 357.303C310.04 358.287 340.4 356.312 345.608 355.465C347.941 355.085 355.628 352.52 357.35 353.618C358.612 354.423 359.209 356.732 358.123 357.902C352.463 363.996 251.643 365.613 228.71 363.8C233.022 374.291 227.54 373.835 222.937 364.469C209.266 361.461 183.377 368.724 167.921 368.575C166.361 368.56 158.581 368.574 160.046 365.005C161.494 361.479 170.165 363.849 175.694 361.852C174.457 361.258 172.052 360.467 170.734 360.088C144.478 352.517 143.654 314.502 142.191 292.216L138.743 244.508C138.383 239.358 137.808 233.196 137.736 228.096ZM146.24 219.446C146.303 228.202 148.127 240.694 148.726 249.949L151.192 285.154C152.103 299.841 152.594 346.79 172.202 350.795C182.657 352.93 207.387 353.523 219.174 352.478C214.822 336.15 211.848 282.685 221.221 266.842C226.887 257.265 237.555 250.362 248.408 248.328C265.459 244.851 287.43 252.252 291.437 271.736C293.426 281.409 289.952 292.752 290.213 302.617C289.884 313.917 291.742 323.956 292.654 335.109C293.085 340.376 291.894 346.035 292.622 351.25C298.458 350.873 304.245 350.825 310.05 350.28C314.067 349.903 318.464 348.532 322.3 348.18C350.013 345.634 359.585 339.936 358.083 310.288C357.041 297.558 355.881 284.641 355.602 271.753L354.31 217.73C354.168 213.272 354.573 207.93 354.257 203.649C336.761 186.024 317.063 165.878 298.635 149.916C290.894 143.211 282.632 136.937 274.609 130.556C268.809 125.943 261.927 115.789 254.201 116.265C229.109 125.095 173.267 189.91 154.359 210.445C151.646 213.391 148.725 216.325 146.24 219.446ZM240.375 112.789C261.168 99.1395 265.092 111.369 280.46 123.604C289.196 130.559 297.502 136.415 305.91 143.896C322.856 158.973 338.23 175.481 354.69 191.052C363.059 198.969 380.414 212.703 386.058 221.205C387.809 223.843 389.284 226.564 391.136 229.173C414.635 231.523 392.297 198.411 387.76 190.992C382.568 182.262 377.071 173.68 371.328 165.308C370.195 163.657 367.235 165.065 366.077 163.285C344.418 130.009 328.278 119.62 299.408 94.1521C291.582 87.2488 282.809 81.4629 277.042 72.476C274.403 68.3643 271.393 60.8232 265.778 61.2853C244.942 67.4543 193.984 123.631 177.33 141.611L113.949 211.155C109.194 216.372 95.5172 227.108 107.068 233.783C113.746 237.172 119.948 231.763 124.396 227.623C145.456 208.022 164.195 183.455 184.531 162.866C201.916 145.264 220.001 126.909 240.375 112.789ZM225.356 352.478L253.315 352.002C262.567 351.188 276.934 351.098 286.227 351.25C286.065 332.308 282.179 310.787 284.66 293.124C287.727 271.281 283.882 252.091 255.622 253.501C244.009 253.777 228.373 260.826 225.066 273.028C219.679 292.908 219.786 331.815 225.356 352.478ZM340.683 97.5067C337.79 98.6493 338.095 102.115 338.159 104.772C338.943 103.867 339.881 102.727 340.683 101.868C342.562 100.117 343.492 99.3418 345.812 98.205C344.572 98.037 341.797 97.5539 340.683 97.5067ZM340.683 116.265L340.977 115.887C343.133 113.089 350.605 98.8267 354.994 101.952C356.593 105.185 345.847 110.581 345.812 121.757C347.73 124.102 349.44 125.945 351.513 128.147L361.147 139.996C363.022 142.262 365.186 144.636 366.912 146.974C364.814 132.934 366.252 118.744 364.794 104.684C364.047 97.4871 355.296 97.7937 349.75 98.205C349.495 98.8722 341.345 108.63 339.512 110.651C339.859 112.154 340.319 115.047 340.683 116.265Z"/><path fill="#6D6C71" transform="scale(2 2)" d="M271.421 358.187C277.182 357.647 282.48 357.481 288.255 357.303L286.89 357.604L286.901 357.809C288.841 358.146 290.691 358.031 292.622 358.187C287.811 358.677 274.778 357.272 271.421 358.187Z"/><path fill="#EEEFF2" transform="scale(2 2)" d="M288.255 357.303C292.277 357.604 297.19 357.154 301.561 357.303C302.723 357.559 303.224 357.309 304.323 357.303C301.114 357.84 296.048 357.968 292.622 358.187C290.691 358.031 288.841 358.146 286.901 357.809L286.89 357.604L288.255 357.303Z"/><path transform="scale(2 2)" d="M250.488 161.1C276.491 157.382 294.303 201.022 249.443 213.137C207.363 222.042 222.757 164.359 250.488 161.1ZM231.778 186.7C233.96 183.547 240.942 174.039 245.332 175.593C245.605 176.251 233.862 190.599 232.364 192.087C231.557 191.706 230.3 191.161 229.594 190.686C228.8 198.158 230.637 208.819 239.926 208.439C241.15 208.389 244.156 208.689 245.128 207.843L245.487 206.781C246.57 202.95 254.38 192.52 258.381 192.85C262.335 194.828 252.377 201.079 250.488 206.781C284.343 197.626 269.816 164.215 252.359 166.59C243.047 167.747 235.442 177.035 232.323 185.29L231.778 186.7Z"/><path transform="scale(2 2)" d="M248.408 183.707C255.88 182.707 241.945 195.127 241.078 196.588C240.112 198.214 236.857 203.868 235.765 204.833C226.014 204.515 245.755 185.406 248.408 183.707Z"/><path transform="scale(2 2)" d="M182.974 256.75C186.485 256.381 207.656 256.274 207.817 261.4C207.94 265.279 203.452 264.353 201.126 264.284C202.916 273.408 203.532 288.545 203.206 297.933C214.033 304.26 184.349 307.681 180.385 308.713C177.625 309.024 160.963 314.529 160.292 310.469C159.759 307.245 163.967 306.631 166.017 306.165C157.729 282.739 150.879 261.059 182.974 256.75ZM166.017 285.419C167.037 288.614 167.621 290.852 168.397 294.128C170.112 289.75 182.382 270.029 187.153 270.657C189.75 272.395 186.003 275.829 184.634 277.392C179.566 283.18 173.45 295.557 169.568 299.133C169.971 300.81 170.194 305.154 172.564 304.618C173.061 304.522 176.107 304.188 175.576 303.496L175.335 303.166C172.544 299.434 187.782 278.288 190.719 283.964C190.816 284.18 179.389 302.211 178.619 303.064C184.498 301.667 192.899 299.616 198.864 299.133C196.904 288.788 196.056 273.735 195.589 262.76C192.519 262.819 187.854 262.551 185.119 262.76C180.253 263.503 168.108 280.808 166.017 285.419ZM166.017 277.376C166.677 276.467 176.261 264.27 176.262 264.255L175.694 264.284C172.081 265.363 168.34 266.47 166.429 270.119C166.025 270.89 164.331 278.055 166.017 277.376Z"/><path transform="scale(2 2)" d="M337.687 252.323C353.445 249.615 349.22 274.788 349.777 283.748C350.798 300.143 341.58 295.625 330.532 296.333C325.609 296.648 316.047 298.687 311.073 299.92C307.068 299.144 306.171 297.036 309.264 294.128C305.498 281.599 307.845 275.775 306.77 264.284C302.939 265.134 301.198 263.118 304.272 260.395C307.338 257.678 308.338 260.104 310.288 262.135C317.048 255.315 328.148 253.909 337.687 252.323ZM313.248 267.286C313.234 268.548 313.198 269.834 313.248 271.093C314.412 268.801 316.297 264.488 319.479 265.924C321.465 268.384 314.667 274.59 313.47 276.397C312.576 277.745 313.715 285.937 313.942 287.667C314.307 289.301 314.617 290.708 314.863 292.362C319.595 291.723 324.589 290.452 329.129 290.158C334.502 289.811 338.567 290.812 344.082 290.113L344.06 289.862C343.639 284.492 346.889 255.852 337.687 258.092C331.048 259.101 316.689 261.448 313.248 267.286Z"/><path transform="scale(2 2)" d="M325.537 267.286C330.17 267.859 319.267 283.078 318.665 283.658C312.786 284.389 319.919 270.21 325.537 267.286Z"/><path transform="scale(2 2)" d="M331.333 273.887C336.932 273.761 330.334 280.247 329.563 281.672C328.488 283.661 326.822 288.742 325.537 290.113L325.298 290.125C318.019 290.467 329.425 275.498 331.333 273.887Z"/><path transform="scale(2 2)" d="M231.778 306.165C236.471 305.44 232.746 312.093 232.162 314.176C231.163 317.735 231.378 323.612 227.668 325.306C221.611 323.262 228.74 308.357 231.778 306.165Z"/><path transform="scale(2 2)" d="M236.561 313.675C242.391 313.954 236.618 325.065 234.24 327.002C227.687 326.212 234.225 316.441 236.561 313.675Z"/><path transform="scale(2 2)" d="M354.257 112.789C361.218 111.111 354.045 120.54 351.513 121.757C343.914 121.946 350.374 114.309 354.257 112.789Z"/><path transform="scale(2 2)" d="M382.25 344.001C391.928 343.423 403.886 343.845 411.603 350.443C418.938 356.715 421.293 367.416 414.607 375.071C404.54 386.598 356.197 394.152 337.609 403.156C315.896 413.674 300.307 430.106 273.496 431.773C258.792 432.687 249.638 427.106 236.588 422.149C218.586 415.31 200.719 411.88 181.485 410.838C162.972 409.836 119.805 412.081 106.536 399.981C87.7945 382.892 142.718 348.611 140.377 360.601C138.283 361.915 134.735 363.298 132.389 364.528C125.05 368.374 107.991 383.158 108.6 392.472C109.259 402.547 141.208 402.628 147.703 402.744L174.785 403.151C199.812 403.749 222.236 407.602 245.411 416.819C254.77 420.542 263.593 424.526 273.972 422.973C303.001 418.964 314.484 403.027 337.512 393.818C356 385.767 379.843 382.64 399.144 375.806C404.009 374.084 411.93 369.249 410.61 363.138C406.16 342.534 363.574 354.507 358.317 350.332C348.089 342.21 381.046 343.984 382.25 344.001Z"/><path transform="scale(2 2)" d="M380.051 411.598C388.309 410.78 395.799 417.216 390.219 420.3C388.188 421.424 384.644 417.173 382.406 417.198C371.868 417.41 345.974 428.314 336.662 432.713C306.791 446.824 271.04 466.54 236.561 456.682C226.14 453.743 217.631 444.841 230.63 449.315C266.051 461.376 300.671 443.615 331.843 428.415C343.083 422.934 367.926 412.689 380.051 411.598Z"/><path transform="scale(2 2)" d="M118.129 427.153C124.592 430.703 122.72 432.153 132.334 432.658C155.415 433.869 178.064 427.062 201.106 428.664C208.533 429.18 219.488 430.915 219.106 440.731C219.053 441.66 218.351 442.212 217.646 442.742C214.121 443.359 214.062 440.007 212.048 437.947C199.927 425.547 133.234 448.617 118.769 433.361C116.857 431.345 115.904 429.215 118.129 427.153Z"/></svg>