<?xml version="1.0" encoding="utf-8" ?><svg xmlns="http://www.w3.org/2000/svg" xmlns:xlink="http://www.w3.org/1999/xlink" width="1024" height="1024" viewBox="0 0 1024 1024"><path fill="#010101" transform="scale(2 2)" d="M367.439 68.2495L384.031 68.2366C414.853 68.228 424.687 75.1351 425.429 107C426.248 142.212 424.416 177.552 422.95 212.731L421.351 258.148C419.868 292.513 417.438 326.928 414.676 361.21C413.438 376.578 413.111 411.001 402.092 421.847C395.077 428.752 389.349 428.741 380.163 429.887L358.985 432.508C316.968 438.042 271.261 443.809 228.791 444.114C208.791 443.686 189.981 440.466 185.298 418.344C178.867 387.964 182.361 331.392 184.452 300.078C184.672 296.782 185.127 293.471 185.167 290.171C179.834 290.55 172.813 291.554 167.311 292.147C162.7 293.441 136.67 293.551 136.081 294.003C134.623 297.884 136.297 318.356 137.752 322.059C137.667 312.744 138.294 299.125 147.194 293.737C144.849 299.283 143.523 304.61 142.567 310.616C141.293 318.626 144.287 324.944 136.253 328.077C121.879 322.347 60.4651 273.497 59.1942 264.776C58.6868 261.295 120.842 202.094 126.935 196.776C133.221 191.29 135.735 187.739 144.229 188.287C150.426 193.095 151.216 212.644 152.873 220.748L172.94 220.756C176.804 220.775 180.615 221.077 184.453 220.748C184.765 216.753 184.506 213.103 184.481 209.114C184.31 181.806 183.17 150.258 186.056 123.09C189.945 86.6778 194.369 80.1224 229.22 76.9333L250.718 75.0952C284.088 72.4355 317.476 70.4401 350.907 68.8069C356.389 68.5391 361.931 68.6721 367.439 68.2495ZM190.265 144.253C200.396 135.752 205 124.766 218.695 117.893C213.244 122.357 211.517 123.645 206.598 128.945C201.503 134.436 195.933 143.893 190.265 147.666C191.077 152.307 190.462 168.103 190.265 173.383C195.499 164.86 201.482 153.145 209.658 147.666C208.796 149.349 207.788 150.877 206.611 152.353C202.044 158.081 194.216 174.271 190.265 176.922C190.189 179.872 190.233 182.777 190.265 185.726C193.969 179.81 199.959 169.285 205.364 165.285C202.347 169.995 194.009 186.766 190.265 189.06C190.181 195.409 190.27 201.893 190.265 208.256C194.069 198.035 200.117 184.49 209.658 178.45C201.854 188.564 195.866 198.541 192.211 210.913C191.916 211.91 190.138 212.262 190.063 213.373C189.537 216.052 189.846 218.828 189.768 221.537C200.737 223.69 198.578 229.392 192.876 226.508C199.442 235.389 215.636 251.373 218.695 259.533C214.566 266.286 200.086 287.99 193.549 291.418L193.201 291.266C193.451 287.177 193.365 287.667 187.75 290.171C187.145 302.786 188.622 316.013 187.75 329.021C191.166 321.053 196.525 312.58 204.137 308.057L203.917 308.383C194.543 322.169 186.477 326.289 187.75 346.194C191.204 339.479 196.832 330.63 203.178 326.422C194.297 339.366 186.8 345.478 187.75 361.563C187.502 365.277 187.985 368.746 187.75 371.982C191.576 362.754 196.028 351.032 205.364 346.194C197.915 354.734 191.558 366.277 188.071 377.028C187.649 378.327 188.32 392.027 188.333 394.517C191.937 387.258 204.286 362.914 210.241 358.008C208.386 361.4 189.293 397.694 189.249 398.29C188.448 409.179 191.477 423.679 199.85 431.451L199.827 431.087C199.556 427.078 198.495 423.17 198.582 419.11C198.842 406.878 204.312 384.444 212.872 375.621C207.329 389.496 193.851 421.455 204.137 433.181C219.753 445.539 330.777 429.228 363.207 425.331L379.976 423.423C387.647 422.552 393.534 422.483 398.654 415.884C405.884 406.567 406.337 384.946 407.302 373.472L410.094 338.683C413.32 293.489 415.736 248.769 416.897 203.404C417.793 168.346 421.04 132.272 418.436 97.1708C416.692 73.654 397.564 73.5869 378.655 74.4079C343.797 74.752 306.127 77.572 271.152 79.9021L236.834 82.3763C214.372 84.1812 195.914 83.3541 193.318 110.811C192.437 120.124 192.376 136.077 190.265 144.253ZM130.222 304.437C130.242 298.06 129.908 290.086 137.877 288.799C155.703 285.922 179.386 287.259 195.298 283.762C201.749 273.291 208.286 268.178 215.234 259.533C202.015 250.108 196.238 236.457 185.757 226.508C175.741 226.02 146.132 229.792 139.966 225.963C136.202 219.768 135.787 207.841 136.467 200.715C136.629 199.006 137.793 195.129 137.752 193.927C131.974 198.153 126.681 203.743 121.499 208.703C102.935 226.47 85.4187 245.271 65.9856 262.127C64.9502 263.025 63.7269 264.15 62.8094 265.169C70.0796 276.014 105.528 300.296 116.914 308.777C121.123 311.912 126.231 314.521 130.222 317.865C130.389 313.32 130.057 308.896 130.222 304.437ZM142.049 193.927C140.355 198.401 138.107 221.99 145.827 222.451L146.831 222.123C147.201 221.2 142.452 194.38 142.049 193.927Z"/><path fill="#010101" transform="scale(2 2)" d="M336.234 101.25L370.348 101.235C394.4 101.231 397.907 100.543 397.897 128.059L397.632 156.63C397.51 205.509 395.431 253.54 392.845 302.316L389.687 359.679C389.106 369.756 390.74 398.001 377.013 400.858C352.815 405.895 328.895 405.13 305.201 408.261C291.956 408.307 259.638 412.107 249.823 403.917C243.104 398.31 244.401 378.554 244.197 370.383C242.835 315.903 245.734 261.559 247.571 207.124L249.473 141.845C250.721 106.751 246.605 107.958 287.697 104.066C303.878 102.518 320.022 101.982 336.234 101.25ZM254.75 167.652C258.537 161.809 264.829 150.032 269.616 145.836C265.741 154.235 257.401 165.482 254.717 173.125C254.175 174.668 252.928 198.716 253.008 201.451C257.53 193.039 268.371 171.076 274.53 165.285C272.993 167.83 252.264 207.084 252.136 209.027C251.624 216.861 251.148 227.551 251.263 235.285C253.958 226.412 267.421 200.687 272.315 193.927C266.802 210.568 257.952 223.487 251.263 238.836C249.972 246.746 250.226 254.995 249.916 263.006C248.98 287.222 245.581 395.683 253.977 399.189C257.95 399.037 332.927 358.723 338.805 355.345C345.009 351.779 354.706 345.382 355.845 338.047C359.04 317.468 358.123 294.743 359.192 274.014C359.075 269.224 359.352 264.193 359.192 259.533C348.918 260.048 333.647 261.813 333.228 246.962C332.844 233.369 355.918 235.236 364.926 235.285C366.502 232.844 366.928 232.057 369.885 231.268C376.028 234.049 381.724 244.821 383.225 251.163C382.016 255.376 373.351 268.707 370.915 269.723C368.504 270.728 365.276 265.329 363.721 264.035L363.665 264.498C362.179 277.294 364.012 297.87 363.653 311.63C363.28 325.918 365.676 344.171 352.7 353.857C334.068 367.763 298.303 385.245 276.676 395.632C274.471 396.691 260.928 401.74 260.501 402.743C266.319 406.342 354.265 398.207 365.033 396.91C377.385 395.421 382.008 394.278 383.201 381.246C383.968 372.149 384.349 362.898 384.758 353.777L386.783 308.797C389.405 254.844 391.658 201.458 391.702 147.389L391.708 128.687C391.706 122.319 393.393 107.805 384.091 107.589C366.781 107.188 349.373 107.763 332.064 107.492C315.589 108.393 299.306 108.302 282.741 110.204C260.267 112.784 254.474 110.309 254.715 133.09L255.066 152.002C255.167 157.318 254.675 162.504 254.75 167.652ZM369.885 235.936C366.483 242.709 366.579 240.555 359.348 240.58C353.443 240.601 342.762 239.194 338.748 244.56C336.73 247.428 339.017 251.811 342.212 253.035C348.247 255.348 356.596 253.968 362.936 253.303C369.787 253.064 368.483 262.918 362.926 259.129C362.904 260.249 368.652 264.327 369.885 265.169C373.037 260.12 375.104 257.012 378.655 252.213C376.768 246.874 374.306 239.748 369.885 235.936Z"/><path fill="#010101" transform="scale(2 2)" d="M305.201 109.642C317.6 109.984 344.016 121.755 353.804 128.11C373.271 140.75 365.994 164.812 365.247 185.228C364.738 199.165 365.379 219.743 362.936 233.201C362.644 234.021 362.788 234.026 362.205 234.511C355.955 228.745 361.36 160.918 361.31 148.077C361.266 136.661 350.935 131.662 341.93 127.675C338.245 126.003 306.411 111.874 305.201 109.642Z"/><path fill="#010101" transform="scale(2 2)" d="M280.632 200.195C280.82 201.1 279.092 204.445 278.642 205.467C275.562 212.465 258.416 261.858 256.92 262.422C254.278 255.464 273.567 211.578 280.632 200.195Z"/><path fill="#010101" transform="scale(2 2)" d="M333.056 296.137C334.478 296.676 331.624 303.672 331.565 305.288C331.313 312.2 337.105 319.228 334.406 319.341L334.173 319.217C326.864 315.391 326.704 301.1 333.056 296.137Z"/><path fill="#010101" transform="scale(2 2)" d="M322.429 328.077C324.361 328.628 330.233 336.405 330.397 338.108C326.383 337.434 321.941 332.154 322.429 328.077Z"/><path fill="#010101" transform="scale(2 2)" d="M340.837 335.412C343.03 337.056 338.347 342.603 336.234 343.581C334.629 341.738 339.63 336.766 340.837 335.412Z"/></svg>