<?xml version="1.0" encoding="utf-8" ?><svg xmlns="http://www.w3.org/2000/svg" xmlns:xlink="http://www.w3.org/1999/xlink" width="1024" height="1024" viewBox="0 0 1024 1024"><path transform="scale(2 2)" d="M246.666 53.7278C246.73 53.7194 246.793 53.7109 246.857 53.7025C302.818 51.7512 373.697 79.2408 379.117 143.067C384.648 206.553 314.376 301.701 280.184 350.46C276.923 355.111 274.496 359.659 270.724 364.154C246.494 390.965 229.87 349.364 218.553 332.334C185.964 283.022 155.268 236.052 147.345 176.044C138.85 111.714 184.349 60.715 246.666 53.7278ZM267.219 357.893C270.028 354.344 272.349 350.407 274.847 346.638C282.015 335.823 289.686 325.503 297.267 314.992C329.175 270.752 378.398 192.303 372.276 139.841C366.295 88.5949 312.18 65.4717 266.689 60.8169C261.213 60.2567 255.347 59.6778 249.851 60.1275C220.055 62.0053 195.672 74.9296 175.745 97.2758C138.099 139.491 154.091 199.347 174.493 245.578C188.643 277.195 210.713 307.287 228.878 336.677C237.196 350.133 250.93 380.991 267.219 357.893Z"/><path transform="scale(2 2)" d="M257.142 104.095C270.481 102.09 287.077 109.715 297.358 117.697C342.795 152.976 317.8 225.096 261.061 230.453C246.027 231.798 231.11 226.35 219.546 216.902C175.117 180.599 200.707 108.518 257.142 104.095ZM263.708 225.023C280.729 222.691 293.096 216.794 303.704 203.086C333.948 164.003 301.091 104.817 254.83 108.502C183.705 119.56 187.882 229.549 263.708 225.023Z"/><path transform="scale(2 2)" d="M313.625 343.382C345.328 342.71 382.164 355.887 399.003 384.54C423.334 425.941 335.547 449.431 308.814 454.044C264.426 462.612 220.352 456.418 178.372 440.449C173.195 438.48 166.992 435.66 161.749 434.053L161.454 433.965C146.344 449.468 122.444 436.42 130.196 426.901C121.785 418.672 123.73 409.085 131.243 401.596C151.716 381.552 186.695 400.798 164.381 430.838C214.865 448.934 251.87 460.262 307.842 449.914C342.143 443.573 436.028 417.994 382.509 371.287C363.499 354.697 338.595 347.08 313.612 347.352C311.929 347.342 307.104 347.742 305.865 347.242C301.9 343.133 312.11 343.424 313.625 343.382ZM133.02 424.476C138.8 421.671 144.417 422.806 150.435 424.476C154.281 425.812 157.701 427.369 161.454 428.784C162.541 426.434 163.865 424.442 165.106 422.192C171.711 410.209 163.527 395.862 149.286 397.837C136.194 400.271 121.709 410.336 133.02 424.476ZM151.201 436.172C154.1 434.913 155.257 434.278 157.732 432.32C152.801 429.502 143.653 427.334 138.076 427.846C124.341 430.057 140.467 440.091 151.201 436.172Z"/><path transform="scale(2 2)" d="M145.216 240.714C147.16 240.793 147.91 242.69 146.297 243.908C128.224 257.561 103.871 281.95 115.728 306.504C117.577 310.333 123.72 314.161 119.605 316.889C118.086 316.17 117.184 315.089 116.152 313.812C97.246 290.434 117.832 262.103 136.864 246.684C139.591 244.475 142.011 242.228 145.216 240.714Z"/><path transform="scale(2 2)" d="M199.021 346.71C201.714 346.751 217.008 348.792 214.704 354.045C212.169 354.26 196.98 352.457 199.021 346.71Z"/><path transform="scale(2 2)" d="M165.901 336.915C168.347 336.968 184.095 339.469 181.188 344.713C178.898 344.802 163.976 342.299 165.901 336.915Z"/><path transform="scale(2 2)" d="M134.914 322.701C136.095 322.708 151.943 328.091 149.286 332.421C147.533 332.552 132.54 328.098 134.914 322.701Z"/></svg>