<?xml version="1.0" encoding="utf-8" ?><svg xmlns="http://www.w3.org/2000/svg" xmlns:xlink="http://www.w3.org/1999/xlink" width="1024" height="1024" viewBox="0 0 1024 1024"><path fill="#010101" transform="scale(2 2)" d="M159.851 59.0039C165.691 57.5917 187.636 60.5894 195.633 60.5843C218.869 60.5693 241.913 58.5277 265.174 58.8403C290.38 59.2469 315.529 60.4882 340.635 62.6872C358.978 64.294 374.581 64.4634 393.177 67.2823C431.198 73.1044 438.019 113.813 421.108 143.083C410.459 161.514 387.109 165.527 367.737 168.799C362.102 169.751 354.773 169.701 349.451 171.107L349.061 171.213C330.368 170.002 316.527 172.777 298.87 173.66C286.082 174.3 273.713 174.164 260.58 174.94C244.705 175.878 228.951 174.604 213.093 174.484C180.252 174.235 142.692 178.63 111.829 164.544C66.7401 143.965 75.5274 90.1614 114.189 68.7962C128.068 62.2184 144.76 59.631 159.851 59.0039ZM347.485 165.024L347.892 164.933C367.337 160.672 388.307 162.848 406.658 150.511C421.118 140.181 426.527 117.943 422.856 101.268C417.125 75.2329 394.154 73.7268 372.555 71.0923C368.218 70.5633 362.024 69.7839 357.729 69.7027C333.706 69.2485 309.86 66.2335 285.828 66.1031C269.111 66.0123 249.383 65.2868 232.885 66.1522C220.928 66.7793 209.137 67.1665 197.169 67.3832C184.583 67.611 172.321 64.9574 159.851 65.6377C123.88 67.2837 86.1423 81.2624 87.3756 124.478C87.8041 139.493 101.344 154.204 115.184 159.176C141.963 168.797 171.629 170.126 199.824 168.547C215.528 167.667 231.589 169.029 247.31 169.219C257.467 169.292 267.609 168.025 277.733 167.544C284.995 167.2 292.668 168.031 299.86 167.349C315.119 165.9 332.093 164.019 347.485 165.024Z"/><path fill="#010101" transform="scale(2 2)" d="M122.989 87.2534C149.774 86.3832 165.508 112.119 151.978 135.705C147.195 144.043 139.899 147.104 130.757 149.249C99.6439 151.072 88.2768 120.863 102.712 97.605C106.157 92.0541 116.781 88.3325 122.989 87.2534ZM101.501 111.163C105.807 107.51 108.284 105.468 113.481 103.421C110.09 107.424 106.137 111.514 101.501 113.968C101.498 115.184 101.487 116.409 101.501 117.625C105.056 113.478 108.017 110.967 113.096 108.741C110.622 113.197 107.293 115.583 103.821 119.089C105.498 118.158 107.16 116.988 108.68 116.165C105.796 120.752 105.853 119.397 101.501 121.309C101.988 123.873 102.196 126.046 102.618 128.491C104.785 124.274 108.98 120.541 113.096 118.275C110.936 123.171 107.739 126.622 102.618 128.491C103.646 130.667 104.634 132.76 105.576 134.979C108.948 130.884 110.937 128.817 115.644 126.388C113.262 130.656 109.827 133.109 106.286 136.323C107.77 137.929 109.136 139.383 110.698 140.911C111.342 140.047 112.431 138.499 113.096 137.726C115.938 135.355 119.043 132.579 122.25 130.789C121.075 132.676 113.588 139.338 111.457 140.911C113.47 142.172 114.68 142.815 116.847 143.797C119.297 140.191 122.795 136.695 126.858 134.979C123.964 139.174 122.371 140.668 118.24 143.797C121.807 144.471 127.181 144.514 130.757 143.797C133.382 139.366 139.702 133.536 144.038 130.789C140.256 135.08 136.501 139.588 132.682 143.797C147.551 137.638 157.02 124.982 149.986 108.386C145.975 98.9218 132.82 90.591 122.25 91.8401C107.456 94.1394 105.299 98.5462 101.501 111.163Z"/><path fill="#010101" transform="scale(2 2)" d="M111.457 99.2897C113.107 100.772 106.773 104.246 105.576 104.468C102.69 101.936 109.857 99.7306 111.457 99.2897Z"/><defs><linearGradient id="gradient_0" gradientUnits="userSpaceOnUse" x1="305.96228" y1="126.68608" x2="307.79849" y2="111.47468"><stop offset="0" stop-color="#11120F"/><stop offset="1" stop-color="#2C282D"/></linearGradient></defs><path fill="url(#gradient_0)" transform="scale(2 2)" d="M337.702 116.165C341.39 116.153 352.307 115.493 354.54 117.6C355.898 122.411 335.315 119.861 332.568 119.858C318.847 119.842 289.534 118.585 276.562 122.246C271.715 121.801 267.112 122.508 262.294 122.16C261.113 122.075 257.895 120.952 259.548 119.421C262.594 116.599 325.991 116.076 337.702 116.165Z"/><path fill="#010101" transform="scale(2 2)" d="M236.69 116.165C237.583 116.191 238.593 116.166 239.497 116.165C246.962 119.436 239.806 122.514 235.554 123.247C226.049 123.507 226.848 118.227 236.69 116.165Z"/><path fill="#010101" transform="scale(2 2)" d="M197.626 118.275C203.136 118.119 211.626 120.414 203.092 124.645C196.352 125.89 190.091 120.98 197.626 118.275Z"/><path fill="#010101" transform="scale(2 2)" d="M142.007 208.249C154.883 207.482 166.761 210.174 179.365 211.15C229.534 215.035 277.621 212.724 327.536 212.67C347.857 214.332 366.267 211.785 385.619 212.971C420.472 215.107 443.759 253.543 424.307 282.194C413.377 298.839 384.632 303.688 365.799 307.378C358.137 307.702 347.927 310.133 339.918 311.069C323.327 313.008 306.836 311.885 290.169 312.646C258.347 314.097 230.645 314.187 198.766 313.736C169.31 313.319 122.689 316.879 98.2417 297.114C76.7362 279.728 79.2909 246.549 95.5485 227.169C108.181 212.111 124.219 210.072 142.007 208.249ZM366.813 301.172C396.088 296.298 430.42 287.304 424.117 250.336C421.313 233.886 401.933 220.208 385.758 219.255C373.16 218.513 360.23 220.283 347.587 220.268C338.309 220.256 329.121 218.871 319.905 218.827C308.109 218.82 296.317 219.461 284.53 219.816C250.775 220.834 215.103 220.597 181.599 217.982C167.961 216.918 154.613 213.861 140.838 214.736C124.095 216.928 110.262 218.137 98.7534 232.867C91.384 242.299 87.127 258.969 88.426 270.788C93.1467 313.74 172.797 306.842 202.069 307.368C214.522 307.591 226.874 308.275 239.363 308.254C268.294 308.204 296.931 305.873 325.929 306.288C337.903 306.46 354.54 302.754 366.813 301.172Z"/><path fill="#010101" transform="scale(2 2)" d="M124.231 230.991C140.919 229.672 155.564 242.019 157.086 258.69C158.608 275.361 146.441 290.155 129.79 291.881C118.837 293.015 108.12 288.173 101.733 279.202C95.3462 270.232 94.2769 258.52 98.9335 248.541C103.59 238.562 113.253 231.858 124.231 230.991ZM102.618 254.418C104.311 252.274 107.453 248.165 110.41 247.961L110.588 248.262C110.165 249.579 106.737 253.586 105.576 255.326C108.258 254.464 110.604 253.407 113.096 252.592C109.57 256.36 105.357 261.608 101.501 264.467C101.864 265.626 102.216 266.767 102.618 267.915C103.666 265.318 107.596 258.814 110.762 259.589L111.095 260.006C110.653 260.818 108.278 262.932 107.162 264.467C107.883 263.887 108.649 263.17 109.46 262.791L109.211 262.974L109.964 262.816L110.045 262.597C110.284 264.041 103.852 269.148 102.618 270.099C105.532 278.998 111.826 283.512 120.656 286.028C121.791 284.778 122.957 283.52 124.068 282.253L130.757 276.777C126.428 282.984 116.846 289.394 130.476 287.157L130.757 287.108C136.401 281.815 139.57 276.989 146.306 272.06C143.787 276.484 137.389 283.88 133.451 287.108C165.197 272.292 151.974 236.526 125.073 235.359C110.754 235.959 106.534 242.127 102.618 254.418ZM108.68 255.326C105.507 255.958 104.428 256.295 101.501 257.63C101.469 258.515 101.229 261.426 101.501 262.035C104.095 259.969 106.345 257.866 108.74 255.575L108.68 255.326Z"/><path fill="#010101" transform="scale(2 2)" d="M118.24 271.25C118.884 272.028 111.685 278.146 110.698 278.804L110.355 278.463C110.749 274.961 115.344 272.425 118.24 271.25Z"/><path fill="#010101" transform="scale(2 2)" d="M109.124 244.205C114.656 243.947 110.435 246.892 107.811 247.821C106.991 248.113 106.66 248.269 105.951 248.039L105.891 247.498C106.809 245.764 107.568 245.285 109.124 244.205Z"/><path fill="#010101" transform="scale(2 2)" d="M122.25 275.988L122.507 276.223C122.25 278.233 117.35 281.96 115.644 283.057L115.342 282.719C115.623 280.787 120.522 276.817 122.25 275.988Z"/><path fill="#010101" transform="scale(2 2)" d="M113.096 265.569L113.31 265.93C112.611 267.809 108.629 272.179 107.162 273.881L106.916 273.929L106.768 273.646C108.299 269.515 109.508 268 113.096 265.569Z"/><path fill="#010101" transform="scale(2 2)" d="M347.485 256.464C357.08 256.212 357.221 259.955 352.312 260.204C331.816 261.244 286.705 257.756 268.996 263.32C266.777 263.277 260.992 264.259 260.273 261.759C259.617 259.475 262.489 259.338 264.012 259.13C292.858 255.181 319.674 258.581 347.485 256.464Z"/><path fill="#010101" transform="scale(2 2)" d="M234.41 256.762C242.373 256.533 245.864 261.412 236.69 263.32C228.401 265.304 223.47 259.183 234.41 256.762Z"/><path fill="#010101" transform="scale(2 2)" d="M200.726 257.63C208.402 257.18 206.828 262.962 199.84 265.569C193.982 266.981 191.236 259.842 200.726 257.63Z"/><path fill="#010101" transform="scale(2 2)" d="M135.306 349.246C147.825 348.19 163.026 350.261 175.567 351.004C197.22 352.286 220.255 354.156 241.731 354.705C269.824 355.424 299.269 350.383 327.139 352.549C343.207 353.798 359.259 351.45 375.253 352.438C396.806 353.769 423.727 362.141 428.988 386.227C435.141 414.396 415.598 436.792 389.323 443.493C384.999 444.595 380.649 445.2 376.456 446.244C328.222 452.062 280.23 451.692 231.751 451.522C194.38 451.39 93.8178 463.085 86.2178 411.012C81.699 381.819 94.31 355.502 125.118 350.565C128.483 350.025 131.913 349.681 135.306 349.246ZM376.456 440.688C392.5 437.333 407.371 432.374 417.171 417.989C428.732 401.021 425.339 377.704 407.081 366.865C393.038 358.816 372.732 356.857 356.73 358.45C338.018 360.313 320.407 358 301.86 358.667C281.498 359.435 260.934 361.698 240.537 361.008C218.594 360.266 196.845 358.629 174.855 358.009C161.867 357.643 149.843 355.492 136.41 356.247C105.503 360.364 88.9539 374.942 92.7335 408.128C97.1065 446.523 172.646 447.673 201.653 445.577C256.381 442.511 311.629 449.447 366.127 442.288C369.587 441.835 373.022 441.13 376.456 440.688Z"/><path fill="#010101" transform="scale(2 2)" d="M126.858 367.38C163.588 365.861 168.807 432.054 125.938 430.235C93.8941 430.3 86.5002 383.003 110.828 371.021C114.872 369.029 122.239 367.885 126.858 367.38ZM101.501 391.736C122.91 374.172 107.575 395.929 102.173 397.773L101.809 397.654C102.164 395.573 105.579 393.102 107.162 391.736C104.814 393.02 103.375 393.692 101.501 395.601C101.49 397.823 101.469 400.049 101.501 402.27C103.814 400.413 109.556 394.38 111.328 393.997L111.584 394.266C110.802 398.164 104.753 402.918 101.501 404.92C103.401 409.061 102.818 409.897 105.576 414.158C107.581 411.506 111.345 405.817 114.071 404.757L114.478 404.91C114.674 407.366 107.661 412.878 105.576 414.158C107.179 416.095 108.141 417.098 110.134 418.678C112.463 414.639 116.649 409.966 120.656 407.617C119.263 409.493 117.156 412.513 115.644 414.158C113.881 415.773 112.136 417.357 110.134 418.678C112.304 420.224 114.437 421.356 116.847 422.491C118.16 419.332 123.278 413.674 125.938 411.372C123.71 415.305 120.812 420.035 116.847 422.491C119.291 423.43 121.468 424.133 124.068 424.555C125.691 422.887 127.056 421.395 128.934 419.999L129.135 420.005C127.708 421.727 126.647 422.982 125.073 424.555C139.773 425.585 131.11 419.173 143.657 411.598L144.038 411.372C140.472 415.712 137.356 420.535 133.451 424.555C149.282 418.461 155.728 405.423 149.652 389.172C146.223 380 133.863 371.838 124.068 372.847C110.572 374.504 104.811 378.251 101.501 391.736Z"/><path fill="#010101" transform="scale(2 2)" d="M113.096 400.187L113.512 400.299L113.662 400.7C112.279 403.348 107.298 407.085 104.894 409.048L104.53 409.143L104.458 408.83C106.985 405.01 108.736 401.992 113.096 400.187Z"/><path fill="#010101" transform="scale(2 2)" d="M111.457 378.411L112.221 378.897L112.303 379.473C111.404 381.759 107.129 385.03 104.894 386.089L104.371 385.828C104.402 384.087 109.919 379.447 111.457 378.411Z"/><path fill="#010101" transform="scale(2 2)" d="M324.625 394.747C333.243 394.645 343.979 394.475 352.644 395.75C356.392 396.302 354.152 399.434 350.257 399.237C329.92 398.212 311.395 398.473 291.251 399.265L274.723 400.693C274.453 400.717 256.443 402.792 261.766 397.944C264.007 395.904 318.422 394.657 324.625 394.747Z"/><path fill="#010101" transform="scale(2 2)" d="M235.554 394.747C245.907 396.175 241.61 399.646 234.41 402.27C226.125 403.88 225.68 398.149 235.554 394.747Z"/><path fill="#010101" transform="scale(2 2)" d="M200.726 396.569C208.745 397.234 206.107 402.178 199.84 403.743C192.336 403.991 192.69 397.678 200.726 396.569Z"/></svg>