<?xml version="1.0" encoding="utf-8" ?><svg xmlns="http://www.w3.org/2000/svg" xmlns:xlink="http://www.w3.org/1999/xlink" width="1024" height="1024" viewBox="0 0 1024 1024"><path transform="scale(2 2)" d="M248.687 87.2933C252.618 87.0758 255.466 87.3695 258.781 89.7478C268.625 96.8082 282.25 117.497 288.525 127.528C296.881 140.886 304.687 151.928 313.617 164.59C317.192 154.502 320.535 143.556 327.217 135.02C334.699 125.462 344.258 138.922 348.714 144.721C364.55 164.663 368.922 194.161 385.857 212.913C418.814 249.406 412.146 270.988 429.52 310.101C432.083 315.872 434.964 321.486 437.91 327.072C447.521 345.612 453.014 364.25 457.643 384.403C461.816 402.564 468.857 418.341 443.451 423.163C416.823 428.217 393.124 418.165 368.122 410.805C343.801 403.646 316.606 396.925 291.063 397.882C267.522 398.37 243.894 400.632 220.375 399.101C197.507 397.612 174.719 395.13 151.791 394.212C139.569 393.723 125.28 391.634 113.179 393.378C111.902 394.955 110.125 397.461 107.903 397.583L107.656 397.279C107.782 395.738 108.936 394.561 109.898 393.378C92.6875 394.084 76.6259 396.329 60.7714 403.404C59.7958 406.912 58.8949 410.278 57.1939 413.519C57.1794 410.381 57.0695 407.588 57.1939 404.421C54.8229 405.273 51.7217 407.965 50.4319 408.257L50.0954 407.891C49.7387 404.153 54.4088 402.459 57.1939 401.147C62.7891 346.906 96.5134 317.588 118.821 272.403C122.567 264.814 125.778 256.79 129.229 249.048C144.462 214.882 156.56 188.728 179.327 159.077C195.08 138.754 228.144 92.1884 248.687 87.2933ZM68.8674 375.978C75.3893 365.732 121.092 307.569 132.538 303.431C136.292 303.921 128.546 309.522 127.811 310.257C106.889 331.18 85.9975 352.92 70.8076 378.497C69.3895 380.884 67.1398 381.532 66.1056 384.28C64.2428 389.23 63.1013 394.355 62.0556 399.53C69.6367 395.274 88.5041 391.235 97.5955 389.506C103.296 388.422 108.593 388.894 115.045 386.739C116.643 385.125 117.753 383.051 119.148 381.286C127.857 370.262 163.57 331.046 177.51 334.682L177.878 335.075C177.601 336.195 174.185 337.452 173.101 337.869C155.885 344.48 128.453 372.023 118.288 386.739C133.155 386.656 147.745 387.429 162.57 388.731C168.752 380.656 188.741 355.668 198.136 359.552L198.322 359.943C197.783 361.197 192.645 363.188 191.271 364.196C182.366 370.724 172.468 379.812 165.932 388.731C185.567 389.214 205.44 392.566 225.279 393.244C262.449 394.515 303.935 386.776 340.037 397.059C349.021 398.795 361.203 402.187 369.993 404.724C381.222 407.964 424.217 422.707 434.287 418.086C434.524 411.648 439.705 405.949 441.359 399.69C442.101 396.885 445.241 397.196 445.048 398.882C444.282 405.562 438.349 412.405 435.917 418.498C441.572 417.02 451.147 416.42 454.397 410.849C457.874 404.891 450.612 380.471 448.47 372.267C444.367 356.554 438.552 341.001 431.038 326.598C419.801 305.058 415.997 288.509 409.301 266.268C400.794 238.99 392.554 231.799 375.395 210.178C360.309 190.365 353.655 147.994 333.612 137.321C327.499 145.003 321.363 160.103 318.336 169.601C319.851 172.345 322.488 174.96 324.649 177.239C337.567 190.869 348.485 199.646 359.887 215.161C361.196 212.759 363.373 208.075 365.611 212.328C365.633 214.066 362.972 216.155 361.738 218.488C365.513 222.792 368.93 230.215 371.865 235.271C372.84 232.587 374.804 224.888 377.982 224.956C381.62 226.662 376.02 236.045 374.936 240.574C376.179 243.748 378.772 249.297 380.589 252.188C381.06 250.738 385.093 236.393 387.969 242.758C387.837 245.077 384.395 255.017 383.48 257.714C386.156 263.059 388.298 268.384 391.385 273.722C389.543 257.119 397.939 255.242 396.901 259.229C395.265 265.508 394.781 271.931 393.649 278.254C395.049 280.495 401.376 290.864 402.747 292.265C404.506 289.946 400.569 273.206 406.367 273.759C408.834 276.089 405.502 291.632 404.318 294.49C406.651 297.692 414.743 310.111 406.483 310.499C404.531 310.59 403.075 303.942 402.221 302.361C400.516 299.205 398.006 296.606 396.057 293.608C377.021 264.324 365.9 227.686 341.674 202.727C332.458 193.232 322.254 184.847 313.806 174.586C304.117 162.817 294.944 150.514 286.963 137.51C281.225 128.163 261.208 92.0168 249.907 92.2348C230.808 100.806 211.583 128.83 198.65 144.35C157.623 193.58 145.472 232.025 118.414 286.612C102.764 316.88 77.795 341.551 68.8674 375.978Z"/><path transform="scale(2 2)" d="M247.776 144.923C251.613 145.119 254.495 166.499 257.839 173.116C261.663 179.661 270.862 180.547 276.474 185C278.947 186.963 292.721 199.651 292.442 202.079L291.922 202.394C287.808 202.624 279.539 192.659 275.049 189.813C251.703 175.015 254.068 185.163 246.729 151.168C244.231 154.871 241.94 159.133 240.117 163.206C233.815 178.846 230.733 198.232 215.065 206.873C211.954 208.589 198.045 217.203 195.29 213.61C195.564 212.622 217.167 202.304 223.41 192.872C232.238 179.8 236.687 154.26 247.776 144.923Z"/><path transform="scale(2 2)" d="M171.683 248.772C180.959 248.31 184.255 260.087 191.383 261.831C200.233 263.996 210.78 256.361 220.943 258.812C232.488 261.597 236.031 272.286 247.027 275.106C248.7 275.535 253.933 277.361 249.087 278.244C238.257 280.218 232.702 270.055 224.629 264.866C212.267 258.064 201.775 268.844 190.531 266.163C181.54 264.019 178.867 253.651 171.683 252.188C164.161 253.227 151.283 269.524 145.56 264.613C144.278 261.636 147.742 263.42 149.284 262.882C158.255 259.753 162.463 251.144 171.683 248.772Z"/><path transform="scale(2 2)" d="M285.392 238.009C290.711 237.4 295.585 248.932 300.044 253.243C308.238 261.164 317.61 261.318 320.379 263.788C322.195 271.473 302.823 261.279 300.651 259.763C293.125 254.109 290.453 245.498 285.392 241.78C280.117 247.05 279.659 253.156 273.042 257.714C274.958 251.906 279.295 240.616 285.392 238.009Z"/><path transform="scale(2 2)" d="M136.946 330.584C145.604 329.481 127.653 337.907 126.732 338.576C106.057 353.607 95.1984 372.061 80.9064 391.75C76.2933 393.368 82.5324 384.11 83.1794 383.203C93.6098 368.575 119.05 333.873 136.946 330.584Z"/><path transform="scale(2 2)" d="M416.362 362.701C425.753 361.63 401.71 381.882 400.235 383.61C396.209 388.325 392.908 393.321 389.393 398.41L387.295 400.28C388.2 390.699 408.733 366.785 416.362 362.701Z"/><path transform="scale(2 2)" d="M430.372 386.739C432.693 386.37 434.774 388.447 432.521 390.166C425.654 395.402 420.779 401.519 415.389 408.244C411.408 412.199 415.675 402.708 416.525 401.494C420.233 396.2 424.622 389.913 430.372 386.739Z"/><path transform="scale(2 2)" d="M416.362 384.218C423.13 384.057 410.622 392.267 408.977 393.727C404.588 397.626 402.595 401.166 398.866 405.343C398.484 405.866 398.447 405.825 397.856 406.123L397.642 405.79C398.745 398.805 410.296 387.624 416.362 384.218Z"/><path transform="scale(2 2)" d="M352.131 307.862C354.428 308.668 347.732 326.503 346.582 328.398L346.188 328.17C344.059 324.158 349.271 311.314 352.131 307.862Z"/></svg>