<?xml version="1.0" encoding="utf-8" ?><svg xmlns="http://www.w3.org/2000/svg" xmlns:xlink="http://www.w3.org/1999/xlink" width="1024" height="1024" viewBox="0 0 1024 1024"><path transform="scale(2 2)" d="M358.171 50.5949C361.295 49.9515 365.074 51.1477 368.064 51.662C385.92 54.7343 391.338 67.4736 393.1 83.8897C400.63 154.078 405.263 224.982 407.863 295.526L409.528 358.971C409.703 379.437 404.196 390.991 381.274 394.02C383.254 438.098 375.187 458.175 326.685 460.19C296.829 461.431 267.071 459.832 237.304 459.548L190.418 459.377C177.895 459.389 160.143 459.331 147.69 457.899C116.19 454.066 116.296 447.088 113.643 416.501C113.525 415.141 112.271 414.562 111.224 413.837C111.872 412.777 112.335 412.25 113.133 411.316C113.373 403.615 113.154 395.04 112.534 387.335C106.917 390.113 110.521 385.356 112.534 383.438C112.572 366.941 112.677 347.228 111.224 330.772C108.892 328.82 109.61 328.088 111.224 326.033C111.114 316.638 111.945 307.042 110.446 297.738C111.286 295.935 110.473 271.956 110.154 268.522C109.059 267.027 109.328 267.001 110.498 265.563C110.143 256.834 110.291 248.195 109.755 239.45C108.672 239.994 108.804 240.145 107.797 240.045L107.602 239.556C108.039 237.975 108.444 237.552 109.755 236.546C110.289 228.658 109.655 217.185 109.612 208.875L109.31 184.853C109.285 177.931 109.493 170.94 109.282 163.994C109.138 159.234 102.694 166.365 109.169 155.248L109.308 155.004C109.252 142.226 106.803 117.1 115.313 107.28C123.363 97.9915 251.25 70.213 268.163 66.5701C295.793 60.6191 329.939 52.4877 358.171 50.5949ZM115.733 118.514C114.053 126.906 114.037 138.605 114.542 147.259C115.348 148.075 115.852 148.59 116.739 149.304C118.64 147.443 125.62 139.089 127.889 140.804C129.372 144.028 120.387 150.122 118.538 152.715C121.204 155.522 124.289 158.403 127.37 160.752C140.475 159.058 118.102 172.3 115.733 173.38C117.824 174.878 126.502 180.767 127.375 182.43C127.775 187.683 115.789 177.165 114.542 176.179C114.972 183.503 114.781 193.602 114.542 201.066L114.932 200.865C121.34 197.522 129.386 189.697 135.473 185.407C137.667 183.861 139.904 185.837 138.574 187.161C133.025 192.685 123.055 199.548 117.269 204.291C119.808 205.983 127.377 209.866 128.021 212.079C126.988 215.458 117.154 208.075 114.542 207.239C114.674 215.275 115.085 223.532 114.542 231.526L114.923 231.267C118.731 228.65 133.177 215.751 136.14 215.229C141.613 217.037 120.333 231.538 118.04 233.516C119.809 235.146 128.595 241.191 126.895 243.36C124.183 243.882 117.991 237.104 115.393 235.665C114.685 239.908 115.141 256.924 115.393 261.541C115.65 261.361 145.813 235.029 142.069 244.406C141.28 246.38 118.968 263.381 115.733 265.563C118.065 266.613 128.975 273.357 129.119 275.612C127.052 277.908 117.72 270.31 115.393 269.034L115.403 283.458C115.408 285.608 115.325 289.941 115.667 291.923C118.71 293.544 136.704 274.262 140.473 274.867C142.172 276.158 141.494 277.287 140.175 278.45C135.134 282.893 126.082 290.704 120.639 294.486C122.945 295.952 134.809 301.88 132.407 304.574C127.236 306.419 120.131 294.376 116 298.41C115.343 300.867 115.621 319.28 115.733 322.895L116.069 322.693C123.933 317.902 130.827 311.084 138.124 305.491C139.4 304.513 140.407 305.161 140.785 306.493C140.464 309.234 121.549 323.121 118.538 326.033C128.074 328.713 145.999 343.114 122.944 331.772C120.37 330.309 118.46 329.234 115.733 328.031C116.011 337.443 115.911 345.799 116.739 355.139C119.748 352.115 137.451 334.811 140.429 334.593C145.006 336.865 134.011 343.708 131.736 345.791C127.644 349.538 123.746 353.423 119.703 357.158C124.072 359.951 128.903 362.569 133.551 364.876C134.675 363.432 135.519 362.357 137.554 362.759C139.74 365.494 122.126 380.246 119.703 382.682C124 386.296 128.668 389.991 133.551 392.743C135.052 391.363 137.474 388.064 139.234 390.527C139.46 393.752 123.775 407.496 120.639 410.25C123.785 411.627 132.132 414.705 133.342 417.707L133.163 418.191C130.288 419.232 123.204 414.588 118.538 413.837C118.138 421.951 119.697 438.29 125.011 444.365C133.514 454.087 187.528 452.469 200.606 452.624L250.188 453.398C278.552 453.871 315.868 456.064 343.799 451.579C357.984 449.302 374.602 439.448 374.401 423.265C373.555 354.999 373.001 286.926 369.772 218.645C368.63 194.494 368.896 169.244 366.041 145.255C362.316 123.002 352.878 121.487 334.352 119.747C305.902 117.074 277.995 116.35 249.44 116.372C241.214 116.25 232.369 116.88 224.128 117.295L177.354 119.92C162.691 120.736 128.493 122.99 115.733 118.514ZM267.983 99.9055C269.69 103.998 271.763 108.275 273.757 112.25C274.78 112.253 276.226 112.303 277.212 112.25C284.144 112.222 290.974 113.009 297.801 112.25C296.941 110.383 290.155 95.7943 289.199 95.8428C282.269 97.0659 274.745 98.8638 267.983 99.9055ZM263.715 100.848C257.809 101.799 244.595 103.852 239.729 106.562C241.045 108.458 242.36 110.387 243.719 112.25C244.614 112.253 245.53 112.267 246.423 112.25C254.158 112.263 262.085 112.411 269.796 111.964C269.062 110.557 264.487 101.204 263.974 100.84L263.715 100.848ZM118.04 407.907C120.659 405.541 122.673 403.283 125.628 401.271C127.634 398.992 129.357 397.295 131.581 395.229C126.098 392.197 121.741 388.256 117.269 385.66C117.202 390.996 117.327 402.738 118.04 407.907ZM293.489 95.8428C296.773 100.792 299.105 106.848 301.706 112.25C308.142 113.68 312.32 112.728 318.234 113.675C326.056 113.569 337.437 114.832 344.273 114.191C341.727 98.6326 338.337 89.8496 320.442 91.7461C314.075 92.4326 298.785 93.7884 293.489 95.8428ZM372.755 146.125C373.872 151.642 374.193 164.915 374.436 171.027L379.863 330.028C380.305 349.392 380.782 367.94 380.749 387.335C407.957 381.954 401.416 370.577 402.404 350.545C402.8 287.053 399.01 219.075 394.072 156.005C392.023 129.829 390.305 102.606 385.209 76.7924C383.945 70.3928 382.374 65.5552 376.691 61.8505C373.212 59.5833 363.069 55.9939 359.174 56.8505C323.109 61.0379 287.686 69.069 252.256 76.8514C211.887 85.7185 171.292 94.629 131.939 107.347C125.143 109.543 121.486 108.73 116.739 115.213C130.218 119.333 183.088 118.233 199.647 112.371C225.521 103.212 313.873 84.2863 332.383 88.5779C345.504 91.62 345.576 105.314 348.143 115.213C362.393 116.834 372.258 132.531 372.755 146.125ZM223.687 113.23C227.876 113.289 235.476 112.752 239.729 112.25C238.627 110.942 236.2 106.61 235.903 106.562C231.769 107.415 223.228 109.238 219.391 110.453C220.652 113.255 220.466 113.574 223.687 113.23ZM215.41 111.964C211.872 112.38 209.85 112.747 206.435 113.967L206.352 114.242L205.93 114.23L206.117 114.098L206.124 114.106L205.886 114.33L206.607 114.343L206.049 114.238L206.305 114.182L206.568 114.4L207.938 114.191C211.025 113.992 214.32 113.718 217.397 113.675C216.911 113.08 216.282 112.165 215.632 111.873L215.41 111.964ZM114.542 170.28C116.435 169.33 118.929 167.998 120.639 166.73C122.315 165.612 123.978 164.505 125.628 163.346C123.177 161.38 117.498 155.647 115.393 155.004C113.224 157.528 114.555 166.707 114.542 170.28ZM116.739 380.189C119.325 378.195 121.635 375.821 124.011 373.572C126.492 371.293 128.883 369.004 131.581 366.986C125.747 364.457 122.017 362.074 116.739 359.585C116.44 365.839 116.755 373.739 116.739 380.189Z"/><path transform="scale(2 2)" d="M247.266 160.752C257.513 160.442 268.361 160.795 278.608 161.124C314.849 162.703 319.808 163.696 325.277 203.639C328.698 228.618 329.452 254.397 329.766 279.605C330.148 310.385 322.272 311.579 293.916 315.696C279.264 317.506 264.215 318.366 249.44 318.869C246.199 318.677 240.836 318.857 237.463 318.861L212.625 318.878C182.528 318.892 177.629 318.305 173.866 286.365C170.623 258.831 166.838 231.072 168.069 203.302C169.448 172.194 177.066 167.593 204.986 164.141C219.517 162.344 232.949 161.987 247.266 160.752ZM249.44 315.25C265.692 314.403 281.998 313.762 298.124 311.442C321.087 308.139 326.038 306.051 326.093 282.201C326.139 262.625 324.922 182.372 310.75 170.545C301.565 162.879 259.299 164.431 247.266 164.5C232.228 165.438 188.329 165.569 178.544 176.789C164.909 192.426 173.948 253.967 176.415 275.996C180.142 309.29 175.314 314.716 212.179 315.204C224.598 315.369 237.021 315.178 249.44 315.25Z"/><path transform="scale(2 2)" d="M239.729 175.24C260.045 174.747 276.899 179.362 293.418 191.569C302.784 198.49 311.821 210.347 312.669 222.142C315.386 259.916 297.936 301.715 256.192 306.122C252.331 306.035 248.877 306.184 244.955 305.923C215.362 303.946 188.259 283.829 184.326 253.201C179.19 213.213 198.602 181.147 239.729 175.24ZM211.486 189.675C199.281 198.704 190.367 212.37 188.138 227.493L188.105 227.727C195.323 225.555 198.2 225.149 199.726 233.516C208.187 230.194 207.323 233.653 211.506 239.37C214.085 242.132 232.691 240.557 221.124 261.959C220.075 263.899 206.876 284.291 205.115 278.315C205.9 273.651 226.359 257.188 219.431 247.087C216.906 243.404 212.616 245.097 209.719 242.877C206.978 240.776 207.507 236.26 203.557 235.895C198.069 235.388 198.05 240.025 194.981 229.953C192.012 230.376 189.801 230.858 186.887 231.526C187.047 235.311 187.041 239.9 187.075 243.706C187.405 280.372 218.902 304.667 254.306 302.202C260.892 301.74 259.79 300.79 261.174 294.486C261.733 290.12 262.826 281.766 262.754 277.526C257.025 267.176 260.652 263.016 257.854 255.785C256.111 254.076 254.64 253.256 252.511 252.06L252.218 252.237C247.772 254.872 247.462 249.148 250.769 248.317C255.143 247.218 261.377 253.108 262.197 257.044C263.044 261.112 262.606 264.345 263.084 268.378C263.485 272.098 266.225 274.987 266.303 276.132C266.805 283.499 264.882 293.787 263.715 300.812C282.509 299.956 301.136 273.593 305.7 257.332C297.191 250.861 293.025 245.983 288.348 236.48C282.744 225.092 269.77 232.601 268.406 223.263C266.759 211.986 290.697 207.675 298.128 214.634C300.086 216.466 304.358 219.473 306.747 216.764C309.934 213.192 297.352 200.274 294.847 197.97C285.914 199.855 277.371 201.81 269.154 205.855C267.979 206.433 266.253 207.322 264.948 207.127C259.122 202.047 289.144 195.624 291.657 194.793C278.152 185.449 261.481 178.016 244.75 179.035C249.003 182.24 259.195 187.251 254.356 193.723C251.875 197.042 247.002 196.615 243.405 197.703C236.659 199.814 233.614 206.266 225.877 206.459C213.198 206.776 209.548 202.052 211.486 189.675ZM215.41 186.847C215.941 195.437 210.312 202.845 224.676 202.748C233.976 201.886 232.689 197.904 240.426 194.645C243.075 193.529 249.628 193.233 251.575 191.73C253.848 185.878 238.998 183.768 243.87 179.189L243.719 179.035C234.291 179.249 223.497 181.968 215.41 186.847ZM287.626 214.594C283.573 214.918 276.168 216.501 273.183 219.402C267.066 225.349 282.995 226.16 286.194 228.292C290.625 231.384 295.246 242.465 300.657 248.072C302.626 250.01 304.408 251.609 306.67 253.223C309.252 245.046 310.294 228.459 308.648 220.149C296.835 225.271 297.289 213.49 287.626 214.594Z"/><path transform="scale(2 2)" d="M184.371 360.373C205.597 364.003 218.812 363.793 240.522 362.876L271.483 361.71C284.263 361.267 297.232 362.114 310.036 361.316C312.349 361.172 319.434 360.506 316.065 364.876C313.782 365.058 308.023 364.876 305.221 364.938L274.224 365.508C265.617 365.668 187.113 370.238 183.59 362.256C183.705 361.278 183.8 361.218 184.371 360.373Z"/><path transform="scale(2 2)" d="M310.367 378.838C312.122 378.496 313.618 380.258 312.296 381.674C307.525 386.78 218.689 390.886 197.439 389.462C193.806 389.42 194.207 386.107 196.355 386.242C229.294 388.323 277.683 384.001 310.367 378.838Z"/><path transform="scale(2 2)" d="M291.657 400.223C301.567 398.854 300.974 403.23 297.451 403.426L235.653 406.317C230.385 406.607 220.167 406.872 215.41 407.907C213.45 407.782 206.078 409.032 207.035 405.622C208.289 404.646 214.328 404.533 216.27 404.383L235.087 403.056C253.406 401.831 273.281 400.38 291.657 400.223Z"/><path transform="scale(2 2)" d="M290.441 341.307C292.211 341.193 293.915 343.054 292.166 344.292C288.428 346.937 243.803 348.336 236.445 348.208C227.216 348.048 218.122 347.074 208.937 346.694C208.005 346.602 205.237 346.7 204.106 346.694C210.954 343.62 229.627 344.721 237.805 344.55C255.438 344.181 272.91 343.772 290.441 341.307Z"/><path transform="scale(2 2)" d="M334.231 410.25C337.809 412.015 333.514 416.279 331.987 418.127C324.781 426.842 313.05 434.037 302.571 438.282C295.428 436.762 312.063 429.76 312.591 429.473C325.312 422.554 328.008 414.279 334.231 410.25Z"/><path transform="scale(2 2)" d="M344.273 417.423L345.016 417.514C350.88 421.88 328.253 434.079 324.65 435.402C317.266 436.085 326.508 430.814 328.13 430.091C337.714 425.819 337.921 422.027 344.273 417.423Z"/><path transform="scale(2 2)" d="M138.252 415.238C144.515 414.676 136.568 420.949 135.318 422.103C132.419 424.78 129.968 427.561 127.37 430.511L126.475 430.808C120.706 429.618 136.448 416.368 138.252 415.238Z"/></svg>