<?xml version="1.0" encoding="utf-8" ?><svg xmlns="http://www.w3.org/2000/svg" xmlns:xlink="http://www.w3.org/1999/xlink" width="1024" height="1024" viewBox="0 0 1024 1024"><path transform="scale(2 2)" d="M286.636 46.4988C319.242 45.6548 359.323 58.9884 384.831 80.2092C405.967 97.7927 424.42 129.125 432.44 155.22C443.875 192.427 434.268 245.33 416.26 279.11C376.612 353.481 276.669 385.267 202.229 345.402C196.002 352.055 184.218 356.703 177.09 363.731C175.824 364.979 173.185 373.011 172.427 375.144C168.893 385.093 160.952 403.852 154.496 412.621C145.119 434.715 120.785 473.432 92.4166 463.785C47.4224 448.485 98.5237 389.558 114.283 370.121C118.991 364.314 136.058 346.123 138.037 340.271C136.361 332.928 150.051 321.871 154.271 316.293L154.496 315.991C152.569 313.42 150.767 312.058 148.53 309.878C97.6473 260.301 124.206 174.994 156.515 123.049C172.844 96.7953 192.297 76.0164 221.346 65.3322C225.433 63.3144 231.246 62.9923 235.206 61.0668C252.499 52.6566 267.253 47.8635 286.636 46.4988ZM324.557 347.404C321.81 345.77 305.641 332.587 307.348 329.706C310.361 328.596 320.095 339.214 322.372 341.283C324.178 343.274 326.041 344.04 326.513 346.219C330.459 347.471 358.997 332.738 363.749 328.172C360.87 326.248 356.67 320.704 357.35 317.097L357.714 316.619C358.851 316.532 365.048 325.037 365.655 326.347C368.193 326.927 386.932 310.142 387.793 307.666C383.63 307.583 378.478 301.41 381.54 299.678C389.053 300.185 383.514 316.928 398.839 294.236C397.414 292.854 391.399 286.819 396.576 286.408C397.049 286.37 399.343 290.421 400.541 291.655C408.921 282.736 419.118 258.428 422.641 247.131C420.258 245.751 411.665 237.706 416.11 235.329C417.651 235.568 422.053 242.138 423.56 243.948C425.735 238.17 426.571 232.318 428.605 226.515C417.358 220.247 419.702 211.386 422.82 215.467C424.756 218.001 426.36 220.445 428.605 222.744C429.116 219.728 431.713 203.293 431.058 201.279C426.748 200.844 422.9 193.78 422.951 190.963C425.501 187.744 430.33 197.248 431.505 198.827C431.799 157.564 418.854 123.82 390.026 93.0905C368.25 69.8785 321.906 50.3831 288.893 52.7487C265.556 56.0811 255.158 59.4862 233.075 69.3641C225.561 72.7249 217.434 75.4441 210.13 79.2109C156.5 106.867 119.578 198.247 127.963 255.526C133.369 292.489 152.806 308.62 183.354 327.182C192.697 332.86 201.344 338.419 211.377 343.019C245.886 358.837 288.861 360.373 324.557 347.404ZM166.583 375.97C149.593 359.492 158.545 358.468 167.579 372.257C169.024 369 170.536 365.601 171.744 362.245C164.916 350.222 156.229 343.8 142.657 341.283C125.426 367.912 74.7768 416.448 79.7251 444.597C81.6494 455.545 96.9686 461.657 106.848 459.415C115.037 457.687 120.439 452.063 125.995 446.317C124.115 444.779 114 431.879 120.565 433.676C122.363 435.248 126.347 441.164 128.404 443.569C129.729 441.818 131.658 439.421 132.809 437.626C130.803 435.977 123.87 429.634 125.668 426.888C128.183 425.786 132.503 432.71 134.755 434.859L138.191 429.164C129.341 424.546 131.361 411.19 134.755 418.614C136.416 421.618 137.424 423.751 139.752 426.294C141.669 423.988 143.383 421.12 145.102 418.614C142.549 416.696 135.895 409.169 137.9 406.042C140.457 404.874 145.268 413.704 146.899 415.65C148.307 413.083 149.154 411.705 150.786 409.337C147.502 407.24 141.756 399.372 143.015 395.56L143.47 395.272C146.053 395.903 150.29 404.072 151.691 406.453C153.286 403.952 155.117 401.127 156.298 398.427C155.158 397.276 141.939 379.641 149.061 381.823C150.668 382.315 156.619 392.628 158.15 394.69C159.374 392.124 160.696 389.199 162.012 386.717C158.886 384.486 150.533 372.126 151.82 368.94C154.927 367.375 161.487 380.797 163.242 383.508C164.379 380.698 165.382 378.671 166.583 375.97ZM142.657 336.639C158.518 336.304 167.648 345.9 176.608 357.674C178.075 356.565 179.4 355.563 180.933 354.549C178.934 352.681 174.597 345.353 174.154 342.899L174.355 342.373C177.603 341.029 182.153 350.409 183.121 352.857L185.372 351.389L186.043 350.837C186.089 348.493 178.085 340.551 179.357 338.014C181.866 337.051 188.112 346.591 189.018 348.744C190.483 347.858 190.948 347.573 192.25 346.426C191.275 343.762 189.134 341.816 189.166 339.82C191.209 336.964 196.698 347.529 196.839 342.646C193.695 340.348 189.299 337.999 185.822 335.776L158.15 318.183C153.993 323.184 144.802 331.5 142.657 336.639Z"/><path transform="scale(2 2)" d="M257.719 88.7498C275.966 87.237 299.075 97.1511 303.512 116.497C321.649 114.067 344.042 112.21 360.677 120.807C364.486 122.776 371.134 132.966 372.891 136.558C381.962 155.116 376.96 175.73 370.782 194.272C382.94 203.865 394.067 213.505 396.96 229.74C399.722 245.463 396.312 262.245 387.347 275.499C383.035 281.876 380.226 280.477 385.605 272.487C393.048 261.462 394.813 248.875 394.17 235.839C393.272 217.618 382.185 208.152 369.722 197.219C365.184 208.703 359.273 223.806 352.409 234.106C334.039 261.675 303.535 285.594 270.82 292.473C277.286 298.555 285.067 303.833 293.182 307.414C316.09 318.876 344.224 311.669 363.561 296.322C365.866 294.492 374.356 285.616 376.926 285.881C378.496 287.824 375.024 290.655 373.809 291.846C343.011 322.042 297.222 325.415 267.478 293.302C249.457 298.656 224.707 297.542 207.929 289.397C187.935 279.691 191.894 268.293 186.385 252.937L186.254 252.582C165.225 248.052 154.159 238.937 151.461 215.558C148.267 187.879 161.689 159.785 178.387 138.53C198.6 112.802 224.743 92.9813 257.719 88.7498ZM192.25 252.582C195.72 264.951 195.718 275.829 208.656 282.884C224.242 291.383 234.843 289.827 250.977 290.25C254.996 289.359 258.495 288.952 262.482 287.735C253.283 282.26 256.573 280.01 266.477 286.866C271.819 286.122 284.97 281.913 290.04 279.512C322.917 263.841 344.919 240.885 358.893 207.826C368.739 184.531 380.575 153.158 362.36 130.906C352.39 118.501 333.853 120.106 318.806 120.245C275.637 124.66 241.203 146.581 218.042 183.75C207.882 200.054 198.716 213.954 193.343 233.005C192.622 235.56 191.616 247.158 192.465 249.531C193.856 250.1 198.208 249.624 196.269 252.26C194.942 252.897 193.667 252.767 192.25 252.582ZM186.254 249.37C186.212 245.637 186.23 241.935 186.254 238.202C188.701 217.979 210.907 180.291 225.116 163.065C242.503 141.987 274.376 121.631 300.877 117.395C295.504 100.213 274.845 89.6499 257.719 92.0082C205.606 97.6202 148.586 162.933 154.778 215.846C157.04 235.177 167.353 246.468 186.254 249.37Z"/><path transform="scale(2 2)" d="M301.798 160.256C305.757 160.102 308.045 162.245 311.717 161.654C318.412 160.576 314.452 164.338 310.185 165.46C308.02 164.773 305.707 163.987 303.512 163.463C296.005 165.216 292.063 169.768 284.768 172.31C280.015 173.967 276.04 173.355 271.278 174.264C261.715 176.088 266.265 182.109 262.541 186.317C260.193 188.971 255.685 188.968 252.797 193.302C251.395 209.301 252.015 204.301 242.102 217.798C240.821 219.635 240.598 220.638 240.084 222.744C240.762 223.937 242.052 225.475 242.159 226.708L241.76 227.141C240.341 227.491 238.877 227.074 238.27 225.649C234.396 216.557 245.739 211.059 248.693 203.667C253.319 192.091 242.482 194.01 261.165 183.666C262.592 166.187 272.23 173.561 283.792 169.225C290.268 166.797 295.119 162.5 301.798 160.256Z"/><path transform="scale(2 2)" d="M322.372 155.222C324.04 155.231 324.755 155.67 325.198 157.313C324.894 158.395 322.01 158.576 319.813 161.694C314.177 160.797 320.314 156.315 322.372 155.222Z"/><path transform="scale(2 2)" d="M169.551 179.214C169.749 179.211 171.386 179.182 171.548 179.355C173.37 181.304 180.591 189.077 178.964 191.334C175.994 192.386 168.721 182.618 169.551 179.214Z"/><path transform="scale(2 2)" d="M165.499 198.827C166.712 199.039 177.212 206.533 173.868 209.682C172.053 209.204 161.887 201.382 165.499 198.827Z"/><path transform="scale(2 2)" d="M178.964 161.694C180.387 162.057 187.957 168.828 186.254 171.814C184.047 171.662 175.835 164.506 178.964 161.694Z"/><path transform="scale(2 2)" d="M195.237 150.552C196.899 150.877 202.312 156.396 200.86 158.879L200.701 158.877C197.403 158.878 192.611 153.673 195.237 150.552Z"/><path transform="scale(2 2)" d="M162.012 222.744C165.498 222.509 168.405 228.348 166.583 230.645C163.621 231.143 160.68 224.982 162.012 222.744Z"/><path transform="scale(2 2)" d="M221.015 131.239C225.184 130.78 223.283 134.417 221.015 136.03C217.54 137.04 217.808 133.346 221.015 131.239Z"/><path transform="scale(2 2)" d="M385.078 125.634C388.068 125.985 388.418 131.021 389.184 133.501C391.405 140.689 393.577 147.71 398.073 153.86C400.151 156.702 405.588 160.785 402.849 163.463C396.433 162.53 382.574 131.39 385.078 125.634Z"/><path transform="scale(2 2)" d="M279.861 326.191C281.5 326.223 304.118 342.401 304.178 342.552C304.202 343.357 303.918 343.674 303.512 344.374C300.739 344.389 276.993 331.047 279.861 326.191Z"/><path transform="scale(2 2)" d="M390.382 117.395C392.727 117.687 393.301 119.779 394.292 121.749C396.463 126.066 406.323 138.92 404.726 141.615C399.933 141.43 388.556 120.342 390.382 117.395Z"/><path transform="scale(2 2)" d="M338.857 268.614C335.303 270.884 333.249 273.864 329.808 276.134C329.235 276.512 327.373 275.601 327.831 274.896C328.906 273.239 342.231 254.978 342.938 263.498C340.882 265.334 340.069 266.125 338.857 268.614Z"/><path transform="scale(2 2)" d="M331.825 324.15C333.542 324.812 346.976 333.59 344.825 337.538C342.262 336.47 326.914 327.48 331.825 324.15Z"/><path transform="scale(2 2)" d="M261.165 332.151C262.952 332.025 264.524 333.685 265.595 334.997C268.525 338.59 276.357 340.65 274.036 344.374C271.552 344.094 257.628 336.356 261.165 332.151Z"/><path transform="scale(2 2)" d="M342.938 263.498C344.298 261.931 348.118 256.334 350.286 257.816C350.803 260.562 340.264 272.544 338.524 272.502C336.935 271.243 337.794 269.864 338.857 268.614L342.938 263.498Z"/><path transform="scale(2 2)" d="M344.825 322.852C345.198 322.891 357.075 330.84 355.604 333.477C351.159 335.191 344.441 327.233 344.825 322.852Z"/><path transform="scale(2 2)" d="M199.803 305.131C201.683 305.196 210.223 312.116 209.158 315.991C205.714 315.611 197.957 309.258 199.803 305.131Z"/><path transform="scale(2 2)" d="M300.877 73.1653C302.575 73.2079 312.269 79.1003 311.263 82.0725C308.001 82.8072 299.335 77.2418 300.877 73.1653Z"/><path transform="scale(2 2)" d="M407.787 259.118C409.01 259.56 415.617 264.048 412.667 266.169C409.927 265.405 403.353 262.134 407.787 259.118Z"/><path transform="scale(2 2)" d="M371.748 306.08C374.059 306.427 378.482 312.736 376.588 315.025C373.841 314.059 369.511 308.968 371.748 306.08Z"/><path transform="scale(2 2)" d="M402.028 271.455C403.129 271.442 408.469 277.343 406.204 279.665C403.379 278.892 398.73 273.94 402.028 271.455Z"/><path transform="scale(2 2)" d="M311.263 70.7057C314.166 70.4682 318.032 74.6202 316.845 77.57C314.265 77.4968 309.845 73.6189 311.263 70.7057Z"/><path transform="scale(2 2)" d="M87.6043 441.698L88.8733 441.772C90.0854 442.424 94.3248 449.819 95.8661 451.461C97.5895 453.296 101.725 455.394 100.231 458.019C95.1233 459.826 86.8032 445.803 87.6043 441.698Z"/><path transform="scale(2 2)" d="M100.231 441.698C102.421 442.245 102.92 445.081 104.292 446.807C106.055 449.024 112.434 452.621 109.723 455.654C105.712 456.037 96.915 444.515 100.231 441.698Z"/><path transform="scale(2 2)" d="M108.298 437.626L109.657 437.7C110.27 438.083 120.645 449.021 118.81 451.804C114.751 451.445 106.541 441.024 108.298 437.626Z"/><path transform="scale(2 2)" d="M153.754 326.191C156.159 326.09 158.775 326.522 158.15 329.55C156.126 329.755 153.231 328.705 153.754 326.191Z"/></svg>