<?xml version="1.0" encoding="utf-8" ?><svg xmlns="http://www.w3.org/2000/svg" xmlns:xlink="http://www.w3.org/1999/xlink" width="1024" height="1024" viewBox="0 0 1024 1024"><path transform="scale(2 2)" d="M152.015 116.247C155.262 115.973 162.281 115.973 165.321 117.174C171.703 122.295 169.953 140.911 174.454 141.56C176.083 141.802 187.127 145.502 187.874 145.142C196.141 141.159 201.406 133.944 210.243 130.186C219.01 138.626 226.344 141.145 233.427 153.958C230.128 162.926 224.134 166.853 221.991 172.435C226.495 178.286 229.143 184.514 231.162 191.568C236.866 192.99 248.94 191.306 252.733 196.403C255.528 200.16 259.749 218.052 258.956 222.548C257.642 229.999 238.916 231.329 233.747 235.048C232.445 235.985 231.523 246.604 231.162 248.797C233.897 251.242 235.568 252.286 237.107 255.608C244.309 257.297 251.187 261.814 255.88 267.472C262.396 262.891 267.758 260.05 275.745 259.195C275.713 254.12 276.833 240.143 279.992 236.428C287.08 228.088 311.121 229.859 319.15 235.316C323.54 238.299 324.395 254.096 324.804 259.195C332.037 261.835 339.313 265.908 346.298 269.064C349.893 265.348 364.31 255.631 369.286 254.4C381.305 257.619 393.63 270.559 395.226 283.083C392.3 287.746 384.092 297.582 380.033 301.165C383.031 307.401 384.571 312.045 386.745 318.588C402.879 321.701 416.141 319.52 414.568 340.947C412.773 365.39 409.191 365.47 385.067 368.631C387.431 374.593 400.79 384.169 402.187 391.245C404.078 400.816 386.025 420.26 377.671 422.35C370.931 424.036 358.939 414.885 353.462 411.326C348.95 413.964 344.31 417.364 340.25 420.611C340.306 424.669 340.309 442.258 337.105 444.26C329.583 448.962 313.525 451.47 304.562 451.212C290.459 449.539 292.306 425.599 287.389 425C277.739 423.824 271.888 421.806 263.462 418.167C260.088 421.881 247.671 434.992 243.393 435.98C234.858 437.952 214.305 419.441 212.293 411.326C214.231 403.794 222.889 397.815 228.16 391.706L228.339 391.496C221.436 384.58 216.368 374.676 213.949 365.266C209.265 365.368 193.13 364.302 189.295 361.672C185.607 355.267 183.236 332.479 189.132 327.14C194.367 322.398 210.562 320.223 217.296 320.311C217.992 315.966 220.37 310.211 221.991 305.973C213.535 296.82 205.085 290.266 209.035 277.806C208.142 276.928 207.54 276.483 206.557 275.733C203.723 276.721 196.919 281.255 193.862 283.083C195.245 288.302 197.781 300.132 195.276 305.024C191.506 312.383 159.55 316.492 154.402 313.683C147.845 310.105 146.725 299.083 144.633 292.782L144.531 292.484C110.825 280.814 123.79 299.781 105.479 301.364C98.1185 302 79.2863 288.59 78.7838 280.475C78.4646 275.32 86.9602 264.315 90.4419 260.376C88.0218 253.982 84.6347 247.574 82.2055 240.874C77.3342 241.161 59.1907 241.505 56.7876 236.77C53.8266 230.937 52.1996 220.91 53.7448 214.353C55.3535 207.527 74.1688 203.95 81.1015 199.855C83.486 194.489 85.1274 188.163 86.3446 182.457C81.6185 176.311 75.2512 172.205 72.2404 164.383L72.3499 164.144C74.4618 159.461 90.3382 139.815 96.4391 141.35C103.509 143.127 108.928 148.207 116.137 150.477C119.208 149.289 125.968 145.845 128.513 143.94C126.306 121.315 131.272 119.055 152.015 116.247ZM236.121 260.376C227.26 263.704 214.397 275.025 212.293 284.463C215.572 293.47 223.825 297.99 227.22 304.92C226.582 307.996 224.858 311.588 223.824 314.653C218.986 328.987 224.34 323.039 210.367 325.465C204.773 326.429 197.87 327.208 192.967 330.178C188.328 332.987 191.838 354.533 193.177 359.058C195.102 358.997 217.375 360.642 217.645 361.055C218.533 362.415 218.714 366.754 219.779 368.487C222.408 374.81 225.157 380.316 229.617 385.556C239.904 397.644 223.704 397.211 217.296 411.326C219.952 417.582 234.832 429.209 241.279 431.705C249.999 426.572 256.215 416.623 263.462 412.19C273.835 420.155 283.417 417.481 293.022 421.95C293.612 426.17 299.594 445.287 303.502 446.181C312.511 446.424 325.548 444.384 333.397 440.271C335.965 432.612 333.099 416.846 338.052 415.091C344.218 412.907 348.229 408.308 353.462 404.949C361.2 409.519 365.482 414.304 374.991 418.167C383.826 414.757 394.166 401.962 397.564 393.306C394.172 384.721 385.38 378.971 380.033 372.346C380.391 369.564 380.956 366.675 382.286 364.168C388.349 363.079 402.52 361.686 406.183 356.692C409.229 352.54 411.834 330.721 405.882 327.955C400.182 325.305 388.928 324.379 382.286 323.614C381.629 314.273 376.886 308.499 374.219 300.067C374.128 299.777 380.667 293.244 381.261 292.437C384.238 288.83 387.015 285.033 390.098 281.524C385.774 268.297 378.608 265.686 368.48 259.195C363.434 262.566 350.442 272.661 346.298 274.781C340.79 272.271 324.421 265.052 319.753 261.797C319.773 254.544 319.006 246.475 316.439 239.628C309.387 236.015 301.512 234.852 293.658 235.881C274.984 235.867 283.054 260.464 280.523 262.621C277.633 264.779 268.217 265.21 262.25 269.048C261.456 269.559 256.525 273.585 256.172 273.461C250.456 271.46 246.604 263.792 236.121 260.376ZM174.551 307.986C194.186 305.971 192.44 301.693 189.295 285.49C186.556 285.262 182.513 283.585 185.568 280.774C186.848 280.281 188.78 280.615 189.248 280.349C192.734 278.361 198.329 274.758 201.454 272.398C194.553 271.654 205.464 261.616 207.34 263.033C207.805 265.404 204.247 269.799 202.624 271.497C208.361 270.274 208.846 269.998 212.293 274.781C214.298 271.431 215.086 270.884 217.912 268.108L217.588 268.058C211.388 267.049 223.023 259.189 224.64 259.302L225.003 259.757C224.636 261.583 223.21 263.475 221.991 264.888C226.005 261.129 228.916 259.469 233.427 256.484C230.881 253.443 225.608 250.824 226.461 246.991C227.404 242.756 227.199 235.945 228.906 232.19C235.357 227.234 247.21 226.471 253.795 222.409C253.208 216.685 251.209 205.063 248.834 199.855L248.53 199.679C243.354 196.741 229.603 198.09 227.757 195.492C225.128 191.791 223.672 184.623 220.772 179.742C218.936 176.653 215.353 172.946 217.538 169.233C219.357 166.143 225.868 158.268 228.339 155.182C223.341 147.091 216.671 140.953 209.035 135.386C204.681 137.47 198.085 143.067 194.664 146.524C189.205 152.041 186.244 149.948 179.598 147.921C175.473 146.663 170.028 146.415 167.912 142.141C162.793 131.801 171.201 118.949 152.947 120.902C146.641 121.65 139.454 123.03 133.499 125.306C133.617 129.382 134.53 145.457 131.63 147.641C110.947 163.221 111.272 150.259 95.2085 146.475C89.7455 149.238 81.4541 159.066 77.9312 164.383C88.307 181.827 95.8245 172.335 88.262 194.1C85.0951 203.215 85.689 204.014 76.8793 207.153C57.7429 214.084 54.6394 212.276 60.574 233.44C62.2214 229.75 69.3554 219.686 74.0586 219.587L74.4297 219.886C74.7316 222.862 64.9394 232.437 62.9341 235.074C69.6594 236.495 77.736 235.208 84.313 236.913C86.7357 237.541 94.7132 255.182 95.8581 259.195C93.6082 265.711 86.5559 271.529 83.6324 279.186C86.236 287.013 99.5674 297.814 107.233 295.835C109.163 295.337 111.365 293.455 112.865 292.202C124.296 282.204 118.364 280.292 134.814 284.564C139.324 285.735 145.567 286.759 149.384 289.512C150.3 295.675 152.268 306.525 158.408 309.64C162.968 309.51 165.574 309.674 169.878 307.986C172.386 305.78 175.792 298.257 179.407 298.032C181.901 299.765 175.884 306.238 174.551 307.986Z"/><path transform="scale(2 2)" d="M296.937 294.554C307.77 292.487 320.462 298.744 328.311 305.734C360.779 334.652 344.39 381.045 304.562 382.752C294.041 382.831 285.021 382.902 275.482 377.559C238.07 356.603 254.167 296.116 296.937 294.554ZM266.962 316.219C269.54 313.931 274.751 308.605 277.725 308.149L278.21 308.298C278.681 309.764 269.097 321.397 264.776 319.779C262.415 321.301 260.097 330.48 259.243 333.396L259.581 333.118C262.353 330.81 270.551 321.197 273.818 321.779C274.74 321.943 274.581 322.707 274.184 323.383C272.489 326.268 259.227 336.934 259.148 337.303C258.692 339.443 259.326 344.3 259.243 346.805C262.223 343.89 269.549 334.468 272.881 333.681C277.94 334.96 262.49 348.655 260.399 349.857C261.191 353.654 261.974 355.515 263.462 359.058C264.063 358.356 278.044 339.098 278.252 347.108C278.286 348.378 275.099 351.327 274.348 352.084C271.354 355.247 268.24 358.462 265.312 361.672C268.258 366.78 275.509 371.98 280.875 374.103C282.126 370.886 289.478 360.77 292.788 361.069C295.984 364.033 285.482 373.448 282.464 374.772C304.634 382.782 330.567 376.08 339.2 352.364C348.534 326.721 320.744 295.111 295.442 299.394C285.119 300.544 272.495 307.202 266.962 316.219Z"/><path transform="scale(2 2)" d="M282.464 354.446C289.118 354.93 274.847 366.775 273.445 367.784C266.369 370.455 278.825 356.543 282.464 354.446Z"/><path transform="scale(2 2)" d="M312.124 364.168C319.67 363.742 306.301 375.59 305.332 376.552C298.163 379.811 309.185 366.289 312.124 364.168Z"/><path transform="scale(2 2)" d="M323.329 361.672C330.07 361.775 318.554 373.613 316.916 374.772C310.56 374.926 321.927 362.786 323.329 361.672Z"/><path transform="scale(2 2)" d="M300.044 365.266C306.278 365.956 294.434 375.482 293.022 376.552C287.275 375.959 297.961 366.048 300.044 365.266Z"/><path transform="scale(2 2)" d="M152.947 180.317C198.82 176.672 206.78 242.566 156.081 250.835C147.823 250.85 139.911 250.528 133.096 245.48C104.414 224.232 118.285 185.817 152.947 180.317ZM153.601 246.03C198.946 242.257 192.555 183.733 155.528 184.624C112.561 187.132 113.237 246.782 153.601 246.03Z"/><path transform="scale(2 2)" d="M149.384 128.562C154.659 128.298 138.613 142.566 138.509 142.603C131.616 140.362 146.696 129.892 149.384 128.562Z"/><path transform="scale(2 2)" d="M111.928 280.09C118.122 281.144 102.544 292.522 100.784 293.868C93.9549 293.395 109.906 280.943 111.928 280.09Z"/><path transform="scale(2 2)" d="M168.91 292.484C174.463 293.152 160.729 307.309 159.818 307.986C158.944 307.637 158.452 307.553 157.921 306.786C157.511 304.547 166.92 293.806 168.91 292.484Z"/><path transform="scale(2 2)" d="M102.692 203.972C105.919 205.452 98.3331 210.08 97.4089 211.132C95.7544 213.015 94.3442 216.663 92.6461 217.701C86.2183 213.329 98.8874 205.394 102.692 203.972Z"/><path transform="scale(2 2)" d="M105.48 189.627C112.63 189.392 96.973 199.318 95.8581 199.855C88.5642 199.911 102.505 190.744 105.48 189.627Z"/><path transform="scale(2 2)" d="M156.081 134.515L156.859 134.574C159.6 136.78 149.429 146.374 147.427 147.732C141.172 147.152 154.743 135.371 156.081 134.515Z"/><path transform="scale(2 2)" d="M102.692 275.733C107.805 274.918 95.4028 288.449 94.393 289.512C88.3322 287.267 99.917 277.183 102.692 275.733Z"/><path transform="scale(2 2)" d="M100.784 220.193L101.218 220.325C102.274 222.09 92.6958 230.756 90.4419 232.19C84.6916 228.212 97.7839 221.452 100.784 220.193Z"/><path transform="scale(2 2)" d="M103.889 165.216C107.32 165.859 97.8011 177.747 95.8581 178.254C91.8914 174.667 100.82 166.686 103.889 165.216Z"/><path transform="scale(2 2)" d="M163.928 286.667C169.005 287.406 156.825 298.365 155.528 299.394C150.805 297.556 161.961 287.764 163.928 286.667Z"/><path transform="scale(2 2)" d="M92.6461 152.607L93.5142 152.693C95.6968 154.64 85.8212 163.723 84.682 164.383C78.7881 162.233 90.4035 153.738 92.6461 152.607Z"/><path transform="scale(2 2)" d="M98.0705 159.248C99.8524 160.277 93.0123 171.177 90.4419 171.635C85.7973 167.749 94.3904 161.028 98.0705 159.248Z"/><path transform="scale(2 2)" d="M210.243 153.958C216.304 153.949 206.209 164.103 204.933 165.216C199.265 162.63 207.711 155.591 210.243 153.958Z"/><path transform="scale(2 2)" d="M111.928 174.219C117.505 174.975 104.926 182.948 103.889 183.812C98.8184 179.739 108.538 175.382 111.928 174.219Z"/><path transform="scale(2 2)" d="M81.1015 222.409C83.9593 223.885 74.1674 233.611 72.2404 234.342C68.7646 231.009 77.8987 223.99 81.1015 222.409Z"/><path transform="scale(2 2)" d="M142.892 124.21C148.443 124.577 139.776 133.461 138.509 134.515C131.656 133.614 140.63 125.803 142.892 124.21Z"/><path transform="scale(2 2)" d="M100.784 233.44L101.547 233.698C103.528 236.244 96.3548 243.133 94.393 244.615C89.2217 242.2 98.3552 234.856 100.784 233.44Z"/><path transform="scale(2 2)" d="M104.639 246.03C109.499 247.473 98.758 255.327 97.1095 256.484C90.8599 255.556 103.153 246.866 104.639 246.03Z"/><path transform="scale(2 2)" d="M95.2085 271.033C96.2844 270.892 96.0387 270.753 96.7738 271.203L96.9028 271.844C96.405 273.249 90.5706 278.425 88.9544 280.09C82.5453 277.952 92.2168 271.866 95.2085 271.033Z"/><path transform="scale(2 2)" d="M121.308 261.797C126.607 262.144 117.987 270.328 116.137 271.033C111.008 269.83 119.245 262.687 121.308 261.797Z"/><path transform="scale(2 2)" d="M202.624 150.477C207.478 150.412 199.452 158.388 198.39 159.248C192.44 157.09 200.052 151.767 202.624 150.477Z"/><path transform="scale(2 2)" d="M244.289 213.507C249.887 214.796 244.831 221.691 242.403 223.681C237.426 225.23 243.603 214.975 244.289 213.507Z"/><path transform="scale(2 2)" d="M236.121 216.183C240.679 216.361 234.863 224.966 233.427 226.36C228.202 225.726 234.581 217.918 236.121 216.183Z"/><path transform="scale(2 2)" d="M67.6224 213.507L68.5096 213.733C70.0949 215.683 63.0729 221.612 61.4469 223.681C57.2084 220.78 65.1365 215.136 67.6224 213.507Z"/><path transform="scale(2 2)" d="M110.134 252.179C115.216 253.026 106.22 259.569 104.639 260.376C99.1855 260.202 109.089 252.908 110.134 252.179Z"/><path transform="scale(2 2)" d="M176.401 273.166C181.616 273.872 173.026 280.555 171.479 281.524C170.405 281.773 170.706 281.87 169.854 281.513L169.667 280.892C170.16 278.227 174.33 274.771 176.401 273.166Z"/><path transform="scale(2 2)" d="M113.394 258.168C119.004 258.976 110.778 264.743 109.128 265.696C103.525 265.712 112.041 258.975 113.394 258.168Z"/><path transform="scale(2 2)" d="M139.113 272.398C144.458 272.358 137.377 279.054 135.825 280.09C130.606 279.676 137.729 273.477 139.113 272.398Z"/><path transform="scale(2 2)" d="M129.367 269.064C134.702 269.091 128.601 275.24 126.763 276.38C121.189 277.019 127.936 270.2 129.367 269.064Z"/><path transform="scale(2 2)" d="M216.181 252.179C221.205 251.874 215.448 258.215 213.949 259.195C208.328 261.062 214.554 253.379 216.181 252.179Z"/><path transform="scale(2 2)" d="M151.1 275.733C155.056 275.392 150.938 282.233 149.384 283.083C144.826 281.327 148.507 277.039 151.1 275.733Z"/><path transform="scale(2 2)" d="M190.503 269.064C195.541 269.125 189.341 275.32 187.906 276.38C183.279 276.546 189.161 270.019 190.503 269.064Z"/><path transform="scale(2 2)" d="M122.149 161.711C122.347 161.726 122.605 161.846 122.81 161.922C124.354 165.239 120.112 166.537 117.64 167.528C112.561 165.822 120.487 162.309 122.149 161.711Z"/><path transform="scale(2 2)" d="M225.734 218.443C230.664 218.536 224.454 224.197 222.88 225.146C218.313 225.725 224.094 219.313 225.734 218.443Z"/><path transform="scale(2 2)" d="M163.04 275.733C166.723 277.2 161.566 281.938 159.818 283.083C156.018 282.711 161.382 276.433 163.04 275.733Z"/><path transform="scale(2 2)" d="M134.861 151.735C139.167 151.577 136.434 154.919 134.861 156.527C131.005 157.686 131.957 153.318 134.861 151.735Z"/><path transform="scale(2 2)" d="M357.927 61.2544C375.528 60.7342 372.241 67.275 377.219 82.3854C384.23 83.7554 386.365 84.1412 393.249 86.4306C395.417 83.2832 403.713 73.5586 406.789 72.5077C416.717 69.1154 430.799 86.5761 433.951 93.688C431.188 99.7602 427.47 103.855 424.672 109.208C427.911 112.857 431.753 120.769 433.951 125.306C437.266 125.597 440.475 125.868 443.874 126.047C450.332 126.388 455.396 124.203 457.493 131.962C459.569 139.638 462.118 149.52 458.54 157.125C455.658 162.855 442.905 161.359 435.635 163.7C434.384 166.319 433.75 170.163 432.265 173.482C435.713 179.552 446.914 190.957 443.721 195.936C440.581 200.831 434.196 211.88 428.494 213.507L427.125 213.319C421.519 212.587 413.403 207.121 408.57 203.972C405.714 205.617 402.057 208.619 399.75 210.953C397.565 233.867 407.092 232.82 380.033 240.874C377.383 240.945 370.553 242.259 368.887 240.873C363.811 236.647 358.867 225.205 357.426 219.205C352.603 218.166 348.336 217.294 343.468 216.183C336.399 219.702 333.108 227.134 324.804 229.089C318.963 227.434 310.404 219.392 307.686 214.014C305.525 209.738 311.85 196.175 313.561 191.568C307.664 189.031 302.218 187.418 296.007 186.129C290.129 184.908 283.802 186.118 281.09 179.903C278.627 174.259 275.913 164.18 277.677 158.17C278.76 154.481 291.311 150.472 294.808 149.081C295.574 139.963 298.257 136.264 300.044 128.562C296.323 124.997 286.081 115.236 284.664 110.68C283.455 106.792 296.18 89.8952 302.748 88.5039C308.461 89.6632 317.652 94.5541 322.824 97.4853C325.37 94.1325 329.933 91.1996 333.397 88.5039C335.071 64.511 329.397 65.6332 357.927 61.2544ZM339.326 70.1828C338.393 78.1793 339.343 83.5908 338.881 91.0012C336.091 93.4455 326.512 100.352 322.824 102.986C316.126 99.6038 308.851 94.6464 301.68 93.688C298.061 96.9886 291.153 104.895 289.474 109.208C294.153 115.012 302.38 121.57 306.26 126.878C302.761 133.548 301.134 139.814 299.73 147.165C298.128 155.557 289.554 157.052 281.612 159.248C281.699 163.164 282.034 166.578 283.824 170.157C285.457 168.084 287.386 164.533 289.834 164.093C293.93 165.394 285.929 172.766 284.684 174.219C287.225 182.339 291.911 180.047 300.844 181.697C308.625 167.667 309.439 176.857 303.502 182.457C308.743 184.023 320.38 185.563 317.613 193.004C316.225 196.738 311.423 208.297 312.055 211.706L312.378 212.053C314.901 211.864 320.418 201.867 324.02 201.09C329.23 202.738 315.698 213.656 314.569 214.675C317.879 219.317 322.569 222.055 327.291 225.146C329.328 221.203 338.076 211.562 341.402 210.785C346.625 210.56 352.077 213.138 357.413 213.347C360.532 213.47 364.439 212.448 366.86 214.675L366.766 214.932C365.333 218.746 363.233 217.668 362.425 218.809C363.408 222.995 369.041 232.779 371.959 236.212C373.299 237.789 380.325 235.857 382.286 235.074C383.285 232.997 383.65 231.654 385.524 230.386L386.132 230.336C387.405 231.506 386.968 232.738 386.745 234.342C389.486 233.438 392.622 232.026 395.226 230.748C395.143 223.665 394.752 217.036 393.825 210.021C393.749 209.449 407.197 198.112 408.57 197.35C414.361 201.734 422.518 206.758 429.558 208.52C432.724 203.523 435.9 198.013 439.63 193.414C436.571 189.833 428.722 178.609 427.104 174.219C428.605 170.128 430.109 162.345 432.265 159.248C438.246 155.636 448.276 156.933 453.975 155.182C457.155 148.022 454.013 137.366 450.698 130.724C447.614 130.673 432.625 131.408 431.202 129.975C430.171 128.938 419.949 111.95 419.29 109.959C420.849 105.545 426.189 98.8616 428.494 93.688C422.619 85.6729 418.087 80.3725 408.57 76.4726C386.971 96.2484 401.434 91.8146 375.252 87.227C366.968 85.7755 375.326 64.293 357.927 66.5033C350.975 67.1256 345.917 67.755 339.326 70.1828Z"/><path transform="scale(2 2)" d="M360.95 121.771C368.59 121.383 373.913 122.014 380.339 126.679C402.079 142.465 395.489 173.063 369.286 176.718C355.979 176.91 339.373 169.756 336.773 155.24C333.31 135.907 343.056 124.936 360.95 121.771ZM367.639 171.635C399.634 170.691 391.125 123.086 362.136 126.878C330.841 130.08 334.185 169.809 367.639 171.635Z"/><path transform="scale(2 2)" d="M331.871 206.908C332.439 206.822 332.209 206.831 332.807 207.055C334.591 209.824 325.766 217.706 323.329 219.205C318.546 219.206 328.745 208.281 331.871 206.908Z"/><path transform="scale(2 2)" d="M316.439 139.197C322.464 139.177 311.834 149.468 310.37 150.477C303.424 151.344 315.181 140.131 316.439 139.197Z"/><path transform="scale(2 2)" d="M319.753 126.878C325.177 127.853 315.355 136.654 313.561 137.567C307.233 136.746 318.163 128.128 319.753 126.878Z"/><path transform="scale(2 2)" d="M394.163 198.136C399.816 197.559 389.391 209.258 388.175 210.115C383.707 208.797 392.081 199.223 394.163 198.136Z"/><path transform="scale(2 2)" d="M310.37 105.466L310.985 105.598L311.276 106.107C311.287 108.941 303.548 115.96 300.844 117.174L300.359 117.171L300.029 116.811C299.892 113.929 307.943 106.902 310.37 105.466Z"/><path transform="scale(2 2)" d="M327.291 116.247C328.505 115.961 329.143 116.435 329.223 117.657C328.306 119.795 323.028 122.195 320.84 123.364C314.283 122.895 323.427 117.269 327.291 116.247Z"/><path transform="scale(2 2)" d="M298.005 167.528C303.268 167.399 294.714 177.223 293.022 178.254C288.656 176.983 296.349 168.526 298.005 167.528Z"/><path transform="scale(2 2)" d="M314.569 113.659C318.73 115.242 309.127 123.319 307.41 124.21C302.604 124.028 313.236 114.433 314.569 113.659Z"/><path transform="scale(2 2)" d="M373.7 217.701C378.725 217.69 370.475 226.225 369.286 227.226C362.994 227.5 371.769 218.846 373.7 217.701Z"/><path transform="scale(2 2)" d="M303.502 99.9798C307.524 99.5048 296.419 110.31 294.808 111.007C290.084 109.242 302.101 100.633 303.502 99.9798Z"/><path transform="scale(2 2)" d="M316.439 152.607C320.017 154.258 312.806 160.161 311.193 161.711C306.251 158.955 313.296 153.369 316.439 152.607Z"/><path transform="scale(2 2)" d="M323.329 173.482C329.151 173.654 324.155 180.903 321.925 182.457C317.146 182.602 321.489 174.883 323.329 173.482Z"/><path transform="scale(2 2)" d="M378.807 225.146C383.753 225.713 377.02 233.977 374.991 235.074C370.371 234.145 377.17 226.557 378.807 225.146Z"/><path transform="scale(2 2)" d="M340.25 189.627C345.751 189.645 340.795 196.509 338.881 198.136C332.857 199.824 338.609 191.233 340.25 189.627Z"/><path transform="scale(2 2)" d="M332.77 182.457C337.814 183.999 331.775 189.84 329.963 191.568L329.001 191.564C325.916 189.697 330.514 183.675 332.77 182.457Z"/><path transform="scale(2 2)" d="M318.503 163.7C322.986 165.333 318.465 170.704 316.439 172.435C311.229 171.637 316.148 165.274 318.503 163.7Z"/><path transform="scale(2 2)" d="M350.351 195.694C355.266 196.825 348.423 202.944 346.298 203.972C341.525 202.825 348.715 196.634 350.351 195.694Z"/><path transform="scale(2 2)" d="M380.033 201.662C383.958 202.896 378.955 208.899 376.411 210.115C371.665 209.265 378.236 202.705 380.033 201.662Z"/><path transform="scale(2 2)" d="M348.768 71.4431C352.755 72.4617 344.889 79.8316 343.468 80.8351C338.832 80.2275 347.423 72.2308 348.768 71.4431Z"/><path transform="scale(2 2)" d="M439.63 145.459C445.238 144.876 436.294 153.129 435.635 153.958C430.408 155.5 437.037 146.81 439.63 145.459Z"/><path transform="scale(2 2)" d="M352.403 79.6843C356.457 80.9236 348.531 87.5812 346.298 88.5039C343.385 85.6964 350.322 81.1023 352.403 79.6843Z"/><path transform="scale(2 2)" d="M419.29 186.196C424.092 186.53 418.121 192.905 416.836 194.305C411.791 194.074 417.575 187.455 419.29 186.196Z"/><path transform="scale(2 2)" d="M429.558 146.475C434.316 147.704 428.07 152.918 426.064 153.958C421.12 153.958 428.181 147.318 429.558 146.475Z"/><path transform="scale(2 2)" d="M357.426 199.855C362.041 201.899 358.066 205.769 355.552 207.433C350.25 208.964 356.214 201.04 357.426 199.855Z"/><path transform="scale(2 2)" d="M368.48 201.662C372.264 201.793 368.216 207.475 366.86 208.52C362.823 208.435 364.483 202.894 368.48 201.662Z"/><path transform="scale(2 2)" d="M330.925 109.208C335.654 108.216 335.135 111.873 330.925 112.799C325.576 112.819 325.446 109.673 330.925 109.208Z"/><path transform="scale(2 2)" d="M428.494 199.855C432.576 199.96 428.85 205.757 427.104 206.908C422.834 206.425 426.783 201.257 428.494 199.855Z"/><path transform="scale(2 2)" d="M423.299 193.414C427.303 194.185 423.458 198.254 422.015 199.855C417.426 199.84 421.555 194.738 423.299 193.414Z"/><path transform="scale(2 2)" d="M298.005 155.182C301.831 154.851 296.669 160.971 295.442 161.711C290.749 161.95 296.389 156.118 298.005 155.182Z"/><path transform="scale(2 2)" d="M350.351 88.5039C354.241 88.7145 350.912 92.9474 348.768 93.688C343.118 93.5517 348.31 89.7071 350.351 88.5039Z"/><path transform="scale(2 2)" d="M338.881 96.4612C342.946 96.5425 339.42 100.234 337.652 101.282C333.132 101.181 336.351 97.5559 338.881 96.4612Z"/><path transform="scale(2 2)" d="M403.466 93.688L403.829 93.897L403.94 94.3842C403.453 95.7066 400.752 100.19 399.75 101.282C396.196 97.7055 400.669 95.5494 403.466 93.688Z"/><path transform="scale(2 2)" d="M448.396 147.732C452.043 147.048 447.712 151.882 446.508 152.607C442.687 151.831 446.825 148.539 448.396 147.732Z"/><path transform="scale(2 2)" d="M408.57 95.14C411.783 96.0769 410.163 98.3244 408.57 99.9798C405.548 99.5132 406.849 96.5891 408.57 95.14Z"/><path transform="scale(2 2)" d="M209.035 112.799C222.707 112.077 241.668 122.992 249.224 134.202C251.908 138.183 253.373 142.605 255.744 146.605C261.408 148.447 253.003 132.476 253.568 130.472C255.476 123.7 263.387 138.925 260.399 148.238C256.312 156.48 239.317 146.81 244.254 143.209C246.832 142.965 247.875 145.38 250.701 145.887L250.988 145.623C248.009 132.37 221.294 116.66 208.236 117.174C202.475 122.979 199.159 115.534 209.035 112.799Z"/><path transform="scale(2 2)" d="M72.2404 302.207C77.9013 302.451 76.2586 314.743 85.1492 322.295C93.3507 329.261 104.826 330.114 115.145 328.762C117.403 328.466 119.473 331.373 116.713 333.396C94.0471 337.239 76.1072 328.594 71.0515 305.607C70.7559 304.263 71.4064 303.163 72.2404 302.207Z"/><path transform="scale(2 2)" d="M346.298 425.351C348.792 425.789 349.643 432.035 346.989 433.365C343.169 432.764 343.403 427.436 346.298 425.351Z"/><path transform="scale(2 2)" d="M403.466 293.868C408.51 293.481 403.247 298.987 401.941 300.178C397.312 300.941 401.615 294.991 403.466 293.868Z"/><path transform="scale(2 2)" d="M266.962 435.675L267.884 435.776C269.832 437.56 265.889 441.334 264.441 442.572C259.324 442.562 265.236 436.717 266.962 435.675Z"/><path transform="scale(2 2)" d="M277.252 436.676C280.568 437.337 277.295 442.288 275.745 443.439C274.434 443.189 274.085 442.439 273.445 441.376C274.434 438.6 274.68 438.061 277.252 436.676Z"/><path transform="scale(2 2)" d="M201.454 385.186C205.907 385.888 201.918 389.915 200.128 391.496C196.317 391.695 198.112 387.25 201.454 385.186Z"/><path transform="scale(2 2)" d="M352.403 423.675C354.796 424.005 356.478 428.283 353.462 430.032C350.618 429.717 349.371 425.524 352.403 423.675Z"/><path transform="scale(2 2)" d="M357.927 420.611C360.744 421.444 361.927 424.94 359.587 426.828C356.422 427.303 355.214 422.569 357.927 420.611Z"/><path transform="scale(2 2)" d="M194.88 368.631C198.989 369.078 194.653 373.079 193.177 374.103C187.997 373.962 191.805 369.885 194.88 368.631Z"/><path transform="scale(2 2)" d="M196.098 377.745C200.599 377.246 197.251 381.203 194.88 382.752C190.756 382.804 193.236 379.057 196.098 377.745Z"/><path transform="scale(2 2)" d="M255.88 434.182C259.626 434.662 256.087 438.917 254.759 440.271C250.972 438.757 253.486 435.561 255.88 434.182Z"/><path transform="scale(2 2)" d="M409.314 300.178C413.769 300.118 410.69 303.579 408.57 304.92C404.665 305.687 407.666 301.3 409.314 300.178Z"/></svg>