<?xml version="1.0" encoding="utf-8" ?><svg xmlns="http://www.w3.org/2000/svg" xmlns:xlink="http://www.w3.org/1999/xlink" width="1024" height="1024" viewBox="0 0 1024 1024"><path transform="scale(2 2)" d="M324.215 80.2867C329.432 79.5612 334.873 87.449 338.62 90.8951C352.55 92.1165 371.796 90.3383 386.028 89.6053C398.614 89.1235 413.624 87.0737 424.068 95.727C439.804 108.654 441.007 131.105 440.6 149.943C439.807 186.696 439.187 223.544 440.242 260.295L441.5 293.82C442.117 310.182 442.757 327.208 443.955 343.531L446.691 384.955C447.61 398.007 450.99 410.089 441.686 421.319C429.748 435.729 402.201 430.002 385.211 428.875L333.384 425.879C290.465 423.225 234.976 422.609 192.253 426.266C185.511 426.187 176.471 426.912 169.636 427.336L132.928 429.706C81.5951 433.102 80.5738 426.332 75.2237 382.246C66.5349 310.65 63.0547 239.557 64.0814 167.478L64.4675 147.837C64.6419 130.925 66.4464 110.017 86.4315 103.948C92.7239 102.438 99.8107 102.499 106.273 102.155C127.528 101.024 148.671 98.6099 169.868 96.8887C221.019 92.7354 270.806 95.782 321.283 92.6988C321.141 88.4877 320.035 82.5848 324.215 80.2867ZM344.647 97.2479C357.123 112.49 421.306 163.366 413.751 174.663C411.3 178.329 401.756 185.895 397.938 189.229C379.229 205.56 356.836 223.445 342.086 243.589C339.463 247.17 334.509 260.094 329.779 254.881C324.564 244.604 328.897 216.731 325.991 202.458L325.636 202.342C319.782 200.465 313.223 200.246 307.11 200.228C249.609 200.052 173.709 242.153 146.6 294.345C145.319 296.811 142.504 307.106 138.337 305.853C131.109 303.68 143.614 273.743 145.615 268.516C161.059 228.177 188.699 188.227 228.443 169.175C253.855 156.994 301.551 146.063 329.779 141.304C329.182 136.972 327.842 131.53 326.616 127.285C323.992 118.202 323.44 108.364 321.283 99.3211C295.987 100.919 271.338 101.062 245.999 100.539C237.733 100.368 227.037 101.34 219.03 100.736L218.581 100.815C216.269 101.206 213.939 101.253 211.598 101.33C172.395 102.621 133.478 107.722 94.324 109.417C70.8508 110.433 71.1178 135.339 71.1343 151.709L70.9897 178.592C71.1251 253.38 74.2203 328.316 84.3753 402.539C86.8942 420.949 98.4109 423.446 115.195 422.763C185.373 417.929 257.813 415.19 328.191 418.98L388.597 422.728C400.473 423.505 412.898 424.94 424.765 423.999C444.769 420.052 441.433 401.763 440.419 386.588C436.941 334.523 433.706 282.436 433.472 230.223L433.631 191.444C433.773 179.713 434.299 167.954 434.262 156.282C434.203 137.5 435.663 111.73 418.2 99.6533C411.348 94.9145 401.896 95.3865 393.885 95.4976C379.085 96.54 359.338 98.2587 344.647 97.2479ZM307.201 186.923C304.881 189.234 301.845 191.75 299.256 193.75L309.556 193.75C312.224 192.129 315.031 190.154 317.973 189.23C316.042 191.21 314.018 192.28 311.67 193.75C315.193 194.158 329.873 195.331 331.146 197.832C335.169 205.737 333.178 231.068 334.522 243.132C337.724 238.134 345.076 230.684 347.043 227.227C349.526 222.863 349.506 218.037 353.112 214.019C351.914 217.688 350.582 221.388 349.307 225.037C353.001 221.037 357.167 217.261 360.717 213.156C362.822 210.723 364.143 200.909 368.365 199.573L368.678 199.856C366.996 203.508 364.798 206.626 363.304 210.46C365.473 208.525 369.995 204.68 371.636 202.628C374.629 198.886 375.727 194.443 379.953 191.314C378.623 194.282 376.713 197.346 375.145 200.248C377.627 197.203 380.092 195.43 382.855 192.731C383.808 191.8 388.581 182.908 389.671 186.996C391.46 186.944 405.976 173.352 408.637 171.331C397.068 155.393 386.193 146.035 371.57 132.81C359.553 121.942 347.905 110.648 336.571 99.071C333.681 96.1182 330.379 91.5045 327.208 89.125C326.11 104.555 334.498 127.154 336.521 142.812C337.839 148.026 329.799 148.01 325.805 148.71C305.958 152.189 285.638 158.2 266.255 162.885C227.192 172.327 197.073 191.634 175.062 225.734C165.391 240.718 154.742 259.457 149.619 277.077C158.145 263.801 168.403 253.95 180.333 243.662C183.424 240.997 189.327 237.242 191.654 234.79C196.533 229.647 203.886 218.171 209.547 214.019C208.062 217.708 200.925 225.866 198.211 230.561C202.69 227.416 208.688 223.591 213.548 221.048C216.326 215.295 222.96 206.298 227.571 201.799C226.337 204.856 218.741 216.107 216.436 219.478C221.301 216.605 229.624 211.778 235.104 210.46C236.874 206.707 247.503 192.026 251.906 193.75C247.266 199.205 243.406 201.01 238.923 208.337C242.464 206.797 253.082 203.424 255.424 201.309C257.475 199.423 259.957 194.602 263.275 194.997L263.447 195.335C261.649 197.645 260.314 198.21 257.923 201.799C264.179 199.035 270.269 198.679 276.161 196.43C280.095 194.929 284.092 189.402 288.841 186.923C287.289 189.711 283.219 193.558 280.746 195.756C285.292 195.155 292.06 194.561 296.328 193.75L296.604 193.573C300.771 190.845 302.196 188.471 307.201 186.923Z"/><path transform="scale(2 2)" d="M95.7498 296.99C100.763 296.852 102.534 306.776 104.895 311.259C116.31 332.934 146.063 364.289 166.044 380.544C170.682 373.963 176.973 369.672 182.669 364.142C200.858 346.483 219.97 329.867 240.138 314.506C242.641 312.601 247.181 306.11 248.966 305.318C257.606 301.488 252.496 313.333 251.013 316.469C243.535 330.925 199.399 381.116 182.933 390.515C169.16 398.377 156.971 384.123 147.92 375.44C131.237 359.436 116.092 342.905 104.51 322.785C101.811 318.097 89.3153 300.244 95.7498 296.99ZM192.253 374.285C198.211 368.094 199.34 358.405 200.44 357.469C200.486 360.033 199.039 365.131 198.211 367.673C202.571 364.112 208.185 358.926 211.482 354.273C212.266 353.167 214.53 343.986 213.548 343.227L213.308 343.514C201.243 357.654 186.437 359.888 185.463 380.544C187.621 378.338 189.768 376.132 192.253 374.285ZM215.657 342.002C215.483 343.276 213.397 352.544 213.548 352.745C222.52 342.969 231.213 333.496 239.092 322.733L238.923 322.491C232.801 326.984 220.509 336.354 215.657 342.002ZM167.993 382.028C168.937 382.625 169.901 383.259 170.874 383.799C176.362 386.405 178.486 385.54 183.29 382.028C183.444 381.016 185.669 370.1 185.463 369.75C181.084 373.668 173.397 380.326 167.993 382.028Z"/><path transform="scale(2 2)" d="M408.637 345.21C418.257 347.099 416.287 394.049 409.725 394.141C392.749 394.379 377.709 393.659 360.844 397.644C358.051 397.534 356.557 394.158 358.608 392.075C362.589 388.033 399.722 387.809 407.439 387.829C408.202 374.975 409.991 365.162 406.544 352.06C405.701 348.856 404.953 346.719 408.637 345.21Z"/><path transform="scale(2 2)" d="M130.508 126.61C133.038 126.543 139.252 125.588 140.997 127.999C146.126 135.08 129.606 133.114 127.458 133.192C122.68 133.365 97.2865 135.729 94.7351 138C93.1386 139.422 95.4702 148.035 95.6384 150.265C95.9735 154.708 95.6512 159.235 95.7498 163.697C95.0332 164.7 94.7063 167.034 93.7585 168.088C91.7492 170.659 88.108 168.257 88.4472 165.287C89.4523 156.49 89.0322 148.701 88.0016 139.889C86.4988 127.04 121.836 126.856 130.508 126.61Z"/></svg>