<?xml version="1.0" encoding="utf-8" ?><svg xmlns="http://www.w3.org/2000/svg" xmlns:xlink="http://www.w3.org/1999/xlink" width="1024" height="1024" viewBox="0 0 1024 1024"><path transform="scale(2 2)" d="M266.92 96.3066C296.914 95.2158 323.16 100.884 323.207 136.345C323.21 138.688 322.53 142.633 322.898 144.501C325.439 146.397 324.864 139.047 325.388 137.725C327.609 132.12 358.399 130.513 362.028 132.229C365.354 133.802 367.759 137.411 368.951 140.763C382.197 138.773 401.556 140.7 414.743 143.263C459.665 151.992 458.785 203.553 458.752 239.75C458.728 275.206 458.28 330.318 451.087 365.253C445.865 390.611 426.876 388.361 411.096 398.047C410.605 399.597 410.171 401.326 409.748 402.875C405.596 418.093 385.537 421.421 377.186 405.733C372.672 406.477 367.406 406.503 362.795 406.638C334.439 407.467 306.167 406.88 277.834 408.836C270.943 409.312 263.05 409.924 256.188 409.877C252.83 410.397 248.297 410.539 244.875 410.733L227.065 411.795C187.764 414.482 157.241 415.88 118.196 411.552C69.1672 406.63 64.1543 381.882 61.0063 339.055L58.4082 304.285C55.6312 268.205 50.3959 233.499 53.8517 197.048C56.8777 165.131 80.5302 158.527 108.269 156.21C111.87 155.909 116.065 155.173 119.637 155.67C119.936 154.577 120.464 152.453 120.977 151.595C125.608 143.854 157.191 141.6 161.556 150.564C163.958 155.496 162.378 153.733 169.528 153.558C169.474 140.516 171.241 124.722 180.003 114.452C189.727 103.053 252.291 97.2117 266.92 96.3066ZM109.451 357.091C110.852 354.638 115.86 342.669 117.637 342.036C119.826 344.218 112.107 357.479 111.433 360.901C111.371 366.627 113.491 371.874 115.204 377.388C116.574 375.344 121.949 366.258 123.091 365.754C125.29 368.276 117.635 378.801 116.18 381.327C118.142 386.624 120.205 393.119 122.641 398.047C124.654 394.465 128.881 383.947 131.143 381.852L131.662 381.95C133.28 384.383 125.923 399.467 124.185 401.72C125.368 403.476 125.277 404.453 126.007 406.256C132.584 402.867 134.168 395.358 136.345 394.33C139.887 396.508 131.272 405.719 129.5 407.253C138.365 407.609 146.587 408.689 155.738 408.675C146.584 397.597 136.252 363.2 134.322 346.963C123.266 292.283 122.984 235.428 129.705 180.188C130.033 177.487 130.384 169.616 133.071 168.415C137.047 169.034 133.528 179.706 133.001 182.259C122.267 234.253 127.144 295.175 137.728 346.511C139.639 355.936 151.296 409.177 164.371 409.76C208.541 411.726 255.601 403.209 300.306 402.111C307.669 401.93 316.386 401.385 323.647 401.72C326.506 397.622 333.082 391.979 333.733 387.774C334.557 382.452 332.576 376.788 332.071 371.481C330.759 357.686 333.059 343.613 334.268 329.89L338.335 283.244C341.66 248.969 348.616 175.116 315.19 151.719L314.528 151.262C311.227 151.159 307.663 151.18 304.351 151.262C296.698 151.997 287.905 152.158 280.136 152.576L239.495 154.864C217.137 155.974 194.559 157.687 172.199 158.499L131.382 159.865C123.764 160.176 113.834 160.275 106.557 161.881C101.045 184.393 98.4609 211.583 98.2641 234.891L98.2511 259.58C98.2652 263.83 98.4515 268.295 98.25 272.507C100.547 269.588 106.363 257.237 109.115 256.756C111.515 259.473 101.643 273.375 99.4678 275.754L98.25 277.103C98.8176 279.533 99.3006 281.549 99.2657 284.06C101.694 280.652 108.351 269.265 111.507 267.65L111.91 267.716C113.531 271.004 102.007 284.957 99.8118 288.406C99.7283 292.929 100.35 294.309 100.653 298.228C102.073 295.799 106.848 288.592 109.247 287.841L109.587 288.063C109.862 291.167 103.105 299.002 100.653 301.17C101.405 311.448 103.217 326.946 105.837 336.861C107.816 333.881 111.838 327.215 114.54 325.535L115.04 325.537C116.185 328.205 108.035 338.679 105.837 340.865C107.285 344.782 108.079 352.349 109.451 357.091ZM318.338 150.564C359.572 184.074 340.108 283.13 338.301 329.32C337.802 342.078 335.665 354.42 336.481 367.381C337.843 389.039 339.392 386.456 327.123 401.72C341.308 401.888 361.683 402.394 375.605 400.426C374.48 391.622 379.48 388.554 385.48 382.94C393.274 375.648 402.896 367.315 413.563 365.018C414.627 359.851 414.262 354.422 414.395 349.211C415.564 303.461 415.9 266.619 410.333 221.482L408.339 203.929C408.001 201.188 407.651 197.675 407.025 195.054L406.626 194.8C390.404 184.596 380.615 184.473 375.12 161.098C374.606 158.913 374.098 156.61 374.85 154.456L375.225 154.141C377.198 154.824 379.402 165.821 380.614 168.561C385.507 179.471 396.036 185.866 407.025 189.492C405.348 181.679 404.664 163.411 396.55 159.977C385.206 155.177 367.095 149.567 354.827 149.503C358.996 152.666 360.659 157.208 362.707 161.891C379.191 199.596 375.663 249.91 374.743 290.498C374.074 319.985 373.381 371.06 354.827 395.171C356.225 391.129 357.909 387.129 359.415 383.113C371.1 351.958 372.021 320.187 372.421 287.201C372.932 245.146 375.963 198.317 358.59 158.898C353.448 147.429 350.89 148.583 340.808 148.516C332.822 149.046 326.291 149.504 318.338 150.564ZM368.951 146.748L369.262 146.905C380.901 152.699 401.777 150.193 406.475 166.068C410.224 178.737 409.872 192.133 411.35 205.155C414.199 230.252 417.775 254.739 418.569 280.064C419.076 296.219 417.063 312.271 418.622 328.343C422.555 321.881 433.499 307.949 439.827 304.456C435.518 312.916 424.986 321.856 420.506 331.299C416.618 339.492 417.759 344.505 417.505 353.337C417.189 364.332 417.067 370.536 414.498 381.327C413.147 383.979 410.223 389.619 408.527 391.829C425.869 387.468 442.409 382.099 446.552 362.351C451.396 339.259 452.015 306.794 452.856 282.744C453.129 274.939 453.731 267.699 453.386 259.815C452.777 245.911 454.083 231.43 453.186 217.198C449.445 157.836 433.289 143.59 374.672 146.748C372.449 147.164 371.176 146.95 368.951 146.748ZM304.351 128.975C305.644 127.53 307.441 125.447 309.499 125.327L309.89 125.575C309.671 127.624 306.089 129.564 304.351 130.384C304.567 131.263 305.06 133.692 305.508 134.306C308.424 134.887 308.8 135.537 305.777 136.851L306.358 140.763C308.182 139.346 309.698 137.917 311.945 137.36L312.402 137.557C312.463 139.372 307.823 142.426 306.358 143.504C306.352 144.09 306.348 144.654 306.358 145.241L316.165 145.241C321.248 107.514 294.202 99.8993 262.674 101.736C242.025 104.228 222.476 107.08 201.925 109.825C175.586 113.342 176.597 131.478 173.935 153.558C177.756 153.18 180.798 152.723 184.687 152.508C184.266 148.722 184.214 147.977 184.687 144.28C182.105 144.73 180.926 145.372 178.596 146.003C180.64 143.437 182.409 142.357 185.317 140.763C186.01 138.741 186.476 137.171 187.009 135.101C185.259 136.117 183.574 137.403 181.585 137.246L181.5 136.872C183.655 133.795 188.102 132.972 189.965 129.491C190.503 128.486 191.88 127.064 192.716 126.248C191.209 126.713 185.161 129.595 184.56 129.526C182.764 126.335 193.347 123.33 195.443 122.794C196.78 120.952 200.289 115.73 201.936 114.761L202.169 114.9C201.987 117.216 200.128 120.161 198.613 121.873C202.207 121.375 208.292 120.666 211.821 121.014C217.58 113.279 221.609 111.509 214.482 121.014C218.665 121.253 222.508 120.83 226.509 121.014C228.2 118.045 232.141 112.068 235.198 110.452L235.766 110.447C236.527 112.715 231.164 118.348 229.656 120.035C231.709 120.177 241.835 119.482 243.593 118.234C245.102 117.163 248.304 109.043 251.742 110.536C251.922 111.983 247.717 116.762 246.641 118.391C250.956 117.467 258.309 116.391 262.674 116.179C264.027 112.607 266.087 110.248 269.672 108.79C268.522 111.451 267.086 113.293 265.347 115.608C270.135 114.894 274.27 114.832 278.82 114.303C280.992 111.049 281.609 110.465 285.083 108.79C283.862 110.719 282.662 112.44 281.351 114.303C284.487 114.283 290.194 114.101 292.864 115.608C294.589 113.566 294.742 113.251 297.223 112.117C296.495 113.441 295.697 114.838 295.017 116.179C296.308 117.049 297.23 117.636 298.592 118.391C300.313 117.397 305.524 113.27 306.45 113.369C307.054 115.381 301.471 118.877 300.058 120.035C302.538 123.683 302.885 124.899 304.351 128.975ZM330.328 140.132C329.561 146.354 332.796 144.31 337.25 144.28C344.599 144.192 357.652 143.872 364.54 142.459C363.001 138.18 360.588 136.524 355.923 136.851L341.184 138.606C337.388 139.043 334.036 139.173 330.328 140.132ZM379.057 400.426C400.215 397.342 413.321 392.356 413.575 367.512C413.222 367.374 413.365 367.363 413.159 367.403C405.455 369.69 373.766 391.549 379.057 400.426ZM407.025 398.785C401.533 400.587 396.485 402.572 390.841 403.913C385.375 405.212 378.985 403.965 384.696 409.262C393.283 413.622 405.708 408.93 407.23 399.027L407.025 398.785ZM59.0659 191.188C74.8155 189.05 85.0027 178.536 90.6161 164.035L90.4931 163.836C80.8309 165.846 68.955 169.994 63.1693 178.654C62.1626 180.16 57.3582 190.331 59.0659 191.188ZM142.573 148.516C138.979 149.282 122.307 149.711 123.639 155.05C124.037 155.245 138.374 154.366 140.063 154.235C142.364 154.249 158.96 154.008 159.923 153.471C160.669 149.726 145.632 148.534 142.573 148.516ZM99.8118 402.111C93.4646 391.62 80.8848 376.871 70.313 370.419C73.7824 384.177 84.7248 400.232 99.8118 402.111ZM103.015 161.881C99.2715 162.326 97.3226 162.513 93.7535 163.836C91.4723 166.601 89.8717 170.761 88.2664 174.041C81.4398 187.986 72.7482 194.764 57.4983 195.054C58.2403 213.235 56.8208 231.547 58.5285 249.702C62.3726 286.816 63.6744 324.266 68.5883 361.238C68.821 362.989 69.2504 364.701 69.4172 366.465C79.2512 370.009 92.305 383.84 98.25 392.604C100.86 396.397 103.081 400.073 105.333 404.094C109.827 405.06 116.837 405.656 121.585 406.256C91.4385 348.24 91.8804 236.061 101.024 174.523C101.293 172.714 103.382 162.407 103.312 161.96L103.015 161.881ZM283.36 120.035C259.026 120.034 235.582 127.406 210.254 126.16C193.49 125.334 190.122 138.591 190.301 152.508C195.655 152.422 202.42 152.078 207.687 151.262C213.504 151.427 219.229 150.925 225.034 150.583L288.528 146.801C292.429 146.535 298.19 146.418 301.755 146.003C301.823 131.708 300.984 118.441 283.36 120.035Z"/><path transform="scale(2 2)" d="M285.083 183.75C308.006 178.229 325.509 205.656 304.745 221.924C291.808 231.872 280.338 231.981 267.681 247.408C262.221 254.064 259.635 258.354 251.119 261.42C244.424 261.753 238.679 260.951 233.511 256.407C225.28 249.169 234.506 244.23 232.392 237.22C231.115 232.988 225.584 230.166 225.65 224.679C225.874 206.031 266.934 183.98 285.083 183.75ZM252.338 257.108C264.21 252.215 269.979 235.221 286.518 228.179C332.065 208.785 305.268 181.739 285.083 187.248C269.523 185.911 232.76 207.083 228.664 223.223C227.636 227.272 234.118 231.69 235.219 235.247C238.432 242.398 230.412 247.691 235.517 253.547C239.132 257.694 247.399 258.537 252.338 257.108Z"/><path transform="scale(2 2)" d="M171.674 252.77C183.534 251.939 182.44 266.732 185.857 267.87C193.721 270.488 191.529 261.067 204.544 277.892C216.402 294.045 217.888 319.582 200.092 331.795C196.028 334.023 192.338 334.699 188.04 332.421C183.05 329.777 184.7 324.977 183.535 320.473C182.017 314.601 173.175 314.597 170.475 308.967C168.377 304.59 170.843 300.774 170.285 296.764C169.346 292.005 166.204 287.912 163.87 283.71C157.835 272.845 157.791 256.922 171.674 252.77ZM200.877 327.186C217.767 311.516 211.428 288.182 197.636 273.271C196.146 271.659 194.786 270.79 192.716 270.188C190.744 270.937 189.807 271.701 188.041 272.507C178.019 266.534 181.046 253.41 171.674 256.212C164.092 257.369 162.387 267.534 163.231 273.839C164.61 284.131 174.182 289.057 173.435 299.145C172.084 317.397 184.607 306.319 187.074 319.958C188.626 328.539 191.064 334.874 200.877 327.186Z"/><path transform="scale(2 2)" d="M260.792 333.018C263.828 332.39 266.742 336.636 269.772 337.161C277.612 338.522 282.957 331.935 292.932 338.63C305.947 346.649 295.315 355.959 284.616 359.743C273.295 363.747 269.624 364.537 262.674 374.592C246.928 396.251 225.114 370.905 232.455 350.879C234.535 345.205 238.985 338.407 245.736 338.325C258.394 338.053 251.495 337.372 260.792 333.018ZM261.629 370.419C264.389 366.972 266.448 364.116 270.37 361.782C276.968 357.856 296.163 354.444 295.613 346.187C295.108 338.615 280.55 339.021 275.317 340.077C265.283 342.102 266.015 335.713 260.792 335.721C250.243 342.206 258.947 341.746 244.685 342.383C231.699 342.952 229.296 374.938 247.21 379.189C253.972 380.793 258.348 375.228 261.629 370.419Z"/><path transform="scale(2 2)" d="M180.191 183.75C205.203 180.867 204.033 202.781 192.9 205.47C188.914 206.271 184.755 206.101 180.689 206.41C174.171 206.905 173.248 213.396 169.528 218.064C155.729 236.472 135.01 189.746 180.191 183.75ZM162.774 218.064C165.845 217.144 167.487 215.461 169.528 212.973C176.8 195.194 191.205 208.305 196.709 198.427C202.079 188.788 187.002 186.479 180.191 187.248C158.054 190.064 147.506 213.375 162.774 218.064Z"/><path transform="scale(2 2)" d="M113.728 204.417C117.91 204.646 113.733 209.583 112.385 210.727C108.244 211.851 112.123 205.541 113.728 204.417Z"/><path transform="scale(2 2)" d="M111.433 303.15C114.715 305.347 107.851 310.407 105.837 311.35C103.245 311.699 110.788 303.767 111.433 303.15Z"/><path transform="scale(2 2)" d="M109.451 237.167C112.238 237.987 106.769 243.674 105.837 244.938C101.567 244.602 108.085 237.988 109.451 237.167Z"/><path transform="scale(2 2)" d="M119.637 171.479C124.114 171.323 121.407 174.784 119.637 176.446C116.212 178.422 118.282 172.742 119.637 171.479Z"/><path transform="scale(2 2)" d="M346.591 314.135C348.921 314.327 353.533 322.378 355.848 324.114C357.354 325.243 362.01 327.727 361.73 329.319L360.865 329.834C355.317 329.285 342.19 317.761 346.591 314.135Z"/><path transform="scale(2 2)" d="M349.142 278.717C353.617 278.545 364.606 295.532 364.54 296.892C360.945 296.754 348.304 281.988 349.142 278.717Z"/><path transform="scale(2 2)" d="M343.879 351.342C345.038 351.502 355.118 365.527 355.367 366.639L354.827 367.403C350.51 367.014 340.538 355.196 343.879 351.342Z"/><path transform="scale(2 2)" d="M352.078 246.23C355.692 246.138 368.483 259.498 368.951 261.42C364.965 259.963 351.736 251.604 352.078 246.23Z"/><path transform="scale(2 2)" d="M343.879 202.874C348.103 202.866 355.427 215.282 354.827 217.243C352.454 215.818 341.307 205.517 343.879 202.874Z"/><path transform="scale(2 2)" d="M343.879 385.121C347.094 385.714 348.503 393.151 346.591 395.171C344.508 393.126 341.067 387.56 343.879 385.121Z"/><path transform="scale(2 2)" d="M340.808 160.616C342.85 161.223 349.257 163.568 346.591 166.475C343.545 167.049 338.614 164.231 340.808 160.616Z"/><path transform="scale(2 2)" d="M430.49 204.417C440.555 199.599 444.739 217.695 439.827 223.096C446.271 237.88 455.547 279.58 436.137 289.613C418.007 293.765 420.684 270.42 420.526 259.277C420.421 251.86 415.684 221.366 420.189 218.504C420.638 212.421 415.201 205.19 430.49 204.417ZM439.827 281.985C450.5 268.822 437.877 238.729 436.137 222.633C432.861 222.395 430.033 222.361 426.756 222.633C431.774 238.398 430.682 266.809 429.759 282.981C429.457 288.279 437.488 284.199 439.827 281.985ZM423.642 210.727C423.622 212.872 423.587 215.101 423.642 217.243L430.49 217.243L437.135 217.243C437.296 210.986 438.701 206.205 430.49 207.345C427.114 208.062 426.01 208.105 423.642 210.727ZM426.103 256.212C427.519 250.841 425.373 226.245 421.908 222.633C422.185 227.647 423.335 252.971 424.809 256.944L425.148 257.136C425.723 256.756 425.689 256.771 426.103 256.212ZM426.103 278.717C426.705 275.226 428.241 265.503 424.75 263.377C424.539 265.951 424.671 276.784 425.725 278.911L426.103 278.717Z"/><path transform="scale(2 2)" d="M444.983 324.164L445.184 324.31C445.236 325.5 439.793 332.487 438.636 334.129C430.686 345.422 422.941 357.243 418.622 370.419C415.003 366.812 426.323 348.496 428.506 344.314C432.157 337.322 438.041 328.215 444.983 324.164Z"/><path transform="scale(2 2)" d="M446.776 308.523C448.201 309.814 437.859 321.164 436.576 322.813C429.767 331.561 424.496 344.453 418.622 351.342C416.374 345.42 438.911 312.516 446.776 308.523Z"/><path transform="scale(2 2)" d="M444.983 341.704C446.091 342.642 442.097 348.228 441.286 349.268C434.214 358.343 427.738 367.474 423.642 378.325L423.525 378.349L423.26 378.141C422.928 369.976 438.237 345.251 444.983 341.704Z"/><path transform="scale(2 2)" d="M437.135 298.228L437.642 298.597C437.438 299.873 433.707 302.634 432.376 304.073C428.323 308.451 425.319 312.141 421.908 316.978L421.576 316.813C420.049 312.596 433.313 300.409 437.135 298.228Z"/></svg>